# Blender3D v244 OBJ File: ground_2.blend
# www.blender3d.org
mtllib ground_2.mtl
o Cube
v 1.000000 -1.000001 0.000000
v -1.000000 -1.000000 0.000000
v -0.999999 1.000000 0.000000
v 1.000000 1.000000 0.000000
v -0.000000 -1.000000 0.000000
v 1.000000 -0.000000 0.000000
v -1.000000 0.000000 0.000000
v 0.000000 1.000000 0.000000
v 0.500000 -1.000000 0.000000
v -0.500000 -1.000000 0.000000
v 1.000000 -0.500000 0.000000
v 1.000000 0.500000 0.000000
v -1.000000 -0.500000 0.000000
v -1.000000 0.500000 0.000000
v -0.499999 1.000000 0.000000
v 0.500000 1.000000 0.000000
v 0.000000 0.747830 0.000000
v 0.747830 -0.747830 0.000000
v -0.747829 0.747830 0.000000
v -0.000000 -0.747830 0.000000
v 0.747830 0.747830 0.000000
v 0.000000 -0.000000 0.168627
v 0.747830 -0.000000 0.000000
v -0.747830 -0.747830 0.000000
v -0.747830 0.000000 0.000000
v -0.011127 0.383915 0.138313
v 0.341322 0.027478 0.147704
v 0.006330 -0.348007 0.017744
v -0.400801 -0.022921 0.089119
v 0.710931 0.395535 0.005481
v 0.361974 0.715474 0.029246
v 0.739820 -0.380935 0.092477
v 0.353619 -0.762412 0.034584
v -0.403008 0.784320 0.116214
v -0.729065 0.402575 0.057640
v -0.753320 -0.384885 0.000070
v -0.378642 -0.733963 0.011968
v 0.370564 0.357535 0.145686
v 0.385574 -0.353233 0.177793
v -0.451792 0.526890 0.190335
v -0.296217 -0.369718 -0.028471
vt 0.265151 0.999376 0.0
vt 0.020201 1.000000 0.0
vt 0.015151 0.750624 0.0
vt 0.141192 0.873915 0.0
vt 1.000000 0.997506 0.0
vt 0.755050 0.998129 0.0
vt 0.873915 0.872050 0.0
vt 0.994950 0.748129 0.0
vt 0.126085 0.127951 0.0
vt 0.005050 0.251871 0.0
vt 0.000000 0.002495 0.0
vt 0.244950 0.001871 0.0
vt 0.984849 0.249376 0.0
vt 0.858808 0.126085 0.0
vt 0.734849 0.000624 0.0
vt 0.979799 0.000000 0.0
vt 0.313264 0.855997 0.0
vt 0.510100 0.998753 0.0
vt 0.265151 0.999376 0.0
vt 0.141192 0.873915 0.0
vt 0.313264 0.855997 0.0
vt 0.265151 0.999376 0.0
vt 0.313264 0.855997 0.0
vt 0.507553 0.872982 0.0
vt 0.510100 0.998753 0.0
vt 0.152379 0.686366 0.0
vt 0.015151 0.750624 0.0
vt 0.010100 0.501247 0.0
vt 0.133638 0.500933 0.0
vt 0.152379 0.686366 0.0
vt 0.010100 0.501247 0.0
vt 0.152379 0.686366 0.0
vt 0.141192 0.873915 0.0
vt 0.015151 0.750624 0.0
vt 0.313264 0.855997 0.0
vt 0.141192 0.873915 0.0
vt 0.152379 0.686366 0.0
vt 0.327196 0.694222 0.0
vt 0.507553 0.872982 0.0
vt 0.313264 0.855997 0.0
vt 0.327196 0.694222 0.0
vt 0.489102 0.675963 0.0
vt 0.327196 0.694222 0.0
vt 0.152379 0.686366 0.0
vt 0.133638 0.500933 0.0
vt 0.311664 0.495855 0.0
vt 0.489102 0.675963 0.0
vt 0.327196 0.694222 0.0
vt 0.311664 0.495855 0.0
vt 0.500000 0.500000 0.0
vt 0.693309 0.873555 0.0
vt 0.755050 0.998129 0.0
vt 0.510100 0.998753 0.0
vt 0.507553 0.872982 0.0
vt 0.693309 0.873555 0.0
vt 0.510100 0.998753 0.0
vt 0.693309 0.873555 0.0
vt 0.873915 0.872050 0.0
vt 0.755050 0.998129 0.0
vt 0.693309 0.873555 0.0
vt 0.507553 0.872982 0.0
vt 0.489102 0.675963 0.0
vt 0.675676 0.700028 0.0
vt 0.873915 0.872050 0.0
vt 0.693309 0.873555 0.0
vt 0.675676 0.700028 0.0
vt 0.876170 0.681257 0.0
vt 0.675676 0.700028 0.0
vt 0.489102 0.675963 0.0
vt 0.500000 0.500000 0.0
vt 0.671108 0.499145 0.0
vt 0.876170 0.681257 0.0
vt 0.675676 0.700028 0.0
vt 0.671108 0.499145 0.0
vt 0.866361 0.499067 0.0
vt 0.876170 0.681257 0.0
vt 0.989899 0.498753 0.0
vt 0.994950 0.748129 0.0
vt 0.873915 0.872050 0.0
vt 0.876170 0.681257 0.0
vt 0.994950 0.748129 0.0
vt 0.876170 0.681257 0.0
vt 0.866361 0.499067 0.0
vt 0.989899 0.498753 0.0
vt 0.110938 0.304827 0.0
vt 0.010100 0.501247 0.0
vt 0.005050 0.251871 0.0
vt 0.126085 0.127951 0.0
vt 0.110938 0.304827 0.0
vt 0.005050 0.251871 0.0
vt 0.110938 0.304827 0.0
vt 0.133638 0.500933 0.0
vt 0.010100 0.501247 0.0
vt 0.311664 0.495855 0.0
vt 0.133638 0.500933 0.0
vt 0.110938 0.304827 0.0
vt 0.295023 0.321081 0.0
vt 0.500000 0.500000 0.0
vt 0.311664 0.495855 0.0
vt 0.295023 0.321081 0.0
vt 0.506941 0.301612 0.0
vt 0.295023 0.321081 0.0
vt 0.110938 0.304827 0.0
vt 0.126085 0.127951 0.0
vt 0.295813 0.134315 0.0
vt 0.506941 0.301612 0.0
vt 0.295023 0.321081 0.0
vt 0.295813 0.134315 0.0
vt 0.492446 0.127018 0.0
vt 0.295813 0.134315 0.0
vt 0.244950 0.001871 0.0
vt 0.489899 0.001247 0.0
vt 0.492446 0.127018 0.0
vt 0.295813 0.134315 0.0
vt 0.489899 0.001247 0.0
vt 0.295813 0.134315 0.0
vt 0.126085 0.127951 0.0
vt 0.244950 0.001871 0.0
vt 0.671108 0.499145 0.0
vt 0.500000 0.500000 0.0
vt 0.506941 0.301612 0.0
vt 0.677005 0.308945 0.0
vt 0.866361 0.499067 0.0
vt 0.671108 0.499145 0.0
vt 0.677005 0.308945 0.0
vt 0.855430 0.312256 0.0
vt 0.677005 0.308945 0.0
vt 0.506941 0.301612 0.0
vt 0.492446 0.127018 0.0
vt 0.680944 0.123811 0.0
vt 0.855430 0.312256 0.0
vt 0.677005 0.308945 0.0
vt 0.680944 0.123811 0.0
vt 0.858808 0.126085 0.0
vt 0.855430 0.312256 0.0
vt 0.984849 0.249376 0.0
vt 0.989899 0.498753 0.0
vt 0.866361 0.499067 0.0
vt 0.855430 0.312256 0.0
vt 0.989899 0.498753 0.0
vt 0.855430 0.312256 0.0
vt 0.858808 0.126085 0.0
vt 0.984849 0.249376 0.0
vt 0.680944 0.123811 0.0
vt 0.489899 0.001247 0.0
vt 0.734849 0.000624 0.0
vt 0.858808 0.126085 0.0
vt 0.680944 0.123811 0.0
vt 0.734849 0.000624 0.0
vt 0.680944 0.123811 0.0
vt 0.492446 0.127018 0.0
vt 0.489899 0.001247 0.0
vn 0.010498 0.004669 0.999908
vn 0.000000 0.000000 1.000000
vn 0.031709 0.056368 0.997894
vn 0.103305 0.082430 0.991211
vn 0.189764 -0.114963 0.975066
vn 0.115085 -0.145848 0.982574
vn 0.042085 -0.076968 0.996124
vn -0.207190 0.168859 0.963591
vn -0.168340 0.273537 0.946989
vn -0.120762 0.074435 0.989868
vn -0.012757 -0.024720 0.999603
vn -0.004089 0.009827 0.999939
vn -0.000122 0.000000 1.000000
vn 0.182470 0.041383 0.982330
vn 0.104740 0.110569 0.988311
vn 0.157659 0.094211 0.982971
vn 0.031434 0.161351 0.986389
vn 0.104678 0.140385 0.984527
vn 0.102023 0.149358 0.983490
vn 0.137913 0.134129 0.981292
vn 0.098758 0.000641 0.995086
vn 0.066775 0.163732 0.984222
vn -0.093997 -0.160466 0.982543
vn 0.207373 0.015687 0.978118
vn 0.068300 -0.096072 0.993011
vn -0.039125 -0.163488 0.985748
vn -0.137944 -0.166143 0.976379
vn -0.125156 -0.054537 0.990631
vn -0.031648 -0.041200 0.998627
vn -0.005799 0.275643 0.961211
vn -0.115024 0.113498 0.986847
vn -0.140599 -0.198401 0.969970
vn -0.236854 0.005707 0.971526
vn -0.115146 -0.130772 0.984680
vn -0.068575 -0.068270 0.995300
vn -0.077334 -0.153356 0.985107
vn -0.006653 0.009583 0.999908
vn -0.027924 -0.057955 0.997925
usemtl Material_stone.jpg
s 1
f 12/1/1 4/2/2 16/3/3 21/4/4
s 1
f 1/5/2 11/6/5 18/7/6 9/8/7
s 1
f 19/9/8 15/10/9 3/11/2 14/12/10
s 1
f 10/13/11 24/14/12 13/15/13 2/16/2
s 1
f 30/17/14 6/18/15 12/19/1
s 1
f 21/20/4 30/21/14 12/22/1
s 1
f 30/23/14 23/24/16 6/25/15
s 1
f 31/26/17 16/27/3 8/28/18
s 1
f 17/29/19 31/30/17 8/31/18
s 1
f 31/32/17 21/33/4 16/34/3
s 1
f 30/35/14 21/36/4 31/37/17 38/38/20
s 1
f 23/39/16 30/40/14 38/41/20 27/42/21
s 1
f 38/43/20 31/44/17 17/45/19 26/46/22
s 1
f 27/47/21 38/48/20 26/49/22 22/50/23
s 1
f 32/51/24 11/52/5 6/53/15
s 1
f 23/54/16 32/55/24 6/56/15
s 1
f 32/57/24 18/58/6 11/59/5
s 1
f 32/60/24 23/61/16 27/62/21 39/63/25
s 1
f 18/64/6 32/65/24 39/66/25 33/67/26
s 1
f 39/68/25 27/69/21 22/70/23 28/71/27
s 1
f 33/72/26 39/73/25 28/74/27 20/75/28
s 1
f 33/76/26 5/77/29 9/78/7
s 1
f 18/79/6 33/80/26 9/81/7
s 1
f 33/82/26 20/83/28 5/84/29
s 1
f 34/85/30 8/86/18 15/87/9
s 1
f 19/88/8 34/89/30 15/90/9
s 1
f 34/91/30 17/92/19 8/93/18
s 1
f 26/94/22 17/95/19 34/96/30 40/97/31
s 1
f 22/98/23 26/99/22 40/100/31 29/101/32
s 1
f 40/102/31 34/103/30 19/104/8 35/105/33
s 1
f 29/106/32 40/107/31 35/108/33 25/109/34
s 1
f 35/110/33 14/111/10 7/112/35
s 1
f 25/113/34 35/114/33 7/115/35
s 1
f 35/116/33 19/117/8 14/118/10
s 1
f 28/119/27 22/120/23 29/121/32 41/122/36
s 1
f 20/123/28 28/124/27 41/125/36 37/126/37
s 1
f 41/127/36 29/128/32 25/129/34 36/130/38
s 1
f 37/131/37 41/132/36 36/133/38 24/134/12
s 1
f 37/135/37 10/136/11 5/137/29
s 1
f 20/138/28 37/139/37 5/140/29
s 1
f 37/141/37 24/142/12 10/143/11
s 1
f 36/144/38 7/145/35 13/146/13
s 1
f 24/147/12 36/148/38 13/149/13
s 1
f 36/150/38 25/151/34 7/152/35
