# Blender3D v244 OBJ File: ground_steep_2.blend
# www.blender3d.org
mtllib ground_steep_2.mtl
v 1.000000 -1.000001 0.000000
v -1.000000 -1.000000 0.000000
v -0.999999 1.000000 0.000000
v 1.000000 1.000000 0.000000
v -0.000000 -1.000000 0.000000
v 1.000000 -0.000000 0.000000
v -1.000000 0.000000 0.000000
v 0.000000 1.000000 0.000000
v 0.500000 -1.000000 0.000000
v -0.500000 -1.000000 0.000000
v 1.000000 -0.500000 0.000000
v 1.000000 0.500000 0.000000
v -1.000000 -0.500000 0.000000
v -1.000000 0.500000 0.000000
v -0.499999 1.000000 0.000000
v 0.500000 1.000000 0.000000
v 0.000000 0.747830 0.000000
v 0.844705 -0.747830 0.092962
v -0.747829 0.747830 0.000000
v -0.000000 -0.747830 0.000000
v 0.844706 0.747830 0.092962
v 0.000000 -0.000000 0.308192
v 0.844705 -0.000000 0.092962
v -0.747830 -0.747830 0.000000
v -0.747830 0.000000 0.000000
v -0.011127 0.383915 0.138313
v 0.341322 0.027478 0.147704
v 0.006330 -0.348007 0.017744
v -0.400801 -0.022921 0.089119
v 0.807806 0.395535 0.098443
v 0.361974 0.715474 0.029246
v 0.836696 -0.380935 0.185439
v 0.353619 -0.762412 0.034584
v -0.403008 0.784320 0.149715
v -0.729065 0.402575 0.057640
v -0.753320 -0.384885 0.000070
v -0.378642 -0.733963 0.011968
v 0.370564 0.357535 0.145686
v 0.385574 -0.353233 0.197938
v -0.371541 0.526890 0.210481
v -0.296217 -0.369718 -0.028471
vt 0.265151 0.999376 0.0
vt 0.020201 1.000000 0.0
vt 0.015151 0.750624 0.0
vt 0.141192 0.873915 0.0
vt 1.000000 0.997506 0.0
vt 0.755050 0.998129 0.0
vt 0.873915 0.872050 0.0
vt 0.994950 0.748129 0.0
vt 0.126085 0.127951 0.0
vt 0.005050 0.251871 0.0
vt 0.000000 0.002495 0.0
vt 0.244950 0.001871 0.0
vt 0.984849 0.249376 0.0
vt 0.858808 0.126085 0.0
vt 0.734849 0.000624 0.0
vt 0.979799 0.000000 0.0
vt 0.313264 0.855997 0.0
vt 0.510100 0.998753 0.0
vt 0.265151 0.999376 0.0
vt 0.141192 0.873915 0.0
vt 0.313264 0.855997 0.0
vt 0.265151 0.999376 0.0
vt 0.313264 0.855997 0.0
vt 0.507553 0.872982 0.0
vt 0.510100 0.998753 0.0
vt 0.152379 0.686366 0.0
vt 0.015151 0.750624 0.0
vt 0.010100 0.501247 0.0
vt 0.133638 0.500933 0.0
vt 0.152379 0.686366 0.0
vt 0.010100 0.501247 0.0
vt 0.152379 0.686366 0.0
vt 0.141192 0.873915 0.0
vt 0.015151 0.750624 0.0
vt 0.313264 0.855997 0.0
vt 0.141192 0.873915 0.0
vt 0.152379 0.686366 0.0
vt 0.327196 0.694222 0.0
vt 0.507553 0.872982 0.0
vt 0.313264 0.855997 0.0
vt 0.327196 0.694222 0.0
vt 0.489102 0.675963 0.0
vt 0.327196 0.694222 0.0
vt 0.152379 0.686366 0.0
vt 0.133638 0.500933 0.0
vt 0.311664 0.495855 0.0
vt 0.489102 0.675963 0.0
vt 0.327196 0.694222 0.0
vt 0.311664 0.495855 0.0
vt 0.500000 0.500000 0.0
vt 0.693309 0.873555 0.0
vt 0.755050 0.998129 0.0
vt 0.510100 0.998753 0.0
vt 0.507553 0.872982 0.0
vt 0.693309 0.873555 0.0
vt 0.510100 0.998753 0.0
vt 0.693309 0.873555 0.0
vt 0.873915 0.872050 0.0
vt 0.755050 0.998129 0.0
vt 0.693309 0.873555 0.0
vt 0.507553 0.872982 0.0
vt 0.489102 0.675963 0.0
vt 0.675676 0.700028 0.0
vt 0.873915 0.872050 0.0
vt 0.693309 0.873555 0.0
vt 0.675676 0.700028 0.0
vt 0.876170 0.681257 0.0
vt 0.675676 0.700028 0.0
vt 0.489102 0.675963 0.0
vt 0.500000 0.500000 0.0
vt 0.671108 0.499145 0.0
vt 0.876170 0.681257 0.0
vt 0.675676 0.700028 0.0
vt 0.671108 0.499145 0.0
vt 0.866361 0.499067 0.0
vt 0.876170 0.681257 0.0
vt 0.989899 0.498753 0.0
vt 0.994950 0.748129 0.0
vt 0.873915 0.872050 0.0
vt 0.876170 0.681257 0.0
vt 0.994950 0.748129 0.0
vt 0.876170 0.681257 0.0
vt 0.866361 0.499067 0.0
vt 0.989899 0.498753 0.0
vt 0.110938 0.304827 0.0
vt 0.010100 0.501247 0.0
vt 0.005050 0.251871 0.0
vt 0.126085 0.127951 0.0
vt 0.110938 0.304827 0.0
vt 0.005050 0.251871 0.0
vt 0.110938 0.304827 0.0
vt 0.133638 0.500933 0.0
vt 0.010100 0.501247 0.0
vt 0.311664 0.495855 0.0
vt 0.133638 0.500933 0.0
vt 0.110938 0.304827 0.0
vt 0.295023 0.321081 0.0
vt 0.500000 0.500000 0.0
vt 0.311664 0.495855 0.0
vt 0.295023 0.321081 0.0
vt 0.506941 0.301612 0.0
vt 0.295023 0.321081 0.0
vt 0.110938 0.304827 0.0
vt 0.126085 0.127951 0.0
vt 0.295813 0.134315 0.0
vt 0.506941 0.301612 0.0
vt 0.295023 0.321081 0.0
vt 0.295813 0.134315 0.0
vt 0.492446 0.127018 0.0
vt 0.295813 0.134315 0.0
vt 0.244950 0.001871 0.0
vt 0.489899 0.001247 0.0
vt 0.492446 0.127018 0.0
vt 0.295813 0.134315 0.0
vt 0.489899 0.001247 0.0
vt 0.295813 0.134315 0.0
vt 0.126085 0.127951 0.0
vt 0.244950 0.001871 0.0
vt 0.671108 0.499145 0.0
vt 0.500000 0.500000 0.0
vt 0.506941 0.301612 0.0
vt 0.677005 0.308945 0.0
vt 0.866361 0.499067 0.0
vt 0.671108 0.499145 0.0
vt 0.677005 0.308945 0.0
vt 0.855430 0.312256 0.0
vt 0.677005 0.308945 0.0
vt 0.506941 0.301612 0.0
vt 0.492446 0.127018 0.0
vt 0.680944 0.123811 0.0
vt 0.855430 0.312256 0.0
vt 0.677005 0.308945 0.0
vt 0.680944 0.123811 0.0
vt 0.858808 0.126085 0.0
vt 0.855430 0.312256 0.0
vt 0.984849 0.249376 0.0
vt 0.989899 0.498753 0.0
vt 0.866361 0.499067 0.0
vt 0.855430 0.312256 0.0
vt 0.989899 0.498753 0.0
vt 0.855430 0.312256 0.0
vt 0.858808 0.126085 0.0
vt 0.984849 0.249376 0.0
vt 0.680944 0.123811 0.0
vt 0.489899 0.001247 0.0
vt 0.734849 0.000624 0.0
vt 0.858808 0.126085 0.0
vt 0.680944 0.123811 0.0
vt 0.734849 0.000624 0.0
vt 0.680944 0.123811 0.0
vt 0.492446 0.127018 0.0
vt 0.489899 0.001247 0.0
vn 0.360668 0.082705 0.928983
vn 0.217109 0.217109 0.951689
vn 0.009339 0.177374 0.984069
vn 0.188116 0.118198 0.974975
vn 0.217109 -0.217109 0.951689
vn 0.538987 -0.168004 0.825343
vn 0.302683 -0.236000 0.923399
vn 0.026826 -0.204230 0.978545
vn -0.246376 0.187353 0.950865
vn -0.206885 0.333445 0.919767
vn 0.000000 0.000000 1.000000
vn -0.120762 0.074435 0.989868
vn -0.012757 -0.024720 0.999603
vn -0.004089 0.009827 0.999939
vn -0.000122 0.000000 1.000000
vn 0.249458 0.049654 0.967101
vn 0.587207 0.090487 0.804346
vn 0.303812 0.107212 0.946654
vn -0.052370 0.162114 0.985351
vn 0.143834 0.173772 0.974212
vn 0.142949 0.154332 0.977599
vn 0.074618 0.179388 0.980926
vn 0.085299 -0.009125 0.996307
vn 0.080477 0.219672 0.972228
vn -0.071169 -0.139714 0.987610
vn 0.355571 -0.055910 0.932951
vn -0.040223 -0.133488 0.990204
vn -0.126774 -0.168310 0.977538
vn -0.161870 -0.258766 0.952269
vn -0.137547 -0.064211 0.988403
vn -0.031648 -0.041200 0.998627
vn -0.003540 0.304880 0.952361
vn -0.093448 0.141758 0.985473
vn -0.215217 -0.232917 0.948363
vn -0.229987 -0.010315 0.973113
vn -0.112186 -0.128605 0.985321
vn -0.068575 -0.068270 0.995300
vn -0.140873 -0.237251 0.961150
vn -0.006653 0.009583 0.999908
vn -0.027924 -0.057955 0.997925
usemtl Material_stone.jpg
s 1
f 12/1/1 4/2/2 16/3/3 21/4/4
s 1
f 1/5/5 11/6/6 18/7/7 9/8/8
s 1
f 19/9/9 15/10/10 3/11/11 14/12/12
s 1
f 10/13/13 24/14/14 13/15/15 2/16/11
s 1
f 30/17/16 6/18/17 12/19/1
s 1
f 21/20/4 30/21/16 12/22/1
s 1
f 30/23/16 23/24/18 6/25/17
s 1
f 31/26/19 16/27/3 8/28/20
s 1
f 17/29/21 31/30/19 8/31/20
s 1
f 31/32/19 21/33/4 16/34/3
s 1
f 30/35/16 21/36/4 31/37/19 38/38/22
s 1
f 23/39/18 30/40/16 38/41/22 27/42/23
s 1
f 38/43/22 31/44/19 17/45/21 26/46/24
s 1
f 27/47/23 38/48/22 26/49/24 22/50/25
s 1
f 32/51/26 11/52/6 6/53/17
s 1
f 23/54/18 32/55/26 6/56/17
s 1
f 32/57/26 18/58/7 11/59/6
s 1
f 32/60/26 23/61/18 27/62/23 39/63/27
s 1
f 18/64/7 32/65/26 39/66/27 33/67/28
s 1
f 39/68/27 27/69/23 22/70/25 28/71/29
s 1
f 33/72/28 39/73/27 28/74/29 20/75/30
s 1
f 33/76/28 5/77/31 9/78/8
s 1
f 18/79/7 33/80/28 9/81/8
s 1
f 33/82/28 20/83/30 5/84/31
s 1
f 34/85/32 8/86/20 15/87/10
s 1
f 19/88/9 34/89/32 15/90/10
s 1
f 34/91/32 17/92/21 8/93/20
s 1
f 26/94/24 17/95/21 34/96/32 40/97/33
s 1
f 22/98/25 26/99/24 40/100/33 29/101/34
s 1
f 40/102/33 34/103/32 19/104/9 35/105/35
s 1
f 29/106/34 40/107/33 35/108/35 25/109/36
s 1
f 35/110/35 14/111/12 7/112/37
s 1
f 25/113/36 35/114/35 7/115/37
s 1
f 35/116/35 19/117/9 14/118/12
s 1
f 28/119/29 22/120/25 29/121/34 41/122/38
s 1
f 20/123/30 28/124/29 41/125/38 37/126/39
s 1
f 41/127/38 29/128/34 25/129/36 36/130/40
s 1
f 37/131/39 41/132/38 36/133/40 24/134/14
s 1
f 37/135/39 10/136/13 5/137/31
s 1
f 20/138/30 37/139/39 5/140/31
s 1
f 37/141/39 24/142/14 10/143/13
s 1
f 36/144/40 7/145/37 13/146/15
s 1
f 24/147/14 36/148/40 13/149/15
s 1
f 36/150/40 25/151/36 7/152/37
