# Blender3D v244 OBJ File: wall_cave.blend
# www.blender3d.org
mtllib wall_cave.mtl
o Cube
v 0.985655 1.000000 -0.124976
v 0.985655 -1.000000 -0.124976
v -0.985655 -1.000000 -0.124976
v -0.985655 1.000000 -0.124976
v 0.985656 1.000000 0.124976
v 0.985655 -1.000001 0.124976
v -0.985656 -1.000000 0.124976
v -0.985655 1.000000 0.124976
v 1.025306 0.654672 0.039089
v 0.966921 0.231011 0.211730
v 0.973083 -0.174458 0.205138
v 1.034219 -0.569589 0.127538
v 0.679156 0.921722 0.088844
v 0.188854 0.968048 0.221048
v -0.269966 1.048394 0.137710
v -0.620342 0.935081 0.014389
v 0.541509 -0.948685 0.218907
v 0.218787 -1.070475 0.037552
v -0.257561 -1.007615 0.100181
v -0.547029 -1.027806 0.034940
v -0.955169 -0.599865 0.100573
v -0.907253 -0.168900 0.041771
v -0.964080 0.254880 0.074394
v -1.016694 0.631891 0.060014
v 0.531069 0.657121 0.155976
v 0.123417 0.667362 0.013023
v -0.272997 0.571745 -0.029398
v -0.648567 0.617727 0.000690
v 0.498279 0.238176 0.211339
v 0.264377 0.134610 0.052997
v -0.238600 0.147224 0.109387
v -0.527642 0.254316 0.208269
v 0.562160 -0.240182 0.170553
v 0.133586 -0.205392 0.116069
v -0.090060 -0.070203 0.200609
v -0.597299 -0.128032 0.181357
v 0.558997 -0.605139 0.119386
v 0.174687 -0.608864 0.136743
v -0.187913 -0.664224 0.221209
v -0.583522 -0.687360 0.155155
vt 0.000000 0.000000 0.0
vt 0.000000 -1.000000 0.0
vt -1.000000 -1.000000 0.0
vt -1.000000 0.000000 0.0
vt -0.814685 0.967541 0.0
vt -1.000000 1.000000 0.0
vt -1.015745 0.815946 0.0
vt -0.829003 0.808864 0.0
vt -0.636948 1.024197 0.0
vt -0.814685 0.967541 0.0
vt -0.829003 0.808864 0.0
vt -0.638485 0.785872 0.0
vt -0.404199 0.984024 0.0
vt -0.636948 1.024197 0.0
vt -0.638485 0.785872 0.0
vt -0.437393 0.833681 0.0
vt -0.155480 0.960861 0.0
vt -0.404199 0.984024 0.0
vt -0.437393 0.833681 0.0
vt -0.230601 0.828561 0.0
vt 0.000000 1.000000 0.0
vt -0.155480 0.960861 0.0
vt -0.230601 0.828561 0.0
vt 0.020114 0.827336 0.0
vt -0.829003 0.808864 0.0
vt -1.015745 0.815946 0.0
vt -0.989055 0.627440 0.0
vt -0.767660 0.627158 0.0
vt -0.638485 0.785872 0.0
vt -0.829003 0.808864 0.0
vt -0.767660 0.627158 0.0
vt -0.621036 0.573612 0.0
vt -0.437393 0.833681 0.0
vt -0.638485 0.785872 0.0
vt -0.621036 0.573612 0.0
vt -0.365888 0.567305 0.0
vt -0.230601 0.828561 0.0
vt -0.437393 0.833681 0.0
vt -0.365888 0.567305 0.0
vt -0.247235 0.619088 0.0
vt 0.020114 0.827336 0.0
vt -0.230601 0.828561 0.0
vt -0.247235 0.619088 0.0
vt -0.009503 0.615505 0.0
vt -0.767660 0.627158 0.0
vt -0.989055 0.627440 0.0
vt -0.960229 0.415550 0.0
vt -0.802996 0.435984 0.0
vt -0.621036 0.573612 0.0
vt -0.767660 0.627158 0.0
vt -0.802996 0.435984 0.0
vt -0.545686 0.464898 0.0
vt -0.365888 0.567305 0.0
vt -0.621036 0.573612 0.0
vt -0.545686 0.464898 0.0
vt -0.432235 0.397304 0.0
vt -0.247235 0.619088 0.0
vt -0.365888 0.567305 0.0
vt -0.432235 0.397304 0.0
vt -0.214830 0.379909 0.0
vt -0.009503 0.615505 0.0
vt -0.247235 0.619088 0.0
vt -0.214830 0.379909 0.0
vt -0.006377 0.412771 0.0
vt -0.802996 0.435984 0.0
vt -0.960229 0.415550 0.0
vt -0.984535 0.200068 0.0
vt -0.796007 0.156320 0.0
vt -0.545686 0.464898 0.0
vt -0.802996 0.435984 0.0
vt -0.796007 0.156320 0.0
vt -0.595324 0.167888 0.0
vt -0.432235 0.397304 0.0
vt -0.545686 0.464898 0.0
vt -0.595324 0.167888 0.0
vt -0.411385 0.195568 0.0
vt -0.214830 0.379909 0.0
vt -0.432235 0.397304 0.0
vt -0.411385 0.195568 0.0
vt -0.216434 0.197430 0.0
vt -0.006377 0.412771 0.0
vt -0.214830 0.379909 0.0
vt -0.216434 0.197430 0.0
vt 0.024635 0.215205 0.0
vt -0.796007 0.156320 0.0
vt -0.984535 0.200068 0.0
vt -1.000000 0.000000 0.0
vt -0.777495 -0.013903 0.0
vt -0.595324 0.167888 0.0
vt -0.796007 0.156320 0.0
vt -0.777495 -0.013903 0.0
vt -0.630655 -0.003808 0.0
vt -0.411385 0.195568 0.0
vt -0.595324 0.167888 0.0
vt -0.630655 -0.003808 0.0
vt -0.389015 -0.035237 0.0
vt -0.216434 0.197430 0.0
vt -0.411385 0.195568 0.0
vt -0.389015 -0.035237 0.0
vt -0.225305 0.025657 0.0
vt 0.024635 0.215205 0.0
vt -0.216434 0.197430 0.0
vt -0.225305 0.025657 0.0
vt -0.000000 -0.000000 0.0
vt -1.000000 0.437512 0.0
vt 0.000000 0.437512 0.0
vt -0.384495 0.605865 0.0
vt -0.587229 0.602569 0.0
vt -0.172664 0.519544 0.0
vt 0.000000 0.437512 0.0
vt -0.000000 0.562488 0.0
vt -0.784795 0.563769 0.0
vt -1.000000 0.562488 0.0
vt -1.000000 0.437512 0.0
vt -0.384495 0.605865 0.0
vt 0.000000 0.437512 0.0
vt -0.172664 0.519544 0.0
vt -0.587229 0.602569 0.0
vt -0.784795 0.563769 0.0
vt -1.000000 0.437512 0.0
vt -0.389015 0.518776 0.0
vt -0.630655 0.550090 0.0
vt -1.000000 0.437512 0.0
vt 0.000000 0.437512 0.0
vt -0.000000 0.562488 0.0
vt -0.225305 0.609453 0.0
vt 0.000000 0.437512 0.0
vt -0.777495 0.517470 0.0
vt -1.000000 0.562488 0.0
vt -1.000000 0.437512 0.0
vt -0.225305 0.609453 0.0
vt -0.389015 0.518776 0.0
vt 0.000000 0.437512 0.0
vt -0.630655 0.550090 0.0
vt -0.777495 0.517470 0.0
vt -1.000000 0.437512 0.0
vt 0.415550 0.520885 0.0
vt 0.627440 0.537197 0.0
vt 1.000000 0.437512 0.0
vt 0.000000 0.437512 0.0
vt 0.000000 0.562488 0.0
vt 0.200068 0.550287 0.0
vt 0.000000 0.437512 0.0
vt 0.815946 0.530007 0.0
vt 1.000000 0.562488 0.0
vt 1.000000 0.437512 0.0
vt 0.200068 0.550287 0.0
vt 0.415550 0.520885 0.0
vt 0.000000 0.437512 0.0
vt 0.627440 0.537197 0.0
vt 0.815946 0.530007 0.0
vt 1.000000 0.437512 0.0
vt 0.000000 0.437512 0.0
vt -1.000000 0.437512 0.0
vt -0.636948 0.568855 0.0
vt -0.404199 0.610524 0.0
vt -1.000000 0.562488 0.0
vt -0.814685 0.507195 0.0
vt -1.000000 0.437512 0.0
vt 0.000000 0.562488 0.0
vt 0.000000 0.437512 0.0
vt -0.155480 0.544422 0.0
vt -0.814685 0.507195 0.0
vt -0.636948 0.568855 0.0
vt -1.000000 0.437512 0.0
vt -0.155480 0.544422 0.0
vt 0.000000 0.437512 0.0
vt -0.404199 0.610524 0.0
vn 0.686728 0.546098 -0.479690
vn 0.674123 -0.586688 -0.448683
vn -0.527451 -0.674062 -0.517075
vn -0.691946 0.720725 -0.041871
vn 0.044801 0.545854 0.836665
vn -0.422926 0.617389 0.663259
vn -0.765770 0.037904 0.641957
vn 0.078433 0.106357 0.991211
vn -0.173437 0.509812 0.842586
vn 0.026154 0.030030 0.999176
vn 0.041231 0.545030 0.837367
vn -0.155461 -0.083773 0.984252
vn 0.002594 0.620075 0.784509
vn -0.105869 0.023621 0.994079
vn 0.496689 0.646474 0.579058
vn 0.963683 -0.140507 0.227058
vn -0.852107 0.023286 0.522813
vn -0.025178 0.186224 0.982177
vn 0.154454 0.265328 0.951689
vn -0.100803 0.151677 0.983245
vn -0.134617 0.093997 0.986419
vn 0.930387 -0.212439 0.298685
vn -0.807917 0.029023 0.588549
vn -0.127049 0.030000 0.991424
vn 0.129398 0.090182 0.987457
vn 0.021393 0.091372 0.995575
vn -0.136021 -0.031678 0.990173
vn 0.872677 0.037355 0.486831
vn -0.704001 0.018494 0.709922
vn -0.122135 -0.112796 0.986053
vn 0.047639 -0.139073 0.989105
vn 0.054750 -0.086184 0.994751
vn -0.043886 -0.008057 0.998993
vn 0.863765 0.039766 0.502274
vn -0.601032 -0.578295 0.551622
vn 0.019379 -0.937193 0.348216
vn 0.072237 -0.945341 0.317881
vn 0.028443 -0.750237 0.660512
vn -0.026734 -0.641438 0.766686
vn 0.550066 -0.597125 0.583819
usemtl Material.001_wall_stone.jpg
s 1
f 1/1/1 2/2/2 3/3/3 4/4/4
s 1
f 16/5/5 8/6/6 24/7/7 28/8/8
s 1
f 15/9/9 16/10/5 28/11/8 27/12/10
s 1
f 14/13/11 15/14/9 27/15/10 26/16/12
s 1
f 13/17/13 14/18/11 26/19/12 25/20/14
s 1
f 5/21/15 13/22/13 25/23/14 9/24/16
s 1
f 28/25/8 24/26/7 23/27/17 32/28/18
s 1
f 27/29/10 28/30/8 32/31/18 31/32/19
s 1
f 26/33/12 27/34/10 31/35/19 30/36/20
s 1
f 25/37/14 26/38/12 30/39/20 29/40/21
s 1
f 9/41/16 25/42/14 29/43/21 10/44/22
s 1
f 32/45/18 23/46/17 22/47/23 36/48/24
s 1
f 31/49/19 32/50/18 36/51/24 35/52/25
s 1
f 30/53/20 31/54/19 35/55/25 34/56/26
s 1
f 29/57/21 30/58/20 34/59/26 33/60/27
s 1
f 10/61/22 29/62/21 33/63/27 11/64/28
s 1
f 36/65/24 22/66/23 21/67/29 40/68/30
s 1
f 35/69/25 36/70/24 40/71/30 39/72/31
s 1
f 34/73/26 35/74/25 39/75/31 38/76/32
s 1
f 33/77/27 34/78/26 38/79/32 37/80/33
s 1
f 11/81/28 33/82/27 37/83/33 12/84/34
s 1
f 40/85/30 21/86/29 7/87/35 20/88/36
s 1
f 39/89/31 40/90/30 20/91/36 19/92/37
s 1
f 38/93/32 39/94/31 19/95/37 18/96/38
s 1
f 37/97/33 38/98/32 18/99/38 17/100/39
s 1
f 12/101/34 37/102/33 17/103/39 6/104/40
s 1
f 2/105/2 1/106/1 10/107/22 11/108/28
s 1
f 9/109/16 1/110/1 5/111/15
s 1
f 12/112/34 6/113/40 2/114/2
s 1
f 10/115/22 1/116/1 9/117/16
s 1
f 11/118/28 12/119/34 2/120/2
s 1
f 18/121/38 19/122/37 3/123/3 2/124/2
s 1
f 6/125/40 17/126/39 2/127/2
s 1
f 20/128/36 7/129/35 3/130/3
s 1
f 17/131/39 18/132/38 2/133/2
s 1
f 19/134/37 20/135/36 3/136/3
s 1
f 22/137/23 23/138/17 4/139/4 3/140/3
s 1
f 7/141/35 21/142/29 3/143/3
s 1
f 24/144/7 8/145/6 4/146/4
s 1
f 21/147/29 22/148/23 3/149/3
s 1
f 23/150/17 24/151/7 4/152/4
s 1
f 1/153/1 4/154/4 15/155/9 14/156/11
s 1
f 8/157/6 16/158/5 4/159/4
s 1
f 5/160/15 1/161/1 13/162/13
s 1
f 16/163/5 15/164/9 4/165/4
s 1
f 13/166/13 1/167/1 14/168/11
