# Blender3D v244 OBJ File: water_rock_side.blend
# www.blender3d.org
mtllib water_rock_side.mtl
v 1.005502 -1.078400 0.028428
v 1.005502 1.035836 0.059597
v -1.005502 1.035836 0.059597
v -1.005501 -1.078401 0.028428
v 1.005502 -1.072729 -0.356269
v 1.005501 1.041508 -0.325100
v -1.011141 1.034689 -0.318026
v -1.005501 -1.072729 -0.356269
v 1.045951 -0.709625 -0.218700
v 0.977206 -0.145709 -0.515586
v -0.091874 0.060319 -0.455996
v 1.055043 0.586571 -0.335751
v 0.692831 -0.990800 -0.299439
v 0.192657 -1.036772 -0.503634
v -0.275402 -1.123599 -0.376622
v -0.632833 -1.006611 -0.185055
v 0.552412 0.989393 -0.470467
v 0.223192 1.043791 -0.189594
v -0.355193 1.059799 -0.250234
v 0.570252 0.623967 -0.322651
v -0.234091 0.648865 -0.459786
v -0.925521 0.161049 -0.209992
v -1.013345 -0.441173 -0.233366
v -0.609325 0.121013 -0.425465
v 0.541762 -0.709562 -0.398637
v -0.162634 -0.613454 -0.116558
v 0.267418 0.573196 -0.343301
v -0.661626 -0.671442 -0.159025
v 0.508312 -0.265432 -0.477316
v 0.241840 -0.039106 -0.281133
v -0.243404 -0.171597 -0.318986
v -0.538266 -0.282563 -0.472844
v 0.000000 -1.078401 0.028428
v -1.005501 -0.021282 0.044012
v -0.000000 -0.021282 0.044012
v -0.000000 0.997891 0.193865
v 1.005502 -0.021282 0.044012
vt 0.061591 0.623877 0.0
vt -0.191468 0.670843 0.0
vt 0.061591 0.498902 0.0
vt 0.301618 0.599649 0.0
vt -0.064741 0.621547 0.0
vt -0.061591 0.498902 0.0
vt 0.159681 0.435984 0.0
vt -0.016920 0.415550 0.0
vt -0.064741 0.003175 0.0
vt 0.159681 0.435984 0.0
vt -0.064741 0.003175 0.0
vt 0.369256 0.186612 0.0
vt 0.808532 0.670843 0.0
vt 0.624657 0.580166 0.0
vt 1.061591 0.498902 0.0
vt 0.369256 0.186612 0.0
vt -0.064741 0.003175 0.0
vt 0.301618 -0.009171 0.0
vt 0.003175 0.621547 0.0
vt 0.415550 0.582275 0.0
vt 0.000000 0.498902 0.0
vt 0.649358 0.221583 0.0
vt 0.369256 0.186612 0.0
vt 0.301618 -0.009171 0.0
vt 0.649358 0.221583 0.0
vt 0.301618 -0.009171 0.0
vt 0.624657 -0.035237 0.0
vt 0.818496 0.197430 0.0
vt 0.649358 0.221583 0.0
vt 0.624657 -0.035237 0.0
vt 0.818496 0.197430 0.0
vt 0.624657 -0.035237 0.0
vt 0.808532 0.025657 0.0
vt 0.089261 0.215205 0.0
vt -0.191468 0.025657 0.0
vt 0.061591 -0.000000 0.0
vt 0.215205 0.625159 0.0
vt -0.000000 0.623877 0.0
vt 0.000000 0.498902 0.0
vt 0.562740 0.680062 0.0
vt 0.215205 0.625159 0.0
vt 0.000000 0.498902 0.0
vt 0.624657 0.580166 0.0
vt 0.301618 0.599649 0.0
vt -0.061591 0.498902 0.0
vt 1.000000 0.498902 0.0
vt 0.500000 0.498902 0.0
vt 0.415550 0.582275 0.0
vt 0.500000 0.498902 0.0
vt 0.000000 0.498902 0.0
vt 0.415550 0.582275 0.0
vt 0.000000 0.498902 0.0
vt 0.500000 0.498902 0.0
vt 0.562740 0.680062 0.0
vt 0.500000 0.498902 0.0
vt 1.000000 0.498902 0.0
vt 0.562740 0.680062 0.0
vt -0.061591 0.498902 0.0
vt 0.500000 0.498902 0.0
vt 0.624657 0.580166 0.0
vt 0.500000 0.498902 0.0
vt 1.061591 0.498902 0.0
vt 0.624657 0.580166 0.0
vt 0.146551 0.967541 0.0
vt -0.061591 1.000000 0.0
vt -0.065972 0.700492 0.0
vt 0.146551 0.967541 0.0
vt -0.065972 0.700492 0.0
vt 0.130470 0.808864 0.0
vt 0.346183 0.024197 0.0
vt 0.146551 -0.032459 0.0
vt 0.130470 -0.191136 0.0
vt 0.346183 0.024197 0.0
vt 0.130470 -0.191136 0.0
vt 0.409166 -0.218854 0.0
vt 0.607602 0.984024 0.0
vt 0.346183 1.024197 0.0
vt 0.409166 0.781146 0.0
vt 0.886959 0.960861 0.0
vt 0.607602 0.984024 0.0
vt 0.409166 0.781146 0.0
vt 0.886959 0.960861 0.0
vt 0.409166 0.781146 0.0
vt 0.802584 0.828561 0.0
vt 0.061591 1.000000 0.0
vt -0.113041 0.960861 0.0
vt -0.197416 0.828561 0.0
vt 0.061591 1.000000 0.0
vt -0.197416 0.828561 0.0
vt 0.084183 0.827336 0.0
vt 0.061591 0.623877 0.0
vt 0.061591 0.498902 0.0
vt -0.113041 0.605812 0.0
vt 0.130470 0.808864 0.0
vt -0.065972 0.700492 0.0
vt 0.199369 0.627158 0.0
vt 0.409166 0.781146 0.0
vt 0.130470 0.808864 0.0
vt 0.199369 0.627158 0.0
vt 0.409166 0.781146 0.0
vt 0.199369 0.627158 0.0
vt 0.364054 0.573612 0.0
vt 0.409166 0.781146 0.0
vt 0.364054 0.573612 0.0
vt 0.635072 0.510695 0.0
vt 0.802584 0.828561 0.0
vt 0.409166 0.781146 0.0
vt 0.635072 0.510695 0.0
vt 0.802584 0.828561 0.0
vt 0.635072 0.510695 0.0
vt 0.783901 0.619088 0.0
vt 0.084183 0.827336 0.0
vt -0.197416 0.828561 0.0
vt -0.216099 0.619088 0.0
vt 0.084183 0.827336 0.0
vt -0.216099 0.619088 0.0
vt 0.045788 0.562740 0.0
vt 0.199369 0.627158 0.0
vt -0.065972 0.700492 0.0
vt -0.016920 0.415550 0.0
vt 0.199369 0.627158 0.0
vt -0.016920 0.415550 0.0
vt 0.159681 0.435984 0.0
vt 0.364054 0.573612 0.0
vt 0.199369 0.627158 0.0
vt 0.159681 0.435984 0.0
vt 0.364054 0.573612 0.0
vt 0.159681 0.435984 0.0
vt 0.448687 0.464898 0.0
vt 0.635072 0.510695 0.0
vt 0.364054 0.573612 0.0
vt 0.448687 0.464898 0.0
vt 0.415550 0.582275 0.0
vt 0.700492 0.586983 0.0
vt 1.000000 0.498902 0.0
vt 0.783901 0.619088 0.0
vt 0.635072 0.510695 0.0
vt 0.649358 0.221583 0.0
vt 0.045788 0.562740 0.0
vt -0.216099 0.619088 0.0
vt -0.350642 0.221583 0.0
vt 0.448687 0.464898 0.0
vt 0.159681 0.435984 0.0
vt 0.369256 0.186612 0.0
vt 0.635072 0.510695 0.0
vt 0.448687 0.464898 0.0
vt 0.369256 0.186612 0.0
vt 0.635072 0.510695 0.0
vt 0.369256 0.186612 0.0
vt 0.649358 0.221583 0.0
vt 0.146551 0.967541 0.0
vt 0.346183 1.024197 0.0
vt -0.061591 1.000000 0.0
vt 0.886959 0.605812 0.0
vt 1.061591 0.498902 0.0
vt 0.607602 0.671914 0.0
vt 0.045788 0.562740 0.0
vt -0.350642 0.221583 0.0
vt -0.181504 0.197430 0.0
vt 0.045788 0.562740 0.0
vt -0.181504 0.197430 0.0
vt 0.089261 0.215205 0.0
vt 0.938409 0.623877 0.0
vt 1.146551 0.568584 0.0
vt 0.938409 0.498902 0.0
vt 0.700492 0.586983 0.0
vt 1.000000 0.623877 0.0
vt 1.000000 0.498902 0.0
vt 0.089261 0.215205 0.0
vt -0.181504 0.197430 0.0
vt -0.191468 0.025657 0.0
vt 0.061591 0.498902 0.0
vt -0.653817 0.630245 0.0
vt -0.392398 0.671914 0.0
vt 0.827336 0.580934 0.0
vt 1.000000 0.498902 0.0
vt 1.000000 0.623877 0.0
vt 0.045788 0.562740 0.0
vt 0.061591 1.000000 0.0
vt 0.084183 0.827336 0.0
vt -0.500000 -0.500000 0.0
vt 0.061591 0.000000 0.0
vt 0.061591 -0.500000 0.0
vt 0.061591 -0.500000 0.0
vt -0.500000 -1.000000 0.0
vt -0.500000 -0.500000 0.0
vt -1.061591 -1.000000 0.0
vt -0.500000 -0.500000 0.0
vt -0.500000 -1.000000 0.0
vt -0.500000 -1.000000 0.0
vt 0.061591 -0.500000 0.0
vt 0.061591 -1.000000 0.0
vt -0.500000 0.000000 0.0
vt 0.061591 0.000000 0.0
vt -0.500000 -0.500000 0.0
vt -0.500000 -0.500000 0.0
vt -1.061591 -0.500000 0.0
vt -0.500000 0.000000 0.0
vt -1.061591 0.000000 0.0
vt -0.500000 0.000000 0.0
vt -1.061591 -0.500000 0.0
vt -1.061591 -0.500000 0.0
vt -0.500000 -0.500000 0.0
vt -1.061591 -1.000000 0.0
vt 0.061591 0.498902 0.0
vt -0.500000 0.498902 0.0
vt -0.653817 0.630245 0.0
vt -0.500000 0.498902 0.0
vt -1.061591 0.498902 0.0
vt -0.653817 0.630245 0.0
vn -0.118890 0.992800 0.014638
vn -0.037998 0.999275 -0.002469
vn -0.569651 -0.155623 -0.807019
vn -0.156566 0.047154 -0.986541
vn 0.051801 0.990025 -0.131022
vn 0.072914 0.470045 -0.879626
vn -0.995298 -0.095670 0.015156
vn 0.266799 0.499058 -0.824475
vn 0.107563 0.317799 -0.942037
vn 0.012563 0.311523 -0.950155
vn -0.645805 -0.313188 -0.696311
vn 0.299307 0.054896 -0.952576
vn 0.994125 0.108222 0.001594
vn 0.931419 -0.177089 0.317958
vn 0.015939 0.993769 0.110315
vn -0.954720 0.004385 -0.297472
vn -0.954720 0.004385 -0.297473
vn 0.998715 0.000747 -0.050665
vn 0.020009 0.991273 0.130300
vn -0.023450 0.994159 0.105351
vn 0.056673 -0.512162 -0.856990
vn -0.365398 -0.590197 -0.719810
vn -0.613514 -0.004517 -0.789666
vn -0.033540 -0.102237 -0.994171
vn -0.262947 -0.444197 -0.856441
vn -0.016236 -0.003967 -0.999847
vn 0.100467 -0.167333 -0.980743
vn -0.007660 -0.425794 -0.904752
vn -0.149144 -0.137089 -0.979247
vn 0.441908 -0.576434 -0.687307
vn 0.914121 0.078036 -0.397839
vn 0.699057 -0.553056 0.453200
vn -0.008301 -0.204627 -0.978790
vn 0.255226 -0.273598 -0.927335
vn -0.033052 -0.185675 -0.982025
vn -0.170019 -0.157262 -0.972777
vn 0.921201 0.070528 -0.382611
vn -0.937895 0.019532 -0.346294
vn -0.100681 -0.061922 -0.992981
vn 0.192083 -0.233528 -0.953185
vn -0.705008 -0.707724 0.045076
vn -0.079531 0.109043 -0.990844
vn 0.178167 0.166845 -0.969726
vn -0.263283 -0.114719 -0.957854
vn 0.689077 0.004425 -0.724631
vn -0.192114 0.456771 -0.868557
vn -0.046144 -0.094974 0.994385
vn 0.683798 -0.019257 0.729392
vn -0.003296 0.573473 0.819208
vn -0.689261 0.481857 0.541002
vn 0.684957 0.564623 0.460402
vn 0.000000 -0.668294 0.743889
vn -0.801691 -0.008789 0.597644
usemtl Material_cave_wall.jpg
s 1
f 6/1/1 17/2/1 2/3/1
f 19/4/2 7/5/2 3/6/2
f 24/7/3 22/8/3 7/9/3
f 24/10/4 7/11/4 21/12/4
f 17/13/5 18/14/5 2/15/5
f 21/16/6 7/17/6 19/18/6
f 7/19/7 22/20/7 3/21/7
f 27/22/8 21/23/8 19/24/8
f 27/25/9 19/26/9 18/27/9
f 20/28/10 27/29/10 18/30/10
f 20/31/11 18/32/11 17/33/11
f 12/34/12 17/35/12 6/36/12
f 12/37/13 6/38/13 2/39/13
f 10/40/14 12/41/14 2/42/14
f 18/43/15 19/44/15 3/45/15
f 4/46/16 34/47/16 22/48/16
f 34/49/17 3/50/17 22/51/17
f 2/52/18 37/53/18 10/54/18
f 37/55/18 1/56/18 10/57/18
f 3/58/19 36/59/19 18/60/19
f 36/61/20 2/62/20 18/63/20
s 1
f 16/64/21 8/65/22 23/66/23
s 1
f 16/67/21 23/68/23 28/69/24
s 1
f 15/70/25 16/71/21 28/72/24
s 1
f 15/73/25 28/74/24 26/75/26
s 1
f 14/76/27 15/77/25 26/78/26
s 1
f 13/79/28 14/80/27 26/81/26
s 1
f 13/82/28 26/83/26 25/84/29
s 1
f 5/85/30 13/86/28 25/87/29
s 1
f 5/88/30 25/89/29 9/90/31
s 1
f 5/91/30 1/92/32 13/93/28
s 1
f 28/94/24 23/95/23 32/96/33
s 1
f 26/97/26 28/98/24 32/99/33
s 1
f 26/100/26 32/101/33 31/102/34
s 1
f 26/103/26 31/104/34 30/105/35
s 1
f 25/106/29 26/107/26 30/108/35
s 1
f 25/109/29 30/110/35 29/111/36
s 1
f 9/112/31 25/113/29 29/114/36
s 1
f 9/115/31 29/116/36 10/117/37
s 1
f 32/118/33 23/119/23 22/120/38
s 1
f 32/121/33 22/122/38 24/123/39
s 1
f 31/124/34 32/125/33 24/126/39
s 1
f 31/127/34 24/128/39 11/129/40
s 1
f 30/130/35 31/131/34 11/132/40
s 1
f 22/133/38 23/134/23 4/135/41
s 1
f 29/136/36 30/137/35 27/138/42
s 1
f 10/139/37 29/140/36 27/141/42
s 1
f 11/142/40 24/143/39 21/144/43
s 1
f 30/145/35 11/146/40 21/147/43
s 1
f 30/148/35 21/149/43 27/150/42
s 1
f 16/151/21 15/152/25 4/153/41
s 1
f 13/154/28 1/155/32 14/156/27
s 1
f 10/157/37 27/158/42 20/159/44
s 1
f 10/160/37 20/161/44 12/162/45
s 1
f 8/163/22 16/164/21 4/165/41
s 1
f 23/166/23 8/167/22 4/168/41
s 1
f 12/169/45 20/170/44 17/171/46
s 1
f 1/172/32 15/173/25 14/174/27
s 1
f 9/175/31 1/176/32 5/177/30
s 1
f 10/178/37 1/179/32 9/180/31
s 1
f 35/181/47 1/182/32 37/183/48
s 1
f 37/184/48 36/185/49 35/186/47
s 1
f 3/187/50 35/188/47 36/189/49
s 1
f 36/190/49 37/191/48 2/192/51
s 1
f 33/193/52 1/194/32 35/195/47
s 1
f 35/196/47 34/197/53 33/198/52
s 1
f 4/199/41 33/200/52 34/201/53
s 1
f 34/202/53 35/203/47 3/204/50
s 1
f 1/205/32 33/206/52 15/207/25
s 1
f 33/208/52 4/209/41 15/210/25
