# Blender3D v244 OBJ File: water_rock_side.blend
# www.blender3d.org
mtllib water_rock_side.mtl
v 1.005502 -1.072669 0.028428
v 1.005502 1.041568 0.059597
v -1.005502 1.041567 0.059597
v -1.005501 -1.072670 0.028428
v 1.005502 -1.066997 -0.356269
v 1.005501 1.014649 -0.325100
v -1.011141 0.997194 -0.318026
v -1.005501 -1.066998 -0.356269
v 1.045951 -0.703894 -0.218700
v 0.977206 -0.139978 -0.515586
v -0.091874 0.066050 -0.455996
v 1.055043 0.592302 -0.335751
v 0.692831 -0.985068 -0.299439
v 0.192657 -1.031041 -0.503634
v -0.275402 -1.117868 -0.376622
v -0.632833 -1.000880 -0.185055
v 0.552412 0.995125 -0.470467
v 0.223192 0.984370 -0.274830
v -0.355193 1.000379 -0.335470
v 0.570252 0.629698 -0.322651
v -0.234091 0.654596 -0.459786
v -0.925521 0.166780 -0.209992
v -1.013345 -0.435441 -0.233366
v -0.609325 0.126744 -0.425465
v 0.541762 -0.703831 -0.398637
v -0.162634 -0.607723 -0.116558
v 0.267418 0.578927 -0.343301
v -0.661626 -0.665711 -0.159025
v 0.508312 -0.259700 -0.477316
v 0.241840 -0.033374 -0.281133
v -0.243404 -0.165866 -0.318986
v -0.538266 -0.276832 -0.472844
v 0.000000 -1.072669 0.028428
v -1.005501 -0.015551 0.044012
v -0.000000 -0.015551 0.044012
v -0.000000 1.003622 0.193865
v 1.005502 -0.015551 0.044012
vt 0.146551 0.967541 0.0
vt -0.061591 1.000000 0.0
vt -0.065972 0.700492 0.0
vt 0.146551 0.967541 0.0
vt -0.065972 0.700492 0.0
vt 0.130470 0.808864 0.0
vt 0.346183 0.024197 0.0
vt 0.146551 -0.032459 0.0
vt 0.130470 -0.191136 0.0
vt 0.346183 0.024197 0.0
vt 0.130470 -0.191136 0.0
vt 0.409166 -0.218854 0.0
vt 0.607602 0.984024 0.0
vt 0.346183 1.024197 0.0
vt 0.409166 0.781146 0.0
vt 0.061591 0.623877 0.0
vt -0.191468 0.670843 0.0
vt 0.061591 0.498902 0.0
vt 0.886959 0.960861 0.0
vt 0.607602 0.984024 0.0
vt 0.409166 0.781146 0.0
vt 0.886959 0.960861 0.0
vt 0.409166 0.781146 0.0
vt 0.802584 0.828561 0.0
vt 0.061591 1.000000 0.0
vt -0.113041 0.960861 0.0
vt -0.197416 0.828561 0.0
vt 0.061591 1.000000 0.0
vt -0.197416 0.828561 0.0
vt 0.084183 0.827336 0.0
vt 0.061591 0.623877 0.0
vt 0.061591 0.498902 0.0
vt -0.113041 0.605812 0.0
vt 0.130470 0.808864 0.0
vt -0.065972 0.700492 0.0
vt 0.199369 0.627158 0.0
vt 0.409166 0.781146 0.0
vt 0.130470 0.808864 0.0
vt 0.199369 0.627158 0.0
vt 0.409166 0.781146 0.0
vt 0.199369 0.627158 0.0
vt 0.364054 0.573612 0.0
vt 0.301618 0.599649 0.0
vt -0.064741 0.621547 0.0
vt -0.061591 0.498902 0.0
vt 0.409166 0.781146 0.0
vt 0.364054 0.573612 0.0
vt 0.635072 0.510695 0.0
vt 0.802584 0.828561 0.0
vt 0.409166 0.781146 0.0
vt 0.635072 0.510695 0.0
vt 0.802584 0.828561 0.0
vt 0.635072 0.510695 0.0
vt 0.783901 0.619088 0.0
vt 0.084183 0.827336 0.0
vt -0.197416 0.828561 0.0
vt -0.216099 0.619088 0.0
vt 0.084183 0.827336 0.0
vt -0.216099 0.619088 0.0
vt 0.045788 0.562740 0.0
vt 0.199369 0.627158 0.0
vt -0.065972 0.700492 0.0
vt -0.016920 0.415550 0.0
vt 0.199369 0.627158 0.0
vt -0.016920 0.415550 0.0
vt 0.159681 0.435984 0.0
vt 0.364054 0.573612 0.0
vt 0.199369 0.627158 0.0
vt 0.159681 0.435984 0.0
vt 0.364054 0.573612 0.0
vt 0.159681 0.435984 0.0
vt 0.448687 0.464898 0.0
vt 0.635072 0.510695 0.0
vt 0.364054 0.573612 0.0
vt 0.448687 0.464898 0.0
vt 0.415550 0.582275 0.0
vt 0.700492 0.586983 0.0
vt 1.000000 0.498902 0.0
vt 0.783901 0.619088 0.0
vt 0.635072 0.510695 0.0
vt 0.649358 0.221583 0.0
vt 0.045788 0.562740 0.0
vt -0.216099 0.619088 0.0
vt -0.350642 0.221583 0.0
vt 0.159681 0.435984 0.0
vt -0.016920 0.415550 0.0
vt -0.064741 0.003175 0.0
vt 0.159681 0.435984 0.0
vt -0.064741 0.003175 0.0
vt 0.369256 0.186612 0.0
vt 0.448687 0.464898 0.0
vt 0.159681 0.435984 0.0
vt 0.369256 0.186612 0.0
vt 0.808532 0.670843 0.0
vt 0.624657 0.580166 0.0
vt 1.061591 0.498902 0.0
vt 0.635072 0.510695 0.0
vt 0.448687 0.464898 0.0
vt 0.369256 0.186612 0.0
vt 0.635072 0.510695 0.0
vt 0.369256 0.186612 0.0
vt 0.649358 0.221583 0.0
vt 0.146551 0.967541 0.0
vt 0.346183 1.024197 0.0
vt -0.061591 1.000000 0.0
vt 0.886959 0.605812 0.0
vt 1.061591 0.498902 0.0
vt 0.607602 0.671914 0.0
vt 0.045788 0.562740 0.0
vt -0.350642 0.221583 0.0
vt -0.181504 0.197430 0.0
vt 0.045788 0.562740 0.0
vt -0.181504 0.197430 0.0
vt 0.089261 0.215205 0.0
vt 0.938409 0.623877 0.0
vt 1.146551 0.568584 0.0
vt 0.938409 0.498902 0.0
vt 0.369256 0.186612 0.0
vt -0.064741 0.003175 0.0
vt 0.301618 -0.009171 0.0
vt 0.700492 0.586983 0.0
vt 1.000000 0.623877 0.0
vt 1.000000 0.498902 0.0
vt 0.003175 0.621547 0.0
vt 0.415550 0.582275 0.0
vt 0.000000 0.498902 0.0
vt 0.649358 0.221583 0.0
vt 0.369256 0.186612 0.0
vt 0.301618 -0.009171 0.0
vt 0.649358 0.221583 0.0
vt 0.301618 -0.009171 0.0
vt 0.624657 -0.035237 0.0
vt 0.818496 0.197430 0.0
vt 0.649358 0.221583 0.0
vt 0.624657 -0.035237 0.0
vt 0.818496 0.197430 0.0
vt 0.624657 -0.035237 0.0
vt 0.808532 0.025657 0.0
vt 0.089261 0.215205 0.0
vt -0.181504 0.197430 0.0
vt -0.191468 0.025657 0.0
vt 0.089261 0.215205 0.0
vt -0.191468 0.025657 0.0
vt 0.061591 -0.000000 0.0
vt 0.061591 0.498902 0.0
vt -0.653817 0.630245 0.0
vt -0.392398 0.671914 0.0
vt 0.827336 0.580934 0.0
vt 1.000000 0.498902 0.0
vt 1.000000 0.623877 0.0
vt 0.215205 0.625159 0.0
vt -0.000000 0.623877 0.0
vt 0.000000 0.498902 0.0
vt 0.045788 0.562740 0.0
vt 0.061591 1.000000 0.0
vt 0.084183 0.827336 0.0
vt 0.562740 0.680062 0.0
vt 0.215205 0.625159 0.0
vt 0.000000 0.498902 0.0
vt 0.624657 0.580166 0.0
vt 0.301618 0.599649 0.0
vt -0.061591 0.498902 0.0
vt -0.500000 -0.500000 0.0
vt 0.061591 0.000000 0.0
vt 0.061591 -0.500000 0.0
vt 0.061591 -0.500000 0.0
vt -0.500000 -1.000000 0.0
vt -0.500000 -0.500000 0.0
vt -1.061591 -1.000000 0.0
vt -0.500000 -0.500000 0.0
vt -0.500000 -1.000000 0.0
vt -0.500000 -1.000000 0.0
vt 0.061591 -0.500000 0.0
vt 0.061591 -1.000000 0.0
vt -0.500000 0.000000 0.0
vt 0.061591 0.000000 0.0
vt -0.500000 -0.500000 0.0
vt -0.500000 -0.500000 0.0
vt -1.061591 -0.500000 0.0
vt -0.500000 0.000000 0.0
vt -1.061591 0.000000 0.0
vt -0.500000 0.000000 0.0
vt -1.061591 -0.500000 0.0
vt -1.061591 -0.500000 0.0
vt -0.500000 -0.500000 0.0
vt -1.061591 -1.000000 0.0
vt 1.000000 0.498902 0.0
vt 0.500000 0.498902 0.0
vt 0.415550 0.582275 0.0
vt 0.500000 0.498902 0.0
vt 0.000000 0.498902 0.0
vt 0.415550 0.582275 0.0
vt 0.061591 0.498902 0.0
vt -0.500000 0.498902 0.0
vt -0.653817 0.630245 0.0
vt -0.500000 0.498902 0.0
vt -1.061591 0.498902 0.0
vt -0.653817 0.630245 0.0
vt 0.000000 0.498902 0.0
vt 0.500000 0.498902 0.0
vt 0.562740 0.680062 0.0
vt 0.500000 0.498902 0.0
vt 1.000000 0.498902 0.0
vt 0.562740 0.680062 0.0
vt -0.061591 0.498902 0.0
vt 0.500000 0.498902 0.0
vt 0.624657 0.580166 0.0
vt 0.500000 0.498902 0.0
vt 1.061591 0.498902 0.0
vt 0.624657 0.580166 0.0
vn 0.056673 -0.512162 -0.856990
vn -0.365398 -0.590197 -0.719810
vn -0.613514 -0.004517 -0.789666
vn -0.033540 -0.102237 -0.994171
vn -0.262947 -0.444197 -0.856441
vn -0.016236 -0.003967 -0.999847
vn 0.100467 -0.167333 -0.980743
vn 0.618519 0.606616 -0.499405
vn -0.121067 0.427076 -0.896054
vn 0.738456 0.493545 0.459395
vn -0.007660 -0.425794 -0.904752
vn -0.149144 -0.137089 -0.979247
vn 0.441908 -0.576434 -0.687307
vn 0.914121 0.078036 -0.397839
vn 0.699057 -0.553056 0.453200
vn -0.008301 -0.204627 -0.978790
vn 0.255226 -0.273598 -0.927335
vn 0.064913 0.697745 -0.713340
vn -0.626820 0.475295 -0.617359
vn -0.700888 0.504990 0.503677
vn -0.033052 -0.185675 -0.982025
vn -0.170019 -0.157262 -0.972777
vn 0.921201 0.070528 -0.382611
vn -0.938475 0.016358 -0.344920
vn -0.102573 -0.062716 -0.992737
vn 0.192083 -0.233528 -0.953185
vn -0.705008 -0.707724 0.045076
vn -0.089022 0.076022 -0.993103
vn 0.175512 0.132267 -0.975524
vn -0.202948 0.540056 -0.816767
vn -0.162420 -0.133610 -0.977630
vn 0.689535 0.007202 -0.724204
vn -0.046144 -0.094974 0.994385
vn 0.683798 -0.019257 0.729392
vn -0.003449 0.644795 0.764336
vn 0.000000 -0.668294 0.743889
vn -0.801691 -0.008789 0.597644
usemtl Material_cave_wall.jpg
s 1
f 16/1/1 8/2/2 23/3/3
s 1
f 16/4/1 23/5/3 28/6/4
s 1
f 15/7/5 16/8/1 28/9/4
s 1
f 15/10/5 28/11/4 26/12/6
s 1
f 14/13/7 15/14/5 26/15/6
s 1
f 6/16/8 17/17/9 2/18/10
s 1
f 13/19/11 14/20/7 26/21/6
s 1
f 13/22/11 26/23/6 25/24/12
s 1
f 5/25/13 13/26/11 25/27/12
s 1
f 5/28/13 25/29/12 9/30/14
s 1
f 5/31/13 1/32/15 13/33/11
s 1
f 28/34/4 23/35/3 32/36/16
s 1
f 26/37/6 28/38/4 32/39/16
s 1
f 26/40/6 32/41/16 31/42/17
s 1
f 19/43/18 7/44/19 3/45/20
s 1
f 26/46/6 31/47/17 30/48/21
s 1
f 25/49/12 26/50/6 30/51/21
s 1
f 25/52/12 30/53/21 29/54/22
s 1
f 9/55/14 25/56/12 29/57/22
s 1
f 9/58/14 29/59/22 10/60/23
s 1
f 32/61/16 23/62/3 22/63/24
s 1
f 32/64/16 22/65/24 24/66/25
s 1
f 31/67/17 32/68/16 24/69/25
s 1
f 31/70/17 24/71/25 11/72/26
s 1
f 30/73/21 31/74/17 11/75/26
s 1
f 22/76/24 23/77/3 4/78/27
s 1
f 29/79/22 30/80/21 27/81/28
s 1
f 10/82/23 29/83/22 27/84/28
s 1
f 24/85/25 22/86/24 7/87/19
s 1
f 24/88/25 7/89/19 21/90/29
s 1
f 11/91/26 24/92/25 21/93/29
s 1
f 17/94/9 18/95/30 2/96/10
s 1
f 30/97/21 11/98/26 21/99/29
s 1
f 30/100/21 21/101/29 27/102/28
s 1
f 16/103/1 15/104/5 4/105/27
s 1
f 13/106/11 1/107/15 14/108/7
s 1
f 10/109/23 27/110/28 20/111/31
s 1
f 10/112/23 20/113/31 12/114/32
s 1
f 8/115/2 16/116/1 4/117/27
s 1
f 21/118/29 7/119/19 19/120/18
s 1
f 23/121/3 8/122/2 4/123/27
s 1
f 7/124/19 22/125/24 3/126/20
s 1
f 27/127/28 21/128/29 19/129/18
s 1
f 27/130/28 19/131/18 18/132/30
s 1
f 20/133/31 27/134/28 18/135/30
s 1
f 20/136/31 18/137/30 17/138/9
s 1
f 12/139/32 20/140/31 17/141/9
s 1
f 12/142/32 17/143/9 6/144/8
s 1
f 1/145/15 15/146/5 14/147/7
s 1
f 9/148/14 1/149/15 5/150/13
s 1
f 12/151/32 6/152/8 2/153/10
s 1
f 10/154/23 1/155/15 9/156/14
s 1
f 10/157/23 12/158/32 2/159/10
s 1
f 18/160/30 19/161/18 3/162/20
s 1
f 35/163/33 1/164/15 37/165/34
s 1
f 37/166/34 36/167/35 35/168/33
s 1
f 3/169/20 35/170/33 36/171/35
s 1
f 36/172/35 37/173/34 2/174/10
s 1
f 33/175/36 1/176/15 35/177/33
s 1
f 35/178/33 34/179/37 33/180/36
s 1
f 4/181/27 33/182/36 34/183/37
s 1
f 34/184/37 35/185/33 3/186/20
s 1
f 4/187/27 34/188/37 22/189/24
s 1
f 34/190/37 3/191/20 22/192/24
s 1
f 1/193/15 33/194/36 15/195/5
s 1
f 33/196/36 4/197/27 15/198/5
s 1
f 2/199/10 37/200/34 10/201/23
s 1
f 37/202/34 1/203/15 10/204/23
s 1
f 3/205/20 36/206/35 18/207/30
s 1
f 36/208/35 2/209/10 18/210/30
