# Blender3D v244 OBJ File: water_rock_side.blend
# www.blender3d.org
mtllib water_rock_side.mtl
v 1.005502 -1.078400 0.028428
v 1.005502 1.035836 0.059597
v -1.005502 1.035836 0.059597
v -1.005501 -1.078401 0.028428
v 1.005502 -1.072729 -0.356269
v 1.005501 1.041508 -0.325100
v -1.011141 1.034689 -0.318026
v -1.005501 -1.072729 -0.356269
v 1.045951 -0.709625 -0.218700
v 0.977206 -0.145709 -0.515586
v -0.091874 0.060319 -0.455996
v 1.055043 0.586571 -0.335751
v 0.692831 -0.990800 -0.299439
v 0.192657 -1.036772 -0.503634
v -0.275402 -1.123599 -0.376622
v -0.632833 -1.006611 -0.185055
v 0.552412 0.989393 -0.470467
v 0.223192 1.043791 -0.189594
v -0.355193 1.059799 -0.250234
v 0.570252 0.623967 -0.322651
v -0.234091 0.648865 -0.459786
v -0.925521 0.161049 -0.209992
v -1.013345 -0.441173 -0.233366
v -0.609325 0.121013 -0.425465
v 0.541762 -0.709562 -0.398637
v -0.162634 -0.613454 -0.116558
v 0.267418 0.573196 -0.343301
v -0.661626 -0.671442 -0.159025
v 0.508312 -0.265432 -0.477316
v 0.241840 -0.039106 -0.281133
v -0.243404 -0.171597 -0.318986
v -0.538266 -0.282563 -0.472844
vt 0.061591 0.623877 0.0
vt -0.191468 0.670843 0.0
vt 0.061591 0.498902 0.0
vt 0.301618 0.599649 0.0
vt -0.064741 0.621547 0.0
vt -0.061591 0.498902 0.0
vt 0.415550 0.582275 0.0
vt 1.000000 0.498902 0.0
vt 0.000000 0.498902 0.0
vt 0.159681 0.435984 0.0
vt -0.016920 0.415550 0.0
vt -0.064741 0.003175 0.0
vt 0.159681 0.435984 0.0
vt -0.064741 0.003175 0.0
vt 0.369256 0.186612 0.0
vt 0.808532 0.670843 0.0
vt 0.624657 0.580166 0.0
vt 1.061591 0.498902 0.0
vt 0.369256 0.186612 0.0
vt -0.064741 0.003175 0.0
vt 0.301618 -0.009171 0.0
vt 0.003175 0.621547 0.0
vt 0.415550 0.582275 0.0
vt 0.000000 0.498902 0.0
vt 0.649358 0.221583 0.0
vt 0.369256 0.186612 0.0
vt 0.301618 -0.009171 0.0
vt 0.649358 0.221583 0.0
vt 0.301618 -0.009171 0.0
vt 0.624657 -0.035237 0.0
vt 0.818496 0.197430 0.0
vt 0.649358 0.221583 0.0
vt 0.624657 -0.035237 0.0
vt 0.818496 0.197430 0.0
vt 0.624657 -0.035237 0.0
vt 0.808532 0.025657 0.0
vt 0.089261 0.215205 0.0
vt -0.191468 0.025657 0.0
vt 0.061591 -0.000000 0.0
vt 0.000000 0.498902 0.0
vt 1.000000 0.498902 0.0
vt 0.562740 0.680062 0.0
vt 0.215205 0.625159 0.0
vt -0.000000 0.623877 0.0
vt 0.000000 0.498902 0.0
vt 0.562740 0.680062 0.0
vt 0.215205 0.625159 0.0
vt 0.000000 0.498902 0.0
vt 0.624657 0.580166 0.0
vt 0.301618 0.599649 0.0
vt -0.061591 0.498902 0.0
vt 0.624657 0.580166 0.0
vt -0.061591 0.498902 0.0
vt 1.061591 0.498902 0.0
vt 0.061591 0.000000 0.0
vt 0.061591 -1.000000 0.0
vt -1.061591 -1.000000 0.0
vt 0.061591 0.000000 0.0
vt -1.061591 -1.000000 0.0
vt -1.061591 0.000000 0.0
vt 0.146551 0.967541 0.0
vt -0.061591 1.000000 0.0
vt -0.065972 0.700492 0.0
vt 0.146551 0.967541 0.0
vt -0.065972 0.700492 0.0
vt 0.130470 0.808864 0.0
vt 0.346183 0.024197 0.0
vt 0.146551 -0.032459 0.0
vt 0.130470 -0.191136 0.0
vt 0.346183 0.024197 0.0
vt 0.130470 -0.191136 0.0
vt 0.409166 -0.218854 0.0
vt 0.607602 0.984024 0.0
vt 0.346183 1.024197 0.0
vt 0.409166 0.781146 0.0
vt 0.886959 0.960861 0.0
vt 0.607602 0.984024 0.0
vt 0.409166 0.781146 0.0
vt 0.886959 0.960861 0.0
vt 0.409166 0.781146 0.0
vt 0.802584 0.828561 0.0
vt 0.061591 1.000000 0.0
vt -0.113041 0.960861 0.0
vt -0.197416 0.828561 0.0
vt 0.061591 1.000000 0.0
vt -0.197416 0.828561 0.0
vt 0.084183 0.827336 0.0
vt 0.061591 0.623877 0.0
vt 0.061591 0.498902 0.0
vt -0.113041 0.605812 0.0
vt 0.130470 0.808864 0.0
vt -0.065972 0.700492 0.0
vt 0.199369 0.627158 0.0
vt 0.409166 0.781146 0.0
vt 0.130470 0.808864 0.0
vt 0.199369 0.627158 0.0
vt 0.409166 0.781146 0.0
vt 0.199369 0.627158 0.0
vt 0.364054 0.573612 0.0
vt 0.409166 0.781146 0.0
vt 0.364054 0.573612 0.0
vt 0.635072 0.510695 0.0
vt 0.802584 0.828561 0.0
vt 0.409166 0.781146 0.0
vt 0.635072 0.510695 0.0
vt 0.802584 0.828561 0.0
vt 0.635072 0.510695 0.0
vt 0.783901 0.619088 0.0
vt 0.084183 0.827336 0.0
vt -0.197416 0.828561 0.0
vt -0.216099 0.619088 0.0
vt 0.084183 0.827336 0.0
vt -0.216099 0.619088 0.0
vt 0.045788 0.562740 0.0
vt 0.199369 0.627158 0.0
vt -0.065972 0.700492 0.0
vt -0.016920 0.415550 0.0
vt 0.199369 0.627158 0.0
vt -0.016920 0.415550 0.0
vt 0.159681 0.435984 0.0
vt 0.364054 0.573612 0.0
vt 0.199369 0.627158 0.0
vt 0.159681 0.435984 0.0
vt 0.364054 0.573612 0.0
vt 0.159681 0.435984 0.0
vt 0.448687 0.464898 0.0
vt 0.635072 0.510695 0.0
vt 0.364054 0.573612 0.0
vt 0.448687 0.464898 0.0
vt 0.415550 0.582275 0.0
vt 0.700492 0.586983 0.0
vt 1.000000 0.498902 0.0
vt 0.783901 0.619088 0.0
vt 0.635072 0.510695 0.0
vt 0.649358 0.221583 0.0
vt 0.045788 0.562740 0.0
vt -0.216099 0.619088 0.0
vt -0.350642 0.221583 0.0
vt 0.061591 0.498902 0.0
vt -1.061591 0.498902 0.0
vt -0.653817 0.630245 0.0
vt 0.448687 0.464898 0.0
vt 0.159681 0.435984 0.0
vt 0.369256 0.186612 0.0
vt 0.635072 0.510695 0.0
vt 0.448687 0.464898 0.0
vt 0.369256 0.186612 0.0
vt 0.635072 0.510695 0.0
vt 0.369256 0.186612 0.0
vt 0.649358 0.221583 0.0
vt 0.146551 0.967541 0.0
vt 0.346183 1.024197 0.0
vt -0.061591 1.000000 0.0
vt 0.886959 0.605812 0.0
vt 1.061591 0.498902 0.0
vt 0.607602 0.671914 0.0
vt 0.045788 0.562740 0.0
vt -0.350642 0.221583 0.0
vt -0.181504 0.197430 0.0
vt 0.045788 0.562740 0.0
vt -0.181504 0.197430 0.0
vt 0.089261 0.215205 0.0
vt 0.938409 0.623877 0.0
vt 1.146551 0.568584 0.0
vt 0.938409 0.498902 0.0
vt 0.700492 0.586983 0.0
vt 1.000000 0.623877 0.0
vt 1.000000 0.498902 0.0
vt 0.089261 0.215205 0.0
vt -0.181504 0.197430 0.0
vt -0.191468 0.025657 0.0
vt 0.061591 0.498902 0.0
vt -0.653817 0.630245 0.0
vt -0.392398 0.671914 0.0
vt 0.827336 0.580934 0.0
vt 1.000000 0.498902 0.0
vt 1.000000 0.623877 0.0
vt 0.045788 0.562740 0.0
vt 0.061591 1.000000 0.0
vt 0.084183 0.827336 0.0
vn -0.118890 0.992800 0.014638
vn -0.037998 0.999275 -0.002469
vn -0.954720 0.004385 -0.297473
vn -0.569651 -0.155623 -0.807019
vn -0.156566 0.047154 -0.986541
vn 0.051801 0.990025 -0.131022
vn 0.072914 0.470045 -0.879626
vn -0.995298 -0.095670 0.015156
vn 0.266799 0.499058 -0.824475
vn 0.107563 0.317799 -0.942037
vn 0.012563 0.311523 -0.950155
vn -0.645805 -0.313188 -0.696311
vn 0.299307 0.054896 -0.952576
vn 0.998715 0.000747 -0.050665
vn 0.994125 0.108222 0.001594
vn 0.931419 -0.177089 0.317958
vn 0.015939 0.993769 0.110315
vn 0.000000 0.999491 0.031904
vn 0.699057 -0.553056 0.453200
vn 0.667043 0.565294 0.485244
vn -0.680929 0.555467 0.477218
vn -0.705008 -0.707724 0.045076
vn 0.056673 -0.512162 -0.856990
vn -0.365398 -0.590197 -0.719810
vn -0.613514 -0.004517 -0.789666
vn -0.033540 -0.102237 -0.994171
vn -0.262947 -0.444197 -0.856441
vn -0.016236 -0.003967 -0.999847
vn 0.100467 -0.167333 -0.980743
vn -0.007660 -0.425794 -0.904752
vn -0.149144 -0.137089 -0.979247
vn 0.441908 -0.576434 -0.687307
vn 0.914121 0.078036 -0.397839
vn -0.008301 -0.204627 -0.978790
vn 0.255226 -0.273598 -0.927335
vn -0.033052 -0.185675 -0.982025
vn -0.170019 -0.157262 -0.972777
vn 0.920804 0.070711 -0.383496
vn -0.937895 0.019532 -0.346294
vn -0.100681 -0.061922 -0.992981
vn 0.192083 -0.233528 -0.953185
vn -0.079531 0.109043 -0.990844
vn 0.178167 0.166845 -0.969726
vn -0.263283 -0.114719 -0.957854
vn 0.689077 0.004425 -0.724631
vn -0.192114 0.456771 -0.868557
usemtl Material_cave_wall.jpg
s 1
f 6/1/1 17/2/1 2/3/1
f 19/4/2 7/5/2 3/6/2
f 22/7/3 4/8/3 3/9/3
f 24/10/4 22/11/4 7/12/4
f 24/13/5 7/14/5 21/15/5
f 17/16/6 18/17/6 2/18/6
f 21/19/7 7/20/7 19/21/7
f 7/22/8 22/23/8 3/24/8
f 27/25/9 21/26/9 19/27/9
f 27/28/10 19/29/10 18/30/10
f 20/31/11 27/32/11 18/33/11
f 20/34/12 18/35/12 17/36/12
f 12/37/13 17/38/13 6/39/13
f 2/40/14 1/41/14 10/42/14
f 12/43/15 6/44/15 2/45/15
f 10/46/16 12/47/16 2/48/16
f 18/49/17 19/50/17 3/51/17
f 18/52/18 3/53/18 2/54/18
s 1
f 1/55/19 2/56/20 3/57/21
s 1
f 1/58/19 3/59/21 4/60/22
s 1
f 16/61/23 8/62/24 23/63/25
s 1
f 16/64/23 23/65/25 28/66/26
s 1
f 15/67/27 16/68/23 28/69/26
s 1
f 15/70/27 28/71/26 26/72/28
s 1
f 14/73/29 15/74/27 26/75/28
s 1
f 13/76/30 14/77/29 26/78/28
s 1
f 13/79/30 26/80/28 25/81/31
s 1
f 5/82/32 13/83/30 25/84/31
s 1
f 5/85/32 25/86/31 9/87/33
s 1
f 5/88/32 1/89/19 13/90/30
s 1
f 28/91/26 23/92/25 32/93/34
s 1
f 26/94/28 28/95/26 32/96/34
s 1
f 26/97/28 32/98/34 31/99/35
s 1
f 26/100/28 31/101/35 30/102/36
s 1
f 25/103/31 26/104/28 30/105/36
s 1
f 25/106/31 30/107/36 29/108/37
s 1
f 9/109/33 25/110/31 29/111/37
s 1
f 9/112/33 29/113/37 10/114/38
s 1
f 32/115/34 23/116/25 22/117/39
s 1
f 32/118/34 22/119/39 24/120/40
s 1
f 31/121/35 32/122/34 24/123/40
s 1
f 31/124/35 24/125/40 11/126/41
s 1
f 30/127/36 31/128/35 11/129/41
s 1
f 22/130/39 23/131/25 4/132/22
s 1
f 29/133/37 30/134/36 27/135/42
s 1
f 10/136/38 29/137/37 27/138/42
s 1
f 1/139/19 4/140/22 15/141/27
s 1
f 11/142/41 24/143/40 21/144/43
s 1
f 30/145/36 11/146/41 21/147/43
s 1
f 30/148/36 21/149/43 27/150/42
s 1
f 16/151/23 15/152/27 4/153/22
s 1
f 13/154/30 1/155/19 14/156/29
s 1
f 10/157/38 27/158/42 20/159/44
s 1
f 10/160/38 20/161/44 12/162/45
s 1
f 8/163/24 16/164/23 4/165/22
s 1
f 23/166/25 8/167/24 4/168/22
s 1
f 12/169/45 20/170/44 17/171/46
s 1
f 1/172/19 15/173/27 14/174/29
s 1
f 9/175/33 1/176/19 5/177/32
s 1
f 10/178/38 1/179/19 9/180/33
