# Blender3D v244 OBJ File: redfox.blend
# www.blender3d.org
mtllib redfox.mtl
v -0.016717 -0.402486 0.388030
v 0.016717 -0.402486 0.388030
v -0.012331 -0.429697 0.388030
v 0.012331 -0.429697 0.388030
v 0.000000 -0.436541 0.388030
v 0.000000 -0.397992 0.388030
v -0.015017 -0.393293 0.414443
v 0.015017 -0.393293 0.414443
v -0.015158 -0.436541 0.414443
v 0.015158 -0.436541 0.414443
v 0.000000 -0.436541 0.416419
v 0.000000 -0.390500 0.420222
v -0.022000 -0.393293 0.402425
v 0.022000 -0.393293 0.402425
v -0.022077 -0.436541 0.402425
v 0.022077 -0.436541 0.402425
v 0.000000 -0.445969 0.402425
v 0.000000 -0.390500 0.402425
v 0.000000 -0.397992 0.385379
v 0.000000 -0.429593 0.385379
v -0.008115 -0.429593 0.385379
v 0.008115 -0.429593 0.385379
v -0.008115 -0.402486 0.385379
v 0.008115 -0.402486 0.385379
v -0.040972 -0.335534 0.361474
v 0.040972 -0.335534 0.361474
v 0.000000 -0.331040 0.358387
v -0.054857 -0.367783 0.411947
v 0.054857 -0.367783 0.411947
v 0.000000 -0.371859 0.433468
v -0.047873 -0.369510 0.437406
v 0.047873 -0.369510 0.437406
v 0.000000 -0.331040 0.369324
v -0.049574 -0.335534 0.369324
v 0.049574 -0.335534 0.369324
v -0.046095 -0.334988 0.447532
v 0.046095 -0.334988 0.447532
v -0.060669 -0.335235 0.408510
v 0.060669 -0.335235 0.408510
v 0.000000 -0.324568 0.455272
v -0.023048 -0.346539 0.451402
v 0.023048 -0.346539 0.451402
v -0.042964 -0.314744 0.489976
v 0.042964 -0.314744 0.489976
v -0.050706 -0.314293 0.447532
v 0.050706 -0.314293 0.447532
v -0.050706 -0.292298 0.405896
v 0.050706 -0.292298 0.405896
v -0.049574 -0.303708 0.364100
v 0.049574 -0.303708 0.364100
v -0.042964 -0.300910 0.454204
v 0.042964 -0.300910 0.454204
v 0.000000 -0.282383 0.455272
v -0.045536 -0.273677 0.335222
v 0.045536 -0.273677 0.335222
v -0.046385 -0.245002 0.356097
v 0.046385 -0.245002 0.356097
v 0.000000 -0.231063 0.370267
v 0.000000 -0.284658 0.323757
v -0.058592 -0.228112 0.279474
v 0.058592 -0.228112 0.279474
v -0.069261 -0.121119 0.322579
v 0.069261 -0.121119 0.322579
v 0.000000 -0.099223 0.363789
v 0.000000 -0.255958 0.249220
v -0.069711 -0.154765 0.205217
v 0.069711 -0.154765 0.205217
v 0.000000 -0.210399 0.230667
v -0.046344 -0.182582 0.217942
v 0.046344 -0.182582 0.217942
v -0.063546 -0.159686 0.122550
v 0.063546 -0.159686 0.122550
v -0.053613 -0.177662 0.130773
v 0.053613 -0.177662 0.130773
v -0.069261 -0.024767 0.322579
v 0.069261 -0.024767 0.322579
v 0.000000 -0.002871 0.363789
v -0.069711 -0.121961 0.205217
v 0.069711 -0.121961 0.205217
v -0.069711 -0.144935 0.128555
v 0.069711 -0.144935 0.128555
v -0.048348 -0.144935 0.128555
v 0.048348 -0.144935 0.128555
v -0.036080 -0.152966 0.205217
v 0.036080 -0.152966 0.205217
v -0.053280 -0.178807 0.042772
v 0.053280 -0.178807 0.042772
v -0.067190 -0.162830 0.037760
v 0.067190 -0.162830 0.037760
v -0.068499 -0.149719 0.037729
v 0.068499 -0.149719 0.037729
v -0.049510 -0.149719 0.037457
v 0.049510 -0.149719 0.037457
v 0.000000 -0.104809 0.195989
v -0.069261 0.098966 0.296922
v 0.069261 0.098966 0.296922
v 0.000000 0.133058 0.350517
v -0.069711 0.073459 0.227848
v 0.069711 0.073459 0.227848
v -0.036080 0.070087 0.205217
v 0.036080 0.070087 0.205217
v 0.000000 0.050698 0.195989
v -0.045910 0.173845 0.286764
v 0.045910 0.173845 0.286764
v -0.069711 0.083282 0.151536
v 0.069711 0.083282 0.151536
v -0.069261 0.147628 0.204022
v 0.069261 0.147628 0.204022
v 0.000000 0.333624 0.271703
v 0.000000 0.422535 0.199909
v 0.000000 0.385858 0.148016
v 0.000000 0.297444 0.191878
v 0.000000 0.199462 0.289201
v -0.069261 0.147938 0.122964
v 0.069261 0.147938 0.122964
v -0.036080 0.083276 0.142760
v 0.036080 0.083276 0.142760
v -0.034631 0.150224 0.191347
v 0.034631 0.150224 0.191347
v -0.034631 0.160826 0.123353
v 0.034631 0.160826 0.123353
v -0.009389 0.206921 0.289201
v 0.009389 0.206921 0.289201
v 0.000000 0.209015 0.308395
v -0.040354 0.318989 0.239643
v 0.040354 0.318989 0.239643
v -0.038862 0.395570 0.182466
v 0.038862 0.395570 0.182466
v 0.000000 0.152821 0.205069
v -0.062828 0.086861 0.058312
v 0.062828 0.086861 0.058312
v -0.068401 0.112080 0.046816
v 0.068401 0.112080 0.046816
v -0.042585 0.084015 0.058732
v 0.042585 0.084015 0.058732
v -0.041712 0.119081 0.047050
v 0.041712 0.119081 0.047050
v -0.081962 0.052799 0.021026
v 0.081962 0.052799 0.021026
v -0.081962 0.093780 0.021026
v 0.081962 0.093780 0.021026
v -0.040981 0.052799 0.021026
v 0.040981 0.052799 0.021026
v -0.040981 0.093780 0.021026
v 0.040981 0.093780 0.021026
v -0.046558 -0.193087 0.021026
v 0.046558 -0.193087 0.021026
v -0.076385 -0.193087 0.021026
v 0.076385 -0.193087 0.021026
v -0.076385 -0.152600 0.021026
v 0.076385 -0.152600 0.021026
v -0.046558 -0.152106 0.021026
v 0.046558 -0.152106 0.021026
v 0.000000 0.445969 0.128739
vn 0.537492 0.471847 -0.698843
vn 0.000000 0.297006 -0.954863
vn 0.000000 0.565508 -0.824732
vn 0.540635 0.411908 -0.733482
vn -0.537492 0.471847 -0.698843
vn -0.540635 0.411908 -0.733482
vn 0.678732 0.279672 0.679006
vn 0.918271 0.395184 -0.023530
vn 0.810816 0.585253 0.002350
vn 0.558184 0.357158 0.748894
vn -0.810816 0.585253 0.002350
vn -0.918271 0.395184 -0.023530
vn -0.678732 0.279672 0.679006
vn -0.558184 0.357158 0.748894
vn 0.000000 0.990295 0.138951
vn -0.339885 0.563280 0.753075
vn -1.000000 0.000000 0.000000
vn -0.415754 0.163915 0.894559
vn -0.407270 0.261635 0.874996
vn 0.191351 0.213050 0.958098
vn -0.191351 0.213050 0.958098
vn 0.236152 0.241157 0.941282
vn -0.236152 0.241157 0.941282
vn -0.275552 -0.225501 0.934446
vn 0.442915 -0.054079 0.894894
vn -0.442915 -0.054079 0.894894
vn 0.719504 -0.068209 0.691122
vn -0.719504 -0.068209 0.691122
vn -0.449019 -0.892544 0.041200
vn 0.876431 0.481368 -0.010712
vn 0.564379 0.537980 -0.626087
vn -0.876431 0.481368 -0.010712
vn -0.564379 0.537980 -0.626087
vn 0.000000 0.495560 -0.868557
vn 0.999084 0.042299 -0.003662
vn 0.742668 0.378094 -0.552660
vn -0.742668 0.378094 -0.552660
vn -0.999084 0.042299 -0.003662
vn 0.088595 0.621845 -0.778069
vn -0.088595 0.621845 -0.778069
vn 0.000000 -0.217902 -0.975951
vn 0.364299 -0.076479 -0.928129
vn -0.364299 -0.076479 -0.928129
vn 0.973998 -0.120945 -0.191443
vn -0.973998 -0.120945 -0.191443
vn 0.843440 -0.489334 -0.221595
vn -0.843440 -0.489334 -0.221595
vn 0.907468 0.065737 0.414899
vn -0.907468 0.065737 0.414899
vn 0.243965 -0.740043 -0.626728
vn -0.243965 -0.740043 -0.626728
vn 0.000000 -0.712577 -0.701559
vn 0.772820 0.462142 0.434858
vn 0.831233 -0.257363 -0.492721
vn -0.772820 0.462142 0.434858
vn -0.831233 -0.257363 -0.492721
vn 0.000000 -0.513596 -0.857997
vn 0.000000 0.759453 0.650533
vn 0.806269 0.521836 0.278512
vn 0.856716 0.017121 -0.515458
vn -0.806269 0.521836 0.278512
vn -0.856716 0.017121 -0.515458
vn 0.000000 -0.052797 -0.998596
vn 0.000000 0.720084 0.693838
vn -0.039613 0.791650 0.609638
vn 0.039613 0.791650 0.609638
vn 0.000000 0.351177 0.936277
vn 0.857784 0.465041 0.218848
vn -0.857784 0.465041 0.218848
vn -0.264809 0.962249 0.062380
vn 0.929319 0.369121 -0.007813
vn 0.264809 0.962249 0.062380
vn -0.929319 0.369121 -0.007813
vn 0.860866 -0.034791 -0.507614
vn 0.000000 -0.077395 -0.996979
vn -0.860866 -0.034791 -0.507614
vn 0.522019 -0.593829 0.612232
vn -0.522019 -0.593829 0.612232
vn 0.598621 -0.795770 0.091586
vn -0.598621 -0.795770 0.091586
vn -0.798181 -0.593432 0.103519
vn -0.595691 -0.225105 0.770989
vn 0.798181 -0.593432 0.103519
vn 0.595691 -0.225105 0.770989
vn -0.217872 0.823878 -0.523179
vn 0.783258 0.442030 -0.437086
vn 0.217872 0.823878 -0.523179
vn -0.783258 0.442030 -0.437086
vn 0.806207 -0.575793 -0.135838
vn -0.806207 -0.575793 -0.135838
vn -0.766869 -0.641224 -0.026582
vn 0.766869 -0.641224 -0.026582
vn 0.000000 0.149236 0.988769
vn 0.882443 -0.187139 -0.431562
vn 0.000000 -0.301462 -0.953459
vn -0.882443 -0.187139 -0.431562
vn 0.694021 0.475204 0.540819
vn -0.694021 0.475204 0.540819
vn -0.417524 0.542314 0.729057
vn 0.417524 0.542314 0.729057
vn 0.000000 0.009339 0.999939
vn 0.761437 -0.648213 0.003021
vn 0.759972 -0.617023 -0.204108
vn -0.759972 -0.617023 -0.204108
vn -0.761437 -0.648213 0.003021
vn 0.714591 0.695639 0.073550
vn -0.714591 0.695639 0.073550
vn 0.739708 -0.658345 0.139164
vn -0.739708 -0.658345 0.139164
vn -0.643178 0.759392 0.097995
vn 0.643178 0.759392 0.097995
vn 0.000000 -0.541459 0.840693
vn -0.441023 -0.702750 0.558184
vn 0.441023 -0.702750 0.558184
vn -0.525071 -0.827937 0.196936
vn 0.525071 -0.827937 0.196936
vn 0.000000 -0.425916 -0.904721
vn 0.000000 -0.513108 -0.858303
vn 0.814386 -0.514878 0.267678
vn 0.992767 0.022279 -0.117862
vn -0.814386 -0.514878 0.267678
vn -0.992767 0.022279 -0.117862
vn 0.000000 0.599078 0.800653
vn 0.000000 -0.120182 0.992737
vn 0.957121 -0.274606 0.091922
vn 0.000000 -0.819056 -0.573656
vn -0.957121 -0.274606 0.091922
vn 0.000000 0.413526 0.910459
vn 0.653432 0.670614 -0.351115
vn 0.825831 -0.531754 0.187597
vn -0.653432 0.670614 -0.351115
vn -0.825831 -0.531754 0.187597
vn -0.586200 0.766167 -0.263192
vn 0.586200 0.766167 -0.263192
vn -0.604541 -0.658620 0.448012
vn 0.604541 -0.658620 0.448012
vn 0.752129 0.646809 0.125919
vn 0.714103 -0.411420 0.566332
vn -0.752129 0.646809 0.125919
vn -0.714103 -0.411420 0.566332
vn -0.692862 0.665761 0.276864
vn 0.692862 0.665761 0.276864
vn -0.570818 -0.363262 0.736320
vn 0.570818 -0.363262 0.736320
vn -0.630970 0.768059 0.109256
vn 0.856594 0.491134 0.158055
vn 0.630970 0.768059 0.109256
vn -0.856594 0.491134 0.158055
vn 0.668416 -0.596362 0.444411
vn -0.668416 -0.596362 0.444411
vn -0.634419 -0.555620 0.537339
vn 0.634419 -0.555620 0.537339
vn 0.000000 -0.717948 0.696066
usemtl Material
s 1
f 7//1 12//2 11//3 9//4
s 1
f 11//3 12//2 8//5 10//6
s 1
f 1//7 13//8 15//9 3//10
s 1
f 16//11 14//12 2//13 4//14
s 1
f 13//8 7//1 9//4 15//9
s 1
f 10//6 8//5 14//12 16//11
s 1
f 3//10 15//9 17//15 5//16
s 1
f 17//15 16//11 4//14 5//16
s 1
f 15//9 9//4 11//3 17//15
s 1
f 11//3 10//6 16//11 17//15
s 1
f 5//16 6//17 19//18 20//19
s 1
f 3//10 5//16 20//19 21//20
s 1
f 20//19 5//16 4//14 22//21
s 1
f 1//7 3//10 21//20 23//22
s 1
f 22//21 4//14 2//13 24//23
s 1
f 23//22 21//20 20//19 19//18
s 1
f 20//19 22//21 24//23 19//18
s 1
f 23//22 19//18 27//24 25//25
s 1
f 27//24 19//18 24//23 26//26
s 1
f 1//7 23//22 25//25 34//27
s 1
f 26//26 24//23 2//13 35//28
s 1
f 19//18 6//17 33//29 27//24
s 1
f 7//1 13//8 28//30 31//31
s 1
f 29//32 14//12 8//5 32//33
s 1
f 13//8 1//7 34//27 28//30
s 1
f 35//28 2//13 14//12 29//32
s 1
f 12//2 7//1 31//31 30//34
s 1
f 32//33 8//5 12//2 30//34
s 1
f 33//29 34//27 25//25 27//24
s 1
f 26//26 35//28 33//29 27//24
s 1
f 28//30 38//35 36//36 31//31
s 1
f 37//37 39//38 29//32 32//33
s 1
f 28//30 34//27 38//35
s 1
f 39//38 35//28 29//32
s 1
f 41//39 30//34 31//31
s 1
f 32//33 30//34 42//40
s 1
f 36//36 41//39 31//31
s 1
f 32//33 42//40 37//37
s 1
f 41//39 40//41 30//34
s 1
f 30//34 40//41 42//40
s 1
f 36//36 43//42 41//39
s 1
f 42//40 44//43 37//37
s 1
f 40//41 41//39 43//42
s 1
f 44//43 42//40 40//41
s 1
f 36//36 45//44 43//42
s 1
f 44//43 46//45 37//37
s 1
f 36//36 38//35 47//46 45//44
s 1
f 48//47 39//38 37//37 46//45
s 1
f 34//27 49//48 47//46 38//35
s 1
f 48//47 50//49 35//28 39//38
s 1
f 43//42 45//44 51//50
s 1
f 52//51 46//45 44//43
s 1
f 40//41 43//42 51//50
s 1
f 52//51 44//43 40//41
s 1
f 40//41 51//50 53//52
s 1
f 53//52 52//51 40//41
s 1
f 45//44 47//46 51//50
s 1
f 52//51 48//47 46//45
s 1
f 47//46 53//52 51//50
s 1
f 52//51 53//52 48//47
s 1
f 47//46 49//48 54//53 56//54
s 1
f 55//55 50//49 48//47 57//56
s 1
f 53//52 47//46 56//54 58//57
s 1
f 57//56 48//47 53//52 58//57
s 1
f 25//25 49//48 34//27
s 1
f 35//28 50//49 26//26
s 1
f 25//25 54//53 49//48
s 1
f 50//49 55//55 26//26
s 1
f 25//25 27//24 59//58 54//53
s 1
f 59//58 27//24 26//26 55//55
s 1
f 56//54 54//53 60//59 62//60
s 1
f 61//61 55//55 57//56 63//62
s 1
f 58//57 56//54 62//60 64//63
s 1
f 63//62 57//56 58//57 64//63
s 1
f 54//53 59//58 65//64 60//59
s 1
f 65//64 59//58 55//55 61//61
s 1
f 69//65 60//59 65//64
s 1
f 65//64 61//61 70//66
s 1
f 68//67 69//65 65//64
s 1
f 65//64 70//66 68//67
s 1
f 69//65 66//68 60//59
s 1
f 61//61 67//69 70//66
s 1
f 66//68 69//65 73//70 71//71
s 1
f 74//72 70//66 67//69 72//73
s 1
f 60//59 66//68 62//60
s 1
f 63//62 67//69 61//61
s 1
f 64//63 62//60 75//74 77//75
s 1
f 76//76 63//62 64//63 77//75
s 1
f 62//60 66//68 78//77 75//74
s 1
f 79//78 67//69 63//62 76//76
s 1
f 66//68 71//71 80//79 78//77
s 1
f 81//80 72//73 67//69 79//78
s 1
f 78//77 80//79 82//81 84//82
s 1
f 83//83 81//80 79//78 85//84
s 1
f 69//65 84//82 82//81 73//70
s 1
f 83//83 85//84 70//66 74//72
s 1
f 71//71 73//70 86//85 88//86
s 1
f 87//87 74//72 72//73 89//88
s 1
f 80//79 71//71 88//86 90//89
s 1
f 89//88 72//73 81//80 91//90
s 1
f 82//81 80//79 90//89 92//91
s 1
f 91//90 81//80 83//83 93//92
s 1
f 73//70 82//81 92//91 86//85
s 1
f 93//92 83//83 74//72 87//87
s 1
f 68//67 94//93 84//82 69//65
s 1
f 85//84 94//93 68//67 70//66
s 1
f 77//75 75//74 95//94 97//95
s 1
f 96//96 76//76 77//75 97//95
s 1
f 75//74 78//77 98//97 95//94
s 1
f 99//98 79//78 76//76 96//96
s 1
f 78//77 84//82 100//99 98//97
s 1
f 101//100 85//84 79//78 99//98
s 1
f 84//82 94//93 102//101 100//99
s 1
f 102//101 94//93 85//84 101//100
s 1
f 95//94 107//102 103//103
s 1
f 104//104 108//105 96//96
s 1
f 95//94 98//97 105//106 107//102
s 1
f 106//107 99//98 96//96 108//105
s 1
f 105//106 114//108 107//102
s 1
f 108//105 115//109 106//107
s 1
f 98//97 100//99 116//110 105//106
s 1
f 117//111 101//100 99//98 106//107
s 1
f 100//99 102//101 129//112 118//113
s 1
f 129//112 102//101 101//100 119//114
s 1
f 100//99 118//113 120//115 116//110
s 1
f 121//116 119//114 101//100 117//111
s 1
f 107//102 114//108 120//115 118//113
s 1
f 121//116 115//109 108//105 119//114
s 1
f 109//117 124//118 122//119 125//120
s 1
f 123//121 124//118 109//117 126//122
s 1
f 112//123 125//120 122//119 113//124
s 1
f 123//121 126//122 112//123 113//124
s 1
f 109//117 125//120 127//125 110//126
s 1
f 128//127 126//122 109//117 110//126
s 1
f 111//128 127//125 125//120 112//123
s 1
f 126//122 128//127 111//128 112//123
s 1
f 95//94 103//103 124//118 97//95
s 1
f 124//118 104//104 96//96 97//95
s 1
f 103//103 107//102 118//113 122//119
s 1
f 119//114 108//105 104//104 123//121
s 1
f 103//103 122//119 124//118
s 1
f 124//118 123//121 104//104
s 1
f 113//124 122//119 118//113 129//112
s 1
f 119//114 123//121 113//124 129//112
s 1
f 114//108 105//106 130//129 132//130
s 1
f 131//131 106//107 115//109 133//132
s 1
f 105//106 116//110 134//133 130//129
s 1
f 135//134 117//111 106//107 131//131
s 1
f 116//110 120//115 136//135 134//133
s 1
f 137//136 121//116 117//111 135//134
s 1
f 120//115 114//108 132//130 136//135
s 1
f 133//132 115//109 121//116 137//136
s 1
f 132//130 130//129 138//137 140//138
s 1
f 139//139 131//131 133//132 141//140
s 1
f 130//129 134//133 142//141 138//137
s 1
f 143//142 135//134 131//131 139//139
s 1
f 134//133 136//135 144//143 142//141
s 1
f 145//144 137//136 135//134 143//142
s 1
f 136//135 132//130 140//138 144//143
s 1
f 141//140 133//132 137//136 145//144
s 1
f 138//137 142//141 144//143 140//138
s 1
f 145//144 143//142 139//139 141//140
s 1
f 88//86 86//85 146//145 148//146
s 1
f 147//147 87//87 89//88 149//148
s 1
f 90//89 88//86 148//146 150//149
s 1
f 149//148 89//88 91//90 151//150
s 1
f 92//91 90//89 150//149 152//151
s 1
f 151//150 91//90 93//92 153//152
s 1
f 86//85 92//91 152//151 146//145
s 1
f 153//152 93//92 87//87 147//147
s 1
f 146//145 152//151 150//149 148//146
s 1
f 151//150 153//152 147//147 149//148
s 1
f 110//126 127//125 154//153
s 1
f 154//153 128//127 110//126
s 1
f 111//128 154//153 127//125
s 1
f 128//127 154//153 111//128
f 6 18
f 12 18
