# Blender3D v249 OBJ File: stonebase1.blend
# www.blender3d.org
mtllib stonebase1.mtl
v 0.747328 5.975193 0.242903
v 5.231749 5.975192 0.242903
v 0.242940 6.647709 0.133040
v 5.736135 6.647710 0.133040
v 0.242941 6.647710 0.242903
v 5.736136 6.647710 0.242903
v 5.979151 0.743371 0.242903
v 6.651668 0.238984 0.133040
v 6.651668 5.732179 0.133040
v 6.651668 0.238984 0.242903
v 6.651668 5.732180 0.242903
v -0.672592 5.732177 0.133040
v -0.672591 0.238982 0.133040
v -0.672592 5.732177 0.242903
v -0.672591 0.238981 0.242903
v -0.000075 0.743370 0.242903
v -0.000075 5.227789 0.242903
v 5.736135 -0.676550 0.133040
v 0.242940 -0.676550 0.133040
v 5.736135 -0.676550 0.242903
v 0.242940 -0.676550 0.242903
v 0.747328 -0.004033 0.242903
v 5.231749 -0.004033 0.242903
v 6.651668 -0.676550 0.133040
v 6.651668 6.647711 0.133040
v -0.672592 6.647710 0.133040
v -0.672592 -0.676550 0.133040
v 5.986754 -1.010707 0.133040
v -0.007678 -1.010708 0.133040
v -1.006750 5.982795 0.133040
v -1.006749 -0.011636 0.133040
v -0.007678 6.981867 0.133040
v 5.986754 6.981868 0.133040
v 6.985826 -0.011634 0.133040
v 6.985825 5.982797 0.133040
v 6.985826 -1.010707 0.133040
v 6.985825 6.981869 0.133040
v -1.006749 6.981867 0.133040
v -1.006750 -1.010708 0.133040
v 5.986754 -1.010707 0.023176
v -0.007678 -1.010708 0.023176
v -1.006750 5.982795 0.023176
v -1.006749 -0.011636 0.023176
v 5.986754 6.981868 0.023176
v -0.007678 6.981867 0.023176
v 6.985825 5.982797 0.023176
v 6.985826 -0.011634 0.023176
v 6.985826 -1.010707 0.023176
v 6.985825 6.981869 0.023176
v -1.006749 6.981867 0.023176
v -1.006750 -1.010708 0.023176
v 5.979151 5.227792 0.242903
v 5.979151 0.743371 0.352767
v 5.979151 5.227792 0.352767
v 0.747328 5.975193 0.352767
v 5.231749 5.975193 0.352767
v -0.000075 0.743370 0.352767
v -0.000075 5.227789 0.352767
v 0.747328 -0.004033 0.352767
v 5.231749 -0.004033 0.352767
vt 0.885802 0.698935
vt 0.840330 0.689253
vt 0.846675 0.293572
vt 0.883825 0.282422
vt 0.779533 0.642031
vt 0.790551 0.339237
vt 0.728624 0.861941
vt 0.283966 0.852297
vt 0.295210 0.813372
vt 0.719318 0.806130
vt 0.335900 0.752896
vt 0.678073 0.742885
vt 0.167464 0.288382
vt 0.169499 0.693530
vt 0.125057 0.708556
vt 0.119757 0.278206
vt 0.228419 0.332340
vt 0.224216 0.647571
vt 0.287264 0.109725
vt 0.740984 0.129427
vt 0.727139 0.174793
vt 0.296428 0.167523
vt 0.687361 0.231939
vt 0.344101 0.234663
vt 0.938157 0.245027
vt 0.944866 0.744983
vt 0.769395 0.918800
vt 0.239458 0.912197
vt 0.071572 0.748284
vt 0.058166 0.229875
vt 0.245727 0.049638
vt 0.786575 0.072953
vt 0.883478 0.143892
vt 0.927097 0.106067
vt 0.132537 0.117144
vt 0.087371 0.069753
vt 0.134852 0.847152
vt 0.093146 0.888984
vt 0.875609 0.852889
vt 0.919085 0.897215
vt 0.981689 0.244060
vt 1.000000 0.749080
vt 0.770920 0.965928
vt 0.235323 0.965928
vt 0.026954 0.750965
vt 0.000000 0.225499
vt 0.245410 0.000000
vt 0.793238 0.019969
vt 0.960149 0.080940
vt 0.057032 0.033356
vt 0.061283 0.917031
vt 0.948241 0.931158
vt 0.344466 0.715534
vt 0.665158 0.708912
vt 0.751759 0.630476
vt 0.756163 0.347817
vt 0.674275 0.268323
vt 0.352184 0.270125
vt 0.262502 0.348000
vt 0.264599 0.636485
vn -0.000000 1.000000 -0.000002
vn 0.000000 0.000000 -1.000000
vn 1.000000 0.000000 0.000000
vn 0.000000 -1.000000 0.000002
vn -1.000000 0.000000 0.000000
vn -0.000000 1.000000 0.000000
vn 0.000000 -1.000000 0.000000
vn 0.000001 -1.000000 0.000000
vn 0.707107 -0.707107 0.000000
vn 0.707107 0.707107 0.000003
vn -0.707107 0.707106 -0.000002
vn -0.707106 -0.707107 0.000006
vn -0.000000 -1.000000 0.000004
vn -0.707108 0.707106 0.000000
vn -0.707106 -0.707107 0.000003
vn 0.707107 -0.707106 -0.000002
vn 0.707107 0.707107 0.000000
usemtl Cube.004_base_textur_base_texture.jpg.001
s off
f 19/1/1 21/2/1 20/3/1 18/4/1
f 21/2/2 22/5/2 23/6/2 20/3/2
f 13/7/3 12/8/3 14/9/3 15/10/3
f 15/10/2 14/9/2 17/11/2 16/12/2
f 6/13/4 5/14/4 3/15/4 4/16/4
f 2/17/2 1/18/2 5/14/2 6/13/2
f 9/19/5 8/20/5 10/21/5 11/22/5
f 11/22/2 10/21/2 7/23/2 52/24/2
f 19/1/2 18/4/2 28/25/2 29/26/2
f 12/8/2 13/7/2 31/27/2 30/28/2
f 4/16/2 3/15/2 32/29/2 33/30/2
f 8/20/2 9/19/2 35/31/2 34/32/2
f 18/4/2 24/33/2 36/34/2 28/25/2
f 9/19/2 25/35/2 37/36/2 35/31/2
f 26/37/2 12/8/2 30/28/2 38/38/2
f 27/39/2 19/1/2 29/26/2 39/40/2
f 25/35/2 4/16/2 33/30/2 37/36/2
f 13/7/2 27/39/2 39/40/2 31/27/2
f 3/15/2 26/37/2 38/38/2 32/29/2
f 24/33/2 8/20/2 34/32/2 36/34/2
f 29/26/6 28/25/6 40/41/6 41/42/6
f 30/28/3 31/27/3 43/43/3 42/44/3
f 33/30/7 32/29/7 45/45/7 44/46/7
f 34/32/5 35/31/5 46/47/5 47/48/5
f 28/25/6 36/34/6 48/49/6 40/41/6
f 35/31/5 37/36/5 49/50/5 46/47/5
f 38/38/3 30/28/3 42/44/3 50/51/3
f 39/40/6 29/26/6 41/42/6 51/52/6
f 37/36/8 33/30/8 44/46/8 49/50/8
f 31/27/3 39/40/3 51/52/3 43/43/3
f 32/29/7 38/38/7 50/51/7 45/45/7
f 36/34/5 34/32/5 47/48/5 48/49/5
f 3/15/2 12/8/2 26/37/2
f 3/15/9 5/14/9 14/9/9 12/8/9
f 13/7/2 19/1/2 27/39/2
f 13/7/10 15/10/10 21/2/10 19/1/10
f 8/20/2 24/33/2 18/4/2
f 8/20/11 18/4/11 20/3/11 10/21/11
f 4/16/2 25/35/2 9/19/2
f 4/16/12 9/19/12 11/22/12 6/13/12
f 58/53/3 57/54/3 16/12/3 17/11/3
f 59/55/6 60/56/6 23/6/6 22/5/6
f 53/57/5 54/58/5 52/24/5 7/23/5
f 1/18/13 2/17/13 56/59/13 55/60/13
f 55/60/2 56/59/2 60/56/2 59/55/2
f 53/57/2 60/56/2 56/59/2 54/58/2
f 57/54/2 58/53/2 55/60/2 59/55/2
f 7/23/2 10/21/2 20/3/2 23/6/2
f 23/6/14 60/56/14 53/57/14 7/23/14
f 2/17/2 6/13/2 11/22/2 52/24/2
f 52/24/15 54/58/15 56/59/15 2/17/15
f 1/18/2 17/11/2 14/9/2 5/14/2
f 1/18/16 55/60/16 58/53/16 17/11/16
f 15/10/2 16/12/2 22/5/2 21/2/2
f 16/12/17 57/54/17 59/55/17 22/5/17
