# Blender3D v245 OBJ File: steps.blend
# www.blender3d.org
mtllib steps.mtl
o Cube
v -0.638430 -0.994450 -1.998922
v -0.638430 -0.591827 -0.476069
v -0.638430 -0.591892 -0.171516
v -0.638430 -0.994840 -0.171601
v -0.638430 -0.188880 -0.475983
v -0.638430 -0.188815 -0.780537
v -0.638430 0.214198 -1.085004
v -0.638430 0.214133 -0.780451
v -0.638430 0.617146 -1.084918
v -0.638430 0.617210 -1.389472
v -0.638430 1.020288 -1.998493
v -0.638430 1.020158 -1.389386
v 0.638430 1.020288 -1.998493
v 0.638430 1.020158 -1.389386
v 0.638430 0.617146 -1.084918
v 0.638430 0.617210 -1.389472
v 0.638430 0.214198 -1.085004
v 0.638430 0.214133 -0.780451
v 0.638430 -0.188880 -0.475983
v 0.638430 -0.188815 -0.780537
v 0.638430 -0.994450 -1.998922
v 0.638430 -0.591892 -0.171516
v 0.638430 -0.591827 -0.476069
v 0.638430 -0.994840 -0.171601
v 0.638430 -0.994840 -0.171601
v 0.638430 -0.591827 -0.476069
v 0.638430 -0.591892 -0.171516
v 0.638430 -0.994450 -1.998922
v 0.638430 -0.188815 -0.780537
v 0.638430 -0.188880 -0.475983
v 0.638430 0.214133 -0.780451
v 0.638430 0.214198 -1.085004
v 0.638430 0.617210 -1.389472
v 0.638430 0.617146 -1.084918
v 0.638430 1.020158 -1.389386
v 0.638430 1.020288 -1.998493
v -0.638430 1.083402 -1.998480
v -0.638430 1.083273 -1.389373
v 0.638430 1.083273 -1.389373
v 0.638430 1.083402 -1.998480
v 0.708015 1.180592 -2.031653
v -0.708015 1.180592 -2.031653
v 0.708015 1.180448 -1.356158
v -0.708015 1.180448 -1.356158
v -0.718056 -0.533181 -0.129175
v 0.718411 -0.533181 -0.129175
v -0.718056 -0.533108 -0.471798
v 0.718411 -0.533108 -0.471798
v -0.708275 -0.136349 -0.443618
v 0.708275 -0.136349 -0.443618
v -0.708275 -0.136277 -0.781490
v 0.708275 -0.136277 -0.781490
v -0.734701 0.262526 -0.736143
v 0.734701 0.262526 -0.736143
v -0.734701 0.262601 -1.086621
v 0.734701 0.262601 -1.086621
v -0.702273 0.667611 -1.056952
v 0.702273 0.667611 -1.056952
v -0.702273 0.667676 -1.391961
v 0.702273 0.667676 -1.391961
vt 0.918294 0.360319 0.0
vt 0.923139 1.940268 0.0
vt -0.282190 1.943967 0.0
vt -0.287036 0.364018 0.0
vt 2.166866 2.989623 0.0
vt 2.163168 1.783974 0.0
vt 2.479058 1.783005 0.0
vt 2.482756 2.988653 0.0
vt 2.623024 1.626194 0.0
vt 2.619326 0.420546 0.0
vt 2.935217 0.419577 0.0
vt 2.938915 1.625225 0.0
vt -1.558614 1.611126 0.0
vt -1.562311 0.405477 0.0
vt -1.246421 0.404507 0.0
vt -1.242723 1.610156 0.0
vt -1.558614 2.817743 0.0
vt -1.562311 1.612095 0.0
vt -1.246421 1.611126 0.0
vt -1.242723 2.816774 0.0
vt -0.347488 2.949947 0.0
vt -0.663378 2.950916 0.0
vt -0.667076 1.745268 0.0
vt -0.351186 1.744298 0.0
vt 2.447731 0.355471 0.0
vt 1.242401 0.359170 0.0
vt 1.235006 -2.052127 0.0
vt 2.440335 -2.055826 0.0
vt -2.055826 0.355471 0.0
vt -0.789338 -0.444416 0.0
vt -0.473332 -0.443446 0.0
vt -0.475798 0.360319 0.0
vt -2.055826 0.355471 0.0
vt -1.104111 -0.847269 0.0
vt -0.788105 -0.846299 0.0
vt -0.789338 -0.444416 0.0
vt -2.055826 0.355471 0.0
vt -1.418884 -1.250121 0.0
vt -1.102879 -1.249151 0.0
vt -1.104111 -0.847269 0.0
vt -2.055826 0.355471 0.0
vt -1.733657 -1.652974 0.0
vt -1.417652 -1.652004 0.0
vt -1.418884 -1.250121 0.0
vt -1.733657 -1.652974 0.0
vt -2.055826 0.355471 0.0
vt -2.048430 -2.055826 0.0
vt -1.732425 -2.054856 0.0
vt -2.055826 -2.055826 0.0
vt -2.055826 -2.055826 0.0
vt -2.055826 -2.055826 0.0
vt -2.055826 -2.055826 0.0
vt -2.055826 -2.055826 0.0
vt -2.055826 -2.055826 0.0
vt -2.055826 -2.055826 0.0
vt -2.055826 -2.055826 0.0
vt -2.055826 -2.055826 0.0
vt -2.055826 -2.055826 0.0
vt -2.055826 -2.055826 0.0
vt -2.055826 -2.055826 0.0
vt -2.055826 -2.055826 0.0
vt -2.055826 -2.055826 0.0
vt -2.055826 -2.055826 0.0
vt -2.055826 -2.055826 0.0
vt -2.055826 -2.055826 0.0
vt -2.055826 -2.055826 0.0
vt -2.055826 -2.055826 0.0
vt -2.055826 -2.055826 0.0
vt -2.055826 -2.055826 0.0
vt -2.055826 -2.055826 0.0
vt -2.055826 -2.055826 0.0
vt -2.055826 -2.055826 0.0
vt -2.055826 -2.055826 0.0
vt -2.055826 -2.055826 0.0
vt -2.055826 -2.055826 0.0
vt -2.055826 -2.055826 0.0
vt -2.055826 -2.055826 0.0
vt -2.055826 -2.055826 0.0
vt -2.055826 -2.055826 0.0
vt -2.055826 -2.055826 0.0
vt -2.055826 -2.055826 0.0
vt -2.055826 -2.055826 0.0
vt -2.055826 -2.055826 0.0
vt -2.055826 -2.055826 0.0
vt -2.055826 -2.055826 0.0
vt -2.055826 -2.055826 0.0
vt -2.055826 -2.055826 0.0
vt -2.055826 -2.055826 0.0
vt -2.055826 -2.055826 0.0
vt -2.055826 -2.055826 0.0
vt -2.055826 -2.055826 0.0
vt -2.055826 -2.055826 0.0
vt -2.055826 -2.055826 0.0
vt -2.055826 -2.055826 0.0
vt -2.055826 -2.055826 0.0
vt -2.055826 -2.055826 0.0
vt 1.232541 -2.055826 0.0
vt 1.235006 -1.252061 0.0
vt 0.919000 -1.251091 0.0
vt -0.347488 -2.050978 0.0
vt 0.920233 -0.849208 0.0
vt 0.604227 -0.848238 0.0
vt -0.347488 -2.050978 0.0
vt 0.919000 -1.251091 0.0
vt 0.604227 -0.848238 0.0
vt 0.605460 -0.446356 0.0
vt 0.289454 -0.445386 0.0
vt -0.347488 -2.050978 0.0
vt 0.290687 -0.043503 0.0
vt -0.025319 -0.042533 0.0
vt -0.347488 -2.050978 0.0
vt 0.289454 -0.445386 0.0
vt -0.024086 0.359350 0.0
vt -0.340092 0.360319 0.0
vt -0.347488 -2.050978 0.0
vt -0.025319 -0.042533 0.0
vt -0.475798 0.360319 0.0
vt -0.473332 -0.443446 0.0
vt -0.423836 -0.443294 0.0
vt -0.426301 0.360471 0.0
vt 2.482756 2.988653 0.0
vt 2.479058 1.783005 0.0
vt 2.528537 1.782853 0.0
vt 2.532234 2.988501 0.0
vt 0.991680 1.208273 0.0
vt 0.989215 0.404507 0.0
vt 1.038712 0.404356 0.0
vt 1.041177 1.208122 0.0
vt -0.282190 1.943967 0.0
vt 0.923139 1.940268 0.0
vt 0.923291 1.989762 0.0
vt -0.282038 1.993461 0.0
vt -0.282038 1.993461 0.0
vt 0.923291 1.989762 0.0
vt 0.989215 2.066870 0.0
vt -0.347488 2.070971 0.0
vt 1.041177 1.208122 0.0
vt 1.038712 0.404356 0.0
vt 1.114791 0.360319 0.0
vt 1.117525 1.251690 0.0
vt 2.532234 2.988501 0.0
vt 2.528537 1.782853 0.0
vt 2.605703 1.716912 0.0
vt 2.609804 3.053968 0.0
vt -0.426301 0.360471 0.0
vt -0.423836 -0.443294 0.0
vt -0.347488 -0.486863 0.0
vt -0.350222 0.404508 0.0
vt -0.347488 1.741564 0.0
vt -1.238622 1.744299 0.0
vt -1.242723 0.407242 0.0
vt -0.351588 0.404507 0.0
vt 1.757693 0.435571 0.0
vt 1.761391 1.641219 0.0
vt 1.705783 1.716911 0.0
vt 1.701623 0.360557 0.0
vt 1.185183 1.641012 0.0
vt 1.188880 0.435364 0.0
vt 1.235006 0.360319 0.0
vt 1.230846 1.716674 0.0
vt 1.761391 1.641219 0.0
vt 2.163168 1.639987 0.0
vt 2.157781 1.715524 0.0
vt 1.705783 1.716911 0.0
vt 2.159470 0.434338 0.0
vt 1.757693 0.435571 0.0
vt 1.701623 0.360557 0.0
vt 2.153621 0.359170 0.0
vt 2.619326 1.715524 0.0
vt 2.167328 1.716911 0.0
vt 2.163168 0.360557 0.0
vt 2.615166 0.359170 0.0
vt 1.756219 1.784097 0.0
vt 1.759917 2.989746 0.0
vt 1.717437 3.055827 0.0
vt 1.713335 1.718279 0.0
vt 1.121222 1.632044 0.0
vt 1.117525 0.426395 0.0
vt 1.158543 0.360319 0.0
vt 1.162645 1.697866 0.0
vt 1.759917 2.989746 0.0
vt 2.161693 2.988513 0.0
vt 2.163168 3.054458 0.0
vt 1.717437 3.055827 0.0
vt 2.157995 1.782865 0.0
vt 1.756219 1.784097 0.0
vt 1.713335 1.718279 0.0
vt 2.159065 1.716912 0.0
vt 2.451833 0.359170 0.0
vt 2.447731 -0.978377 0.0
vt 2.893462 -0.979745 0.0
vt 2.897564 0.357802 0.0
vt -1.997108 0.496649 0.0
vt -1.993410 1.702297 0.0
vt -2.051571 1.793379 0.0
vt -2.055826 0.405926 0.0
vt 1.079245 2.548357 0.0
vt 1.075547 1.342709 0.0
vt 1.113269 1.251690 0.0
vt 1.117525 2.639143 0.0
vt -1.993410 1.702297 0.0
vt -1.591634 1.701064 0.0
vt -1.589209 1.791959 0.0
vt -2.051571 1.793379 0.0
vt -1.595332 0.495416 0.0
vt -1.997108 0.496649 0.0
vt -2.055826 0.405926 0.0
vt -1.593465 0.404507 0.0
vt 1.701623 1.746621 0.0
vt 1.239261 1.748040 0.0
vt 1.235006 0.360588 0.0
vt 1.697368 0.359170 0.0
vt 2.938915 1.625225 0.0
vt 2.935217 0.419577 0.0
vt 2.975595 0.359170 0.0
vt 2.979663 1.685383 0.0
vt 0.992913 2.517743 0.0
vt 0.989215 1.312095 0.0
vt 1.028677 1.251690 0.0
vt 1.032744 2.577904 0.0
vt 1.117525 2.102863 0.0
vt 1.118757 1.700980 0.0
vt 1.179034 1.697866 0.0
vt 1.177678 2.139937 0.0
vt -1.241490 2.183257 0.0
vt -1.242723 1.781373 0.0
vt -1.182570 1.744298 0.0
vt -1.181214 2.186370 0.0
vt 2.613872 3.044481 0.0
vt 2.609804 1.718267 0.0
vt 3.051758 1.716912 0.0
vt 3.055826 3.043125 0.0
vn -0.585803 -0.572924 -0.573168
vn -0.709037 0.000122 -0.705130
vn 0.710990 0.000122 -0.703177
vn 0.000000 -0.706931 -0.707236
vn -0.881832 -0.471419 0.009705
vn 0.415845 -0.624928 -0.660695
vn 0.710990 -0.000122 0.703177
vn -0.709037 -0.000122 0.705130
vn -0.838710 -0.544481 0.006928
vn 0.305368 -0.675375 -0.671224
vn 0.270150 -0.639027 0.720145
vn -0.657308 -0.428144 0.620167
vn -0.888455 -0.458937 0.003327
vn 0.418073 -0.593646 -0.687582
vn 0.150212 -0.698355 0.699759
vn -0.614978 -0.503494 0.606830
vn -0.919889 -0.392010 -0.010529
vn 0.457381 -0.463332 -0.758995
vn 0.249977 -0.651418 0.716330
vn -0.649739 -0.440992 0.619129
vn -0.640858 -0.453566 0.619312
vn -0.577349 -0.577471 0.577227
vn 0.000000 -0.707236 0.706931
vn 0.229743 -0.665670 0.709952
vn 1.000000 0.000000 0.000000
vn -0.698325 -0.314310 0.643055
vn -0.698325 -0.314035 -0.643178
vn 0.698325 -0.314310 0.643055
vn 0.698325 -0.314035 -0.643178
vn -0.666768 0.218360 -0.712516
vn 0.666768 0.218360 -0.712516
vn 0.666768 0.218055 0.712607
vn -0.666768 0.218055 0.712607
vn 0.624012 -0.030732 0.780786
vn -0.624897 -0.029817 0.780114
vn -0.602954 0.221900 -0.766259
vn 0.602191 0.220954 -0.767144
vn 0.618397 0.001068 0.785852
vn -0.618397 0.001068 0.785852
vn -0.600696 0.194769 -0.775353
vn 0.600696 0.194769 -0.775353
vn 0.555162 -0.141667 0.819544
vn -0.555162 -0.141667 0.819544
vn -0.512925 0.110477 -0.851253
vn 0.512925 0.110477 -0.851253
vn 0.622089 0.028596 0.782403
vn -0.622089 0.028596 0.782403
vn -0.607471 0.194708 -0.770074
vn 0.607471 0.194708 -0.770074
usemtl Material_wooden1.jpg
s 1
f 1/1/1 11/2/2 13/3/3 21/4/4
f 10/5/5 16/6/6 14/7/7 12/8/8
f 7/9/9 17/10/10 15/11/11 9/12/12
f 6/13/13 20/14/14 18/15/15 8/16/16
f 2/17/17 23/18/18 19/19/19 5/20/20
f 3/21/21 4/22/22 24/23/23 22/24/24
f 1/25/1 21/26/4 24/27/23 4/28/22
f 1/29/1 10/30/5 12/31/8 11/32/2
f 1/33/1 7/34/9 9/35/12 10/36/5
f 1/37/1 6/38/13 8/39/16 7/40/9
f 1/41/1 2/42/17 5/43/20 6/44/13
f 2/45/17 1/46/1 4/47/22 3/48/21
f 24/49/23 21/50/4 28/51/25 25/52/25
f 13/53/3 14/54/7 35/55/25 36/56/25
f 21/57/4 13/58/3 36/59/25 28/60/25
f 22/61/24 24/62/23 25/63/25 27/64/25
f 23/65/18 22/66/24 27/67/25 26/68/25
f 20/69/14 19/70/19 30/71/25 29/72/25
f 19/73/19 23/74/18 26/75/25 30/76/25
f 18/77/15 20/78/14 29/79/25 31/80/25
f 17/81/10 18/82/15 31/83/25 32/84/25
f 15/85/11 17/86/10 32/87/25 34/88/25
f 16/89/6 15/90/11 34/91/25 33/92/25
f 14/93/7 16/94/6 33/95/25 35/96/25
f 36/97/25 35/98/25 33/99/25 28/100/25
f 34/101/25 32/102/25 28/103/25 33/104/25
f 32/105/25 31/106/25 29/107/25 28/108/25
f 30/109/25 26/110/25 28/111/25 29/112/25
f 27/113/25 25/114/25 28/115/25 26/116/25
f 11/117/2 12/118/8 38/119/26 37/120/27
f 12/121/8 14/122/7 39/123/28 38/124/26
f 14/125/7 13/126/3 40/127/29 39/128/28
f 13/129/3 11/130/2 37/131/27 40/132/29
f 40/133/29 37/134/27 42/135/30 41/136/31
f 39/137/28 40/138/29 41/139/31 43/140/32
f 38/141/26 39/142/28 43/143/32 44/144/33
f 37/145/27 38/146/26 44/147/33 42/148/30
f 42/149/30 44/150/33 43/151/32 41/152/31
f 3/153/21 22/154/24 46/155/34 45/156/35
f 23/157/18 2/158/17 47/159/36 48/160/37
f 22/161/24 23/162/18 48/163/37 46/164/34
f 2/165/17 3/166/21 45/167/35 47/168/36
f 47/169/36 45/170/35 46/171/34 48/172/37
f 5/173/20 19/174/19 50/175/38 49/176/39
f 20/177/14 6/178/13 51/179/40 52/180/41
f 19/181/19 20/182/14 52/183/41 50/184/38
f 6/185/13 5/186/20 49/187/39 51/188/40
f 49/189/39 50/190/38 52/191/41 51/192/40
f 8/193/16 18/194/15 54/195/42 53/196/43
f 17/197/10 7/198/9 55/199/44 56/200/45
f 18/201/15 17/202/10 56/203/45 54/204/42
f 7/205/9 8/206/16 53/207/43 55/208/44
f 55/209/44 53/210/43 54/211/42 56/212/45
f 9/213/12 15/214/11 58/215/46 57/216/47
f 16/217/6 10/218/5 59/219/48 60/220/49
f 15/221/11 16/222/6 60/223/49 58/224/46
f 10/225/5 9/226/12 57/227/47 59/228/48
f 57/229/47 58/230/46 60/231/49 59/232/48
