# Blender3D v245 OBJ File: maze_wall_thick.blend
# www.blender3d.org
mtllib maze_wall_thick.mtl
o Cube
v 1.000000 -1.010864 -0.024975
v -1.000000 -1.010864 -0.024976
v -1.000000 1.010864 -0.024976
v 1.000000 1.010864 -0.024976
v 1.000000 -1.010864 0.224976
v -1.000001 -1.010864 0.224976
v -1.000000 1.010864 0.224975
v 1.000000 1.010864 0.224976
vt 0.000179 0.001888 0.0
vt 1.000000 0.000000 0.0
vt 0.999821 0.998112 0.0
vt 0.000000 1.000000 0.0
vt 0.999506 0.000000 0.0
vt 1.000000 0.998479 0.0
vt 0.000495 1.000000 0.0
vt 0.000000 0.001521 0.0
vt 0.008993 0.000000 0.0
vt 1.000000 0.000161 0.0
vt 0.991007 1.000000 0.0
vt 0.000000 0.999839 0.0
vt 0.085132 0.000000 0.0
vt 1.000000 0.001452 0.0
vt 0.914868 1.000000 0.0
vt 0.000000 0.998548 0.0
vt 0.000000 0.000519 0.0
vt 0.968485 0.000000 0.0
vt 1.000000 0.999480 0.0
vt 0.031515 1.000000 0.0
vt 0.980432 0.999985 0.0
vt 0.000000 1.000000 0.0
vt 0.019568 0.000016 0.0
vt 1.000000 0.000000 0.0
vn 0.000000 -0.000000 -1.000000
vn -0.000000 0.000000 1.000000
vn -0.000000 -1.000000 0.000000
vn -1.000000 0.000000 -0.000001
vn 0.000000 1.000000 -0.000001
vn 1.000000 -0.000000 0.000002
usemtl Material.001_wh_n.jpg
s off
f 1/1/1 2/2/1 3/3/1 4/4/1
f 5/5/2 8/6/2 7/7/2 6/8/2
f 1/9/3 5/10/3 6/11/3 2/12/3
f 2/13/4 6/14/4 7/15/4 3/16/4
f 3/17/5 7/18/5 8/19/5 4/20/5
f 5/21/6 1/22/6 4/23/6 8/24/6
