# Blender3D v245 OBJ File: bush1.blend
# www.blender3d.org
mtllib bush2.mtl
o plant_pmat3
v -0.054447 0.179736 0.163861
v 0.001782 -0.016638 0.065410
v 0.547049 -0.016638 0.376830
v 0.490821 0.179736 0.475281
v 0.058011 -0.213012 -0.033041
v 0.603278 -0.213012 0.278379
v -0.138719 -0.169375 0.222187
v 0.001782 -0.016638 0.130819
v -0.266468 0.435520 0.474177
v -0.406968 0.282783 0.565545
v 0.142283 0.136099 0.039451
v -0.125967 0.588257 0.382809
v 0.199508 -0.054689 0.300505
v 0.001782 -0.016638 0.196229
v -0.273713 -0.446515 0.561752
v -0.075987 -0.484566 0.666028
v -0.195945 0.021413 0.091953
v -0.471440 -0.408464 0.457476
v -0.092003 0.179736 0.335808
v -0.006882 -0.016638 0.260916
v 0.407901 -0.016638 0.732355
v 0.322780 0.179736 0.807246
v 0.078239 -0.213012 0.186025
v 0.493022 -0.213012 0.657464
v -0.157181 -0.185221 0.384418
v -0.017463 -0.016638 0.325462
v -0.300720 0.362460 0.738196
v -0.440439 0.193877 0.797152
v 0.122255 0.151945 0.266507
v -0.161002 0.531043 0.679241
v 0.176997 -0.039807 0.486316
v -0.027050 -0.016638 0.390166
v -0.281103 -0.367485 0.844767
v -0.077056 -0.390654 0.940918
v -0.231098 0.006531 0.294015
v -0.485151 -0.344317 0.748616
v -0.128818 0.179737 0.515122
v -0.032534 -0.016638 0.455258
v 0.299022 -0.016638 0.988522
v 0.202738 0.179736 1.048386
v 0.063749 -0.213012 0.395394
v 0.395305 -0.213013 0.928657
vt 1.000000 0.000000 0.0
vt 0.500000 0.000000 0.0
vt 0.500000 1.000000 0.0
vt 1.000000 1.000000 0.0
vt 0.500000 0.000000 0.0
vt 0.000000 0.000000 0.0
vt 0.000000 1.000000 0.0
vt 0.500000 1.000000 0.0
vt 1.000000 0.000000 0.0
vt 0.500000 0.000000 0.0
vt 0.500000 1.000000 0.0
vt 1.000000 1.000000 0.0
vt 0.500000 0.000000 0.0
vt 0.000000 0.000000 0.0
vt 0.000000 1.000000 0.0
vt 0.500000 1.000000 0.0
vt 1.000000 0.000000 0.0
vt 0.500000 0.000000 0.0
vt 0.500000 1.000000 0.0
vt 1.000000 1.000000 0.0
vt 0.500000 0.000000 0.0
vt 0.000000 0.000000 0.0
vt 0.000000 1.000000 0.0
vt 0.500000 1.000000 0.0
vt 1.000000 0.000000 0.0
vt 0.500000 0.000000 0.0
vt 0.500000 1.000000 0.0
vt 1.000000 1.000000 0.0
vt 0.500000 0.000000 0.0
vt 0.000000 0.000000 0.0
vt 0.000000 1.000000 0.0
vt 0.500000 1.000000 0.0
vt 1.000000 0.000000 0.0
vt 0.500000 0.000000 0.0
vt 0.500000 1.000000 0.0
vt 1.000000 1.000000 0.0
vt 0.500000 0.000000 0.0
vt 0.000000 0.000000 0.0
vt 0.000000 1.000000 0.0
vt 0.500000 1.000000 0.0
vt 1.000000 0.000000 0.0
vt 0.500000 0.000000 0.0
vt 0.500000 1.000000 0.0
vt 1.000000 1.000000 0.0
vt 0.500000 0.000000 0.0
vt 0.000000 0.000000 0.0
vt 0.000000 1.000000 0.0
vt 0.500000 1.000000 0.0
vt 1.000000 0.000000 0.0
vt 0.500000 0.000000 0.0
vt 0.500000 1.000000 0.0
vt 1.000000 1.000000 0.0
vt 0.500000 0.000000 0.0
vt 0.000000 0.000000 0.0
vt 0.000000 1.000000 0.0
vt 0.500000 1.000000 0.0
vn -0.429502 -0.500000 0.752016
vn 0.658466 -0.166678 0.733922
vn -0.217138 0.709348 0.670579
vn -0.650194 -0.500000 0.572056
vn 0.645639 -0.287717 0.707368
vn -0.162950 0.823029 0.544124
vn -0.735462 -0.499999 0.457272
usemtl pmat3
s off
f 1/1/1 2/2/1 3/3/1 4/4/1
f 2/5/1 5/6/1 6/7/1 3/8/1
f 7/9/2 8/10/2 9/11/2 10/12/2
f 8/13/2 11/14/2 12/15/2 9/16/2
f 13/17/3 14/18/3 15/19/3 16/20/3
f 14/21/3 17/22/3 18/23/3 15/24/3
f 19/25/4 20/26/4 21/27/4 22/28/4
f 20/29/4 23/30/4 24/31/4 21/32/4
f 25/33/5 26/34/5 27/35/5 28/36/5
f 26/37/5 29/38/5 30/39/5 27/40/5
f 31/41/6 32/42/6 33/43/6 34/44/6
f 32/45/6 35/46/6 36/47/6 33/48/6
f 37/49/7 38/50/7 39/51/7 40/52/7
f 38/53/7 41/54/7 42/55/7 39/56/7
o plant_pmat1
v -0.035283 -0.016638 0.520610
v -0.030885 -0.020126 0.416047
v -0.027878 -0.018382 0.416332
v -0.035283 -0.016638 0.520610
v -0.027878 -0.014894 0.416332
v -0.035283 -0.016638 0.520610
v -0.030885 -0.013149 0.416047
v -0.035283 -0.016638 0.520610
v -0.033893 -0.014894 0.415762
v -0.035283 -0.016638 0.520610
v -0.033893 -0.018382 0.415762
v -0.035283 -0.016638 0.520610
v -0.015546 -0.023615 0.312522
v -0.009577 -0.020126 0.313465
v -0.009577 -0.013149 0.313465
v -0.015546 -0.009661 0.312522
v -0.021514 -0.013149 0.311579
v -0.021514 -0.020126 0.311579
v 0.001782 -0.027103 0.209311
v 0.010814 -0.021871 0.210064
v 0.010814 -0.011405 0.210064
v 0.001782 -0.006172 0.209311
v -0.007250 -0.011405 0.208558
v -0.007250 -0.021871 0.208558
v 0.001782 -0.030592 0.104655
v 0.013866 -0.023615 0.104655
v 0.013866 -0.009661 0.104655
v 0.001782 -0.002684 0.104655
v -0.010303 -0.009661 0.104655
v -0.010303 -0.023615 0.104655
v 0.001782 -0.034080 0.000000
v 0.016888 -0.025359 0.000000
v 0.016888 -0.007917 0.000000
v 0.001782 0.000805 0.000000
v -0.013324 -0.007917 0.000000
v -0.013324 -0.025359 0.000000
vt 0.164635 0.961774 0.0
vt 0.227660 -0.536902 0.0
vt 0.270768 -0.532813 0.0
vt 0.164635 0.961774 0.0
vt 0.715688 0.961774 0.0
vt 0.690688 -0.532813 0.0
vt 0.740687 -0.532813 0.0
vt 0.715688 0.961774 0.0
vt 0.164635 0.961774 0.0
vt 0.270768 -0.532813 0.0
vt 0.227660 -0.536902 0.0
vt 0.164635 0.961774 0.0
vt 0.164635 0.961774 0.0
vt 0.227660 -0.536902 0.0
vt 0.184553 -0.540991 0.0
vt 0.164635 0.961774 0.0
vt 0.715688 0.961774 0.0
vt 0.740687 -0.540991 0.0
vt 0.690688 -0.540991 0.0
vt 0.715688 0.961774 0.0
vt 0.227660 0.665688 0.0
vt 0.164635 0.715688 0.0
vt 0.164635 0.715688 0.0
vt 0.184553 0.690688 0.0
vt 0.227660 0.463098 0.0
vt 0.447520 -1.020702 0.0
vt 0.533061 -1.007185 0.0
vt 0.270768 0.467187 0.0
vt 0.690688 0.467187 0.0
vt 0.665688 -1.007185 0.0
vt 0.765688 -1.007185 0.0
vt 0.740687 0.467187 0.0
vt 0.270768 0.467187 0.0
vt 0.533061 -1.007185 0.0
vt 0.447520 -1.020702 0.0
vt 0.227660 0.463098 0.0
vt 0.227660 0.463098 0.0
vt 0.447520 -1.020702 0.0
vt 0.361978 -1.034218 0.0
vt 0.184553 0.459009 0.0
vt 0.740687 0.459009 0.0
vt 0.765688 -1.034218 0.0
vt 0.665688 -1.034218 0.0
vt 0.690688 0.459009 0.0
vt 0.184553 0.459009 0.0
vt 0.361978 -1.034218 0.0
vt 0.447520 -1.020702 0.0
vt 0.227660 0.463098 0.0
vt 0.447520 0.979298 0.0
vt 0.695870 -0.500000 0.0
vt 0.825325 -0.489209 0.0
vt 0.533061 0.992815 0.0
vt 0.665688 0.992815 0.0
vt 0.640688 -0.489209 0.0
vt 0.790688 -0.489209 0.0
vt 0.765688 0.992815 0.0
vt 0.533061 0.992815 0.0
vt 0.825325 -0.489209 0.0
vt 0.695870 -0.500000 0.0
vt 0.447520 0.979298 0.0
vt 0.447520 0.979298 0.0
vt 0.695870 -0.500000 0.0
vt 0.566415 -0.510791 0.0
vt 0.361978 0.965782 0.0
vt 0.765688 0.965782 0.0
vt 0.790688 -0.510791 0.0
vt 0.640688 -0.510791 0.0
vt 0.665688 0.965782 0.0
vt 0.361978 0.965782 0.0
vt 0.566415 -0.510791 0.0
vt 0.695870 -0.500000 0.0
vt 0.447520 0.979298 0.0
vt 0.695870 0.500000 0.0
vt 0.695870 -1.000000 0.0
vt 0.869075 -1.000000 0.0
vt 0.825325 0.510791 0.0
vt 0.640688 0.510791 0.0
vt 0.615687 -1.000000 0.0
vt 0.815688 -1.000000 0.0
vt 0.790688 0.510791 0.0
vt 0.825325 0.510791 0.0
vt 0.869075 -1.000000 0.0
vt 0.695870 -1.000000 0.0
vt 0.695870 0.500000 0.0
vt 0.695870 0.500000 0.0
vt 0.695870 -1.000000 0.0
vt 0.522665 -1.000000 0.0
vt 0.566415 0.489209 0.0
vt 0.790688 0.489209 0.0
vt 0.815688 -1.000000 0.0
vt 0.615687 -1.000000 0.0
vt 0.640688 0.489209 0.0
vt 0.566415 0.489209 0.0
vt 0.522665 -1.000000 0.0
vt 0.695870 -1.000000 0.0
vt 0.695870 0.500000 0.0
vt 0.695870 0.000000 0.0
vt 0.695870 -1.500000 0.0
vt 0.912376 -1.500000 0.0
vt 0.869075 0.000000 0.0
vt 0.615687 0.000000 0.0
vt 0.590688 -1.500000 0.0
vt 0.840688 -1.500000 0.0
vt 0.815688 0.000000 0.0
vt 0.869075 0.000000 0.0
vt 0.912376 -1.500000 0.0
vt 0.695870 -1.500000 0.0
vt 0.695870 0.000000 0.0
vt 0.695870 0.000000 0.0
vt 0.695870 -1.500000 0.0
vt 0.479363 -1.500000 0.0
vt 0.522665 0.000000 0.0
vt 0.815688 0.000000 0.0
vt 0.840688 -1.500000 0.0
vt 0.590688 -1.500000 0.0
vt 0.615687 0.000000 0.0
vt 0.522665 0.000000 0.0
vt 0.479363 -1.500000 0.0
vt 0.695870 -1.500000 0.0
vt 0.695870 0.000000 0.0
vn -0.002686 -0.999420 0.033204
vn -0.003662 -0.999420 0.033113
vn 0.864834 -0.488540 0.115513
vn 0.863186 -0.500015 0.069643
vn 0.864834 0.488540 0.115513
vn 0.863186 0.500015 0.069643
vn -0.003662 0.999420 0.033113
vn -0.002686 0.999420 0.033204
vn -0.871364 0.488144 -0.049257
vn -0.866634 0.498886 -0.003174
vn -0.871364 -0.488144 -0.049257
vn -0.866634 -0.498886 -0.003174
vn -0.004395 -0.999420 0.032991
vn 0.851314 -0.496994 0.168065
vn 0.851314 0.496994 0.168065
vn -0.004395 0.999420 0.032991
vn -0.861354 0.497543 -0.102390
vn -0.861354 -0.497543 -0.102390
vn -0.002594 -0.999420 0.033204
vn 0.869289 -0.482833 0.105625
vn 0.869289 0.482833 0.105625
vn -0.002594 0.999420 0.033204
vn -0.874813 0.482833 -0.039369
vn -0.874813 -0.482833 -0.039369
vn -0.000793 -0.999420 0.033357
vn 0.865474 -0.499802 0.033326
vn 0.865474 0.499802 0.033326
vn -0.000793 0.999420 0.033357
vn -0.865566 0.499619 0.033479
vn -0.865566 -0.499619 0.033479
vn 0.000000 -0.999420 0.033296
vn 0.865535 -0.499710 0.033296
vn 0.865535 0.499710 0.033296
vn 0.000000 0.999420 0.033296
vn -0.865535 0.499710 0.033296
vn -0.865535 -0.499710 0.033296
usemtl pmat1_barkdk.jpg
s 1
f 43/57/8 44/58/9 45/59/10 46/60/11
f 46/61/11 45/62/10 47/63/12 48/64/13
f 48/65/13 47/66/12 49/67/14 50/68/15
f 50/69/15 49/70/14 51/71/16 52/72/17
f 52/73/17 51/74/16 53/75/18 54/76/19
f 44/77/9 43/78/8 54/79/19 53/80/18
f 44/81/9 55/82/20 56/83/21 45/84/10
f 45/85/10 56/86/21 57/87/22 47/88/12
f 47/89/12 57/90/22 58/91/23 49/92/14
f 49/93/14 58/94/23 59/95/24 51/96/16
f 51/97/16 59/98/24 60/99/25 53/100/18
f 53/101/18 60/102/25 55/103/20 44/104/9
f 55/105/20 61/106/26 62/107/27 56/108/21
f 56/109/21 62/110/27 63/111/28 57/112/22
f 57/113/22 63/114/28 64/115/29 58/116/23
f 58/117/23 64/118/29 65/119/30 59/120/24
f 59/121/24 65/122/30 66/123/31 60/124/25
f 60/125/25 66/126/31 61/127/26 55/128/20
f 61/129/26 67/130/32 68/131/33 62/132/27
f 62/133/27 68/134/33 69/135/34 63/136/28
f 63/137/28 69/138/34 70/139/35 64/140/29
f 64/141/29 70/142/35 71/143/36 65/144/30
f 65/145/30 71/146/36 72/147/37 66/148/31
f 66/149/31 72/150/37 67/151/32 61/152/26
f 67/153/32 73/154/38 74/155/39 68/156/33
f 68/157/33 74/158/39 75/159/40 69/160/34
f 69/161/34 75/162/40 76/163/41 70/164/35
f 70/165/35 76/166/41 77/167/42 71/168/36
f 71/169/36 77/170/42 78/171/43 72/172/37
f 72/173/37 78/174/43 73/175/38 67/176/32
