# Blender3D v245 OBJ File: Bush_01.blend
# www.blender3d.org
mtllib Bush_01.mtl
o plant_pmat2
v -0.013330 -0.229509 -0.021688
v -0.013330 0.229509 -0.021688
v 0.279415 0.229509 0.154746
v 0.279415 -0.229509 0.154746
v 0.551963 0.229509 0.206353
v 0.551963 -0.229509 0.206353
v 0.794282 0.229509 0.071134
v 0.794282 -0.229509 0.071134
v 1.019832 0.229509 -0.167722
v 1.019832 -0.229509 -0.167722
v 0.200547 0.111661 -0.022683
v -0.196975 -0.117849 -0.022683
v -0.331987 0.115999 0.186878
v 0.065535 0.345509 0.186878
v -0.464292 0.345159 0.270105
v -0.066771 0.574669 0.270105
v -0.592547 0.567303 0.164248
v -0.195026 0.796812 0.164248
v -0.718555 0.785555 -0.046496
v -0.321033 1.015064 -0.046496
v -0.196042 0.121894 -0.004695
v 0.200061 -0.106811 -0.043354
v 0.095772 -0.327825 0.195614
v -0.300330 -0.099120 0.234273
v -0.022444 -0.551722 0.308934
v -0.418546 -0.323016 0.347593
v -0.161504 -0.779931 0.234198
v -0.557606 -0.551225 0.272857
v -0.312126 -1.010533 0.055144
v -0.708229 -0.781828 0.093803
v 0.158866 -0.156426 0.032695
v -0.158367 0.156931 0.032695
v 0.019014 0.336507 0.248418
v 0.336248 0.023150 0.248419
v 0.196774 0.516465 0.341306
v 0.514007 0.203108 0.341306
v 0.375100 0.696997 0.250346
v 0.692333 0.383639 0.250346
v 0.553739 0.877846 0.057402
v 0.870972 0.564489 0.057402
v 0.043194 0.219152 0.033848
v -0.069565 -0.212259 0.033848
v -0.276291 -0.158227 0.287999
v -0.163533 0.273184 0.287999
v -0.502996 -0.098972 0.421061
v -0.390237 0.332438 0.421061
v -0.759602 -0.031903 0.372891
v -0.646843 0.399508 0.372891
v -1.032794 0.039502 0.224187
v -0.920036 0.470913 0.224187
v -0.212222 -0.069131 -0.062637
v 0.217770 0.048923 -0.062637
v 0.260350 -0.106169 0.232165
v -0.169642 -0.224222 0.232165
v 0.316497 -0.310676 0.415835
v -0.113495 -0.428730 0.415835
v 0.390638 -0.580721 0.422752
v -0.039354 -0.698775 0.422752
v 0.472588 -0.879212 0.332641
v 0.042596 -0.997266 0.332641
v 0.195694 -0.019617 0.057187
v -0.191592 0.044423 0.057187
v -0.173913 0.151339 0.333012
v 0.213373 0.087300 0.333012
v -0.146740 0.315668 0.518208
v 0.240545 0.251629 0.518208
v -0.106644 0.558156 0.555537
v 0.280642 0.494116 0.555537
v -0.060820 0.835280 0.510828
v 0.326465 0.771241 0.510828
v -0.121838 0.138134 0.054502
v 0.096859 -0.156664 0.054502
v 0.031279 -0.205315 0.319310
v -0.187418 0.089483 0.319310
v -0.082996 -0.290090 0.503704
v -0.301693 0.004708 0.503704
v -0.264945 -0.425070 0.555790
v -0.483642 -0.130272 0.555790
v -0.477817 -0.582990 0.533849
v -0.696514 -0.288191 0.533849
v -0.050507 -0.138128 0.042597
v 0.066254 0.131304 0.042597
v 0.144437 0.097423 0.247253
v 0.027676 -0.172010 0.247253
v 0.261299 0.046779 0.383250
v 0.144538 -0.222653 0.383250
v 0.430479 -0.026536 0.407462
v 0.313717 -0.295969 0.407462
v 0.622615 -0.109800 0.369788
v 0.505853 -0.379233 0.369788
vt 0.000000 0.000000 0.0
vt 0.000000 0.250000 0.0
vt 1.000000 0.250000 0.0
vt 1.000000 0.000000 0.0
vt 0.000000 0.250000 0.0
vt 0.000000 0.500000 0.0
vt 1.000000 0.500000 0.0
vt 1.000000 0.250000 0.0
vt 0.000000 0.500000 0.0
vt 0.000000 0.750000 0.0
vt 1.000000 0.750000 0.0
vt 1.000000 0.500000 0.0
vt 0.000000 0.750000 0.0
vt 0.000000 1.000000 0.0
vt 1.000000 1.000000 0.0
vt 1.000000 0.750000 0.0
vt 0.000000 0.000000 0.0
vt 0.000000 0.250000 0.0
vt 1.000000 0.250000 0.0
vt 1.000000 0.000000 0.0
vt 0.000000 0.250000 0.0
vt 0.000000 0.500000 0.0
vt 1.000000 0.500000 0.0
vt 1.000000 0.250000 0.0
vt 0.000000 0.500000 0.0
vt 0.000000 0.750000 0.0
vt 1.000000 0.750000 0.0
vt 1.000000 0.500000 0.0
vt 0.000000 0.750000 0.0
vt 0.000000 1.000000 0.0
vt 1.000000 1.000000 0.0
vt 1.000000 0.750000 0.0
vt 0.000000 0.000000 0.0
vt 0.000000 0.250000 0.0
vt 1.000000 0.250000 0.0
vt 1.000000 0.000000 0.0
vt 0.000000 0.250000 0.0
vt 0.000000 0.500000 0.0
vt 1.000000 0.500000 0.0
vt 1.000000 0.250000 0.0
vt 0.000000 0.500000 0.0
vt 0.000000 0.750000 0.0
vt 1.000000 0.750000 0.0
vt 1.000000 0.500000 0.0
vt 0.000000 0.750000 0.0
vt 0.000000 1.000000 0.0
vt 1.000000 1.000000 0.0
vt 1.000000 0.750000 0.0
vt 0.000000 0.000000 0.0
vt 0.000000 0.250000 0.0
vt 1.000000 0.250000 0.0
vt 1.000000 0.000000 0.0
vt 0.000000 0.250000 0.0
vt 0.000000 0.500000 0.0
vt 1.000000 0.500000 0.0
vt 1.000000 0.250000 0.0
vt 0.000000 0.500000 0.0
vt 0.000000 0.750000 0.0
vt 1.000000 0.750000 0.0
vt 1.000000 0.500000 0.0
vt 0.000000 0.750000 0.0
vt 0.000000 1.000000 0.0
vt 1.000000 1.000000 0.0
vt 1.000000 0.750000 0.0
vt 0.000000 0.000000 0.0
vt 0.000000 0.250000 0.0
vt 1.000000 0.250000 0.0
vt 1.000000 0.000000 0.0
vt 0.000000 0.250000 0.0
vt 0.000000 0.500000 0.0
vt 1.000000 0.500000 0.0
vt 1.000000 0.250000 0.0
vt 0.000000 0.500000 0.0
vt 0.000000 0.750000 0.0
vt 1.000000 0.750000 0.0
vt 1.000000 0.500000 0.0
vt 0.000000 0.750000 0.0
vt 0.000000 1.000000 0.0
vt 1.000000 1.000000 0.0
vt 1.000000 0.750000 0.0
vt 0.000000 0.000000 0.0
vt 0.000000 0.250000 0.0
vt 1.000000 0.250000 0.0
vt 1.000000 0.000000 0.0
vt 0.000000 0.250000 0.0
vt 0.000000 0.500000 0.0
vt 1.000000 0.500000 0.0
vt 1.000000 0.250000 0.0
vt 0.000000 0.500000 0.0
vt 0.000000 0.750000 0.0
vt 1.000000 0.750000 0.0
vt 1.000000 0.500000 0.0
vt 0.000000 0.750000 0.0
vt 0.000000 1.000000 0.0
vt 1.000000 1.000000 0.0
vt 1.000000 0.750000 0.0
vt 0.000000 0.000000 0.0
vt 0.000000 0.250000 0.0
vt 1.000000 0.250000 0.0
vt 1.000000 0.000000 0.0
vt 0.000000 0.250000 0.0
vt 0.000000 0.500000 0.0
vt 1.000000 0.500000 0.0
vt 1.000000 0.250000 0.0
vt 0.000000 0.500000 0.0
vt 0.000000 0.750000 0.0
vt 1.000000 0.750000 0.0
vt 1.000000 0.500000 0.0
vt 0.000000 0.750000 0.0
vt 0.000000 1.000000 0.0
vt 1.000000 1.000000 0.0
vt 1.000000 0.750000 0.0
vt 0.000000 0.000000 0.0
vt 0.000000 0.250000 0.0
vt 1.000000 0.250000 0.0
vt 1.000000 0.000000 0.0
vt 0.000000 0.250000 0.0
vt 0.000000 0.500000 0.0
vt 1.000000 0.500000 0.0
vt 1.000000 0.250000 0.0
vt 0.000000 0.500000 0.0
vt 0.000000 0.750000 0.0
vt 1.000000 0.750000 0.0
vt 1.000000 0.500000 0.0
vt 0.000000 0.750000 0.0
vt 0.000000 1.000000 0.0
vt 1.000000 1.000000 0.0
vt 1.000000 0.750000 0.0
vt 0.000000 0.000000 0.0
vt 0.000000 0.250000 0.0
vt 1.000000 0.250000 0.0
vt 1.000000 0.000000 0.0
vt 0.000000 0.250000 0.0
vt 0.000000 0.500000 0.0
vt 1.000000 0.500000 0.0
vt 1.000000 0.250000 0.0
vt 0.000000 0.500000 0.0
vt 0.000000 0.750000 0.0
vt 1.000000 0.750000 0.0
vt 1.000000 0.500000 0.0
vt 0.000000 0.750000 0.0
vt 0.000000 1.000000 0.0
vt 1.000000 1.000000 0.0
vt 1.000000 0.750000 0.0
vn -0.516160 0.000000 0.856471
vn -0.356700 0.000000 0.934202
vn 0.160222 0.000000 0.987060
vn 0.614307 0.000000 0.789056
vn 0.727042 0.000000 0.686544
vn 0.306528 -0.530961 0.789972
vn 0.231910 -0.401715 0.885891
vn -0.021638 0.037507 0.999054
vn -0.258736 0.448134 0.855678
vn -0.320719 0.555528 0.767113
vn 0.402783 0.577593 0.709983
vn 0.342540 0.454268 0.822352
vn 0.109867 0.022340 0.993683
vn -0.140294 -0.396374 0.907285
vn -0.212439 -0.508927 0.834162
vn -0.456557 -0.462203 0.760186
vn -0.354991 -0.359355 0.863002
vn -0.002716 -0.002747 0.999969
vn 0.334880 0.339030 0.879147
vn 0.424848 0.430097 0.796533
vn 0.740532 -0.193548 0.643513
vn 0.618885 -0.161748 0.768639
vn 0.162145 -0.042360 0.985839
vn -0.315500 0.082461 0.945311
vn -0.450789 0.117801 0.884793
vn -0.232398 0.846522 0.478896
vn -0.206153 0.750877 0.627400
vn -0.095523 0.348003 0.932585
vn 0.034120 -0.124332 0.991638
vn 0.073977 -0.269509 0.960112
vn -0.151830 -0.918271 0.365673
vn -0.138768 -0.839320 0.525590
vn -0.077425 -0.468245 0.880184
vn 0.000580 0.003510 0.999969
vn 0.025636 0.155065 0.987548
vn 0.767449 0.569323 0.294656
vn 0.713034 0.528977 0.460128
vn 0.433241 0.321390 0.842006
vn 0.057527 0.042665 0.997406
vn -0.066256 -0.049135 0.996582
vn -0.847041 0.367077 0.384350
vn -0.770684 0.333964 0.542619
vn -0.419111 0.181616 0.889553
vn 0.021760 -0.009430 0.999695
vn 0.162450 -0.070406 0.984191
usemtl pmat2_bush_leave.tga
s 1
f 1/1/1 4/2/2 3/3/2 2/4/1
f 4/5/2 6/6/3 5/7/3 3/8/2
f 6/9/3 8/10/4 7/11/4 5/12/3
f 8/13/4 10/14/5 9/15/5 7/16/4
f 11/17/6 14/18/7 13/19/7 12/20/6
f 14/21/7 16/22/8 15/23/8 13/24/7
f 16/25/8 18/26/9 17/27/9 15/28/8
f 18/29/9 20/30/10 19/31/10 17/32/9
f 21/33/11 24/34/12 23/35/12 22/36/11
f 24/37/12 26/38/13 25/39/13 23/40/12
f 26/41/13 28/42/14 27/43/14 25/44/13
f 28/45/14 30/46/15 29/47/15 27/48/14
f 31/49/16 34/50/17 33/51/17 32/52/16
f 34/53/17 36/54/18 35/55/18 33/56/17
f 36/57/18 38/58/19 37/59/19 35/60/18
f 38/61/19 40/62/20 39/63/20 37/64/19
f 41/65/21 44/66/22 43/67/22 42/68/21
f 44/69/22 46/70/23 45/71/23 43/72/22
f 46/73/23 48/74/24 47/75/24 45/76/23
f 48/77/24 50/78/25 49/79/25 47/80/24
f 51/81/26 54/82/27 53/83/27 52/84/26
f 54/85/27 56/86/28 55/87/28 53/88/27
f 56/89/28 58/90/29 57/91/29 55/92/28
f 58/93/29 60/94/30 59/95/30 57/96/29
f 61/97/31 64/98/32 63/99/32 62/100/31
f 64/101/32 66/102/33 65/103/33 63/104/32
f 66/105/33 68/106/34 67/107/34 65/108/33
f 68/109/34 70/110/35 69/111/35 67/112/34
f 71/113/36 74/114/37 73/115/37 72/116/36
f 74/117/37 76/118/38 75/119/38 73/120/37
f 76/121/38 78/122/39 77/123/39 75/124/38
f 78/125/39 80/126/40 79/127/40 77/128/39
f 81/129/41 84/130/42 83/131/42 82/132/41
f 84/133/42 86/134/43 85/135/43 83/136/42
f 86/137/43 88/138/44 87/139/44 85/140/43
f 88/141/44 90/142/45 89/143/45 87/144/44
