# Blender3D v246 OBJ File: NormalTest_Pillar_01.blend
# www.blender3d.org
mtllib NormalTest_Pillar_01.mtl
o Circle
v 0.314910 0.314910 3.809357
v 0.430175 0.115264 3.809357
v 0.430175 -0.115266 3.809357
v 0.314910 -0.314911 3.809357
v 0.115265 -0.430177 3.809357
v -0.115266 -0.430177 3.809357
v -0.314911 -0.314911 3.809357
v -0.430176 -0.115266 3.809357
v -0.430176 0.115264 3.809357
v -0.314911 0.314909 3.809357
v -0.115266 0.430175 3.809357
v 0.115264 0.430175 3.809357
v 0.201624 0.201624 3.655090
v 0.275424 0.073799 3.655090
v 0.275424 -0.073801 3.655090
v 0.201624 -0.201625 3.655090
v 0.073799 -0.275425 3.655090
v -0.073800 -0.275425 3.655090
v -0.201625 -0.201625 3.655090
v -0.275425 -0.073801 3.655090
v -0.275425 0.073799 3.655090
v -0.201625 0.201623 3.655090
v -0.073800 0.275423 3.655090
v 0.073799 0.275423 3.655090
v 0.394312 0.105655 -0.020246
v 0.288656 0.288656 -0.020246
v 0.394312 -0.105657 -0.020246
v 0.288656 -0.288657 -0.020246
v 0.105655 -0.394313 -0.020246
v -0.105656 -0.394313 -0.020246
v -0.288657 -0.288657 -0.020246
v -0.394313 -0.105657 -0.020246
v -0.394313 0.105655 -0.020246
v -0.288657 0.288656 -0.020246
v -0.105656 0.394311 -0.020246
v 0.105655 0.394311 -0.020246
v 0.304677 0.304677 3.844638
v 0.416197 0.111519 3.844638
v 0.416197 -0.111521 3.844638
v 0.304677 -0.304679 3.844638
v 0.111519 -0.416198 3.844638
v -0.111520 -0.416198 3.844638
v -0.304678 -0.304679 3.844638
v -0.416198 -0.111521 3.844638
v -0.416198 0.111519 3.844638
v -0.304678 0.304677 3.844638
v -0.111521 0.416197 3.844638
v 0.111519 0.416197 3.844638
vt 0.387934 0.944873 0.0
vt 0.385648 0.983533 0.0
vt 0.350927 0.983555 0.0
vt 0.352501 0.944180 0.0
vt 0.316945 0.980431 0.0
vt 0.317219 0.942806 0.0
vt 0.352501 0.944180 0.0
vt 0.350927 0.983555 0.0
vt 0.316945 0.980431 0.0
vt 0.284152 0.979391 0.0
vt 0.282336 0.942262 0.0
vt 0.317219 0.942806 0.0
vt 0.251133 0.980746 0.0
vt 0.247477 0.942689 0.0
vt 0.282336 0.942262 0.0
vt 0.284152 0.979391 0.0
vt 0.216462 0.983929 0.0
vt 0.212317 0.943814 0.0
vt 0.247477 0.942689 0.0
vt 0.251133 0.980746 0.0
vt 0.178859 0.987273 0.0
vt 0.176892 0.945019 0.0
vt 0.212317 0.943814 0.0
vt 0.216462 0.983929 0.0
vt 0.178859 0.987273 0.0
vt 0.137942 0.989994 0.0
vt 0.141337 0.946221 0.0
vt 0.176892 0.945019 0.0
vt 0.095384 0.985636 0.0
vt 0.107341 0.945880 0.0
vt 0.141337 0.946221 0.0
vt 0.137942 0.989994 0.0
vt 0.541098 0.987249 0.0
vt 0.498165 0.993182 0.0
vt 0.495228 0.949526 0.0
vt 0.528939 0.949050 0.0
vt 0.457900 0.990249 0.0
vt 0.459447 0.948178 0.0
vt 0.495228 0.949526 0.0
vt 0.498165 0.993182 0.0
vt 0.457900 0.990249 0.0
vt 0.420714 0.987834 0.0
vt 0.423594 0.947048 0.0
vt 0.459447 0.948178 0.0
vt 0.385648 0.983533 0.0
vt 0.387934 0.944873 0.0
vt 0.423594 0.947048 0.0
vt 0.420714 0.987834 0.0
vt 0.352501 0.944180 0.0
vt 0.375585 0.000000 0.0
vt 0.429628 0.000956 0.0
vt 0.387934 0.944873 0.0
vt 0.317219 0.942806 0.0
vt 0.321630 0.000000 0.0
vt 0.375585 0.000000 0.0
vt 0.352501 0.944180 0.0
vt 0.317219 0.942806 0.0
vt 0.282336 0.942262 0.0
vt 0.267752 0.000909 0.0
vt 0.321630 0.000000 0.0
vt 0.247477 0.942689 0.0
vt 0.213977 0.002826 0.0
vt 0.267752 0.000909 0.0
vt 0.282336 0.942262 0.0
vt 0.212317 0.943814 0.0
vt 0.160298 0.005690 0.0
vt 0.213977 0.002826 0.0
vt 0.247477 0.942689 0.0
vt 0.176892 0.945019 0.0
vt 0.106731 0.009495 0.0
vt 0.160298 0.005690 0.0
vt 0.212317 0.943814 0.0
vt 0.176892 0.945019 0.0
vt 0.141337 0.946221 0.0
vt 0.053259 0.014204 0.0
vt 0.106731 0.009495 0.0
vt 0.107341 0.945880 0.0
vt 0.000000 0.019911 0.0
vt 0.053259 0.014204 0.0
vt 0.141337 0.946221 0.0
vt 0.528939 0.949050 0.0
vt 0.495228 0.949526 0.0
vt 0.591007 0.013679 0.0
vt 0.644456 0.019855 0.0
vt 0.459447 0.948178 0.0
vt 0.537326 0.008510 0.0
vt 0.591007 0.013679 0.0
vt 0.495228 0.949526 0.0
vt 0.459447 0.948178 0.0
vt 0.423594 0.947048 0.0
vt 0.483539 0.004246 0.0
vt 0.537326 0.008510 0.0
vt 0.387934 0.944873 0.0
vt 0.429628 0.000956 0.0
vt 0.483539 0.004246 0.0
vt 0.423594 0.947048 0.0
vt 0.385648 0.983533 0.0
vt 0.385323 0.989461 0.0
vt 0.350612 0.989922 0.0
vt 0.350927 0.983555 0.0
vt 0.350927 0.983555 0.0
vt 0.350612 0.989922 0.0
vt 0.316567 0.986051 0.0
vt 0.316945 0.980431 0.0
vt 0.284152 0.979391 0.0
vt 0.316945 0.980431 0.0
vt 0.316567 0.986051 0.0
vt 0.284181 0.984892 0.0
vt 0.284152 0.979391 0.0
vt 0.284181 0.984892 0.0
vt 0.251521 0.986409 0.0
vt 0.251133 0.980746 0.0
vt 0.251133 0.980746 0.0
vt 0.251521 0.986409 0.0
vt 0.217014 0.989973 0.0
vt 0.216462 0.983929 0.0
vt 0.216462 0.983929 0.0
vt 0.217014 0.989973 0.0
vt 0.179339 0.993879 0.0
vt 0.178859 0.987273 0.0
vt 0.137942 0.989994 0.0
vt 0.178859 0.987273 0.0
vt 0.179339 0.993879 0.0
vt 0.137841 0.996858 0.0
vt 0.137942 0.989994 0.0
vt 0.137841 0.996858 0.0
vt 0.095425 0.992913 0.0
vt 0.095384 0.985636 0.0
vt 0.498165 0.993182 0.0
vt 0.541098 0.987249 0.0
vt 0.541290 0.994638 0.0
vt 0.498391 1.000000 0.0
vt 0.498165 0.993182 0.0
vt 0.498391 1.000000 0.0
vt 0.457466 0.996800 0.0
vt 0.457900 0.990249 0.0
vt 0.420714 0.987834 0.0
vt 0.457900 0.990249 0.0
vt 0.457466 0.996800 0.0
vt 0.420157 0.993836 0.0
vt 0.385323 0.989461 0.0
vt 0.385648 0.983533 0.0
vt 0.420714 0.987834 0.0
vt 0.420157 0.993836 0.0
vn 0.661275 0.661275 -0.354045
vn 0.694815 0.694815 -0.185492
vn 0.949156 0.254311 -0.185492
vn 0.903348 0.242042 -0.354045
vn 0.949156 -0.254311 -0.185492
vn 0.903348 -0.242042 -0.354045
vn 0.694815 -0.694815 -0.185492
vn 0.661275 -0.661275 -0.354045
vn 0.254311 -0.949156 -0.185492
vn 0.242042 -0.903348 -0.354045
vn -0.254311 -0.949156 -0.185492
vn -0.242042 -0.903348 -0.354045
vn -0.694815 -0.694815 -0.185492
vn -0.661275 -0.661275 -0.354045
vn -0.949156 -0.254311 -0.185492
vn -0.903348 -0.242042 -0.354045
vn -0.949156 0.254311 -0.185492
vn -0.903348 0.242042 -0.354045
vn -0.694815 0.694815 -0.185492
vn -0.661275 0.661275 -0.354045
vn -0.254311 0.949156 -0.185492
vn -0.242042 0.903348 -0.354045
vn 0.254311 0.949156 -0.185492
vn 0.242042 0.903348 -0.354045
vn 0.965361 0.258644 0.033448
vn 0.706687 0.706687 0.033448
vn 0.965361 -0.258644 0.033448
vn 0.706687 -0.706687 0.033448
vn 0.258644 -0.965361 0.033448
vn -0.258644 -0.965361 0.033448
vn -0.706687 -0.706687 0.033448
vn -0.965361 -0.258644 0.033448
vn -0.965361 0.258644 0.033448
vn -0.706687 0.706687 0.033448
vn -0.258644 0.965361 0.033448
vn 0.258644 0.965361 0.033448
vn 0.654195 0.654195 0.379467
vn 0.893643 0.239448 0.379467
vn 0.893643 -0.239448 0.379467
vn 0.654195 -0.654195 0.379467
vn 0.239448 -0.893643 0.379467
vn -0.239448 -0.893643 0.379467
vn -0.654195 -0.654195 0.379467
vn -0.893643 -0.239448 0.379467
vn -0.893643 0.239448 0.379467
vn -0.654195 0.654195 0.379467
vn -0.239448 0.893643 0.379467
vn 0.239448 0.893643 0.379467
usemtl Saeule.001_Pillar_Tex_Full.tga
s 1
f 13/1/1 1/2/2 2/3/3 14/4/4
f 3/5/5 15/6/6 14/7/4 2/8/3
f 3/9/5 4/10/7 16/11/8 15/12/6
f 5/13/9 17/14/10 16/15/8 4/16/7
f 6/17/11 18/18/12 17/19/10 5/20/9
f 7/21/13 19/22/14 18/23/12 6/24/11
f 7/25/13 8/26/15 20/27/16 19/28/14
f 9/29/17 21/30/18 20/31/16 8/32/15
f 9/33/17 10/34/19 22/35/20 21/36/18
f 11/37/21 23/38/22 22/39/20 10/40/19
f 11/41/21 12/42/23 24/43/24 23/44/22
f 1/45/2 13/46/1 24/47/24 12/48/23
f 14/49/4 25/50/25 26/51/26 13/52/1
f 15/53/6 27/54/27 25/55/25 14/56/4
f 15/57/6 16/58/8 28/59/28 27/60/27
f 17/61/10 29/62/29 28/63/28 16/64/8
f 18/65/12 30/66/30 29/67/29 17/68/10
f 19/69/14 31/70/31 30/71/30 18/72/12
f 19/73/14 20/74/16 32/75/32 31/76/31
f 21/77/18 33/78/33 32/79/32 20/80/16
f 21/81/18 22/82/20 34/83/34 33/84/33
f 23/85/22 35/86/35 34/87/34 22/88/20
f 23/89/22 24/90/24 36/91/36 35/92/35
f 13/93/1 26/94/26 36/95/36 24/96/24
f 1/97/2 37/98/37 38/99/38 2/100/3
f 2/101/3 38/102/38 39/103/39 3/104/5
f 4/105/7 3/106/5 39/107/39 40/108/40
f 4/109/7 40/110/40 41/111/41 5/112/9
f 5/113/9 41/114/41 42/115/42 6/116/11
f 6/117/11 42/118/42 43/119/43 7/120/13
f 8/121/15 7/122/13 43/123/43 44/124/44
f 8/125/15 44/126/44 45/127/45 9/128/17
f 10/129/19 9/130/17 45/131/45 46/132/46
f 10/133/19 46/134/46 47/135/47 11/136/21
f 12/137/23 11/138/21 47/139/47 48/140/48
f 37/141/37 1/142/2 12/143/23 48/144/48
