# Blender3D v244 OBJ File: ext_steps.blend
# www.blender3d.org
mtllib ext_steps.mtl
o Cube
v -0.928224 -0.934571 -1.998910
v -0.928224 0.960408 -1.998506
v 0.928224 0.960408 -1.998506
v 0.928224 -0.934571 -1.998910
v -0.928224 1.020280 -1.962897
v -0.928224 1.020166 -1.424982
v 0.928224 1.020166 -1.424982
v 0.928224 1.020280 -1.962897
v -0.928224 0.677090 -1.389459
v 0.928224 0.677090 -1.389459
v 0.928224 0.960279 -1.389399
v -0.928224 0.960279 -1.389399
v -0.928224 0.617153 -1.120515
v 0.928224 0.617153 -1.120515
v 0.928224 0.617203 -1.353876
v -0.928224 0.617203 -1.353876
v -0.928224 0.274077 -1.084992
v 0.928224 0.274077 -1.084992
v 0.928224 0.557266 -1.084931
v -0.928224 0.557266 -1.084931
v -0.928224 0.214190 -1.049408
v -0.928224 0.214141 -0.816047
v 0.928224 0.214141 -0.816047
v 0.928224 0.214190 -1.049408
v -0.928224 -0.128935 -0.780524
v 0.928224 -0.128935 -0.780524
v 0.928224 0.154254 -0.780464
v -0.928224 0.154254 -0.780464
v -0.928224 -0.188872 -0.511579
v 0.928224 -0.188872 -0.511579
v 0.928224 -0.188822 -0.744941
v -0.928224 -0.188822 -0.744941
v -0.928224 -0.531948 -0.476056
v 0.928224 -0.531948 -0.476056
v 0.928224 -0.248759 -0.475996
v -0.928224 -0.248759 -0.475996
v -0.928224 -0.591832 -0.440473
v -0.928224 -0.591887 0.039469
v 0.928224 -0.591887 0.039469
v 0.928224 -0.591832 -0.440473
v -0.928224 -0.651772 0.075053
v -0.928224 -0.934960 0.074992
v 0.928224 -0.934960 0.074992
v 0.928224 -0.651772 0.075053
v -0.928224 -0.994457 -1.963326
v 0.928224 -0.994457 -1.963326
v 1.017474 -0.994833 0.091340
v -0.994454 -0.994833 0.095445
v -1.006663 -0.788650 -1.963282
v -1.006663 0.634640 -1.425064
v -1.006663 0.960286 -1.424995
v -1.006663 0.960401 -1.962910
v -1.006663 -0.730503 -1.856927
v -1.006663 0.243291 -1.120594
v -1.006663 0.557274 -1.120527
v -1.006663 0.557327 -1.369934
v -1.006663 -0.789627 -1.786458
v -1.006663 -0.148012 -0.816124
v -1.006663 0.154261 -0.816060
v -1.006663 0.154316 -1.072696
v -1.006663 -0.850595 -1.684072
v -1.006663 -0.540623 -0.511654
v -1.006663 -0.248751 -0.511592
v -1.006663 -0.248696 -0.773802
v -1.006663 -0.651707 -0.473298
v -1.006663 -0.934659 -1.543515
v -1.006663 -0.934953 0.039396
v -1.006663 -0.651767 0.039457
v 1.006663 0.960401 -1.962910
v 1.006663 0.960286 -1.424995
v 1.006663 0.634640 -1.425064
v 1.006663 -0.788650 -1.963282
v 1.006663 0.557274 -1.120527
v 1.006663 0.243291 -1.120594
v 1.006663 -0.730503 -1.856927
v 1.006663 0.557327 -1.369934
v 1.006663 0.154316 -1.072696
v 1.006663 0.154261 -0.816060
v 1.006663 -0.148012 -0.816124
v 1.006663 -0.789627 -1.786458
v 1.006663 -0.248751 -0.511592
v 1.006663 -0.540623 -0.511654
v 1.006663 -0.850595 -1.684072
v 1.006663 -0.248696 -0.773802
v 1.006663 -0.651767 0.039457
v 1.006663 -0.934953 0.039396
v 1.006663 -0.934659 -1.543515
v 1.006663 -0.651707 -0.473298
v -0.967443 -0.862510 -1.771197
v 0.967443 -0.862510 -1.771197
vt 0.116880 0.488636 0.0
vt 0.116880 4.187482 0.0
vt 2.883120 4.187482 0.0
vt 2.883120 0.488636 0.0
vt 0.116880 0.377085 0.0
vt 0.116880 -1.389156 0.0
vt 2.883120 -1.389156 0.0
vt 2.883120 0.377085 0.0
vt 0.116880 0.634721 0.0
vt 2.883120 0.634721 0.0
vt 2.883120 1.187482 0.0
vt 0.116880 1.187482 0.0
vt 0.116880 0.610844 0.0
vt 2.883120 0.610844 0.0
vt 2.883120 1.377085 0.0
vt 0.116880 1.377085 0.0
vt 0.116880 0.848199 0.0
vt 2.883120 0.848199 0.0
vt 2.883120 1.400961 0.0
vt 0.116880 1.400961 0.0
vt 0.116880 0.377085 0.0
vt 0.116880 -0.389156 0.0
vt 2.883120 -0.389156 0.0
vt 2.883120 0.377085 0.0
vt 0.116880 0.061678 0.0
vt 2.883120 0.061678 0.0
vt 2.883120 0.614440 0.0
vt 0.116880 0.614440 0.0
vt 0.116880 0.610844 0.0
vt 2.883120 0.610844 0.0
vt 2.883120 1.377085 0.0
vt 0.116880 1.377085 0.0
vt 0.116880 0.275157 0.0
vt 2.883120 0.275157 0.0
vt 2.883120 0.827919 0.0
vt 0.116880 0.827919 0.0
vt 0.116880 0.377085 0.0
vt 0.116880 -1.198803 0.0
vt 2.883120 -1.198803 0.0
vt 2.883120 0.377085 0.0
vt 0.116880 0.041500 0.0
vt 0.116880 -0.511262 0.0
vt 2.883120 -0.511262 0.0
vt 2.883120 0.041500 0.0
vt 0.116880 0.377085 0.0
vt 2.883120 0.377085 0.0
vt 3.016110 -6.369401 0.0
vt 0.018192 -6.382882 0.0
vt 0.377085 0.773476 0.0
vt -1.389156 3.551847 0.0
vt -1.389156 4.187482 0.0
vt 0.377085 4.187482 0.0
vt 0.027908 0.887019 0.0
vt -2.389156 2.788092 0.0
vt -2.389156 3.400961 0.0
vt -1.570231 3.400961 0.0
vt 0.796480 0.771642 0.0
vt -2.389156 2.024427 0.0
vt -2.389156 2.614440 0.0
vt -1.546492 2.614440 0.0
vt 0.460255 0.652680 0.0
vt -3.389156 1.258209 0.0
vt -3.389156 1.827919 0.0
vt -2.528192 1.827919 0.0
vt 0.484825 0.041398 0.0
vt 3.998678 -0.511347 0.0
vt -1.198803 -0.511263 0.0
vt -1.198803 0.041494 0.0
vt 0.377085 0.187482 0.0
vt -1.389156 0.187482 0.0
vt -1.389156 -0.448153 0.0
vt 0.377085 -3.226524 0.0
vt 0.610844 0.400961 0.0
vt 0.610844 -0.211908 0.0
vt 3.027908 -2.112981 0.0
vt 1.429769 0.400961 0.0
vt 0.453508 0.614440 0.0
vt -0.389156 0.614440 0.0
vt -0.389156 0.024427 0.0
vt 2.796480 -1.228358 0.0
vt 0.610844 0.827919 0.0
vt 0.610844 0.258209 0.0
vt 4.460255 -0.347320 0.0
vt 1.471808 0.827919 0.0
vt 0.801197 0.041494 0.0
vt 0.801197 -0.511263 0.0
vt 5.998678 -0.511347 0.0
vt 2.484825 0.041398 0.0
vt 0.493965 0.187482 0.0
vt 0.493965 -3.511364 0.0
vt 0.377085 -3.226524 0.0
vt 0.377085 0.187482 0.0
vt 0.883120 0.493965 0.0
vt -1.883120 0.493965 0.0
vt -1.883120 0.377085 0.0
vt 0.883120 0.377085 0.0
vt 0.493965 0.488636 0.0
vt 0.493965 4.187482 0.0
vt 0.377085 4.187482 0.0
vt 0.377085 0.773476 0.0
vt 0.116880 0.377085 0.0
vt 0.116880 0.493965 0.0
vt 2.883120 0.493965 0.0
vt 2.883120 0.377085 0.0
vt 0.116880 0.377085 0.0
vt 0.000000 0.377085 0.0
vt 0.000000 -1.389156 0.0
vt 0.116880 -1.389156 0.0
vt 0.116880 0.610844 0.0
vt 0.116880 0.493965 0.0
vt 2.883120 0.493965 0.0
vt 2.883120 0.610844 0.0
vt 0.883120 0.610844 0.0
vt 1.000000 0.610844 0.0
vt 1.000000 2.377085 0.0
vt 0.883120 2.377085 0.0
vt 0.116880 0.493965 0.0
vt 0.116880 0.377085 0.0
vt 2.883120 0.377085 0.0
vt 2.883120 0.493965 0.0
vt 0.883120 0.634721 0.0
vt 1.000000 0.551847 0.0
vt 1.000000 1.187482 0.0
vt 0.883120 1.187482 0.0
vt 0.116880 0.634721 0.0
vt 0.116880 1.187482 0.0
vt 0.000000 1.187482 0.0
vt 0.000000 0.551847 0.0
vt 0.116880 0.610844 0.0
vt 0.116880 0.493965 0.0
vt 2.883120 0.493965 0.0
vt 2.883120 0.610844 0.0
vt 0.883120 0.610844 0.0
vt 1.000000 0.610844 0.0
vt 1.000000 1.429769 0.0
vt 0.883120 1.377085 0.0
vt 0.116880 0.610844 0.0
vt 0.116880 1.377085 0.0
vt 0.000000 1.429769 0.0
vt 0.000000 0.610844 0.0
vt 0.116880 0.493965 0.0
vt 0.116880 0.377085 0.0
vt 2.883120 0.377085 0.0
vt 2.883120 0.493965 0.0
vt 0.883120 0.848199 0.0
vt 1.000000 0.788092 0.0
vt 1.000000 1.400961 0.0
vt 0.883120 1.400961 0.0
vt 0.116880 0.848199 0.0
vt 0.116880 1.400961 0.0
vt 0.000000 1.400961 0.0
vt 0.000000 0.788092 0.0
vt 0.116880 0.377085 0.0
vt 0.000000 0.453508 0.0
vt 0.000000 -0.389156 0.0
vt 0.116880 -0.389156 0.0
vt 0.116880 0.610844 0.0
vt 0.116880 0.493965 0.0
vt 2.883120 0.493965 0.0
vt 2.883120 0.610844 0.0
vt 0.883120 0.610844 0.0
vt 1.000000 0.610844 0.0
vt 1.000000 1.453508 0.0
vt 0.883120 1.377085 0.0
vt 0.116880 0.493965 0.0
vt 0.116880 0.377085 0.0
vt 2.883120 0.377085 0.0
vt 2.883120 0.493965 0.0
vt 0.883120 0.061678 0.0
vt 1.000000 0.024427 0.0
vt 1.000000 0.614440 0.0
vt 0.883120 0.614440 0.0
vt 0.116880 0.061678 0.0
vt 0.116880 0.614440 0.0
vt 0.000000 0.614440 0.0
vt 0.000000 0.024427 0.0
vt 0.116880 0.610844 0.0
vt 0.116880 0.493965 0.0
vt 2.883120 0.493965 0.0
vt 2.883120 0.610844 0.0
vt 0.883120 0.610844 0.0
vt 1.000000 0.610844 0.0
vt 1.000000 1.471808 0.0
vt 0.883120 1.377085 0.0
vt 0.116880 0.610844 0.0
vt 0.116880 1.377085 0.0
vt 0.000000 1.471808 0.0
vt 0.000000 0.610844 0.0
vt 0.116880 0.493965 0.0
vt 0.116880 0.377085 0.0
vt 2.883120 0.377085 0.0
vt 2.883120 0.493965 0.0
vt 0.883120 0.275157 0.0
vt 1.000000 0.258209 0.0
vt 1.000000 0.827919 0.0
vt 0.883120 0.827919 0.0
vt 0.116880 0.275157 0.0
vt 0.116880 0.827919 0.0
vt 0.000000 0.827919 0.0
vt 0.000000 0.258209 0.0
vt 0.116880 0.377085 0.0
vt 0.000000 0.484825 0.0
vt 0.000000 -1.198803 0.0
vt 0.116880 -1.198803 0.0
vt 0.116880 0.801197 0.0
vt 0.116880 0.684317 0.0
vt 2.883120 0.684317 0.0
vt 2.883120 0.801197 0.0
vt 0.883120 0.801197 0.0
vt 1.000000 0.801197 0.0
vt 1.000000 2.484825 0.0
vt 0.883120 2.377085 0.0
vt 0.116880 0.041500 0.0
vt 0.000000 0.041494 0.0
vt 0.000000 -0.511263 0.0
vt 0.116880 -0.511262 0.0
vt 0.116880 0.488738 0.0
vt 0.018192 0.371880 0.0
vt 3.016110 0.371879 0.0
vt 2.883120 0.488738 0.0
vt 0.883120 0.488738 0.0
vt 1.000000 0.488737 0.0
vt 1.000000 1.041494 0.0
vt 0.883120 1.041500 0.0
vt 0.883120 0.377085 0.0
vt 1.000000 -1.001322 0.0
vt 1.000000 -6.198803 0.0
vt 1.016110 -6.369401 0.0
vt 0.377085 0.371757 0.0
vt -6.382882 0.371880 0.0
vt -6.198803 0.488737 0.0
vt -1.001322 0.488653 0.0
vt 0.377085 0.773476 0.0
vt 0.027908 0.887019 0.0
vt -1.570231 3.400961 0.0
vt -1.389156 3.551847 0.0
vt 0.027908 0.887019 0.0
vt -0.203520 0.771642 0.0
vt -2.546492 2.614440 0.0
vt -2.389156 2.788092 0.0
vt 0.796480 0.771642 0.0
vt 0.460255 0.652680 0.0
vt -2.528192 1.827919 0.0
vt -2.389156 2.024427 0.0
vt 0.460255 0.652680 0.0
vt -0.001322 0.488653 0.0
vt -3.515175 1.041398 0.0
vt -3.389156 1.258209 0.0
vt 0.610844 0.551847 0.0
vt 0.429769 0.400961 0.0
vt 2.027908 -2.112981 0.0
vt 2.377085 -2.226524 0.0
vt 0.610844 0.788092 0.0
vt 0.453508 0.614440 0.0
vt 2.796480 -1.228358 0.0
vt 3.027908 -1.112981 0.0
vt 0.610844 0.024427 0.0
vt 0.471808 -0.172081 0.0
vt 3.460255 -1.347320 0.0
vt 3.796480 -1.228358 0.0
vt 0.610844 0.258209 0.0
vt 0.484825 0.041398 0.0
vt 3.998678 -0.511347 0.0
vt 4.460255 -0.347320 0.0
vt 0.493965 0.488636 0.0
vt -0.253679 0.629388 0.0
vt 0.377085 0.773476 0.0
vt 0.493965 0.488636 0.0
vt 0.377085 0.371757 0.0
vt -0.253679 0.629388 0.0
vt 0.377085 0.371757 0.0
vt -1.001322 0.488653 0.0
vt -0.253679 0.629388 0.0
vt 0.377085 0.773476 0.0
vt -0.253679 0.629388 0.0
vt 0.027908 0.887019 0.0
vt 0.027908 0.887019 0.0
vt -0.253679 0.629388 0.0
vt -0.203520 0.771642 0.0
vt 0.796480 0.771642 0.0
vt 0.746321 0.629388 0.0
vt 0.460255 0.652680 0.0
vt 0.460255 0.652680 0.0
vt 0.746321 0.629388 0.0
vt -0.001322 0.488653 0.0
vt 0.116880 0.493965 0.0
vt 0.000000 0.377085 0.0
vt 0.116880 0.377085 0.0
vt 0.883120 0.493965 0.0
vt 0.883120 0.377085 0.0
vt 1.000000 0.377085 0.0
vt 0.493965 0.488636 0.0
vt 0.377085 0.773476 0.0
vt -0.253679 0.629388 0.0
vt 0.493965 0.488636 0.0
vt -0.253679 0.629388 0.0
vt 0.377085 0.371757 0.0
vt 0.377085 0.371757 0.0
vt -0.253679 0.629388 0.0
vt -1.001322 0.488653 0.0
vt 0.377085 0.773476 0.0
vt 0.027908 0.887019 0.0
vt -0.253679 0.629388 0.0
vt 0.027908 0.887019 0.0
vt -0.203520 0.771642 0.0
vt -0.253679 0.629388 0.0
vt 0.796480 0.771642 0.0
vt 0.460255 0.652680 0.0
vt 0.746321 0.629388 0.0
vt 0.460255 0.652680 0.0
vt -0.001322 0.488653 0.0
vt 0.746321 0.629388 0.0
vt 0.116880 0.610844 0.0
vt 0.000000 0.610844 0.0
vt 0.116880 0.493965 0.0
vt 0.883120 0.610844 0.0
vt 0.883120 0.493965 0.0
vt 1.000000 0.610844 0.0
vt 0.493965 0.634721 0.0
vt 0.610844 0.551847 0.0
vt 0.429769 0.400961 0.0
vt 0.377085 0.517841 0.0
vt 0.493965 0.634721 0.0
vt 0.377085 0.517841 0.0
vt 0.429769 0.400961 0.0
vt 0.610844 0.551847 0.0
vt 0.116880 0.610844 0.0
vt 0.000000 0.610844 0.0
vt 0.116880 0.493965 0.0
vt 0.883120 0.610844 0.0
vt 0.883120 0.493965 0.0
vt 1.000000 0.610844 0.0
vt 0.493965 0.848199 0.0
vt 0.610844 0.788092 0.0
vt 0.453508 0.614440 0.0
vt 0.377085 0.731320 0.0
vt 0.493965 0.848199 0.0
vt 0.377085 0.731320 0.0
vt 0.453508 0.614440 0.0
vt 0.610844 0.788092 0.0
vt 0.116880 0.610844 0.0
vt 0.000000 0.610844 0.0
vt 0.116880 0.493965 0.0
vt 0.883120 0.610844 0.0
vt 0.883120 0.493965 0.0
vt 1.000000 0.610844 0.0
vt 0.493965 0.061678 0.0
vt 0.610844 0.024427 0.0
vt 0.471808 -0.172081 0.0
vt 0.377085 -0.055202 0.0
vt 0.493965 0.061678 0.0
vt 0.377085 -0.055202 0.0
vt 0.471808 -0.172081 0.0
vt 0.610844 0.024427 0.0
vt 0.116880 0.610844 0.0
vt 0.000000 0.610844 0.0
vt 0.116880 0.493965 0.0
vt 0.883120 0.610844 0.0
vt 0.883120 0.493965 0.0
vt 1.000000 0.610844 0.0
vt 0.493965 0.275157 0.0
vt 0.610844 0.258209 0.0
vt 0.484825 0.041398 0.0
vt 0.377085 0.158283 0.0
vt 0.493965 0.275157 0.0
vt 0.377085 0.158283 0.0
vt 0.484825 0.041398 0.0
vt 0.610844 0.258209 0.0
vt 0.116880 0.801197 0.0
vt 0.000000 0.801197 0.0
vt 0.116880 0.684317 0.0
vt 0.883120 0.801197 0.0
vt 0.883120 0.684317 0.0
vt 1.000000 0.801197 0.0
vt 0.116880 0.684317 0.0
vt 0.000000 0.801197 0.0
vt 0.018192 0.617118 0.0
vt 0.883120 0.684317 0.0
vt 1.016110 0.630599 0.0
vt 1.000000 0.801197 0.0
vn -0.633625 -0.310373 -0.708609
vn -0.201056 0.253456 -0.946196
vn 0.201056 0.253456 -0.946196
vn 0.633625 -0.310373 -0.708609
vn -0.283853 0.848811 -0.445998
vn -0.283853 0.848598 0.446364
vn 0.283853 0.848598 0.446364
vn 0.283853 0.848811 -0.445998
vn -0.255898 0.279672 0.925352
vn 0.255898 0.279672 0.925352
vn 0.201056 0.253059 0.946318
vn -0.201056 0.253059 0.946318
vn 0.313456 0.833827 0.454329
vn -0.313456 0.833827 0.454329
vn -0.241951 0.263527 0.933805
vn 0.241951 0.263527 0.933805
vn -0.318979 0.826014 0.464644
vn 0.318979 0.826014 0.464644
vn -0.230354 0.251503 0.940031
vn 0.230354 0.251503 0.940031
vn 0.323374 0.818842 0.474197
vn -0.323374 0.818842 0.474197
vn -0.221747 0.243385 0.944212
vn 0.221747 0.243385 0.944212
vn -0.326487 0.813074 0.481918
vn -0.283853 0.848628 0.446303
vn 0.283853 0.848628 0.446303
vn 0.326487 0.813074 0.481918
vn -0.201056 0.253059 0.946287
vn -0.232704 0.267373 0.935057
vn 0.233436 0.290109 0.928068
vn 0.201056 0.253059 0.946287
vn -0.565111 -0.716056 -0.409742
vn 0.567431 -0.713492 -0.410962
vn 0.588733 -0.390545 0.707694
vn -0.539750 -0.435072 0.720664
vn -0.884335 -0.172521 -0.433790
vn -0.806116 0.156468 0.570666
vn -0.790033 0.387066 0.475356
vn -0.790033 0.387280 -0.475204
vn -0.946928 -0.283547 -0.151311
vn -0.807398 0.138371 0.573504
vn -0.840358 0.469558 0.270608
vn -0.936552 -0.283944 -0.205390
vn -0.808954 0.123264 0.574755
vn -0.838374 0.459639 0.292917
vn -0.953459 -0.258827 -0.154454
vn -0.810450 0.111942 0.574999
vn -0.837001 0.450209 0.310953
vn -0.836146 0.442518 0.324046
vn -0.949278 -0.288858 -0.124058
vn -0.842067 0.017273 0.539048
vn -0.790033 0.387066 0.475326
vn 0.790033 0.387280 -0.475204
vn 0.790033 0.387066 0.475356
vn 0.806116 0.156468 0.570666
vn 0.884335 -0.172521 -0.433790
vn 0.807398 0.138371 0.573504
vn 0.946928 -0.283547 -0.151311
vn 0.840358 0.469558 0.270608
vn 0.838374 0.459639 0.292917
vn 0.808954 0.123264 0.574755
vn 0.936552 -0.283944 -0.205390
vn 0.810450 0.111942 0.574999
vn 0.953459 -0.258858 -0.154454
vn 0.837001 0.450209 0.310953
vn 0.790033 0.387066 0.475326
vn 0.831568 0.102512 0.545854
vn 0.958251 -0.252083 -0.134861
vn 0.836146 0.442518 0.324046
vn -0.933134 -0.328593 -0.145634
vn 0.933134 -0.328593 -0.145634
usemtl Material_rock01.jpg.001
s 1
f 1/1/1 2/2/2 3/3/3 4/4/4
s 1
f 5/5/5 6/6/6 7/7/7 8/8/8
s 1
f 9/9/9 10/10/10 11/11/11 12/12/12
s 1
f 13/13/6 14/14/7 15/15/13 16/16/14
s 1
f 17/17/15 18/18/16 19/19/11 20/20/12
s 1
f 21/21/17 22/22/6 23/23/7 24/24/18
s 1
f 25/25/19 26/26/20 27/27/11 28/28/12
s 1
f 29/29/6 30/30/7 31/31/21 32/32/22
s 1
f 33/33/23 34/34/24 35/35/11 36/36/12
s 1
f 37/37/25 38/38/26 39/39/27 40/40/28
s 1
f 41/41/29 42/42/30 43/43/31 44/44/32
s 1
f 45/45/33 46/46/34 47/47/35 48/48/36
s 1
f 49/49/37 50/50/38 51/51/39 52/52/40
s 1
f 53/53/41 54/54/42 55/55/39 56/56/43
s 1
f 57/57/44 58/58/45 59/59/39 60/60/46
s 1
f 61/61/47 62/62/48 63/63/39 64/64/49
s 1
f 65/65/50 66/66/51 67/67/52 68/68/53
s 1
f 69/69/54 70/70/55 71/71/56 72/72/57
s 1
f 73/73/55 74/74/58 75/75/59 76/76/60
s 1
f 77/77/61 78/78/55 79/79/62 80/80/63
s 1
f 81/81/55 82/82/64 83/83/65 84/84/66
s 1
f 85/85/67 86/86/68 87/87/69 88/88/70
s 1
f 2/89/2 1/90/1 49/91/37 52/92/40
s 1
f 3/93/3 2/94/2 5/95/5 8/96/8
s 1
f 4/97/4 3/98/3 69/99/54 72/100/57
s 1
f 45/101/33 1/102/1 4/103/4 46/104/34
s 1
f 5/105/5 52/106/40 51/107/39 6/108/6
s 1
f 6/109/6 12/110/12 11/111/11 7/112/7
s 1
f 7/113/7 70/114/55 69/115/54 8/116/8
s 1
f 9/117/9 16/118/14 15/119/13 10/120/10
s 1
f 10/121/10 71/122/56 70/123/55 11/124/11
s 1
f 9/125/9 12/126/12 51/127/39 50/128/38
s 1
f 13/129/6 20/130/12 19/131/11 14/132/7
s 1
f 14/133/7 73/134/55 76/135/60 15/136/13
s 1
f 13/137/6 16/138/14 56/139/43 55/140/39
s 1
f 17/141/15 21/142/17 24/143/18 18/144/16
s 1
f 18/145/16 74/146/58 73/147/55 19/148/11
s 1
f 17/149/15 20/150/12 55/151/39 54/152/42
s 1
f 21/153/17 60/154/46 59/155/39 22/156/6
s 1
f 22/157/6 28/158/12 27/159/11 23/160/7
s 1
f 23/161/7 78/162/55 77/163/61 24/164/18
s 1
f 25/165/19 32/166/22 31/167/21 26/168/20
s 1
f 26/169/20 79/170/62 78/171/55 27/172/11
s 1
f 25/173/19 28/174/12 59/175/39 58/176/45
s 1
f 29/177/6 36/178/12 35/179/11 30/180/7
s 1
f 30/181/7 81/182/55 84/183/66 31/184/21
s 1
f 29/185/6 32/186/22 64/187/49 63/188/39
s 1
f 33/189/23 37/190/25 40/191/28 34/192/24
s 1
f 34/193/24 82/194/64 81/195/55 35/196/11
s 1
f 33/197/23 36/198/12 63/199/39 62/200/48
s 1
f 37/201/25 65/202/50 68/203/53 38/204/26
s 1
f 38/205/26 41/206/29 44/207/32 39/208/27
s 1
f 39/209/27 85/210/67 88/211/70 40/212/28
s 1
f 41/213/29 68/214/53 67/215/52 42/216/30
s 1
f 42/217/30 48/218/36 47/219/35 43/220/31
s 1
f 43/221/31 86/222/68 85/223/67 44/224/32
s 1
f 46/225/34 87/226/69 86/227/68 47/228/35
s 1
f 45/229/33 48/230/36 67/231/52 66/232/51
s 1
f 49/233/37 53/234/41 56/235/43 50/236/38
s 1
f 53/237/41 57/238/44 60/239/46 54/240/42
s 1
f 57/241/44 61/242/47 64/243/49 58/244/45
s 1
f 61/245/47 66/246/51 65/247/50 62/248/48
s 1
f 71/249/56 76/250/60 75/251/59 72/252/57
s 1
f 74/253/58 77/254/61 80/255/63 75/256/59
s 1
f 79/257/62 84/258/66 83/259/65 80/260/63
s 1
f 82/261/64 88/262/70 87/263/69 83/264/65
s 1
f 1/265/1 89/266/71 49/267/37
s 1
f 1/268/1 45/269/33 89/270/71
s 1
f 45/271/33 66/272/51 89/273/71
s 1
f 49/274/37 89/275/71 53/276/41
s 1
f 53/277/41 89/278/71 57/279/44
s 1
f 57/280/44 89/281/71 61/282/47
s 1
f 61/283/47 89/284/71 66/285/51
s 1
f 2/286/2 52/287/40 5/288/5
s 1
f 3/289/3 8/290/8 69/291/54
s 1
f 4/292/4 72/293/57 90/294/72
s 1
f 4/295/4 90/296/72 46/297/34
s 1
f 46/298/34 90/299/72 87/300/69
s 1
f 72/301/57 75/302/59 90/303/72
s 1
f 75/304/59 80/305/63 90/306/72
s 1
f 80/307/63 83/308/65 90/309/72
s 1
f 83/310/65 87/311/69 90/312/72
s 1
f 6/313/6 51/314/39 12/315/12
s 1
f 7/316/7 11/317/11 70/318/55
s 1
f 9/319/9 50/320/38 56/321/43 16/322/14
s 1
f 10/323/10 15/324/13 76/325/60 71/326/56
s 1
f 13/327/6 55/328/39 20/329/12
s 1
f 14/330/7 19/331/11 73/332/55
s 1
f 17/333/15 54/334/42 60/335/46 21/336/17
s 1
f 18/337/16 24/338/18 77/339/61 74/340/58
s 1
f 22/341/6 59/342/39 28/343/12
s 1
f 23/344/7 27/345/11 78/346/55
s 1
f 25/347/19 58/348/45 64/349/49 32/350/22
s 1
f 26/351/20 31/352/21 84/353/66 79/354/62
s 1
f 29/355/6 63/356/39 36/357/12
s 1
f 30/358/7 35/359/11 81/360/55
s 1
f 33/361/23 62/362/48 65/363/50 37/364/25
s 1
f 34/365/24 40/366/28 88/367/70 82/368/64
s 1
f 38/369/26 68/370/53 41/371/29
s 1
f 39/372/27 44/373/32 85/374/67
s 1
f 42/375/30 67/376/52 48/377/36
s 1
f 43/378/31 47/379/35 86/380/68
