# Blender3D v246 OBJ File: basket.blend
# www.blender3d.org
mtllib basket.mtl
o jug2_Sphere.001
v 0.396046 0.135264 2.827562
v 0.262455 0.493873 2.827562
v -0.085582 0.652985 2.827562
v -0.444191 0.519394 2.827562
v -0.603303 0.171357 2.827562
v -0.469712 -0.187252 2.827562
v -0.121674 -0.346364 2.827562
v 0.236934 -0.212773 2.827562
v 0.653660 0.125961 2.864404
v 0.451195 0.669455 2.864404
v -0.076278 0.910599 2.864404
v -0.619773 0.708134 2.864404
v -0.860917 0.180660 2.864404
v -0.658451 -0.362834 2.864404
v -0.130978 -0.603978 2.864404
v 0.412516 -0.401513 2.864404
v 0.011256 0.260186 3.050205
v 0.053179 0.147647 3.050205
v -0.097965 0.310118 3.050205
v -0.210503 0.268195 3.050205
v -0.260436 0.158974 3.050205
v -0.218512 0.046435 3.050205
v -0.109292 -0.003497 3.050205
v 0.003247 0.038427 3.050205
v 0.417197 0.637827 2.950605
v 0.230079 0.463754 3.010722
v 0.607256 0.127636 2.950605
v 0.351855 0.136860 3.010722
v -0.087178 0.608794 3.010722
v -0.077954 0.864195 2.950605
v -0.588145 0.674136 2.950605
v -0.414072 0.487018 3.010722
v -0.814512 0.178984 2.950605
v -0.559112 0.169761 3.010722
v -0.624454 -0.331206 2.950605
v -0.437336 -0.157133 3.010722
v -0.129302 -0.557574 2.950605
v -0.120078 -0.302173 3.010722
v 0.380889 -0.367515 2.950605
v 0.206815 -0.180397 3.010722
v -0.103628 0.153311 3.159799
v 0.020504 0.019876 3.092516
v -0.110206 -0.028816 3.092516
v -0.237062 0.029178 3.092516
v -0.285755 0.159888 3.092516
v -0.227760 0.286745 3.092516
v -0.097051 0.335437 3.092516
v 0.078499 0.146733 3.092516
v 0.029806 0.277443 3.092516
v 0.768637 0.188198 2.352599
v 0.902611 0.188198 1.486574
v 0.768637 0.188198 0.620548
v 0.402611 0.188198 -0.013426
v 0.256165 0.541752 -0.013426
v 0.514984 0.800571 0.620548
v 0.609718 0.895305 1.486574
v 0.514984 0.800571 2.352599
v -0.097389 1.054224 2.352599
v -0.097389 1.188198 1.486574
v -0.097389 1.054224 0.620548
v -0.097389 0.688198 -0.013426
v -0.450942 0.541752 -0.013426
v -0.709761 0.800570 0.620548
v -0.804496 0.895305 1.486574
v -0.709761 0.800571 2.352599
v -0.963414 0.188198 2.352599
v -1.097389 0.188198 1.486574
v -0.963414 0.188198 0.620548
v -0.597389 0.188198 -0.013426
v -0.097389 0.188198 -0.013426
v -0.450942 -0.165355 -0.013426
v -0.709761 -0.424174 0.620548
v -0.804495 -0.518909 1.486574
v -0.709761 -0.424175 2.352599
v -0.097389 -0.677828 2.352599
v -0.097389 -0.811802 1.486574
v -0.097389 -0.677827 0.620548
v -0.097389 -0.311802 -0.013426
v 0.256165 -0.165355 -0.013426
v 0.514984 -0.424174 0.620548
v 0.609718 -0.518909 1.486574
v 0.514984 -0.424174 2.352599
v 0.301905 0.587492 2.874532
v 0.467298 0.188198 2.874532
v -0.097389 0.752885 2.874532
v -0.496683 0.587492 2.874532
v -0.662076 0.188198 2.874532
v -0.496683 -0.211096 2.874532
v -0.097389 -0.376489 2.874532
v 0.301906 -0.211096 2.874532
v 0.448270 0.188198 2.866801
v 0.288450 0.574037 2.866801
v -0.097389 0.733857 2.866801
v -0.483228 0.574037 2.866801
v -0.643048 0.188198 2.866801
v -0.483228 -0.197641 2.866801
v -0.097389 -0.357461 2.866801
v 0.288451 -0.197641 2.866801
vt 0.862325 0.017247 0.0
vt 0.958938 0.017247 0.0
vt 0.983843 0.078089 0.0
vt 0.837420 0.078089 0.0
vt 0.958937 0.017247 0.0
vt 0.862324 0.017247 0.0
vt 0.837418 0.078089 0.0
vt 0.983842 0.078089 0.0
vt 0.862324 0.017246 0.0
vt 0.958938 0.017246 0.0
vt 0.983844 0.078089 0.0
vt 0.837419 0.078089 0.0
vt 0.958937 0.017247 0.0
vt 0.862323 0.017247 0.0
vt 0.837418 0.078089 0.0
vt 0.983842 0.078089 0.0
vt 0.862323 0.017246 0.0
vt 0.958936 0.017246 0.0
vt 0.983841 0.078088 0.0
vt 0.837418 0.078088 0.0
vt 0.958940 0.017246 0.0
vt 0.862326 0.017246 0.0
vt 0.837420 0.078088 0.0
vt 0.983845 0.078088 0.0
vt 0.862325 0.017247 0.0
vt 0.958939 0.017247 0.0
vt 0.983844 0.078089 0.0
vt 0.837420 0.078089 0.0
vt 0.958937 0.017247 0.0
vt 0.862324 0.017247 0.0
vt 0.837419 0.078089 0.0
vt 0.983842 0.078089 0.0
vt 0.983843 0.078089 0.0
vt 0.979357 0.102397 0.0
vt 0.841906 0.102397 0.0
vt 0.837420 0.078089 0.0
vt 0.979357 0.102397 0.0
vt 0.954666 0.163909 0.0
vt 0.866597 0.163909 0.0
vt 0.841906 0.102397 0.0
vt 0.954666 0.163909 0.0
vt 0.925791 0.234328 0.0
vt 0.895472 0.234328 0.0
vt 0.866597 0.163909 0.0
vt 0.837418 0.078089 0.0
vt 0.841905 0.102398 0.0
vt 0.979356 0.102398 0.0
vt 0.983842 0.078089 0.0
vt 0.841905 0.102398 0.0
vt 0.866596 0.163909 0.0
vt 0.954665 0.163909 0.0
vt 0.979356 0.102398 0.0
vt 0.866596 0.163909 0.0
vt 0.895471 0.234329 0.0
vt 0.925790 0.234329 0.0
vt 0.954665 0.163909 0.0
vt 0.983844 0.078089 0.0
vt 0.979357 0.102397 0.0
vt 0.841905 0.102397 0.0
vt 0.837419 0.078089 0.0
vt 0.979357 0.102397 0.0
vt 0.954666 0.163909 0.0
vt 0.866597 0.163909 0.0
vt 0.841905 0.102397 0.0
vt 0.954666 0.163909 0.0
vt 0.925791 0.234329 0.0
vt 0.895472 0.234329 0.0
vt 0.866597 0.163909 0.0
vt 0.837418 0.078089 0.0
vt 0.841904 0.102398 0.0
vt 0.979356 0.102398 0.0
vt 0.983842 0.078089 0.0
vt 0.841904 0.102398 0.0
vt 0.866596 0.163909 0.0
vt 0.954664 0.163909 0.0
vt 0.979356 0.102398 0.0
vt 0.866596 0.163909 0.0
vt 0.895471 0.234329 0.0
vt 0.925790 0.234329 0.0
vt 0.954664 0.163909 0.0
vt 0.983841 0.078088 0.0
vt 0.979355 0.102397 0.0
vt 0.841904 0.102397 0.0
vt 0.837418 0.078088 0.0
vt 0.979355 0.102397 0.0
vt 0.954664 0.163908 0.0
vt 0.866595 0.163908 0.0
vt 0.841904 0.102397 0.0
vt 0.954664 0.163908 0.0
vt 0.925789 0.234328 0.0
vt 0.895470 0.234328 0.0
vt 0.866595 0.163908 0.0
vt 0.837420 0.078088 0.0
vt 0.841906 0.102397 0.0
vt 0.979359 0.102397 0.0
vt 0.983845 0.078088 0.0
vt 0.841906 0.102397 0.0
vt 0.866598 0.163909 0.0
vt 0.954667 0.163909 0.0
vt 0.979359 0.102397 0.0
vt 0.866598 0.163909 0.0
vt 0.895473 0.234329 0.0
vt 0.925792 0.234329 0.0
vt 0.954667 0.163909 0.0
vt 0.983844 0.078089 0.0
vt 0.979358 0.102398 0.0
vt 0.841906 0.102398 0.0
vt 0.837420 0.078089 0.0
vt 0.979358 0.102398 0.0
vt 0.954667 0.163909 0.0
vt 0.866598 0.163910 0.0
vt 0.841906 0.102398 0.0
vt 0.954667 0.163909 0.0
vt 0.925792 0.234329 0.0
vt 0.895473 0.234329 0.0
vt 0.866598 0.163910 0.0
vt 0.837419 0.078089 0.0
vt 0.841905 0.102397 0.0
vt 0.979356 0.102397 0.0
vt 0.983842 0.078089 0.0
vt 0.841905 0.102397 0.0
vt 0.866596 0.163909 0.0
vt 0.954665 0.163909 0.0
vt 0.979356 0.102397 0.0
vt 0.866596 0.163909 0.0
vt 0.895471 0.234329 0.0
vt 0.925790 0.234329 0.0
vt 0.954665 0.163909 0.0
vt 0.925790 0.234329 0.0
vt 0.895471 0.234329 0.0
vt 0.893024 0.246537 0.0
vt 0.928238 0.246536 0.0
vt 0.895473 0.234329 0.0
vt 0.925792 0.234329 0.0
vt 0.928240 0.246536 0.0
vt 0.893025 0.246537 0.0
vt 0.925792 0.234329 0.0
vt 0.895473 0.234329 0.0
vt 0.893025 0.246536 0.0
vt 0.928239 0.246537 0.0
vt 0.895470 0.234328 0.0
vt 0.925789 0.234328 0.0
vt 0.928237 0.246536 0.0
vt 0.893021 0.246535 0.0
vt 0.925790 0.234329 0.0
vt 0.895471 0.234329 0.0
vt 0.893023 0.246537 0.0
vt 0.928238 0.246536 0.0
vt 0.895472 0.234329 0.0
vt 0.925791 0.234329 0.0
vt 0.928239 0.246537 0.0
vt 0.893024 0.246537 0.0
vt 0.925790 0.234329 0.0
vt 0.895471 0.234329 0.0
vt 0.893024 0.246537 0.0
vt 0.928238 0.246537 0.0
vt 0.895472 0.234328 0.0
vt 0.925791 0.234328 0.0
vt 0.928239 0.246536 0.0
vt 0.893024 0.246536 0.0
vt 0.893024 0.246536 0.0
vt 0.928239 0.246536 0.0
vt 0.910632 0.292313 0.0
vt 0.928238 0.246537 0.0
vt 0.893024 0.246537 0.0
vt 0.910631 0.292313 0.0
vt 0.893024 0.246537 0.0
vt 0.928239 0.246537 0.0
vt 0.910631 0.292313 0.0
vt 0.928238 0.246536 0.0
vt 0.893023 0.246537 0.0
vt 0.910631 0.292313 0.0
vt 0.893021 0.246535 0.0
vt 0.928237 0.246536 0.0
vt 0.910628 0.292313 0.0
vt 0.928239 0.246537 0.0
vt 0.893025 0.246536 0.0
vt 0.910631 0.292312 0.0
vt 0.893025 0.246537 0.0
vt 0.928240 0.246536 0.0
vt 0.910633 0.292313 0.0
vt 0.928238 0.246536 0.0
vt 0.893024 0.246537 0.0
vt 0.910631 0.292312 0.0
vt 0.980892 0.427796 0.0
vt 0.926029 0.488332 0.0
vt 0.980892 0.488332 0.0
vt 0.180817 0.801001 0.0
vt 0.091910 0.801001 0.0
vt 0.091910 0.998999 0.0
vt 0.180817 0.998999 0.0
vt 0.180817 0.201001 0.0
vt 0.001001 0.201001 0.0
vt 0.001001 0.398999 0.0
vt 0.180817 0.398999 0.0
vt 0.362635 0.001001 0.0
vt 0.182819 0.001001 0.0
vt 0.182819 0.198999 0.0
vt 0.362635 0.198999 0.0
vt 0.362635 0.998999 0.0
vt 0.362635 0.901001 0.0
vt 0.182819 0.901001 0.0
vt 0.182819 0.998999 0.0
vt 0.089908 0.801001 0.0
vt 0.001001 0.801001 0.0
vt 0.001001 0.998999 0.0
vt 0.089908 0.998999 0.0
vt 0.544454 0.001001 0.0
vt 0.364637 0.001001 0.0
vt 0.364637 0.198999 0.0
vt 0.544454 0.198999 0.0
vt 0.362635 0.401001 0.0
vt 0.182819 0.401001 0.0
vt 0.182819 0.598999 0.0
vt 0.362635 0.598999 0.0
vt 0.726272 0.998999 0.0
vt 0.726272 0.901001 0.0
vt 0.546456 0.901001 0.0
vt 0.546456 0.998999 0.0
vt 0.925405 0.487708 0.0
vt 0.925405 0.427172 0.0
vt 0.980267 0.427172 0.0
vt 0.980892 0.302976 0.0
vt 0.980892 0.363512 0.0
vt 0.926029 0.363512 0.0
vt 0.817181 0.401001 0.0
vt 0.728274 0.401001 0.0
vt 0.728274 0.598999 0.0
vt 0.817181 0.598999 0.0
vt 0.544454 0.601001 0.0
vt 0.364637 0.601001 0.0
vt 0.364637 0.798999 0.0
vt 0.544454 0.798999 0.0
vt 0.362635 0.601001 0.0
vt 0.182819 0.601001 0.0
vt 0.182819 0.798999 0.0
vt 0.362635 0.798999 0.0
vt 0.544454 0.898999 0.0
vt 0.544454 0.801001 0.0
vt 0.364637 0.801001 0.0
vt 0.364637 0.898999 0.0
vt 0.817181 0.001001 0.0
vt 0.728274 0.001001 0.0
vt 0.728274 0.198999 0.0
vt 0.817181 0.198999 0.0
vt 0.726272 0.001001 0.0
vt 0.546456 0.001001 0.0
vt 0.546456 0.198999 0.0
vt 0.726272 0.198999 0.0
vt 0.726272 0.401001 0.0
vt 0.546456 0.401001 0.0
vt 0.546456 0.598999 0.0
vt 0.726272 0.598999 0.0
vt 0.998999 0.698999 0.0
vt 0.998999 0.601001 0.0
vt 0.819183 0.601001 0.0
vt 0.819183 0.698999 0.0
vt 0.980892 0.365386 0.0
vt 0.980892 0.425922 0.0
vt 0.926029 0.425922 0.0
vt 0.980892 0.739847 0.0
vt 0.980892 0.800383 0.0
vt 0.926029 0.800383 0.0
vt 0.817181 0.201001 0.0
vt 0.728274 0.201001 0.0
vt 0.728274 0.398999 0.0
vt 0.817181 0.398999 0.0
vt 0.726272 0.201001 0.0
vt 0.546456 0.201001 0.0
vt 0.546456 0.398999 0.0
vt 0.726272 0.398999 0.0
vt 0.180817 0.601001 0.0
vt 0.001001 0.601001 0.0
vt 0.001001 0.798999 0.0
vt 0.180817 0.798999 0.0
vt 0.362635 0.898999 0.0
vt 0.362635 0.801001 0.0
vt 0.182819 0.801001 0.0
vt 0.182819 0.898999 0.0
vt 0.817181 0.601001 0.0
vt 0.728274 0.601001 0.0
vt 0.728274 0.798999 0.0
vt 0.817181 0.798999 0.0
vt 0.544454 0.401001 0.0
vt 0.364637 0.401001 0.0
vt 0.364637 0.598999 0.0
vt 0.544454 0.598999 0.0
vt 0.180817 0.001001 0.0
vt 0.001001 0.001001 0.0
vt 0.001001 0.198999 0.0
vt 0.180817 0.198999 0.0
vt 0.726272 0.898999 0.0
vt 0.726272 0.801001 0.0
vt 0.546456 0.801001 0.0
vt 0.546456 0.898999 0.0
vt 0.925405 0.799758 0.0
vt 0.980267 0.739222 0.0
vt 0.925405 0.739222 0.0
vt 0.925405 0.425297 0.0
vt 0.980267 0.364762 0.0
vt 0.925405 0.364762 0.0
vt 0.817181 0.801001 0.0
vt 0.728274 0.801001 0.0
vt 0.728274 0.998999 0.0
vt 0.817181 0.998999 0.0
vt 0.180817 0.401001 0.0
vt 0.001001 0.401001 0.0
vt 0.001001 0.598999 0.0
vt 0.180817 0.598999 0.0
vt 0.544454 0.201001 0.0
vt 0.364637 0.201001 0.0
vt 0.364637 0.398999 0.0
vt 0.544454 0.398999 0.0
vt 0.544454 0.998999 0.0
vt 0.544454 0.901001 0.0
vt 0.364637 0.901001 0.0
vt 0.364637 0.998999 0.0
vt 0.908090 0.801001 0.0
vt 0.819183 0.801001 0.0
vt 0.819183 0.998999 0.0
vt 0.908090 0.998999 0.0
vt 0.362635 0.201001 0.0
vt 0.182819 0.201001 0.0
vt 0.182819 0.398999 0.0
vt 0.362635 0.398999 0.0
vt 0.726272 0.601001 0.0
vt 0.546456 0.601001 0.0
vt 0.546456 0.798999 0.0
vt 0.726272 0.798999 0.0
vt 0.998999 0.598999 0.0
vt 0.998999 0.501001 0.0
vt 0.819183 0.501001 0.0
vt 0.819183 0.598999 0.0
vt 0.925405 0.362887 0.0
vt 0.980267 0.302351 0.0
vt 0.925405 0.302351 0.0
vt 0.908090 0.301001 0.0
vt 0.887365 0.301001 0.0
vt 0.887365 0.398999 0.0
vt 0.908090 0.398999 0.0
vt 0.908090 0.448999 0.0
vt 0.908090 0.426001 0.0
vt 0.819183 0.426001 0.0
vt 0.819183 0.448999 0.0
vt 0.862635 0.301001 0.0
vt 0.841910 0.301001 0.0
vt 0.841910 0.398999 0.0
vt 0.862635 0.398999 0.0
vt 0.908090 0.423999 0.0
vt 0.908090 0.401001 0.0
vt 0.819183 0.401001 0.0
vt 0.819183 0.423999 0.0
vt 0.885363 0.301001 0.0
vt 0.864637 0.301001 0.0
vt 0.864637 0.398999 0.0
vt 0.885363 0.398999 0.0
vt 0.908090 0.473999 0.0
vt 0.908090 0.451001 0.0
vt 0.819183 0.451001 0.0
vt 0.819183 0.473999 0.0
vt 0.839908 0.301001 0.0
vt 0.819183 0.301001 0.0
vt 0.819183 0.398999 0.0
vt 0.839908 0.398999 0.0
vt 0.908090 0.498999 0.0
vt 0.908090 0.476001 0.0
vt 0.819183 0.476001 0.0
vt 0.819183 0.498999 0.0
vn 0.141362 -0.005097 -0.989929
vn 0.103580 0.096347 -0.989929
vn 0.692923 0.644612 -0.322916
vn 0.945799 -0.034150 -0.322916
vn 0.005097 0.141362 -0.989929
vn 0.034150 0.945799 -0.322916
vn -0.096347 0.103580 -0.989929
vn -0.644612 0.692923 -0.322916
vn -0.141362 0.005097 -0.989929
vn -0.945799 0.034150 -0.322916
vn -0.103580 -0.096347 -0.989929
vn -0.692923 -0.644612 -0.322916
vn -0.005097 -0.141362 -0.989929
vn -0.034150 -0.945799 -0.322916
vn 0.096347 -0.103580 -0.989929
vn 0.644612 -0.692923 -0.322916
vn 0.487777 0.453780 0.745720
vn 0.665792 -0.024018 0.745720
vn 0.137516 0.127934 0.982177
vn 0.187719 -0.006775 0.982177
vn 0.697958 0.649281 0.302072
vn 0.952635 -0.034394 0.302072
vn 0.024018 0.665792 0.745720
vn 0.006775 0.187719 0.982177
vn 0.034394 0.952635 0.302072
vn -0.453780 0.487777 0.745720
vn -0.127934 0.137516 0.982177
vn -0.649281 0.697958 0.302072
vn -0.665792 0.024018 0.745720
vn -0.187719 0.006775 0.982177
vn -0.952635 0.034394 0.302072
vn -0.487777 -0.453780 0.745720
vn -0.137516 -0.127934 0.982177
vn -0.697958 -0.649281 0.302072
vn -0.024018 -0.665792 0.745720
vn -0.006775 -0.187719 0.982177
vn -0.034394 -0.952635 0.302072
vn 0.453780 -0.487777 0.745720
vn 0.127934 -0.137516 0.982177
vn 0.649281 -0.697958 0.302072
vn 0.966155 -0.034883 0.255562
vn 0.658498 -0.707846 0.255562
vn -0.034883 -0.966155 0.255562
vn -0.707846 -0.658498 0.255562
vn -0.966155 0.034883 0.255562
vn -0.658498 0.707846 0.255562
vn 0.034883 0.966155 0.255562
vn 0.707846 0.658498 0.255562
vn 0.000000 0.000000 1.000000
vn 0.000000 0.000000 -1.000000
vn 0.424390 0.424390 -0.799829
vn 0.600177 0.000000 -0.799829
vn 0.668355 0.668355 -0.326365
vn 0.945219 0.000000 -0.326365
vn 0.707083 0.707083 0.000000
vn 1.000000 0.000000 0.000000
vn 0.668355 0.668355 0.326365
vn 0.945219 0.000000 0.326365
vn 0.270425 0.270425 0.923948
vn 0.382427 0.000000 0.923948
vn 0.000000 0.382427 0.923948
vn 0.000000 0.945219 0.326365
vn 0.000000 1.000000 0.000000
vn 0.000000 0.945219 -0.326365
vn 0.000000 0.600177 -0.799829
vn -0.424390 0.424390 -0.799829
vn -0.668355 0.668355 -0.326365
vn -0.707083 0.707083 0.000000
vn -0.668355 0.668355 0.326365
vn -0.270425 0.270425 0.923948
vn -0.382427 0.000000 0.923948
vn -0.945219 0.000000 0.326365
vn -1.000000 0.000000 0.000000
vn -0.945219 0.000000 -0.326365
vn -0.600177 0.000000 -0.799829
vn -0.424390 -0.424390 -0.799829
vn -0.668355 -0.668355 -0.326365
vn -0.707083 -0.707083 0.000000
vn -0.668355 -0.668355 0.326365
vn -0.270425 -0.270425 0.923948
vn 0.000000 -0.382427 0.923948
vn 0.000000 -0.945219 0.326365
vn 0.000000 -1.000000 0.000000
vn 0.000000 -0.945219 -0.326365
vn 0.000000 -0.600177 -0.799829
vn 0.424390 -0.424390 -0.799829
vn 0.668355 -0.668355 -0.326365
vn 0.707083 -0.707083 0.000000
vn 0.668355 -0.668355 0.326365
vn 0.270425 -0.270425 0.923948
vn -0.266152 -0.266152 0.926420
vn -0.376415 0.000000 0.926420
vn 0.000000 -0.376415 0.926420
vn 0.266152 -0.266152 0.926420
vn 0.376415 0.000000 0.926420
vn 0.266152 0.266152 0.926420
vn 0.000000 0.376415 0.926420
vn -0.266152 0.266152 0.926420
usemtl Base_LM_Basket_02.tga
s 1
f 1/1/1 2/2/2 10/3/3 9/4/4
f 2/5/2 3/6/5 11/7/6 10/8/3
f 3/9/5 4/10/7 12/11/8 11/12/6
f 4/13/7 5/14/9 13/15/10 12/16/8
f 5/17/9 6/18/11 14/19/12 13/20/10
f 6/21/11 7/22/13 15/23/14 14/24/12
f 7/25/13 8/26/15 16/27/16 15/28/14
f 8/29/15 1/30/1 9/31/4 16/32/16
f 10/33/3 25/34/17 27/35/18 9/36/4
f 25/37/17 26/38/19 28/39/20 27/40/18
f 26/41/19 17/42/21 18/43/22 28/44/20
f 11/45/6 30/46/23 25/47/17 10/48/3
f 30/49/23 29/50/24 26/51/19 25/52/17
f 29/53/24 19/54/25 17/55/21 26/56/19
f 12/57/8 31/58/26 30/59/23 11/60/6
f 31/61/26 32/62/27 29/63/24 30/64/23
f 32/65/27 20/66/28 19/67/25 29/68/24
f 13/69/10 33/70/29 31/71/26 12/72/8
f 33/73/29 34/74/30 32/75/27 31/76/26
f 34/77/30 21/78/31 20/79/28 32/80/27
f 14/81/12 35/82/32 33/83/29 13/84/10
f 35/85/32 36/86/33 34/87/30 33/88/29
f 36/89/33 22/90/34 21/91/31 34/92/30
f 15/93/14 37/94/35 35/95/32 14/96/12
f 37/97/35 38/98/36 36/99/33 35/100/32
f 38/101/36 23/102/37 22/103/34 36/104/33
f 16/105/16 39/106/38 37/107/35 15/108/14
f 39/109/38 40/110/39 38/111/36 37/112/35
f 40/113/39 24/114/40 23/115/37 38/116/36
f 9/117/4 27/118/18 39/119/38 16/120/16
f 27/121/18 28/122/20 40/123/39 39/124/38
f 28/125/20 18/126/22 24/127/40 40/128/39
f 24/129/40 18/130/22 48/131/41 42/132/42
f 23/133/37 24/134/40 42/135/42 43/136/43
f 22/137/34 23/138/37 43/139/43 44/140/44
f 21/141/31 22/142/34 44/143/44 45/144/45
f 20/145/28 21/146/31 45/147/45 46/148/46
f 19/149/25 20/150/28 46/151/46 47/152/47
f 17/153/21 19/154/25 47/155/47 49/156/48
f 18/157/22 17/158/21 49/159/48 48/160/41
f 48/161/41 49/162/48 41/163/49
f 49/164/48 47/165/47 41/166/49
f 47/167/47 46/168/46 41/169/49
f 46/170/46 45/171/45 41/172/49
f 45/173/45 44/174/44 41/175/49
f 44/176/44 43/177/43 41/178/49
f 43/179/43 42/180/42 41/181/49
f 42/182/42 48/183/41 41/184/49
f 70/185/50 54/186/51 53/187/52
f 53/188/52 54/189/51 55/190/53 52/191/54
f 52/192/54 55/193/53 56/194/55 51/195/56
f 57/196/57 50/197/58 51/198/56 56/199/55
f 50/200/58 57/201/57 83/202/59 84/203/60
f 85/204/61 83/205/59 57/206/57 58/207/62
f 56/208/55 59/209/63 58/210/62 57/211/57
f 55/212/53 60/213/64 59/214/63 56/215/55
f 54/216/51 61/217/65 60/218/64 55/219/53
f 70/220/50 61/221/65 54/222/51
f 70/223/50 62/224/66 61/225/65
f 61/226/65 62/227/66 63/228/67 60/229/64
f 60/230/64 63/231/67 64/232/68 59/233/63
f 59/234/63 64/235/68 65/236/69 58/237/62
f 86/238/70 85/239/61 58/240/62 65/241/69
f 87/242/71 86/243/70 65/244/69 66/245/72
f 64/246/68 67/247/73 66/248/72 65/249/69
f 63/250/67 68/251/74 67/252/73 64/253/68
f 62/254/66 69/255/75 68/256/74 63/257/67
f 70/258/50 69/259/75 62/260/66
f 70/261/50 71/262/76 69/263/75
f 69/264/75 71/265/76 72/266/77 68/267/74
f 68/268/74 72/269/77 73/270/78 67/271/73
f 67/272/73 73/273/78 74/274/79 66/275/72
f 88/276/80 87/277/71 66/278/72 74/279/79
f 89/280/81 88/281/80 74/282/79 75/283/82
f 73/284/78 76/285/83 75/286/82 74/287/79
f 72/288/77 77/289/84 76/290/83 73/291/78
f 71/292/76 78/293/85 77/294/84 72/295/77
f 70/296/50 78/297/85 71/298/76
f 70/299/50 79/300/86 78/301/85
f 78/302/85 79/303/86 80/304/87 77/305/84
f 77/306/84 80/307/87 81/308/88 76/309/83
f 76/310/83 81/311/88 82/312/89 75/313/82
f 90/314/90 89/315/81 75/316/82 82/317/89
f 82/318/89 50/319/58 84/320/60 90/321/90
f 50/322/58 82/323/89 81/324/88 51/325/56
f 80/326/87 52/327/54 51/328/56 81/329/88
f 79/330/86 53/331/52 52/332/54 80/333/87
f 70/334/50 53/335/52 79/336/86
f 83/337/59 92/338/91 91/339/92 84/340/60
f 85/341/61 93/342/93 92/343/91 83/344/59
f 86/345/70 94/346/94 93/347/93 85/348/61
f 87/349/71 95/350/95 94/351/94 86/352/70
f 88/353/80 96/354/96 95/355/95 87/356/71
f 89/357/81 97/358/97 96/359/96 88/360/80
f 90/361/90 98/362/98 97/363/97 89/364/81
f 98/365/98 90/366/90 84/367/60 91/368/92
