# Blender3D v246 OBJ File: pav.blend
# www.blender3d.org
mtllib pav.mtl
o pavillion1_Cylinder.005
v -0.924166 0.913762 2.257337
v -0.924167 -0.854385 2.257337
v 0.843980 -0.854386 2.257337
v 0.843980 0.913762 2.257337
v -0.629475 0.619071 2.584792
v -0.629476 -0.559694 2.584792
v 0.549289 -0.559694 2.584792
v 0.549289 0.619071 2.584792
v 0.623510 -0.654632 -0.037189
v 0.604716 -0.666073 -0.037189
v 0.585922 -0.654632 -0.037189
v 0.585922 -0.631751 -0.037189
v 0.604716 -0.620310 -0.037189
v 0.623510 -0.631751 -0.037189
v 0.623510 -0.654632 2.261403
v 0.604716 -0.666073 2.261403
v 0.585922 -0.654632 2.261403
v 0.585922 -0.631751 2.261403
v 0.604716 -0.620310 2.261403
v 0.623510 -0.631751 2.261403
v 0.604716 -0.666073 1.705241
v 0.604716 -0.666073 1.830555
v 0.623510 -0.654632 1.705241
v 0.623510 -0.654632 1.830555
v 0.585922 -0.654632 1.705241
v 0.585922 -0.654632 1.830555
v 0.585922 -0.631751 1.705241
v 0.585922 -0.631751 1.830555
v 0.604716 -0.620310 1.705241
v 0.604716 -0.620310 1.830555
v 0.623510 -0.631751 1.705241
v 0.623510 -0.631751 1.830555
v 0.537730 -0.654632 2.261403
v 0.537730 -0.631751 2.261403
v 0.497362 -0.631751 2.261403
v 0.497362 -0.654632 2.261403
v 0.579423 -0.574114 2.261396
v 0.560627 -0.585552 2.261403
v 0.541264 -0.550177 2.261404
v 0.560060 -0.538740 2.261396
v -0.643516 -0.604848 2.261396
v -0.654954 -0.586052 2.261404
v -0.690328 -0.605415 2.261403
v -0.678891 -0.624210 2.261396
v -0.759409 -0.542150 2.261403
v -0.736527 -0.542150 2.261403
v -0.736527 -0.582518 2.261403
v -0.759409 -0.582518 2.261403
v -0.736527 -0.668298 1.830555
v -0.736527 -0.668298 1.705241
v -0.725087 -0.649504 1.830555
v -0.725087 -0.649504 1.705241
v -0.736527 -0.630709 1.830555
v -0.736527 -0.630709 1.705241
v -0.759409 -0.630709 1.830555
v -0.759409 -0.630709 1.705241
v -0.759409 -0.668298 1.830555
v -0.759409 -0.668298 1.705241
v -0.770850 -0.649504 1.830555
v -0.770850 -0.649504 1.705241
v -0.736527 -0.668298 2.261403
v -0.725087 -0.649504 2.261403
v -0.736527 -0.630709 2.261403
v -0.759409 -0.630709 2.261403
v -0.770850 -0.649504 2.261403
v -0.759409 -0.668298 2.261403
v -0.736527 -0.668298 -0.037189
v -0.725087 -0.649504 -0.037189
v -0.736527 -0.630709 -0.037189
v -0.759409 -0.630709 -0.037189
v -0.770850 -0.649504 -0.037189
v -0.759409 -0.668298 -0.037189
v -0.773075 0.714621 -0.037189
v -0.754280 0.726062 -0.037189
v -0.735486 0.714621 -0.037189
v -0.735486 0.691740 -0.037189
v -0.754280 0.680299 -0.037189
v -0.773074 0.691740 -0.037189
v -0.773075 0.714621 2.261403
v -0.754280 0.726062 2.261403
v -0.735486 0.714621 2.261403
v -0.735486 0.691740 2.261403
v -0.754280 0.680299 2.261403
v -0.773075 0.691740 2.261403
v -0.754280 0.726062 1.705241
v -0.754280 0.726062 1.830555
v -0.773075 0.714621 1.705241
v -0.773075 0.714621 1.830555
v -0.735486 0.714621 1.705241
v -0.735486 0.714621 1.830555
v -0.735486 0.691740 1.705241
v -0.735486 0.691740 1.830555
v -0.754280 0.680299 1.705241
v -0.754280 0.680299 1.830555
v -0.773075 0.691740 1.705241
v -0.773075 0.691740 1.830555
v -0.687294 0.714621 2.261403
v -0.687294 0.691740 2.261403
v -0.646926 0.691740 2.261403
v -0.646926 0.714621 2.261403
v -0.728987 0.634103 2.261396
v -0.710191 0.645540 2.261403
v -0.690828 0.610166 2.261404
v -0.709624 0.598728 2.261396
v 0.493952 0.664836 2.261396
v 0.505389 0.646040 2.261404
v 0.540764 0.665404 2.261403
v 0.529326 0.684199 2.261396
v 0.609845 0.602139 2.261403
v 0.586963 0.602139 2.261403
v 0.586963 0.642507 2.261403
v 0.609845 0.642507 2.261403
v 0.586963 0.728287 1.830555
v 0.586963 0.728287 1.705241
v 0.575522 0.709493 1.830555
v 0.575522 0.709493 1.705241
v 0.586963 0.690698 1.830555
v 0.586963 0.690698 1.705241
v 0.609845 0.690698 1.830555
v 0.609845 0.690698 1.705241
v 0.609845 0.728287 1.830555
v 0.609845 0.728287 1.705241
v 0.621285 0.709493 1.830555
v 0.621285 0.709493 1.705241
v 0.586963 0.728287 2.261403
v 0.575522 0.709493 2.261403
v 0.586963 0.690698 2.261403
v 0.609845 0.690698 2.261403
v 0.621285 0.709493 2.261403
v 0.609845 0.728287 2.261403
v 0.586963 0.728287 -0.037189
v 0.575522 0.709493 -0.037189
v 0.586963 0.690698 -0.037189
v 0.609845 0.690698 -0.037189
v 0.621285 0.709493 -0.037189
v 0.609845 0.728287 -0.037189
vt 0.445312 1.000000 0.0
vt 1.000000 1.000000 0.0
vt 1.000000 0.441406 0.0
vt 0.445312 0.441406 0.0
vt 0.445312 1.000000 0.0
vt 0.535156 0.906250 0.0
vt 0.910156 0.906250 0.0
vt 1.000000 1.000000 0.0
vt 0.535156 0.906250 0.0
vt 0.445312 1.000000 0.0
vt 0.445312 0.441406 0.0
vt 0.535156 0.531250 0.0
vt 1.000000 0.441406 0.0
vt 0.910156 0.531250 0.0
vt 0.535156 0.531250 0.0
vt 0.445312 0.441406 0.0
vt 1.000000 1.000000 0.0
vt 0.910156 0.906250 0.0
vt 0.910156 0.531250 0.0
vt 1.000000 0.441406 0.0
vt 0.535156 0.906250 0.0
vt 0.535156 0.531250 0.0
vt 0.910156 0.531250 0.0
vt 0.910156 0.906250 0.0
vt 0.218750 0.007812 0.0
vt 0.218750 0.578125 0.0
vt 0.148438 0.570312 0.0
vt 0.148438 0.000000 0.0
vt 0.218750 0.578125 0.0
vt 0.218750 0.660156 0.0
vt 0.148438 0.652344 0.0
vt 0.148438 0.570312 0.0
vt 0.218750 0.660156 0.0
vt 0.218750 0.957031 0.0
vt 0.148438 0.949219 0.0
vt 0.148438 0.652344 0.0
vt 0.093750 0.007812 0.0
vt 0.093750 0.566406 0.0
vt 0.019531 0.558594 0.0
vt 0.019531 0.000000 0.0
vt 0.093750 0.566406 0.0
vt 0.093750 0.648438 0.0
vt 0.019531 0.640625 0.0
vt 0.019531 0.558594 0.0
vt 0.093750 0.648438 0.0
vt 0.093750 0.945312 0.0
vt 0.019531 0.929688 0.0
vt 0.019531 0.640625 0.0
vt 0.292969 0.007812 0.0
vt 0.292969 0.566406 0.0
vt 0.218750 0.558594 0.0
vt 0.218750 0.000000 0.0
vt 0.648438 0.109375 0.0
vt 0.648438 0.406250 0.0
vt 0.609375 0.406250 0.0
vt 0.609375 0.109375 0.0
vt 0.074219 0.007812 0.0
vt 0.074219 0.578125 0.0
vt 0.000000 0.570312 0.0
vt 0.000000 0.000000 0.0
vt 0.140625 0.605469 0.0
vt 0.140625 0.992188 0.0
vt 0.089844 0.976562 0.0
vt 0.089844 0.589844 0.0
vt 0.148438 0.007812 0.0
vt 0.148438 0.578125 0.0
vt 0.074219 0.570312 0.0
vt 0.074219 0.000000 0.0
vt 0.148438 0.578125 0.0
vt 0.148438 0.660156 0.0
vt 0.074219 0.652344 0.0
vt 0.074219 0.570312 0.0
vt 0.148438 0.660156 0.0
vt 0.148438 1.000000 0.0
vt 0.074219 0.992188 0.0
vt 0.074219 0.652344 0.0
vt 0.113281 0.992188 0.0
vt 0.113281 0.640625 0.0
vt 0.183594 0.648438 0.0
vt 0.183594 1.000000 0.0
vt 0.113281 0.640625 0.0
vt 0.113281 0.558594 0.0
vt 0.183594 0.566406 0.0
vt 0.183594 0.648438 0.0
vt 0.113281 0.558594 0.0
vt 0.113281 0.000000 0.0
vt 0.183594 0.007812 0.0
vt 0.183594 0.566406 0.0
vt 0.140625 0.589844 0.0
vt 0.199219 0.589844 0.0
vt 0.199219 0.976562 0.0
vt 0.140625 0.992188 0.0
vt 0.488281 0.007812 0.0
vt 0.542969 0.007812 0.0
vt 0.542969 0.402344 0.0
vt 0.488281 0.402344 0.0
vt 0.570312 0.144531 0.0
vt 0.609375 0.011719 0.0
vt 0.609375 0.406250 0.0
vt 0.562500 0.402344 0.0
vt 0.464844 0.011719 0.0
vt 0.507812 0.093750 0.0
vt 0.511719 0.402344 0.0
vt 0.464844 0.417969 0.0
vt 0.171875 0.589844 0.0
vt 0.226562 0.589844 0.0
vt 0.226562 0.992188 0.0
vt 0.171875 0.992188 0.0
vt 0.609375 0.007812 0.0
vt 0.656250 0.007812 0.0
vt 0.656250 0.402344 0.0
vt 0.609375 0.402344 0.0
vt 0.527344 0.132812 0.0
vt 0.570312 0.007812 0.0
vt 0.570312 0.402344 0.0
vt 0.523438 0.398438 0.0
vt 0.511719 0.011719 0.0
vt 0.554688 0.093750 0.0
vt 0.562500 0.402344 0.0
vt 0.511719 0.406250 0.0
vt 0.511719 0.011719 0.0
vt 0.554688 0.093750 0.0
vt 0.562500 0.402344 0.0
vt 0.511719 0.406250 0.0
vt 0.527344 0.132812 0.0
vt 0.570312 0.007812 0.0
vt 0.570312 0.402344 0.0
vt 0.523438 0.398438 0.0
vt 0.609375 0.007812 0.0
vt 0.656250 0.007812 0.0
vt 0.656250 0.402344 0.0
vt 0.609375 0.402344 0.0
vt 0.171875 0.589844 0.0
vt 0.226562 0.589844 0.0
vt 0.226562 0.992188 0.0
vt 0.171875 0.992188 0.0
vt 0.464844 0.011719 0.0
vt 0.507812 0.093750 0.0
vt 0.511719 0.402344 0.0
vt 0.464844 0.417969 0.0
vt 0.570312 0.144531 0.0
vt 0.609375 0.011719 0.0
vt 0.609375 0.406250 0.0
vt 0.562500 0.402344 0.0
vt 0.488281 0.007812 0.0
vt 0.542969 0.007812 0.0
vt 0.542969 0.402344 0.0
vt 0.488281 0.402344 0.0
vt 0.140625 0.589844 0.0
vt 0.199219 0.589844 0.0
vt 0.199219 0.976562 0.0
vt 0.140625 0.992188 0.0
vt 0.113281 0.558594 0.0
vt 0.113281 0.000000 0.0
vt 0.183594 0.007812 0.0
vt 0.183594 0.566406 0.0
vt 0.113281 0.640625 0.0
vt 0.113281 0.558594 0.0
vt 0.183594 0.566406 0.0
vt 0.183594 0.648438 0.0
vt 0.113281 0.992188 0.0
vt 0.113281 0.640625 0.0
vt 0.183594 0.648438 0.0
vt 0.183594 1.000000 0.0
vt 0.148438 0.660156 0.0
vt 0.148438 1.000000 0.0
vt 0.074219 0.992188 0.0
vt 0.074219 0.652344 0.0
vt 0.148438 0.578125 0.0
vt 0.148438 0.660156 0.0
vt 0.074219 0.652344 0.0
vt 0.074219 0.570312 0.0
vt 0.148438 0.007812 0.0
vt 0.148438 0.578125 0.0
vt 0.074219 0.570312 0.0
vt 0.074219 0.000000 0.0
vt 0.140625 0.605469 0.0
vt 0.140625 0.992188 0.0
vt 0.089844 0.976562 0.0
vt 0.089844 0.589844 0.0
vt 0.074219 0.007812 0.0
vt 0.074219 0.578125 0.0
vt 0.000000 0.570312 0.0
vt 0.000000 0.000000 0.0
vt 0.648438 0.109375 0.0
vt 0.648438 0.406250 0.0
vt 0.609375 0.406250 0.0
vt 0.609375 0.109375 0.0
vt 0.292969 0.007812 0.0
vt 0.292969 0.566406 0.0
vt 0.218750 0.558594 0.0
vt 0.218750 0.000000 0.0
vt 0.093750 0.648438 0.0
vt 0.093750 0.945312 0.0
vt 0.019531 0.929688 0.0
vt 0.019531 0.640625 0.0
vt 0.093750 0.566406 0.0
vt 0.093750 0.648438 0.0
vt 0.019531 0.640625 0.0
vt 0.019531 0.558594 0.0
vt 0.093750 0.007812 0.0
vt 0.093750 0.566406 0.0
vt 0.019531 0.558594 0.0
vt 0.019531 0.000000 0.0
vt 0.218750 0.660156 0.0
vt 0.218750 0.957031 0.0
vt 0.148438 0.949219 0.0
vt 0.148438 0.652344 0.0
vt 0.218750 0.578125 0.0
vt 0.218750 0.660156 0.0
vt 0.148438 0.652344 0.0
vt 0.148438 0.570312 0.0
vt 0.218750 0.007812 0.0
vt 0.218750 0.578125 0.0
vt 0.148438 0.570312 0.0
vt 0.148438 0.000000 0.0
vt 0.218750 0.007812 0.0
vt 0.218750 0.578125 0.0
vt 0.148438 0.570312 0.0
vt 0.148438 0.000000 0.0
vt 0.218750 0.578125 0.0
vt 0.218750 0.660156 0.0
vt 0.148438 0.652344 0.0
vt 0.148438 0.570312 0.0
vt 0.218750 0.660156 0.0
vt 0.218750 0.957031 0.0
vt 0.148438 0.949219 0.0
vt 0.148438 0.652344 0.0
vt 0.093750 0.007812 0.0
vt 0.093750 0.566406 0.0
vt 0.019531 0.558594 0.0
vt 0.019531 0.000000 0.0
vt 0.093750 0.566406 0.0
vt 0.093750 0.648438 0.0
vt 0.019531 0.640625 0.0
vt 0.019531 0.558594 0.0
vt 0.093750 0.648438 0.0
vt 0.093750 0.945312 0.0
vt 0.019531 0.929688 0.0
vt 0.019531 0.640625 0.0
vt 0.292969 0.007812 0.0
vt 0.292969 0.566406 0.0
vt 0.218750 0.558594 0.0
vt 0.218750 0.000000 0.0
vt 0.648438 0.109375 0.0
vt 0.648438 0.406250 0.0
vt 0.609375 0.406250 0.0
vt 0.609375 0.109375 0.0
vt 0.074219 0.007812 0.0
vt 0.074219 0.578125 0.0
vt 0.000000 0.570312 0.0
vt 0.000000 0.000000 0.0
vt 0.140625 0.605469 0.0
vt 0.140625 0.992188 0.0
vt 0.089844 0.976562 0.0
vt 0.089844 0.589844 0.0
vt 0.148438 0.007812 0.0
vt 0.148438 0.578125 0.0
vt 0.074219 0.570312 0.0
vt 0.074219 0.000000 0.0
vt 0.148438 0.578125 0.0
vt 0.148438 0.660156 0.0
vt 0.074219 0.652344 0.0
vt 0.074219 0.570312 0.0
vt 0.148438 0.660156 0.0
vt 0.148438 1.000000 0.0
vt 0.074219 0.992188 0.0
vt 0.074219 0.652344 0.0
vt 0.113281 0.992188 0.0
vt 0.113281 0.640625 0.0
vt 0.183594 0.648438 0.0
vt 0.183594 1.000000 0.0
vt 0.113281 0.640625 0.0
vt 0.113281 0.558594 0.0
vt 0.183594 0.566406 0.0
vt 0.183594 0.648438 0.0
vt 0.113281 0.558594 0.0
vt 0.113281 0.000000 0.0
vt 0.183594 0.007812 0.0
vt 0.183594 0.566406 0.0
vt 0.140625 0.589844 0.0
vt 0.199219 0.589844 0.0
vt 0.199219 0.976562 0.0
vt 0.140625 0.992188 0.0
vt 0.488281 0.007812 0.0
vt 0.542969 0.007812 0.0
vt 0.542969 0.402344 0.0
vt 0.488281 0.402344 0.0
vt 0.570312 0.144531 0.0
vt 0.609375 0.011719 0.0
vt 0.609375 0.406250 0.0
vt 0.562500 0.402344 0.0
vt 0.464844 0.011719 0.0
vt 0.507812 0.093750 0.0
vt 0.511719 0.402344 0.0
vt 0.464844 0.417969 0.0
vt 0.171875 0.589844 0.0
vt 0.226562 0.589844 0.0
vt 0.226562 0.992188 0.0
vt 0.171875 0.992188 0.0
vt 0.609375 0.007812 0.0
vt 0.656250 0.007812 0.0
vt 0.656250 0.402344 0.0
vt 0.609375 0.402344 0.0
vt 0.527344 0.132812 0.0
vt 0.570312 0.007812 0.0
vt 0.570312 0.402344 0.0
vt 0.523438 0.398438 0.0
vt 0.511719 0.011719 0.0
vt 0.554688 0.093750 0.0
vt 0.562500 0.402344 0.0
vt 0.511719 0.406250 0.0
vt 0.511719 0.011719 0.0
vt 0.554688 0.093750 0.0
vt 0.562500 0.402344 0.0
vt 0.511719 0.406250 0.0
vt 0.527344 0.132812 0.0
vt 0.570312 0.007812 0.0
vt 0.570312 0.402344 0.0
vt 0.523438 0.398438 0.0
vt 0.609375 0.007812 0.0
vt 0.656250 0.007812 0.0
vt 0.656250 0.402344 0.0
vt 0.609375 0.402344 0.0
vt 0.171875 0.589844 0.0
vt 0.226562 0.589844 0.0
vt 0.226562 0.992188 0.0
vt 0.171875 0.992188 0.0
vt 0.464844 0.011719 0.0
vt 0.507812 0.093750 0.0
vt 0.511719 0.402344 0.0
vt 0.464844 0.417969 0.0
vt 0.570312 0.144531 0.0
vt 0.609375 0.011719 0.0
vt 0.609375 0.406250 0.0
vt 0.562500 0.402344 0.0
vt 0.488281 0.007812 0.0
vt 0.542969 0.007812 0.0
vt 0.542969 0.402344 0.0
vt 0.488281 0.402344 0.0
vt 0.140625 0.589844 0.0
vt 0.199219 0.589844 0.0
vt 0.199219 0.976562 0.0
vt 0.140625 0.992188 0.0
vt 0.113281 0.558594 0.0
vt 0.113281 0.000000 0.0
vt 0.183594 0.007812 0.0
vt 0.183594 0.566406 0.0
vt 0.113281 0.640625 0.0
vt 0.113281 0.558594 0.0
vt 0.183594 0.566406 0.0
vt 0.183594 0.648438 0.0
vt 0.113281 0.992188 0.0
vt 0.113281 0.640625 0.0
vt 0.183594 0.648438 0.0
vt 0.183594 1.000000 0.0
vt 0.148438 0.660156 0.0
vt 0.148438 1.000000 0.0
vt 0.074219 0.992188 0.0
vt 0.074219 0.652344 0.0
vt 0.148438 0.578125 0.0
vt 0.148438 0.660156 0.0
vt 0.074219 0.652344 0.0
vt 0.074219 0.570312 0.0
vt 0.148438 0.007812 0.0
vt 0.148438 0.578125 0.0
vt 0.074219 0.570312 0.0
vt 0.074219 0.000000 0.0
vt 0.140625 0.605469 0.0
vt 0.140625 0.992188 0.0
vt 0.089844 0.976562 0.0
vt 0.089844 0.589844 0.0
vt 0.074219 0.007812 0.0
vt 0.074219 0.578125 0.0
vt 0.000000 0.570312 0.0
vt 0.000000 0.000000 0.0
vt 0.648438 0.109375 0.0
vt 0.648438 0.406250 0.0
vt 0.609375 0.406250 0.0
vt 0.609375 0.109375 0.0
vt 0.292969 0.007812 0.0
vt 0.292969 0.566406 0.0
vt 0.218750 0.558594 0.0
vt 0.218750 0.000000 0.0
vt 0.093750 0.648438 0.0
vt 0.093750 0.945312 0.0
vt 0.019531 0.929688 0.0
vt 0.019531 0.640625 0.0
vt 0.093750 0.566406 0.0
vt 0.093750 0.648438 0.0
vt 0.019531 0.640625 0.0
vt 0.019531 0.558594 0.0
vt 0.093750 0.007812 0.0
vt 0.093750 0.566406 0.0
vt 0.019531 0.558594 0.0
vt 0.019531 0.000000 0.0
vt 0.218750 0.660156 0.0
vt 0.218750 0.957031 0.0
vt 0.148438 0.949219 0.0
vt 0.148438 0.652344 0.0
vt 0.218750 0.578125 0.0
vt 0.218750 0.660156 0.0
vt 0.148438 0.652344 0.0
vt 0.148438 0.570312 0.0
vt 0.218750 0.007812 0.0
vt 0.218750 0.578125 0.0
vt 0.148438 0.570312 0.0
vt 0.148438 0.000000 0.0
vn 0.000000 0.000000 -1.000000
vn 0.000000 0.743315 0.668942
vn -0.743315 0.000001 0.668942
vn -0.000000 -0.743315 0.668942
vn 0.743315 0.000000 0.668942
vn 0.000000 0.000000 1.000000
vn 0.519975 -0.854182 -0.000000
vn -0.519975 -0.854182 -0.000000
vn -1.000000 0.000000 0.000000
vn -1.000000 0.000003 0.000000
vn -0.519974 0.854182 0.000000
vn -0.519975 0.854182 -0.000000
vn 0.519976 0.854181 -0.000000
vn 0.519974 0.854182 0.000000
vn 1.000000 0.000003 0.000000
vn 1.000000 0.000005 -0.000000
vn 0.993803 -0.000001 0.111160
vn -0.987558 0.000000 -0.157253
vn 0.000000 1.000000 0.000000
vn 0.000000 -1.000000 0.000000
vn 0.516085 -0.847916 0.121217
vn -0.512820 0.842539 -0.164753
vn 0.877177 0.480168 0.000009
vn -0.877175 -0.480171 -0.000008
vn -0.480171 0.877175 -0.000008
vn 0.480169 -0.877176 0.000008
vn 0.842539 0.512820 -0.164753
vn -0.847916 -0.516085 0.121217
vn 1.000000 0.000000 0.000000
vn 0.000000 0.987558 -0.157253
vn -0.000001 -0.993803 0.111160
vn 0.000004 -1.000000 -0.000000
vn 0.000003 -1.000000 0.000000
vn 0.854182 -0.519974 0.000000
vn 0.854181 -0.519976 -0.000000
vn 0.854182 0.519975 -0.000000
vn 0.854182 0.519974 0.000000
vn 0.000003 1.000000 0.000000
vn -0.854183 0.519973 0.000000
vn -0.854183 -0.519973 0.000000
vn 0.519975 0.854182 0.000000
vn 1.000000 -0.000003 0.000000
vn 0.519974 -0.854182 0.000000
vn -0.519976 -0.854181 -0.000000
vn -0.519974 -0.854182 0.000000
vn -1.000000 -0.000003 0.000000
vn -1.000000 -0.000005 -0.000000
vn -0.993803 0.000001 0.111160
vn 0.987558 0.000000 -0.157253
vn -0.516085 0.847916 0.121217
vn 0.512820 -0.842539 -0.164753
vn -0.877177 -0.480168 0.000009
vn 0.877175 0.480171 -0.000008
vn 0.480171 -0.877175 -0.000008
vn -0.480169 0.877176 0.000008
vn -0.842538 -0.512821 -0.164753
vn 0.847916 0.516086 0.121217
vn 0.000000 -0.987558 -0.157253
vn 0.000003 0.993803 0.111160
vn -0.000004 1.000000 -0.000000
vn -0.000003 1.000000 0.000000
vn -0.854182 0.519974 0.000000
vn -0.854181 0.519976 -0.000000
vn -0.854181 -0.519976 -0.000000
vn -0.854182 -0.519974 0.000000
vn -0.000005 -1.000000 0.000000
vn 0.854183 -0.519973 0.000000
vn 0.854183 0.519973 0.000000
usemtl None_pavilion.jpg
s off
f 1/1/1 4/2/1 3/3/1 2/4/1
f 1/5/2 5/6/2 8/7/2 4/8/2
f 5/9/3 1/10/3 2/11/3 6/12/3
f 3/13/4 7/14/4 6/15/4 2/16/4
f 4/17/5 8/18/5 7/19/5 3/20/5
f 5/21/6 6/22/6 7/23/6 8/24/6
f 9/25/7 23/26/7 21/27/7 10/28/7
f 23/29/7 24/30/7 22/31/7 21/32/7
f 24/33/7 15/34/7 16/35/7 22/36/7
f 10/37/8 21/38/8 25/39/8 11/40/8
f 21/41/8 22/42/8 26/43/8 25/44/8
f 22/45/8 16/46/8 17/47/8 26/48/8
f 11/49/9 25/50/9 27/51/9 12/52/9
f 26/53/10 17/54/10 18/55/10 28/56/10
f 12/57/11 27/58/11 29/59/11 13/60/11
f 28/61/12 18/62/12 19/63/12 30/64/12
f 13/65/13 29/66/13 31/67/13 14/68/13
f 29/69/14 30/70/14 32/71/14 31/72/14
f 30/73/14 19/74/14 20/75/14 32/76/14
f 15/77/15 24/78/15 32/79/15 20/80/15
f 24/81/15 23/82/15 31/83/15 32/84/15
f 23/85/16 9/86/16 14/87/16 31/88/16
f 26/89/17 28/90/17 34/91/17 33/92/17
f 27/93/18 25/94/18 36/95/18 35/96/18
f 28/97/19 27/98/19 35/99/19 34/100/19
f 25/101/20 26/102/20 33/103/20 36/104/20
f 28/105/21 30/106/21 37/107/21 38/108/21
f 29/109/22 27/110/22 39/111/22 40/112/22
f 30/113/23 29/114/23 40/115/23 37/116/23
f 27/117/24 28/118/24 38/119/24 39/120/24
f 54/121/25 53/122/25 43/123/25 42/124/25
f 51/125/26 52/126/26 41/127/26 44/128/26
f 52/129/27 54/130/27 42/131/27 41/132/27
f 53/133/28 51/134/28 44/135/28 43/136/28
f 56/137/9 55/138/9 48/139/9 45/140/9
f 53/141/29 54/142/29 46/143/29 47/144/29
f 54/145/30 56/146/30 45/147/30 46/148/30
f 55/149/31 53/150/31 47/151/31 48/152/31
f 58/153/32 72/154/32 67/155/32 50/156/32
f 57/157/33 58/158/33 50/159/33 49/160/33
f 66/161/33 57/162/33 49/163/33 61/164/33
f 51/165/34 62/166/34 61/167/34 49/168/34
f 52/169/34 51/170/34 49/171/34 50/172/34
f 68/173/35 52/174/35 50/175/35 67/176/35
f 53/177/36 63/178/36 62/179/36 51/180/36
f 69/181/37 54/182/37 52/183/37 68/184/37
f 55/185/38 64/186/38 63/187/38 53/188/38
f 70/189/19 56/190/19 54/191/19 69/192/19
f 59/193/39 65/194/39 64/195/39 55/196/39
f 60/197/39 59/198/39 55/199/39 56/200/39
f 71/201/39 60/202/39 56/203/39 70/204/39
f 57/205/40 66/206/40 65/207/40 59/208/40
f 58/209/40 57/210/40 59/211/40 60/212/40
f 72/213/40 58/214/40 60/215/40 71/216/40
f 73/217/11 87/218/11 85/219/11 74/220/11
f 87/221/12 88/222/12 86/223/12 85/224/12
f 88/225/12 79/226/12 80/227/12 86/228/12
f 74/229/14 85/230/14 89/231/14 75/232/14
f 85/233/41 86/234/41 90/235/41 89/236/41
f 86/237/41 80/238/41 81/239/41 90/240/41
f 75/241/29 89/242/29 91/243/29 76/244/29
f 90/245/42 81/246/42 82/247/42 92/248/42
f 76/249/43 91/250/43 93/251/43 77/252/43
f 92/253/7 82/254/7 83/255/7 94/256/7
f 77/257/44 93/258/44 95/259/44 78/260/44
f 93/261/45 94/262/45 96/263/45 95/264/45
f 94/265/45 83/266/45 84/267/45 96/268/45
f 79/269/46 88/270/46 96/271/46 84/272/46
f 88/273/46 87/274/46 95/275/46 96/276/46
f 87/277/47 73/278/47 78/279/47 95/280/47
f 90/281/48 92/282/48 98/283/48 97/284/48
f 91/285/49 89/286/49 100/287/49 99/288/49
f 92/289/20 91/290/20 99/291/20 98/292/20
f 89/293/19 90/294/19 97/295/19 100/296/19
f 92/297/50 94/298/50 101/299/50 102/300/50
f 93/301/51 91/302/51 103/303/51 104/304/51
f 94/305/52 93/306/52 104/307/52 101/308/52
f 91/309/53 92/310/53 102/311/53 103/312/53
f 118/313/54 117/314/54 107/315/54 106/316/54
f 115/317/55 116/318/55 105/319/55 108/320/55
f 116/321/56 118/322/56 106/323/56 105/324/56
f 117/325/57 115/326/57 108/327/57 107/328/57
f 120/329/29 119/330/29 112/331/29 109/332/29
f 117/333/9 118/334/9 110/335/9 111/336/9
f 118/337/58 120/338/58 109/339/58 110/340/58
f 119/341/59 117/342/59 111/343/59 112/344/59
f 122/345/60 136/346/60 131/347/60 114/348/60
f 121/349/61 122/350/61 114/351/61 113/352/61
f 130/353/61 121/354/61 113/355/61 125/356/61
f 115/357/62 126/358/62 125/359/62 113/360/62
f 116/361/62 115/362/62 113/363/62 114/364/62
f 132/365/63 116/366/63 114/367/63 131/368/63
f 117/369/64 127/370/64 126/371/64 115/372/64
f 133/373/65 118/374/65 116/375/65 132/376/65
f 119/377/66 128/378/66 127/379/66 117/380/66
f 134/381/20 120/382/20 118/383/20 133/384/20
f 123/385/67 129/386/67 128/387/67 119/388/67
f 124/389/67 123/390/67 119/391/67 120/392/67
f 135/393/67 124/394/67 120/395/67 134/396/67
f 121/397/68 130/398/68 129/399/68 123/400/68
f 122/401/68 121/402/68 123/403/68 124/404/68
f 136/405/68 122/406/68 124/407/68 135/408/68
