# Blender3D v244 OBJ File: cave_rock.blend
# www.blender3d.org
mtllib cave_rock.mtl
v 1.010952 1.019821 -0.028502
v 1.007821 -1.013447 -0.026074
v -1.021214 -1.013446 -0.026074
v -1.021310 1.015753 -0.026117
v 1.007822 1.015588 2.002960
v 1.007821 -1.013447 2.002960
v -1.022518 -1.014056 2.003599
v -1.021213 1.015588 2.002960
v 1.006590 -0.002861 -0.021596
v -0.006277 1.019171 -0.027241
v 1.008435 1.023342 0.988221
v -0.007164 -1.075681 -0.062330
v 1.010281 -1.014005 0.988437
v -1.100420 0.001071 -0.026074
v -1.021214 -1.013446 0.988443
v -1.022146 1.017157 0.988044
v 1.008093 0.001107 2.003029
v -0.006696 1.015588 2.002960
v -0.006696 -1.013447 2.002960
v -1.046342 0.001066 2.009136
v -0.006685 0.000815 -0.026327
v -0.006728 0.001060 2.002978
v 1.171053 -0.002364 0.988707
v -0.010150 -1.043245 1.076435
v -1.073535 0.005483 0.984202
v -0.006796 1.289081 0.984063
v 1.026679 0.489577 -0.053894
v 1.007821 -0.506188 -0.026074
v 0.510753 1.041693 -0.036653
v -0.518988 1.032190 -0.030340
v 1.023600 1.044208 0.470453
v 1.008214 1.022116 1.495801
v 0.501005 -1.039430 -0.050498
v -0.516157 -1.029577 -0.032175
v 1.008028 -1.013497 0.481183
v 1.008621 -1.013557 1.495852
v -1.021213 -0.506188 -0.026074
v -1.021213 0.508330 -0.026074
v -1.021564 -1.015254 0.480507
v -1.035861 -1.019551 1.501938
v -1.032933 1.039296 0.475136
v -1.021929 1.015769 1.495768
v 1.010198 0.508649 2.003558
v 1.008633 -0.506300 2.003113
v 0.500563 1.015588 2.002960
v -0.513955 1.015588 2.002960
v 0.500562 -1.013447 2.002960
v -0.513955 -1.013446 2.002960
v -1.053845 -0.513727 2.016101
v -1.021322 0.508351 2.002973
v 0.789622 0.001046 1.498066
v 0.800673 0.508564 0.988941
v 1.328260 0.000015 0.481210
v 1.355000 -0.515471 0.989437
v -0.009731 -0.969381 1.589305
v 0.497527 -0.984248 1.081599
v -0.011911 -1.278286 0.392811
v -0.514459 -1.017869 0.987283
v -1.266145 0.000940 1.534832
v -1.105556 -0.508952 0.991344
v -0.878993 0.001332 0.480258
v -0.896074 0.513064 0.989573
v -0.006284 1.176606 0.457478
v 0.508054 1.246811 0.983877
v -0.006696 1.204293 1.495702
v -0.522175 1.057435 0.979624
v 0.790497 0.510165 1.499136
v 1.016922 0.509274 0.480752
v 1.025280 -0.508673 1.498470
v 1.296809 -0.509873 0.481174
v 0.497530 -0.960961 1.589314
v 0.500991 -1.092126 0.437143
v -0.514016 -1.013477 1.495728
v -0.522155 -1.101239 0.455188
v -1.221078 -0.533007 1.550667
v -1.021738 -0.506176 0.481142
v -1.067997 0.516520 1.500637
v -0.867685 0.508944 0.481028
v 0.546023 1.154429 0.441193
v 0.500563 1.210769 1.495702
v -0.550623 1.175881 0.443284
v -0.513954 1.015588 1.495702
vt 0.996652 0.250535 0.0
vt 0.996652 0.000535 0.0
vt 0.746870 -0.012270 0.0
vt 0.746661 0.250144 0.0
vt 0.996652 0.500535 0.0
vt 0.996652 0.250535 0.0
vt 0.746661 0.250144 0.0
vt 0.746661 0.250144 0.0
vt 0.746870 -0.012270 0.0
vt 0.496421 -0.030136 0.0
vt 0.996653 0.750536 0.0
vt 0.996652 0.500535 0.0
vt 0.746652 0.500535 0.0
vt 0.998195 0.002621 0.0
vt 0.996653 -0.249464 0.0
vt 0.746683 -0.249424 0.0
vt 0.751674 0.013401 0.0
vt 0.751674 0.013401 0.0
vt 0.496652 -0.249465 0.0
vt 0.496859 0.002301 0.0
vt 0.496662 0.249760 0.0
vt 0.496421 -0.030136 0.0
vt 0.245567 -0.007414 0.0
vt 0.246651 0.250528 0.0
vt 0.245567 -0.007414 0.0
vt -0.003348 0.000536 0.0
vt -0.003348 0.250536 0.0
vt 0.246652 0.500536 0.0
vt -0.003348 0.250536 0.0
vt -0.003348 0.500536 0.0
vt 0.496859 0.002301 0.0
vt 0.246652 -0.249464 0.0
vt 0.244172 0.008717 0.0
vt 0.246652 0.750536 0.0
vt -0.003348 0.500536 0.0
vt -0.003348 0.750536 0.0
vt 0.244172 0.008717 0.0
vt 0.246652 -0.249464 0.0
vt -0.003348 -0.249464 0.0
vt -0.003395 0.000617 0.0
vt 0.246652 0.000535 0.0
vt -0.003348 0.000535 0.0
vt -0.003402 -0.249454 0.0
vt 0.246652 -0.249465 0.0
vt 0.496652 0.000535 0.0
vt 0.246652 0.000535 0.0
vt 0.246652 -0.249465 0.0
vt 0.246652 0.750535 0.0
vt -0.003402 0.750546 0.0
vt -0.015733 0.500533 0.0
vt 0.746652 0.000535 0.0
vt 0.496652 0.000535 0.0
vt 0.496652 -0.249465 0.0
vt 0.996652 0.000535 0.0
vt 0.746652 0.000535 0.0
vt 0.746652 -0.249465 0.0
vt 0.997823 -0.249307 0.0
vt 0.997823 0.750693 0.0
vt 0.746652 0.500535 0.0
vt 0.996786 0.500553 0.0
vt 0.246651 0.500535 0.0
vt -0.015733 0.500533 0.0
vt -0.019430 0.246820 0.0
vt 0.246509 0.250486 0.0
vt -0.019430 0.246820 0.0
vt -0.003991 0.000235 0.0
vt 0.246652 0.000536 0.0
vt 0.496652 0.250535 0.0
vt 0.246652 0.000536 0.0
vt 0.496652 0.000535 0.0
vt 0.996786 0.500553 0.0
vt 0.746652 0.250535 0.0
vt 0.997052 0.250480 0.0
vt 0.746652 0.250535 0.0
vt 0.496652 0.000535 0.0
vt 0.746652 0.000535 0.0
vt 0.997052 0.250480 0.0
vt 0.746652 0.250535 0.0
vt 0.746652 0.000535 0.0
vt 0.996652 0.000535 0.0
vt 0.000561 0.244270 0.0
vt 0.000535 0.494221 0.0
vt -0.249307 0.494516 0.0
vt -0.248560 0.245914 0.0
vt 0.001166 0.994112 0.0
vt 0.000561 1.244270 0.0
vt -0.248560 1.245914 0.0
vt -0.249349 0.994467 0.0
vt 0.751440 0.245914 0.0
vt 0.750693 0.494516 0.0
vt 0.500553 0.494255 0.0
vt 0.500523 0.245387 0.0
vt 0.750651 0.994467 0.0
vt 0.751440 1.245914 0.0
vt 0.500523 1.245387 0.0
vt 0.498843 0.994351 0.0
vt 0.014641 0.738933 0.0
vt 0.001166 0.994112 0.0
vt -0.249349 0.994467 0.0
vt -0.248999 0.744009 0.0
vt 0.002621 0.493025 0.0
vt 0.014641 0.738933 0.0
vt -0.248999 0.744009 0.0
vt -0.249464 0.494221 0.0
vt 0.751001 0.744009 0.0
vt 0.750651 0.994467 0.0
vt 0.498843 0.994351 0.0
vt 0.500015 0.744234 0.0
vt 0.750536 0.494221 0.0
vt 0.751001 0.744009 0.0
vt 0.500015 0.744234 0.0
vt 0.500535 0.494221 0.0
vt 0.500523 0.245387 0.0
vt 0.500553 0.494255 0.0
vt 0.250480 0.494297 0.0
vt 0.249310 0.245586 0.0
vt 0.498843 0.994351 0.0
vt 0.500523 1.245387 0.0
vt 0.249310 1.245586 0.0
vt 0.245960 0.994711 0.0
vt 0.249310 0.245586 0.0
vt 0.250480 0.494297 0.0
vt 0.000535 0.494221 0.0
vt 0.000481 0.244296 0.0
vt 0.245960 0.994711 0.0
vt 0.249310 1.245586 0.0
vt 0.000481 1.244296 0.0
vt 0.000260 0.994219 0.0
vt 0.500015 0.744234 0.0
vt 0.498843 0.994351 0.0
vt 0.245960 0.994711 0.0
vt 0.248719 0.744216 0.0
vt 0.500535 0.494221 0.0
vt 0.500015 0.744234 0.0
vt 0.248719 0.744216 0.0
vt 0.250535 0.494221 0.0
vt 0.248719 0.744216 0.0
vt 0.245960 0.994711 0.0
vt 0.000260 0.994219 0.0
vt 0.000511 0.744221 0.0
vt 0.250535 0.494221 0.0
vt 0.248719 0.744216 0.0
vt 0.000511 0.744221 0.0
vt 0.000535 0.494221 0.0
vt 0.997046 0.244296 0.0
vt 0.996652 0.494221 0.0
vt 0.746652 0.494221 0.0
vt 0.746651 0.244220 0.0
vt 0.997864 0.994219 0.0
vt 0.997046 1.244296 0.0
vt 0.746651 1.244220 0.0
vt 0.746650 0.993995 0.0
vt 0.746651 0.244220 0.0
vt 0.746652 0.494221 0.0
vt 0.496652 0.494221 0.0
vt 0.496650 0.244215 0.0
vt 0.746650 0.993995 0.0
vt 0.746651 1.244220 0.0
vt 0.496650 1.244215 0.0
vt 0.496444 0.991450 0.0
vt 0.996754 0.744221 0.0
vt 0.997864 0.994219 0.0
vt 0.746650 0.993995 0.0
vt 0.746863 0.722516 0.0
vt 0.996652 0.494221 0.0
vt 0.996754 0.744221 0.0
vt 0.746863 0.722516 0.0
vt 0.746870 0.482185 0.0
vt 0.746863 0.722516 0.0
vt 0.746650 0.993995 0.0
vt 0.496444 0.991450 0.0
vt 0.494082 0.700667 0.0
vt 0.746870 0.482185 0.0
vt 0.746863 0.722516 0.0
vt 0.494082 0.700667 0.0
vt 0.496421 0.476353 0.0
vt 0.496650 0.244215 0.0
vt 0.496652 0.494221 0.0
vt 0.246652 0.494221 0.0
vt 0.246622 0.244235 0.0
vt 0.496444 0.991450 0.0
vt 0.496650 1.244215 0.0
vt 0.246622 1.244235 0.0
vt 0.246403 0.993650 0.0
vt 0.246622 0.244235 0.0
vt 0.246652 0.494221 0.0
vt -0.003991 0.494536 0.0
vt -0.010567 0.247295 0.0
vt 0.246403 0.993650 0.0
vt 0.246622 1.244235 0.0
vt -0.010567 1.247295 0.0
vt -0.003348 0.994221 0.0
vt 0.494082 0.700667 0.0
vt 0.496444 0.991450 0.0
vt 0.246403 0.993650 0.0
vt 0.242611 0.731409 0.0
vt 0.496421 0.476353 0.0
vt 0.494082 0.700667 0.0
vt 0.242611 0.731409 0.0
vt 0.245567 0.491215 0.0
vt 0.242611 0.731409 0.0
vt 0.246403 0.993650 0.0
vt -0.003348 0.994221 0.0
vt -0.003521 0.743888 0.0
vt 0.245567 0.491215 0.0
vt 0.242611 0.731409 0.0
vt -0.003521 0.743888 0.0
vt -0.003348 0.494221 0.0
vt 0.997527 0.247295 0.0
vt 1.000235 0.494536 0.0
vt 1.246820 0.500698 0.0
vt 1.237318 0.271311 0.0
vt 0.000536 0.994221 0.0
vt -0.002473 1.247295 0.0
vt 0.237318 1.271311 0.0
vt 0.249173 0.995651 0.0
vt 0.237318 0.271311 0.0
vt 0.246820 0.500698 0.0
vt 0.500533 0.497265 0.0
vt 0.500471 0.263507 0.0
vt 0.249173 0.995651 0.0
vt 0.237318 1.271311 0.0
vt 0.500471 1.263507 0.0
vt 0.502710 0.992131 0.0
vt 0.999644 0.743888 0.0
vt 1.000536 0.994221 0.0
vt 1.249173 0.995651 0.0
vt 1.250541 0.744201 0.0
vt 0.000536 0.494221 0.0
vt -0.000356 0.743888 0.0
vt 0.250541 0.744201 0.0
vt 0.250536 0.494221 0.0
vt 0.250541 0.744201 0.0
vt 0.249173 0.995651 0.0
vt 0.502710 0.992131 0.0
vt 0.500664 0.743765 0.0
vt 0.250536 0.494221 0.0
vt 0.250541 0.744201 0.0
vt 0.500664 0.743765 0.0
vt 0.500536 0.494221 0.0
vt 0.500471 0.263507 0.0
vt 0.500533 0.497265 0.0
vt 0.750546 0.494228 0.0
vt 0.754572 0.246654 0.0
vt 0.502710 0.992131 0.0
vt 0.500471 1.263507 0.0
vt 0.754572 1.246654 0.0
vt 0.752869 0.994779 0.0
vt 0.754572 0.246654 0.0
vt 0.750546 0.494228 0.0
vt 1.000535 0.494221 0.0
vt 1.000624 0.244254 0.0
vt 0.752869 0.994779 0.0
vt 0.754572 1.246654 0.0
vt 1.000624 1.244254 0.0
vt 1.001309 0.994025 0.0
vt 0.500664 0.743765 0.0
vt 0.502710 0.992131 0.0
vt 0.752869 0.994779 0.0
vt 0.750838 0.744144 0.0
vt 0.500536 0.494221 0.0
vt 0.500664 0.743765 0.0
vt 0.750838 0.744144 0.0
vt 0.750536 0.494221 0.0
vt 0.750838 0.744144 0.0
vt 0.752869 0.994779 0.0
vt 1.001309 0.994025 0.0
vt 1.012220 0.741241 0.0
vt 0.750536 0.494221 0.0
vt 0.750838 0.744144 0.0
vt 1.012220 0.741241 0.0
vt 1.000617 0.494201 0.0
vt 0.004428 0.738933 0.0
vt -0.001805 0.493025 0.0
vt -0.248326 0.489008 0.0
vt -0.230943 0.724512 0.0
vt 0.996954 0.994112 0.0
vt 1.004428 0.738933 0.0
vt 0.769057 0.724512 0.0
vt 0.750344 0.991971 0.0
vt 0.769057 0.724512 0.0
vt 0.751674 0.489008 0.0
vt 0.496859 0.493647 0.0
vt 0.496855 0.732538 0.0
vt 0.750344 0.991971 0.0
vt 0.769057 0.724512 0.0
vt 0.496855 0.732538 0.0
vt 0.496603 0.992063 0.0
vt 0.996846 0.244270 0.0
vt 0.996954 -0.005888 0.0
vt 0.750344 -0.008029 0.0
vt 0.746652 0.244221 0.0
vt 0.996652 0.494221 0.0
vt 0.996846 0.244270 0.0
vt 0.746652 0.244221 0.0
vt 0.746652 0.494221 0.0
vt 0.746652 0.244221 0.0
vt 0.750344 -0.008029 0.0
vt 0.496603 -0.007937 0.0
vt 0.496652 0.244221 0.0
vt 0.746652 0.494221 0.0
vt 0.746652 0.244221 0.0
vt 0.496652 0.244221 0.0
vt 0.496652 0.494221 0.0
vt 0.496855 0.732538 0.0
vt 0.496859 0.493647 0.0
vt 0.244172 0.492119 0.0
vt 0.228580 0.725542 0.0
vt 0.496603 0.992063 0.0
vt 0.496855 0.732538 0.0
vt 0.228580 0.725542 0.0
vt 0.242601 0.989875 0.0
vt 0.228580 0.725542 0.0
vt 0.244172 0.492119 0.0
vt -0.003395 0.494201 0.0
vt -0.009124 0.741241 0.0
vt 0.242601 0.989875 0.0
vt 0.228580 0.725542 0.0
vt -0.009124 0.741241 0.0
vt -0.003808 0.994025 0.0
vt 0.496652 0.244221 0.0
vt 0.496603 -0.007937 0.0
vt 0.242601 -0.010125 0.0
vt 0.246652 0.244221 0.0
vt 0.496652 0.494221 0.0
vt 0.496652 0.244221 0.0
vt 0.246652 0.244221 0.0
vt 0.246652 0.494221 0.0
vt 0.246652 0.244221 0.0
vt 0.242601 -0.010125 0.0
vt -0.003808 -0.005975 0.0
vt -0.003701 0.244254 0.0
vt 0.246652 0.494221 0.0
vt 0.246652 0.244221 0.0
vt -0.003701 0.244254 0.0
vt -0.003348 0.494221 0.0
vn 0.613178 -0.095614 -0.784112
vn 0.475600 -0.591815 -0.650777
vn 0.127934 -0.676870 -0.724876
vn -0.008209 0.000549 -0.999939
vn 0.599109 0.069857 -0.797601
vn -0.012055 -0.654897 -0.755577
vn 0.702261 0.077731 -0.707633
vn 0.601184 0.511979 -0.613514
vn 0.035859 0.667318 -0.743889
vn -0.001038 0.600879 -0.799310
vn -0.131962 -0.662801 -0.737053
vn -0.606220 -0.528886 -0.593921
vn -0.787225 0.027589 -0.616016
vn -0.825739 0.062746 -0.560503
vn -0.050447 0.656575 -0.752556
vn -0.844935 -0.027833 -0.534104
vn -0.683828 0.439375 -0.582476
vn -0.062532 0.722800 0.688192
vn -0.553331 0.588733 0.589221
vn -0.696341 0.093539 0.711570
vn 0.005097 0.000031 0.999969
vn -0.066958 0.650655 0.756371
vn -0.629688 0.075106 0.773186
vn 0.062502 0.650136 0.757225
vn 0.712668 0.414563 0.565874
vn 0.853236 -0.089480 0.513718
vn 0.854549 0.094943 0.510605
vn -0.639760 -0.089114 0.763359
vn -0.460280 -0.634907 0.620472
vn 0.024415 -0.727042 0.686117
vn 0.020844 -0.750206 0.660848
vn 0.792016 0.088107 0.604053
vn -0.018006 -0.755364 0.655019
vn 0.553575 -0.609912 0.567034
vn 0.884762 0.465926 0.008942
vn 0.999969 -0.002838 0.000275
vn 0.913450 0.399853 0.075472
vn 0.971191 0.064608 0.229316
vn 0.971252 0.229865 0.061617
vn 0.896054 0.321512 0.306101
vn 0.825007 0.565020 0.010010
vn 0.973205 0.212165 0.088473
vn 0.962737 0.252846 -0.095828
vn 0.969756 0.081912 0.229896
vn 0.964965 -0.091159 0.245949
vn 0.676290 -0.730277 0.096316
vn 0.564043 -0.816767 0.121189
vn 0.975097 -0.149571 -0.163579
vn 0.607440 -0.788171 -0.098758
vn -0.000610 -0.999969 -0.003601
vn 0.078677 -0.988983 0.125278
vn 0.032533 -0.999451 -0.003052
vn 0.011567 -0.979919 0.199011
vn 0.173833 -0.984741 0.002594
vn -0.001038 -0.999878 -0.014618
vn 0.019532 -0.999725 0.011841
vn -0.089267 -0.987701 0.128300
vn -0.671255 -0.740806 0.023743
vn -0.670980 -0.740318 -0.040773
vn -0.178259 -0.983886 -0.012970
vn -0.718284 -0.695273 -0.024781
vn -0.992737 -0.109592 0.049165
vn -0.981445 -0.046724 -0.185827
vn -0.991974 0.126194 0.005524
vn -0.948119 0.159032 -0.275185
vn -0.997223 0.061647 -0.041108
vn -0.991424 0.123020 0.043733
vn -0.984832 0.162664 -0.060305
vn -0.984008 0.025178 -0.176244
vn -0.754326 0.655690 -0.031587
vn -0.812891 0.582354 -0.004212
vn -0.998932 -0.000732 0.045808
vn -0.812708 0.581866 0.029969
vn 0.151555 0.977172 -0.148839
vn 0.173101 0.984710 -0.017792
vn -0.072848 0.987335 -0.140904
vn -0.117649 0.992859 0.018159
vn 0.156590 0.973296 0.167791
vn -0.136692 0.973113 0.185247
vn -0.126682 0.986908 -0.099673
vn -0.209387 0.974731 0.077639
vn -0.181433 0.978637 0.096622
usemtl Material_cave_wall.jpg
s 1
f 28/1/1 2/2/2 33/3/3 21/4/4
s 1
f 9/5/5 28/6/1 21/7/4
s 1
f 21/8/4 33/9/3 12/10/6
s 1
f 27/11/7 9/12/5 21/13/4
s 1
f 1/14/8 27/15/7 21/16/4 29/17/9
s 1
f 29/18/9 21/19/4 10/20/10
s 1
f 21/21/4 12/22/6 34/23/11
s 1
f 21/24/4 34/25/11 3/26/12 37/27/13
s 1
f 21/28/4 37/29/13 14/30/14
s 1
f 10/31/10 21/32/4 30/33/15
s 1
f 21/34/4 14/35/14 38/36/16
s 1
f 30/37/15 21/38/4 38/39/16 4/40/17
s 1
f 46/41/18 8/42/19 50/43/20 22/44/21
s 1
f 18/45/22 46/46/18 22/47/21
s 1
f 22/48/21 50/49/20 20/50/23
s 1
f 45/51/24 18/52/22 22/53/21
s 1
f 5/54/25 45/55/24 22/56/21 43/57/26
s 1
f 43/58/26 22/59/21 17/60/27
s 1
f 22/61/21 20/62/23 49/63/28
s 1
f 22/64/21 49/65/28 7/66/29 48/67/30
s 1
f 22/68/21 48/69/30 19/70/31
s 1
f 17/71/27 22/72/21 44/73/32
s 1
f 22/74/21 19/75/31 47/76/33
s 1
f 44/77/32 22/78/21 47/79/33 6/80/34
s 1
f 32/81/35 5/82/25 43/83/26 67/84/36
s 1
f 11/85/37 32/86/35 67/87/36 52/88/38
s 1
f 67/89/36 43/90/26 17/91/27 51/92/39
s 1
f 52/93/38 67/94/36 51/95/39 23/96/40
s 1
f 31/97/41 11/98/37 52/99/38 68/100/42
s 1
f 1/101/8 31/102/41 68/103/42 27/104/7
s 1
f 68/105/42 52/106/38 23/107/40 53/108/43
s 1
f 27/109/7 68/110/42 53/111/43 9/112/5
s 1
f 51/113/39 17/114/27 44/115/32 69/116/44
s 1
f 23/117/40 51/118/39 69/119/44 54/120/45
s 1
f 69/121/44 44/122/32 6/123/34 36/124/46
s 1
f 54/125/45 69/126/44 36/127/46 13/128/47
s 1
f 53/129/43 23/130/40 54/131/45 70/132/48
s 1
f 9/133/5 53/134/43 70/135/48 28/136/1
s 1
f 70/137/48 54/138/45 13/139/47 35/140/49
s 1
f 28/141/1 70/142/48 35/143/49 2/144/2
s 1
f 36/145/46 6/146/34 47/147/33 71/148/50
s 1
f 13/149/47 36/150/46 71/151/50 56/152/51
s 1
f 71/153/50 47/154/33 19/155/31 55/156/52
s 1
f 56/157/51 71/158/50 55/159/52 24/160/53
s 1
f 35/161/49 13/162/47 56/163/51 72/164/54
s 1
f 2/165/2 35/166/49 72/167/54 33/168/3
s 1
f 72/169/54 56/170/51 24/171/53 57/172/55
s 1
f 33/173/3 72/174/54 57/175/55 12/176/6
s 1
f 55/177/52 19/178/31 48/179/30 73/180/56
s 1
f 24/181/53 55/182/52 73/183/56 58/184/57
s 1
f 73/185/56 48/186/30 7/187/29 40/188/58
s 1
f 58/189/57 73/190/56 40/191/58 15/192/59
s 1
f 57/193/55 24/194/53 58/195/57 74/196/60
s 1
f 12/197/6 57/198/55 74/199/60 34/200/11
s 1
f 74/201/60 58/202/57 15/203/59 39/204/61
s 1
f 34/205/11 74/206/60 39/207/61 3/208/12
s 1
f 40/209/58 7/210/29 49/211/28 75/212/62
s 1
f 15/213/59 40/214/58 75/215/62 60/216/63
s 1
f 75/217/62 49/218/28 20/219/23 59/220/64
s 1
f 60/221/63 75/222/62 59/223/64 25/224/65
s 1
f 39/225/61 15/226/59 60/227/63 76/228/66
s 1
f 3/229/12 39/230/61 76/231/66 37/232/13
s 1
f 76/233/66 60/234/63 25/235/65 61/236/67
s 1
f 37/237/13 76/238/66 61/239/67 14/240/14
s 1
f 59/241/64 20/242/23 50/243/20 77/244/68
s 1
f 25/245/65 59/246/64 77/247/68 62/248/69
s 1
f 77/249/68 50/250/20 8/251/19 42/252/70
s 1
f 62/253/69 77/254/68 42/255/70 16/256/71
s 1
f 61/257/67 25/258/65 62/259/69 78/260/72
s 1
f 14/261/14 61/262/67 78/263/72 38/264/16
s 1
f 78/265/72 62/266/69 16/267/71 41/268/73
s 1
f 38/269/16 78/270/72 41/271/73 4/272/17
s 1
f 31/273/41 1/274/8 29/275/9 79/276/74
s 1
f 11/277/37 31/278/41 79/279/74 64/280/75
s 1
f 79/281/74 29/282/9 10/283/10 63/284/76
s 1
f 64/285/75 79/286/74 63/287/76 26/288/77
s 1
f 32/289/35 11/290/37 64/291/75 80/292/78
s 1
f 5/293/25 32/294/35 80/295/78 45/296/24
s 1
f 80/297/78 64/298/75 26/299/77 65/300/79
s 1
f 45/301/24 80/302/78 65/303/79 18/304/22
s 1
f 63/305/76 10/306/10 30/307/15 81/308/80
s 1
f 26/309/77 63/310/76 81/311/80 66/312/81
s 1
f 81/313/80 30/314/15 4/315/17 41/316/73
s 1
f 66/317/81 81/318/80 41/319/73 16/320/71
s 1
f 65/321/79 26/322/77 66/323/81 82/324/82
s 1
f 18/325/22 65/326/79 82/327/82 46/328/18
s 1
f 82/329/82 66/330/81 16/331/71 42/332/70
s 1
f 46/333/18 82/334/82 42/335/70 8/336/19
