# Blender3D v244 OBJ File: ground_steep_2.blend
# www.blender3d.org
mtllib ground_steep_2.mtl
v 1.000000 -1.000001 0.000000
v -1.000000 -1.000000 0.000000
v -0.999999 1.000000 0.000000
v 1.000000 1.000000 0.000000
v -0.000000 -1.000000 0.000000
v 1.000000 -0.000000 0.000000
v -1.000000 0.000000 0.000000
v 0.000000 1.000000 0.000000
v 0.500000 -1.000000 0.000000
v -0.500000 -1.000000 0.000000
v 1.000000 -0.500000 0.000000
v 1.000000 0.500000 0.000000
v -1.000000 -0.500000 0.000000
v -1.000000 0.500000 0.000000
v -0.499999 1.000000 0.000000
v 0.500000 1.000000 0.000000
v 0.000000 0.747830 0.000000
v 0.844705 -0.747830 0.092962
v -0.747829 0.747830 -0.060106
v -0.000000 -0.747830 0.000000
v 0.844706 0.747830 0.092962
v 0.000000 -0.000000 0.308192
v 0.844705 -0.000000 0.092962
v -0.747830 -0.747830 -0.060106
v -0.747830 0.000000 -0.060106
v -0.011127 0.383915 0.138313
v 0.341322 0.027478 0.147704
v 0.006330 -0.348007 0.017744
v -0.400801 -0.022921 0.089119
v 0.807806 0.395535 0.098443
v 0.361974 0.715474 0.029246
v 0.836696 -0.380935 0.185439
v 0.353619 -0.762412 0.034584
v -0.403008 0.784320 0.149715
v -0.729065 0.402575 -0.002466
v -0.753320 -0.384885 -0.060036
v -0.378642 -0.733963 0.011968
v 0.370564 0.357535 0.145686
v 0.385574 -0.353233 0.197938
v -0.371541 0.526890 0.210481
v -0.296217 -0.369718 -0.028471
vt 0.265151 0.999376 0.0
vt 0.020201 1.000000 0.0
vt 0.015151 0.750624 0.0
vt 0.141192 0.873915 0.0
vt 1.000000 0.997506 0.0
vt 0.755050 0.998129 0.0
vt 0.873915 0.872050 0.0
vt 0.994950 0.748129 0.0
vt 0.126085 0.127951 0.0
vt 0.005050 0.251871 0.0
vt 0.000000 0.002495 0.0
vt 0.244950 0.001871 0.0
vt 0.984849 0.249376 0.0
vt 0.858808 0.126085 0.0
vt 0.734849 0.000624 0.0
vt 0.979799 0.000000 0.0
vt 0.313264 0.855997 0.0
vt 0.510100 0.998753 0.0
vt 0.265151 0.999376 0.0
vt 0.141192 0.873915 0.0
vt 0.313264 0.855997 0.0
vt 0.265151 0.999376 0.0
vt 0.313264 0.855997 0.0
vt 0.507553 0.872982 0.0
vt 0.510100 0.998753 0.0
vt 0.152379 0.686366 0.0
vt 0.015151 0.750624 0.0
vt 0.010100 0.501247 0.0
vt 0.133638 0.500933 0.0
vt 0.152379 0.686366 0.0
vt 0.010100 0.501247 0.0
vt 0.152379 0.686366 0.0
vt 0.141192 0.873915 0.0
vt 0.015151 0.750624 0.0
vt 0.313264 0.855997 0.0
vt 0.141192 0.873915 0.0
vt 0.152379 0.686366 0.0
vt 0.327196 0.694222 0.0
vt 0.507553 0.872982 0.0
vt 0.313264 0.855997 0.0
vt 0.327196 0.694222 0.0
vt 0.489102 0.675963 0.0
vt 0.327196 0.694222 0.0
vt 0.152379 0.686366 0.0
vt 0.133638 0.500933 0.0
vt 0.311664 0.495855 0.0
vt 0.489102 0.675963 0.0
vt 0.327196 0.694222 0.0
vt 0.311664 0.495855 0.0
vt 0.500000 0.500000 0.0
vt 0.693309 0.873555 0.0
vt 0.755050 0.998129 0.0
vt 0.510100 0.998753 0.0
vt 0.507553 0.872982 0.0
vt 0.693309 0.873555 0.0
vt 0.510100 0.998753 0.0
vt 0.693309 0.873555 0.0
vt 0.873915 0.872050 0.0
vt 0.755050 0.998129 0.0
vt 0.693309 0.873555 0.0
vt 0.507553 0.872982 0.0
vt 0.489102 0.675963 0.0
vt 0.675676 0.700028 0.0
vt 0.873915 0.872050 0.0
vt 0.693309 0.873555 0.0
vt 0.675676 0.700028 0.0
vt 0.876170 0.681257 0.0
vt 0.675676 0.700028 0.0
vt 0.489102 0.675963 0.0
vt 0.500000 0.500000 0.0
vt 0.671108 0.499145 0.0
vt 0.876170 0.681257 0.0
vt 0.675676 0.700028 0.0
vt 0.671108 0.499145 0.0
vt 0.866361 0.499067 0.0
vt 0.876170 0.681257 0.0
vt 0.989899 0.498753 0.0
vt 0.994950 0.748129 0.0
vt 0.873915 0.872050 0.0
vt 0.876170 0.681257 0.0
vt 0.994950 0.748129 0.0
vt 0.876170 0.681257 0.0
vt 0.866361 0.499067 0.0
vt 0.989899 0.498753 0.0
vt 0.110938 0.304827 0.0
vt 0.010100 0.501247 0.0
vt 0.005050 0.251871 0.0
vt 0.126085 0.127951 0.0
vt 0.110938 0.304827 0.0
vt 0.005050 0.251871 0.0
vt 0.110938 0.304827 0.0
vt 0.133638 0.500933 0.0
vt 0.010100 0.501247 0.0
vt 0.311664 0.495855 0.0
vt 0.133638 0.500933 0.0
vt 0.110938 0.304827 0.0
vt 0.295023 0.321081 0.0
vt 0.500000 0.500000 0.0
vt 0.311664 0.495855 0.0
vt 0.295023 0.321081 0.0
vt 0.506941 0.301612 0.0
vt 0.295023 0.321081 0.0
vt 0.110938 0.304827 0.0
vt 0.126085 0.127951 0.0
vt 0.295813 0.134315 0.0
vt 0.506941 0.301612 0.0
vt 0.295023 0.321081 0.0
vt 0.295813 0.134315 0.0
vt 0.492446 0.127018 0.0
vt 0.295813 0.134315 0.0
vt 0.244950 0.001871 0.0
vt 0.489899 0.001247 0.0
vt 0.492446 0.127018 0.0
vt 0.295813 0.134315 0.0
vt 0.489899 0.001247 0.0
vt 0.295813 0.134315 0.0
vt 0.126085 0.127951 0.0
vt 0.244950 0.001871 0.0
vt 0.671108 0.499145 0.0
vt 0.500000 0.500000 0.0
vt 0.506941 0.301612 0.0
vt 0.677005 0.308945 0.0
vt 0.866361 0.499067 0.0
vt 0.671108 0.499145 0.0
vt 0.677005 0.308945 0.0
vt 0.855430 0.312256 0.0
vt 0.677005 0.308945 0.0
vt 0.506941 0.301612 0.0
vt 0.492446 0.127018 0.0
vt 0.680944 0.123811 0.0
vt 0.855430 0.312256 0.0
vt 0.677005 0.308945 0.0
vt 0.680944 0.123811 0.0
vt 0.858808 0.126085 0.0
vt 0.855430 0.312256 0.0
vt 0.984849 0.249376 0.0
vt 0.989899 0.498753 0.0
vt 0.866361 0.499067 0.0
vt 0.855430 0.312256 0.0
vt 0.989899 0.498753 0.0
vt 0.855430 0.312256 0.0
vt 0.858808 0.126085 0.0
vt 0.984849 0.249376 0.0
vt 0.680944 0.123811 0.0
vt 0.489899 0.001247 0.0
vt 0.734849 0.000624 0.0
vt 0.858808 0.126085 0.0
vt 0.680944 0.123811 0.0
vt 0.734849 0.000624 0.0
vt 0.680944 0.123811 0.0
vt 0.492446 0.127018 0.0
vt 0.489899 0.001247 0.0
vn 0.360668 0.082705 0.928983
vn 0.217109 0.217109 0.951689
vn 0.009339 0.177374 0.984069
vn 0.188116 0.118198 0.974975
vn 0.217109 -0.217109 0.951689
vn 0.538987 -0.168004 0.825343
vn 0.302683 -0.236000 0.923399
vn 0.026826 -0.204230 0.978545
vn -0.214820 0.124393 0.968688
vn -0.240638 0.265786 0.933500
vn 0.117496 -0.117496 0.986084
vn 0.073031 0.044221 0.996338
vn -0.058077 0.048402 0.997131
vn 0.028016 0.058260 0.997894
vn 0.178106 0.059297 0.982208
vn 0.117496 0.117496 0.986084
vn 0.249458 0.049654 0.967101
vn 0.587207 0.090487 0.804346
vn 0.303812 0.107212 0.946654
vn -0.052370 0.162114 0.985351
vn 0.143834 0.173772 0.974212
vn 0.142949 0.154332 0.977599
vn 0.074618 0.179388 0.980926
vn 0.085299 -0.009125 0.996307
vn 0.080477 0.219672 0.972228
vn -0.071169 -0.139714 0.987610
vn 0.355571 -0.055910 0.932951
vn -0.040223 -0.133488 0.990204
vn -0.126774 -0.168310 0.977538
vn -0.161870 -0.258766 0.952269
vn -0.137547 -0.064211 0.988403
vn -0.031648 -0.041200 0.998627
vn -0.052248 0.303049 0.951506
vn -0.150365 0.141179 0.978484
vn -0.272835 -0.217292 0.937193
vn -0.164617 -0.009156 0.986297
vn -0.074068 -0.132054 0.988464
vn 0.159215 -0.071413 0.984649
vn -0.189398 -0.226264 0.955443
vn -0.077151 0.016785 0.996857
vn -0.018586 -0.043214 0.998871
usemtl Material_stone.jpg
s 1
f 12/1/1 4/2/2 16/3/3 21/4/4
s 1
f 1/5/5 11/6/6 18/7/7 9/8/8
s 1
f 19/9/9 15/10/10 3/11/11 14/12/12
s 1
f 10/13/13 24/14/14 13/15/15 2/16/16
s 1
f 30/17/17 6/18/18 12/19/1
s 1
f 21/20/4 30/21/17 12/22/1
s 1
f 30/23/17 23/24/19 6/25/18
s 1
f 31/26/20 16/27/3 8/28/21
s 1
f 17/29/22 31/30/20 8/31/21
s 1
f 31/32/20 21/33/4 16/34/3
s 1
f 30/35/17 21/36/4 31/37/20 38/38/23
s 1
f 23/39/19 30/40/17 38/41/23 27/42/24
s 1
f 38/43/23 31/44/20 17/45/22 26/46/25
s 1
f 27/47/24 38/48/23 26/49/25 22/50/26
s 1
f 32/51/27 11/52/6 6/53/18
s 1
f 23/54/19 32/55/27 6/56/18
s 1
f 32/57/27 18/58/7 11/59/6
s 1
f 32/60/27 23/61/19 27/62/24 39/63/28
s 1
f 18/64/7 32/65/27 39/66/28 33/67/29
s 1
f 39/68/28 27/69/24 22/70/26 28/71/30
s 1
f 33/72/29 39/73/28 28/74/30 20/75/31
s 1
f 33/76/29 5/77/32 9/78/8
s 1
f 18/79/7 33/80/29 9/81/8
s 1
f 33/82/29 20/83/31 5/84/32
s 1
f 34/85/33 8/86/21 15/87/10
s 1
f 19/88/9 34/89/33 15/90/10
s 1
f 34/91/33 17/92/22 8/93/21
s 1
f 26/94/25 17/95/22 34/96/33 40/97/34
s 1
f 22/98/26 26/99/25 40/100/34 29/101/35
s 1
f 40/102/34 34/103/33 19/104/9 35/105/36
s 1
f 29/106/35 40/107/34 35/108/36 25/109/37
s 1
f 35/110/36 14/111/12 7/112/38
s 1
f 25/113/37 35/114/36 7/115/38
s 1
f 35/116/36 19/117/9 14/118/12
s 1
f 28/119/30 22/120/26 29/121/35 41/122/39
s 1
f 20/123/31 28/124/30 41/125/39 37/126/40
s 1
f 41/127/39 29/128/35 25/129/37 36/130/41
s 1
f 37/131/40 41/132/39 36/133/41 24/134/14
s 1
f 37/135/40 10/136/13 5/137/32
s 1
f 20/138/31 37/139/40 5/140/32
s 1
f 37/141/40 24/142/14 10/143/13
s 1
f 36/144/41 7/145/38 13/146/15
s 1
f 24/147/14 36/148/41 13/149/15
s 1
f 36/150/41 25/151/37 7/152/38
