# Blender3D v244 OBJ File: ground_steep_1.blend
# www.blender3d.org
mtllib ground_steep_1.mtl
v 1.000000 1.000000 0.000000
v 0.999999 -1.000000 0.000000
v -1.000000 -1.000000 0.000000
v -1.000000 1.000000 0.000000
v 1.000000 -0.000001 0.000000
v 0.000000 1.000000 0.000000
v -0.000001 -1.000000 0.000000
v -1.000000 0.000000 0.000000
v 1.000000 0.499999 0.000000
v 1.000000 -0.500001 0.000000
v 0.500000 1.000000 0.000000
v -0.500000 1.000000 0.000000
v 0.499999 -1.000000 0.000000
v -0.500000 -1.000000 0.000000
v -1.000000 -0.500000 0.000000
v -1.000000 0.500000 0.000000
v -0.747830 0.000000 0.000000
v 0.877332 0.747829 0.084940
v -0.747830 -0.747830 0.000000
v 0.877331 -0.000000 0.084940
v -0.747830 0.747830 0.000000
v -0.000000 -0.000000 0.000000
v 0.000000 0.747830 0.000000
v 0.877331 -0.747830 0.084940
v -0.000000 -0.747830 0.000000
v -0.383916 -0.011127 0.099375
v -0.027479 0.341322 0.033716
v 0.348007 0.006330 -0.021194
v 0.022921 -0.400802 0.213637
v -0.395535 0.710930 0.005481
v -0.715474 0.361974 0.029246
v 0.380935 0.739820 0.092477
v 0.891914 0.353619 0.119524
v -0.784320 -0.403009 0.149715
v -0.402575 -0.729065 0.148496
v 0.384885 -0.753321 0.000070
v 0.863465 -0.378643 0.096907
v -0.357535 0.370564 0.070585
v 0.353232 0.385573 0.159001
v -0.526890 -0.371542 0.331351
v 0.369718 -0.385110 -0.106287
vt 0.265151 0.999376 0.0
vt 0.020201 1.000000 0.0
vt 0.015151 0.750624 0.0
vt 0.141192 0.873915 0.0
vt 1.000000 0.997506 0.0
vt 0.755050 0.998129 0.0
vt 0.873915 0.872050 0.0
vt 0.994950 0.748129 0.0
vt 0.126085 0.127951 0.0
vt 0.005050 0.251871 0.0
vt 0.000000 0.002495 0.0
vt 0.244950 0.001871 0.0
vt 0.984849 0.249376 0.0
vt 0.858808 0.126085 0.0
vt 0.734849 0.000624 0.0
vt 0.979799 0.000000 0.0
vt 0.313264 0.855997 0.0
vt 0.510100 0.998753 0.0
vt 0.265151 0.999376 0.0
vt 0.141192 0.873915 0.0
vt 0.313264 0.855997 0.0
vt 0.265151 0.999376 0.0
vt 0.313264 0.855997 0.0
vt 0.507553 0.872982 0.0
vt 0.510100 0.998753 0.0
vt 0.152379 0.686366 0.0
vt 0.015151 0.750624 0.0
vt 0.010100 0.501247 0.0
vt 0.133638 0.500933 0.0
vt 0.152379 0.686366 0.0
vt 0.010100 0.501247 0.0
vt 0.152379 0.686366 0.0
vt 0.141192 0.873915 0.0
vt 0.015151 0.750624 0.0
vt 0.313264 0.855997 0.0
vt 0.141192 0.873915 0.0
vt 0.152379 0.686366 0.0
vt 0.327196 0.694222 0.0
vt 0.507553 0.872982 0.0
vt 0.313264 0.855997 0.0
vt 0.327196 0.694222 0.0
vt 0.489102 0.675963 0.0
vt 0.327196 0.694222 0.0
vt 0.152379 0.686366 0.0
vt 0.133638 0.500933 0.0
vt 0.311664 0.495855 0.0
vt 0.489102 0.675963 0.0
vt 0.327196 0.694222 0.0
vt 0.311664 0.495855 0.0
vt 0.500000 0.500000 0.0
vt 0.693309 0.873555 0.0
vt 0.755050 0.998129 0.0
vt 0.510100 0.998753 0.0
vt 0.507553 0.872982 0.0
vt 0.693309 0.873555 0.0
vt 0.510100 0.998753 0.0
vt 0.693309 0.873555 0.0
vt 0.873915 0.872050 0.0
vt 0.755050 0.998129 0.0
vt 0.693309 0.873555 0.0
vt 0.507553 0.872982 0.0
vt 0.489102 0.675963 0.0
vt 0.675676 0.700028 0.0
vt 0.873915 0.872050 0.0
vt 0.693309 0.873555 0.0
vt 0.675676 0.700028 0.0
vt 0.876170 0.681257 0.0
vt 0.675676 0.700028 0.0
vt 0.489102 0.675963 0.0
vt 0.500000 0.500000 0.0
vt 0.671108 0.499145 0.0
vt 0.876170 0.681257 0.0
vt 0.675676 0.700028 0.0
vt 0.671108 0.499145 0.0
vt 0.866361 0.499067 0.0
vt 0.876170 0.681257 0.0
vt 0.989899 0.498753 0.0
vt 0.994950 0.748129 0.0
vt 0.873915 0.872050 0.0
vt 0.876170 0.681257 0.0
vt 0.994950 0.748129 0.0
vt 0.876170 0.681257 0.0
vt 0.866361 0.499067 0.0
vt 0.989899 0.498753 0.0
vt 0.110938 0.304827 0.0
vt 0.010100 0.501247 0.0
vt 0.005050 0.251871 0.0
vt 0.126085 0.127951 0.0
vt 0.110938 0.304827 0.0
vt 0.005050 0.251871 0.0
vt 0.110938 0.304827 0.0
vt 0.133638 0.500933 0.0
vt 0.010100 0.501247 0.0
vt 0.311664 0.495855 0.0
vt 0.133638 0.500933 0.0
vt 0.110938 0.304827 0.0
vt 0.295023 0.321081 0.0
vt 0.500000 0.500000 0.0
vt 0.311664 0.495855 0.0
vt 0.295023 0.321081 0.0
vt 0.506941 0.301612 0.0
vt 0.295023 0.321081 0.0
vt 0.110938 0.304827 0.0
vt 0.126085 0.127951 0.0
vt 0.295813 0.134315 0.0
vt 0.506941 0.301612 0.0
vt 0.295023 0.321081 0.0
vt 0.295813 0.134315 0.0
vt 0.492446 0.127018 0.0
vt 0.295813 0.134315 0.0
vt 0.244950 0.001871 0.0
vt 0.489899 0.001247 0.0
vt 0.492446 0.127018 0.0
vt 0.295813 0.134315 0.0
vt 0.489899 0.001247 0.0
vt 0.295813 0.134315 0.0
vt 0.126085 0.127951 0.0
vt 0.244950 0.001871 0.0
vt 0.671108 0.499145 0.0
vt 0.500000 0.500000 0.0
vt 0.506941 0.301612 0.0
vt 0.677005 0.308945 0.0
vt 0.866361 0.499067 0.0
vt 0.671108 0.499145 0.0
vt 0.677005 0.308945 0.0
vt 0.855430 0.312256 0.0
vt 0.677005 0.308945 0.0
vt 0.506941 0.301612 0.0
vt 0.492446 0.127018 0.0
vt 0.680944 0.123811 0.0
vt 0.855430 0.312256 0.0
vt 0.677005 0.308945 0.0
vt 0.680944 0.123811 0.0
vt 0.858808 0.126085 0.0
vt 0.855430 0.312256 0.0
vt 0.984849 0.249376 0.0
vt 0.989899 0.498753 0.0
vt 0.866361 0.499067 0.0
vt 0.855430 0.312256 0.0
vt 0.989899 0.498753 0.0
vt 0.855430 0.312256 0.0
vt 0.858808 0.126085 0.0
vt 0.984849 0.249376 0.0
vt 0.680944 0.123811 0.0
vt 0.489899 0.001247 0.0
vt 0.734849 0.000624 0.0
vt 0.858808 0.126085 0.0
vt 0.680944 0.123811 0.0
vt 0.734849 0.000624 0.0
vt 0.680944 0.123811 0.0
vt 0.492446 0.127018 0.0
vt 0.489899 0.001247 0.0
vn -0.004669 0.010498 0.999908
vn 0.000000 0.000000 1.000000
vn -0.056368 0.031709 0.997894
vn -0.039277 0.058138 0.997528
vn 0.215766 0.215766 0.952269
vn 0.108860 0.277810 0.954436
vn 0.332682 0.171056 0.927366
vn 0.516037 0.137242 0.845485
vn -0.228706 -0.234962 0.944700
vn -0.333445 -0.206885 0.919767
vn -0.180090 -0.284982 0.941435
vn 0.408185 -0.111545 0.906034
vn 0.147099 -0.031648 0.988586
vn -0.006775 -0.115665 0.993255
vn 0.215766 -0.215766 0.952269
vn 0.000641 0.079196 0.996857
vn -0.110569 0.104740 0.988311
vn -0.114933 0.077181 0.990356
vn -0.091250 0.011292 0.995758
vn -0.173772 0.143834 0.974212
vn -0.163854 0.234993 0.958068
vn 0.000946 0.047304 0.998871
vn -0.066836 -0.025391 0.997436
vn -0.055818 0.284036 0.957152
vn 0.183630 0.069338 0.980529
vn -0.109836 0.162420 0.980560
vn -0.112217 -0.025544 0.993347
vn 0.332499 -0.045808 0.941954
vn 0.066622 -0.046724 0.996673
vn 0.169439 -0.126621 0.977355
vn 0.632252 -0.047212 0.773278
vn -0.379498 0.078707 0.921812
vn -0.106143 0.004059 0.994324
vn 0.306986 0.012268 0.951628
vn 0.030183 -0.362316 0.931547
vn 0.250069 -0.156926 0.955412
vn 0.177252 -0.159856 0.971068
vn 0.089999 0.013031 0.995849
vn 0.116855 0.005463 0.993103
vn 0.043092 -0.029969 0.998596
usemtl Material_stone.jpg
s 1
f 12/1/1 4/2/2 16/3/3 21/4/4
s 1
f 1/5/5 11/6/6 18/7/7 9/8/8
s 1
f 19/9/9 15/10/10 3/11/2 14/12/11
s 1
f 10/13/12 24/14/13 13/15/14 2/16/15
s 1
f 30/17/16 6/18/17 12/19/1
s 1
f 21/20/4 30/21/16 12/22/1
s 1
f 30/23/16 23/24/18 6/25/17
s 1
f 31/26/19 16/27/3 8/28/20
s 1
f 17/29/21 31/30/19 8/31/20
s 1
f 31/32/19 21/33/4 16/34/3
s 1
f 30/35/16 21/36/4 31/37/19 38/38/22
s 1
f 23/39/18 30/40/16 38/41/22 27/42/23
s 1
f 38/43/22 31/44/19 17/45/21 26/46/24
s 1
f 27/47/23 38/48/22 26/49/24 22/50/25
s 1
f 32/51/26 11/52/6 6/53/17
s 1
f 23/54/18 32/55/26 6/56/17
s 1
f 32/57/26 18/58/7 11/59/6
s 1
f 32/60/26 23/61/18 27/62/23 39/63/27
s 1
f 18/64/7 32/65/26 39/66/27 33/67/28
s 1
f 39/68/27 27/69/23 22/70/25 28/71/29
s 1
f 33/72/28 39/73/27 28/74/29 20/75/30
s 1
f 33/76/28 5/77/31 9/78/8
s 1
f 18/79/7 33/80/28 9/81/8
s 1
f 33/82/28 20/83/30 5/84/31
s 1
f 34/85/32 8/86/20 15/87/10
s 1
f 19/88/9 34/89/32 15/90/10
s 1
f 34/91/32 17/92/21 8/93/20
s 1
f 26/94/24 17/95/21 34/96/32 40/97/33
s 1
f 22/98/25 26/99/24 40/100/33 29/101/34
s 1
f 40/102/33 34/103/32 19/104/9 35/105/35
s 1
f 29/106/34 40/107/33 35/108/35 25/109/36
s 1
f 35/110/35 14/111/11 7/112/37
s 1
f 25/113/36 35/114/35 7/115/37
s 1
f 35/116/35 19/117/9 14/118/11
s 1
f 28/119/29 22/120/25 29/121/34 41/122/38
s 1
f 20/123/30 28/124/29 41/125/38 37/126/39
s 1
f 41/127/38 29/128/34 25/129/36 36/130/40
s 1
f 37/131/39 41/132/38 36/133/40 24/134/13
s 1
f 37/135/39 10/136/12 5/137/31
s 1
f 20/138/30 37/139/39 5/140/31
s 1
f 37/141/39 24/142/13 10/143/12
s 1
f 36/144/40 7/145/37 13/146/14
s 1
f 24/147/13 36/148/40 13/149/14
s 1
f 36/150/40 25/151/36 7/152/37
