# Blender3D v244 OBJ File: ground_thick.blend
# www.blender3d.org
mtllib ground_thick.mtl
v 1.000000 1.000000 -0.108039
v 1.000000 -1.000000 -0.108039
v -1.000000 -1.000000 -0.108039
v -1.000000 1.000000 -0.108039
v 1.000000 0.999999 0.031409
v 0.999999 -1.000001 0.031409
v -1.000000 -1.000000 0.031409
v -1.000000 1.000000 0.031409
v 1.000000 -0.000001 0.031409
v 0.000000 1.000000 0.031409
v -0.000001 -1.000000 0.031409
v -1.000000 0.000000 0.031409
v -0.000000 -0.000000 0.031409
v 1.000000 0.499999 0.031409
v 1.000000 -0.500001 0.031409
v 0.500000 1.000000 0.031409
v -0.500000 1.000000 0.031409
v 0.499999 -1.000000 0.031409
v -0.500000 -1.000000 0.031409
v -1.000000 -0.500000 0.031409
v -1.000000 0.500000 0.031409
v -0.500000 -0.000000 0.031409
v 0.075701 0.500000 0.082290
v 0.647572 -0.000000 0.172801
v -0.000000 -0.500000 0.031409
v -0.409796 0.584451 0.172719
v 0.500000 0.500000 0.031409
v -0.418440 -0.500000 -0.103338
v 0.500000 -0.500000 0.031409
vt 0.027006 0.000000 0.0
vt 0.007766 0.971887 0.0
vt 0.980760 0.993940 0.0
vt 1.000000 0.022053 0.0
vt 0.007766 0.971887 0.0
vt 0.027006 0.000000 0.0
vt 0.009620 0.492004 0.0
vt 0.486497 0.988974 0.0
vt 0.980760 0.993940 0.0
vt 0.007766 0.971887 0.0
vt 0.982614 0.514056 0.0
vt 1.000000 0.022053 0.0
vt 0.980760 0.993940 0.0
vt 0.505737 0.017086 0.0
vt 0.027006 0.000000 0.0
vt 1.000000 0.022053 0.0
vt 0.014430 0.249032 0.0
vt 0.027006 0.000000 0.0
vt 0.019240 0.006060 0.0
vt 0.009620 0.492004 0.0
vt 0.027006 0.000000 0.0
vt 0.014430 0.249032 0.0
vt 0.009620 0.492004 0.0
vt 0.004810 0.734976 0.0
vt 0.007766 0.971887 0.0
vt 0.004810 0.734976 0.0
vt 0.000000 0.977947 0.0
vt 0.007766 0.971887 0.0
vt 0.000000 0.977947 0.0
vt 0.243248 0.983461 0.0
vt 0.007766 0.971887 0.0
vt 0.243248 0.983461 0.0
vt 0.486497 0.988974 0.0
vt 0.007766 0.971887 0.0
vt 0.486497 0.988974 0.0
vt 0.729745 0.994487 0.0
vt 0.980760 0.993940 0.0
vt 0.729745 0.994487 0.0
vt 0.972994 1.000000 0.0
vt 0.980760 0.993940 0.0
vt 0.972994 1.000000 0.0
vt 0.977804 0.757028 0.0
vt 0.980760 0.993940 0.0
vt 0.977804 0.757028 0.0
vt 0.982614 0.514056 0.0
vt 0.980760 0.993940 0.0
vt 0.982614 0.514056 0.0
vt 0.987424 0.271085 0.0
vt 1.000000 0.022053 0.0
vt 0.987424 0.271085 0.0
vt 0.992234 0.028113 0.0
vt 1.000000 0.022053 0.0
vt 0.992234 0.028113 0.0
vt 0.748985 0.022600 0.0
vt 1.000000 0.022053 0.0
vt 0.748985 0.022600 0.0
vt 0.505737 0.017086 0.0
vt 1.000000 0.022053 0.0
vt 0.262488 0.011573 0.0
vt 0.027006 0.000000 0.0
vt 0.505737 0.017086 0.0
vt 0.019240 0.006060 0.0
vt 0.027006 0.000000 0.0
vt 0.262488 0.011573 0.0
vt 0.748985 0.022600 0.0
vt 0.992234 0.028113 0.0
vt 0.987424 0.271085 0.0
vt 0.696903 0.226816 0.0
vt 0.505737 0.017086 0.0
vt 0.748985 0.022600 0.0
vt 0.696903 0.226816 0.0
vt 0.462586 0.260404 0.0
vt 0.696903 0.226816 0.0
vt 0.987424 0.271085 0.0
vt 0.982614 0.514056 0.0
vt 0.739365 0.508543 0.0
vt 0.462586 0.260404 0.0
vt 0.696903 0.226816 0.0
vt 0.739365 0.508543 0.0
vt 0.496117 0.503030 0.0
vt 0.262488 0.011573 0.0
vt 0.505737 0.017086 0.0
vt 0.462586 0.260404 0.0
vt 0.257678 0.254545 0.0
vt 0.019240 0.006060 0.0
vt 0.262488 0.011573 0.0
vt 0.257678 0.254545 0.0
vt 0.014430 0.249032 0.0
vt 0.257678 0.254545 0.0
vt 0.462586 0.260404 0.0
vt 0.496117 0.503030 0.0
vt 0.176872 0.499169 0.0
vt 0.014430 0.249032 0.0
vt 0.257678 0.254545 0.0
vt 0.176872 0.499169 0.0
vt 0.009620 0.492004 0.0
vt 0.739365 0.508543 0.0
vt 0.982614 0.514056 0.0
vt 0.977804 0.757028 0.0
vt 0.700169 0.746486 0.0
vt 0.496117 0.503030 0.0
vt 0.739365 0.508543 0.0
vt 0.700169 0.746486 0.0
vt 0.491307 0.746002 0.0
vt 0.700169 0.746486 0.0
vt 0.977804 0.757028 0.0
vt 0.972994 1.000000 0.0
vt 0.729745 0.994487 0.0
vt 0.491307 0.746002 0.0
vt 0.700169 0.746486 0.0
vt 0.729745 0.994487 0.0
vt 0.486497 0.988974 0.0
vt 0.176872 0.499169 0.0
vt 0.496117 0.503030 0.0
vt 0.491307 0.746002 0.0
vt 0.248058 0.740489 0.0
vt 0.009620 0.492004 0.0
vt 0.176872 0.499169 0.0
vt 0.248058 0.740489 0.0
vt 0.004810 0.734976 0.0
vt 0.248058 0.740489 0.0
vt 0.491307 0.746002 0.0
vt 0.486497 0.988974 0.0
vt 0.243248 0.983461 0.0
vt 0.004810 0.734976 0.0
vt 0.248058 0.740489 0.0
vt 0.243248 0.983461 0.0
vt 0.000000 0.977947 0.0
vn 0.000000 0.000000 -1.000000
vn 1.000000 0.000000 0.000001
vn 0.000000 -1.000000 -0.000001
vn -1.000000 0.000000 -0.000002
vn 0.000000 1.000000 0.000003
vn 1.000000 0.000000 -0.000003
vn 1.000000 -0.000001 -0.000004
vn 1.000000 0.000000 0.000004
vn 1.000000 -0.000001 0.000005
vn 0.000000 -1.000000 -0.000004
vn 0.000000 -1.000000 0.000001
vn -0.012787 0.724937 0.688681
vn -0.610401 0.610401 0.504776
vn -0.704581 0.006378 0.709555
vn -0.003540 0.023743 0.999695
vn 0.056276 0.719810 0.691824
vn 0.047121 0.025880 0.998535
vn -0.657460 -0.091647 0.747856
vn -0.015687 -0.142399 0.989654
vn -0.045503 -0.078768 0.995849
vn 0.019257 0.699973 0.713889
vn 0.040803 0.088534 0.995209
vn 0.577349 0.577349 0.577349
vn 0.689535 0.056246 0.722037
vn 0.044099 -0.012024 0.998932
vn 0.707358 0.000000 0.706839
vn -0.608386 0.000000 0.793603
vn -0.016022 0.000000 0.999847
vn -0.102481 -0.000031 0.994720
vn -0.544603 -0.544603 0.637776
vn -0.009095 -0.599353 0.800409
vn -0.058138 -0.634632 0.770592
vn 0.020051 -0.100650 0.994690
vn 0.689535 -0.056246 0.722037
vn 0.000000 -0.707083 0.707083
vn 0.577319 -0.577349 0.577349
usemtl Material_grass2.jpg
s 1
f 1/1/1 2/2/1 3/3/1 4/4/1
f 2/5/2 1/6/2 9/7/2
f 11/8/3 3/9/3 2/10/3
f 12/11/4 4/12/4 3/13/4
f 10/14/5 1/15/5 4/16/5
f 14/17/6 1/18/6 5/19/6
f 9/20/7 1/21/7 14/22/7
f 9/23/8 15/24/8 2/25/8
f 15/26/9 6/27/9 2/28/9
f 6/29/10 18/30/10 2/31/10
f 18/32/10 11/33/10 2/34/10
f 11/35/11 19/36/11 3/37/11
f 19/38/11 7/39/11 3/40/11
f 7/41/4 20/42/4 3/43/4
f 20/44/4 12/45/4 3/46/4
f 12/47/4 21/48/4 4/49/4
f 21/50/4 8/51/4 4/52/4
f 8/53/5 17/54/5 4/55/5
f 17/56/5 10/57/5 4/58/5
f 16/59/5 1/60/5 10/61/5
f 5/62/5 1/63/5 16/64/5
s 1
f 17/65/12 8/66/13 21/67/14 26/68/15
s 1
f 10/69/16 17/70/12 26/71/15 23/72/17
s 1
f 26/73/15 21/74/14 12/75/18 22/76/19
s 1
f 23/77/17 26/78/15 22/79/19 13/80/20
s 1
f 16/81/21 10/82/16 23/83/17 27/84/22
s 1
f 5/85/23 16/86/21 27/87/22 14/88/24
s 1
f 27/89/22 23/90/17 13/91/20 24/92/25
s 1
f 14/93/24 27/94/22 24/95/25 9/96/26
s 1
f 22/97/19 12/98/18 20/99/27 28/100/28
s 1
f 13/101/20 22/102/19 28/103/28 25/104/29
s 1
f 28/105/28 20/106/27 7/107/30 19/108/31
s 1
f 25/109/29 28/110/28 19/111/31 11/112/32
s 1
f 24/113/25 13/114/20 25/115/29 29/116/33
s 1
f 9/117/26 24/118/25 29/119/33 15/120/34
s 1
f 29/121/33 25/122/29 11/123/32 18/124/35
s 1
f 15/125/34 29/126/33 18/127/35 6/128/36
