# Blender3D v244 OBJ File: ground_farview.blend
# www.blender3d.org
mtllib ground_farview.mtl
v 1.000008 1.000005 -1.943017
v 1.000000 -1.000000 -1.943015
v -1.000151 -1.000314 -1.943175
v -1.003047 1.001749 -1.944251
v 1.001605 1.000980 0.057983
v 1.000023 -1.000068 0.057009
v -1.002087 -1.002910 0.060039
v -1.000001 1.000000 0.056986
v 1.005340 0.000081 -1.945718
v 0.000000 1.000000 -1.943015
v 1.019336 1.017231 -0.942868
v 0.000002 -1.000509 -1.943208
v 1.029255 -1.032302 -0.943099
v -1.013421 0.000037 -1.951958
v -1.007167 -1.011906 -0.943010
v -1.025062 1.024633 -0.943657
v 1.002696 0.000027 0.057877
v 0.000005 1.000538 0.057116
v -0.000015 -1.003878 0.061267
v -1.010767 0.000263 0.063383
v 0.000000 0.000000 -1.943015
v -0.000206 0.000620 0.104717
v 1.023347 0.000203 -0.942945
v -0.000167 -1.083289 -0.943901
v -1.049791 0.000139 -0.943425
v -0.000104 1.021357 -0.942929
v 1.002217 0.500317 -1.943681
v 1.002186 -0.500071 -1.943794
v 0.500000 1.000000 -1.943015
v -0.500000 1.000000 -1.943015
v 1.005115 1.004310 -1.443682
v 1.017139 1.014650 -0.441631
v 0.500027 -1.000309 -1.943096
v -0.501501 -1.004709 -1.945212
v 1.008413 -1.009101 -1.443250
v 1.009418 -1.013936 -0.442213
v -1.006521 -0.500246 -1.946045
v -1.014636 0.502375 -1.953498
v -1.007263 -1.006149 -1.444852
v -1.000952 -1.002264 -0.441711
v -1.035427 1.023667 -1.448897
v -1.000161 1.000519 -0.443005
v 1.005821 0.501298 0.061168
v 1.000000 -0.500001 0.056985
v 0.500000 1.000000 0.056985
v -0.500033 1.001354 0.057282
v 0.502612 -1.009918 0.060488
v -0.507083 -1.020484 0.073322
v -1.016356 -0.504759 0.078175
v -1.013186 0.501393 0.069556
v 0.000000 -0.500000 -1.943015
v 0.500007 0.000000 -1.943019
v 0.000000 0.500000 -1.943015
v -0.500193 -0.000000 -1.943151
v -0.502268 0.000945 0.101653
v -0.000039 0.500187 0.061940
v 0.499968 0.000020 0.074126
v -0.000317 -0.506583 0.119135
v 1.044420 0.000216 -0.440384
v 1.024671 0.504882 -0.942966
v 1.011393 0.000055 -1.448121
v 1.046639 -0.506379 -0.943377
v 0.000617 -1.081889 -0.429331
v 0.521961 -1.071599 -0.943158
v 0.000218 -1.058929 -1.450874
v -0.515945 -1.103301 -0.945478
v -1.041532 0.000046 -0.433858
v -1.024499 -0.506149 -0.943020
v -1.035965 0.000018 -1.452060
v -1.139618 0.524260 -0.944923
v -0.000009 1.010088 -1.443005
v 0.501846 1.005107 -0.943003
v -0.000212 1.033659 -0.438871
v -0.513908 1.064634 -0.943502
v 0.500000 -0.500000 -1.943015
v 0.500000 0.500000 -1.943015
v -0.500009 -0.500000 -1.943021
v -0.500211 0.500037 -1.943210
v -0.503674 0.500633 0.071997
v 0.500068 0.500012 0.057039
v -0.514379 -0.508385 0.115080
v 0.499956 -0.499972 0.082499
v 1.029028 0.506319 -0.439213
v 1.009601 0.503044 -1.445545
v 1.033781 -0.500599 -0.442535
v 1.020589 -0.503844 -1.446930
v 0.515889 -1.075034 -0.429882
v 0.506891 -1.029103 -1.446082
v -0.507815 -1.061250 -0.423185
v -0.510418 -1.076440 -1.454871
v -1.018242 -0.500363 -0.438451
v -1.033150 -0.506987 -1.449170
v -1.015223 0.501284 -0.439917
v -1.099476 0.526699 -1.458746
v 0.500375 1.006118 -1.443013
v 0.500373 1.002472 -0.442867
v -0.501564 1.007543 -1.443230
v -0.505242 1.043975 -0.437736
vt 0.852153 0.284749 0.0
vt 0.982720 0.233838 0.0
vt 0.871439 0.175351 0.0
vt 0.740281 0.226284 0.0
vt 0.721740 0.335474 0.0
vt 0.852153 0.284749 0.0
vt 0.740281 0.226284 0.0
vt 0.609211 0.277166 0.0
vt 0.740281 0.226284 0.0
vt 0.871439 0.175351 0.0
vt 0.760117 0.116860 0.0
vt 0.628912 0.167848 0.0
vt 0.609211 0.277166 0.0
vt 0.740281 0.226284 0.0
vt 0.628912 0.167848 0.0
vt 0.497841 0.218731 0.0
vt 0.589915 0.386588 0.0
vt 0.721740 0.335474 0.0
vt 0.609211 0.277166 0.0
vt 0.478137 0.328048 0.0
vt 0.458435 0.437367 0.0
vt 0.589915 0.386588 0.0
vt 0.478137 0.328048 0.0
vt 0.347066 0.378931 0.0
vt 0.478137 0.328048 0.0
vt 0.609211 0.277166 0.0
vt 0.497841 0.218731 0.0
vt 0.366769 0.269613 0.0
vt 0.347066 0.378931 0.0
vt 0.478137 0.328048 0.0
vt 0.366769 0.269613 0.0
vt 0.235698 0.320495 0.0
vt 0.628912 0.167848 0.0
vt 0.760117 0.116860 0.0
vt 0.649511 0.057258 0.0
vt 0.517542 0.109410 0.0
vt 0.497841 0.218731 0.0
vt 0.628912 0.167848 0.0
vt 0.517542 0.109410 0.0
vt 0.386429 0.160234 0.0
vt 0.517542 0.109410 0.0
vt 0.649511 0.057258 0.0
vt 0.537295 0.000000 0.0
vt 0.404781 0.049338 0.0
vt 0.386429 0.160234 0.0
vt 0.517542 0.109410 0.0
vt 0.404781 0.049338 0.0
vt 0.272084 0.097781 0.0
vt 0.366769 0.269613 0.0
vt 0.497841 0.218731 0.0
vt 0.386429 0.160234 0.0
vt 0.255344 0.211101 0.0
vt 0.235698 0.320495 0.0
vt 0.366769 0.269613 0.0
vt 0.255344 0.211101 0.0
vt 0.124329 0.262059 0.0
vt 0.255344 0.211101 0.0
vt 0.386429 0.160234 0.0
vt 0.272084 0.097781 0.0
vt 0.140126 0.148326 0.0
vt 0.124329 0.262059 0.0
vt 0.255344 0.211101 0.0
vt 0.140126 0.148326 0.0
vt 0.011821 0.203098 0.0
vt 0.128559 0.824342 0.0
vt 0.017552 0.765690 0.0
vt 0.145351 0.716941 0.0
vt 0.259043 0.777097 0.0
vt 0.240150 0.882653 0.0
vt 0.128559 0.824342 0.0
vt 0.259043 0.777097 0.0
vt 0.371315 0.833086 0.0
vt 0.259043 0.777097 0.0
vt 0.145351 0.716941 0.0
vt 0.277243 0.664491 0.0
vt 0.390414 0.734745 0.0
vt 0.371315 0.833086 0.0
vt 0.259043 0.777097 0.0
vt 0.390414 0.734745 0.0
vt 0.502334 0.794250 0.0
vt 0.351658 0.940997 0.0
vt 0.240150 0.882653 0.0
vt 0.371315 0.833086 0.0
vt 0.482742 0.890139 0.0
vt 0.463129 1.000000 0.0
vt 0.351658 0.940997 0.0
vt 0.482742 0.890139 0.0
vt 0.595064 0.950538 0.0
vt 0.482742 0.890139 0.0
vt 0.371315 0.833086 0.0
vt 0.502334 0.794250 0.0
vt 0.613828 0.844048 0.0
vt 0.595064 0.950538 0.0
vt 0.482742 0.890139 0.0
vt 0.613828 0.844048 0.0
vt 0.725765 0.898236 0.0
vt 0.390414 0.734745 0.0
vt 0.277243 0.664491 0.0
vt 0.408420 0.616602 0.0
vt 0.521264 0.685271 0.0
vt 0.502334 0.794250 0.0
vt 0.390414 0.734745 0.0
vt 0.521264 0.685271 0.0
vt 0.635302 0.746673 0.0
vt 0.521264 0.685271 0.0
vt 0.408420 0.616602 0.0
vt 0.542144 0.562479 0.0
vt 0.657037 0.622275 0.0
vt 0.635302 0.746673 0.0
vt 0.521264 0.685271 0.0
vt 0.657037 0.622275 0.0
vt 0.765599 0.679839 0.0
vt 0.613828 0.844048 0.0
vt 0.502334 0.794250 0.0
vt 0.635302 0.746673 0.0
vt 0.744914 0.795518 0.0
vt 0.725765 0.898236 0.0
vt 0.613828 0.844048 0.0
vt 0.744914 0.795518 0.0
vt 0.856241 0.846786 0.0
vt 0.744914 0.795518 0.0
vt 0.635302 0.746673 0.0
vt 0.765599 0.679839 0.0
vt 0.879134 0.737748 0.0
vt 0.856241 0.846786 0.0
vt 0.744914 0.795518 0.0
vt 0.879134 0.737748 0.0
vt 0.987336 0.795906 0.0
vt 0.461859 0.862799 0.0
vt 0.463129 1.000000 0.0
vt 0.595064 0.950538 0.0
vt 0.597768 0.813137 0.0
vt 0.460520 0.722454 0.0
vt 0.461859 0.862799 0.0
vt 0.597768 0.813137 0.0
vt 0.596017 0.670911 0.0
vt 0.597768 0.813137 0.0
vt 0.595064 0.950538 0.0
vt 0.725765 0.898236 0.0
vt 0.733865 0.763104 0.0
vt 0.596017 0.670911 0.0
vt 0.597768 0.813137 0.0
vt 0.733865 0.763104 0.0
vt 0.728021 0.619404 0.0
vt 0.459590 0.578732 0.0
vt 0.460520 0.722454 0.0
vt 0.596017 0.670911 0.0
vt 0.591989 0.527721 0.0
vt 0.458435 0.437367 0.0
vt 0.459590 0.578732 0.0
vt 0.591989 0.527721 0.0
vt 0.589915 0.386588 0.0
vt 0.591989 0.527721 0.0
vt 0.596017 0.670911 0.0
vt 0.728021 0.619404 0.0
vt 0.724237 0.476020 0.0
vt 0.589915 0.386588 0.0
vt 0.591989 0.527721 0.0
vt 0.724237 0.476020 0.0
vt 0.721740 0.335474 0.0
vt 0.733865 0.763104 0.0
vt 0.725765 0.898236 0.0
vt 0.856241 0.846786 0.0
vt 0.862775 0.710291 0.0
vt 0.728021 0.619404 0.0
vt 0.733865 0.763104 0.0
vt 0.862775 0.710291 0.0
vt 0.866004 0.570453 0.0
vt 0.862775 0.710291 0.0
vt 0.856241 0.846786 0.0
vt 0.987336 0.795906 0.0
vt 0.991917 0.655295 0.0
vt 0.866004 0.570453 0.0
vt 0.862775 0.710291 0.0
vt 0.991917 0.655295 0.0
vt 1.000000 0.514979 0.0
vt 0.724237 0.476020 0.0
vt 0.728021 0.619404 0.0
vt 0.866004 0.570453 0.0
vt 0.858382 0.426151 0.0
vt 0.721740 0.335474 0.0
vt 0.724237 0.476020 0.0
vt 0.858382 0.426151 0.0
vt 0.852153 0.284749 0.0
vt 0.858382 0.426151 0.0
vt 0.866004 0.570453 0.0
vt 1.000000 0.514979 0.0
vt 0.988128 0.374345 0.0
vt 0.852153 0.284749 0.0
vt 0.858382 0.426151 0.0
vt 0.988128 0.374345 0.0
vt 0.982720 0.233838 0.0
vt 0.991917 0.655295 0.0
vt 0.987336 0.795906 0.0
vt 0.879134 0.737748 0.0
vt 0.898035 0.594863 0.0
vt 1.000000 0.514979 0.0
vt 0.991917 0.655295 0.0
vt 0.898035 0.594863 0.0
vt 0.897308 0.451675 0.0
vt 0.898035 0.594863 0.0
vt 0.879134 0.737748 0.0
vt 0.765599 0.679839 0.0
vt 0.785063 0.534100 0.0
vt 0.897308 0.451675 0.0
vt 0.898035 0.594863 0.0
vt 0.785063 0.534100 0.0
vt 0.784074 0.389255 0.0
vt 0.988128 0.374345 0.0
vt 1.000000 0.514979 0.0
vt 0.897308 0.451675 0.0
vt 0.881657 0.312900 0.0
vt 0.982720 0.233838 0.0
vt 0.988128 0.374345 0.0
vt 0.881657 0.312900 0.0
vt 0.871439 0.175351 0.0
vt 0.881657 0.312900 0.0
vt 0.897308 0.451675 0.0
vt 0.784074 0.389255 0.0
vt 0.776610 0.249302 0.0
vt 0.871439 0.175351 0.0
vt 0.881657 0.312900 0.0
vt 0.776610 0.249302 0.0
vt 0.760117 0.116860 0.0
vt 0.785063 0.534100 0.0
vt 0.765599 0.679839 0.0
vt 0.657037 0.622275 0.0
vt 0.666420 0.478506 0.0
vt 0.784074 0.389255 0.0
vt 0.785063 0.534100 0.0
vt 0.666420 0.478506 0.0
vt 0.674434 0.326495 0.0
vt 0.666420 0.478506 0.0
vt 0.657037 0.622275 0.0
vt 0.542144 0.562479 0.0
vt 0.541075 0.421669 0.0
vt 0.674434 0.326495 0.0
vt 0.666420 0.478506 0.0
vt 0.541075 0.421669 0.0
vt 0.541068 0.279080 0.0
vt 0.776610 0.249302 0.0
vt 0.784074 0.389255 0.0
vt 0.674434 0.326495 0.0
vt 0.667454 0.186719 0.0
vt 0.760117 0.116860 0.0
vt 0.776610 0.249302 0.0
vt 0.667454 0.186719 0.0
vt 0.649511 0.057258 0.0
vt 0.667454 0.186719 0.0
vt 0.674434 0.326495 0.0
vt 0.541068 0.279080 0.0
vt 0.538385 0.138620 0.0
vt 0.649511 0.057258 0.0
vt 0.667454 0.186719 0.0
vt 0.538385 0.138620 0.0
vt 0.537295 0.000000 0.0
vt 0.541075 0.421669 0.0
vt 0.542144 0.562479 0.0
vt 0.408420 0.616602 0.0
vt 0.405662 0.471640 0.0
vt 0.541068 0.279080 0.0
vt 0.541075 0.421669 0.0
vt 0.405662 0.471640 0.0
vt 0.404626 0.328519 0.0
vt 0.405662 0.471640 0.0
vt 0.408420 0.616602 0.0
vt 0.277243 0.664491 0.0
vt 0.269306 0.521133 0.0
vt 0.404626 0.328519 0.0
vt 0.405662 0.471640 0.0
vt 0.269306 0.521133 0.0
vt 0.266272 0.376972 0.0
vt 0.538385 0.138620 0.0
vt 0.541068 0.279080 0.0
vt 0.404626 0.328519 0.0
vt 0.401757 0.185178 0.0
vt 0.537295 0.000000 0.0
vt 0.538385 0.138620 0.0
vt 0.401757 0.185178 0.0
vt 0.404781 0.049338 0.0
vt 0.401757 0.185178 0.0
vt 0.404626 0.328519 0.0
vt 0.266272 0.376972 0.0
vt 0.268216 0.235632 0.0
vt 0.404781 0.049338 0.0
vt 0.401757 0.185178 0.0
vt 0.268216 0.235632 0.0
vt 0.272084 0.097781 0.0
vt 0.269306 0.521133 0.0
vt 0.277243 0.664491 0.0
vt 0.145351 0.716941 0.0
vt 0.143756 0.573513 0.0
vt 0.266272 0.376972 0.0
vt 0.269306 0.521133 0.0
vt 0.143756 0.573513 0.0
vt 0.108866 0.419389 0.0
vt 0.143756 0.573513 0.0
vt 0.145351 0.716941 0.0
vt 0.017552 0.765690 0.0
vt 0.016233 0.625210 0.0
vt 0.108866 0.419389 0.0
vt 0.143756 0.573513 0.0
vt 0.016233 0.625210 0.0
vt 0.003216 0.484054 0.0
vt 0.268216 0.235632 0.0
vt 0.266272 0.376972 0.0
vt 0.108866 0.419389 0.0
vt 0.115988 0.279928 0.0
vt 0.272084 0.097781 0.0
vt 0.268216 0.235632 0.0
vt 0.115988 0.279928 0.0
vt 0.140126 0.148326 0.0
vt 0.115988 0.279928 0.0
vt 0.108866 0.419389 0.0
vt 0.003216 0.484054 0.0
vt 0.000000 0.340755 0.0
vt 0.140126 0.148326 0.0
vt 0.115988 0.279928 0.0
vt 0.000000 0.340755 0.0
vt 0.011821 0.203098 0.0
vt 0.459590 0.578732 0.0
vt 0.458435 0.437367 0.0
vt 0.347066 0.378931 0.0
vt 0.346694 0.520114 0.0
vt 0.460520 0.722454 0.0
vt 0.459590 0.578732 0.0
vt 0.346694 0.520114 0.0
vt 0.348434 0.660702 0.0
vt 0.346694 0.520114 0.0
vt 0.347066 0.378931 0.0
vt 0.235698 0.320495 0.0
vt 0.234199 0.462040 0.0
vt 0.348434 0.660702 0.0
vt 0.346694 0.520114 0.0
vt 0.234199 0.462040 0.0
vt 0.232372 0.603713 0.0
vt 0.461859 0.862799 0.0
vt 0.460520 0.722454 0.0
vt 0.348434 0.660702 0.0
vt 0.349945 0.800817 0.0
vt 0.463129 1.000000 0.0
vt 0.461859 0.862799 0.0
vt 0.349945 0.800817 0.0
vt 0.351658 0.940997 0.0
vt 0.349945 0.800817 0.0
vt 0.348434 0.660702 0.0
vt 0.232372 0.603713 0.0
vt 0.230280 0.746609 0.0
vt 0.351658 0.940997 0.0
vt 0.349945 0.800817 0.0
vt 0.230280 0.746609 0.0
vt 0.240150 0.882653 0.0
vt 0.234199 0.462040 0.0
vt 0.235698 0.320495 0.0
vt 0.124329 0.262059 0.0
vt 0.123151 0.403100 0.0
vt 0.232372 0.603713 0.0
vt 0.234199 0.462040 0.0
vt 0.123151 0.403100 0.0
vt 0.106583 0.547907 0.0
vt 0.123151 0.403100 0.0
vt 0.124329 0.262059 0.0
vt 0.011821 0.203098 0.0
vt 0.000000 0.340755 0.0
vt 0.106583 0.547907 0.0
vt 0.123151 0.403100 0.0
vt 0.000000 0.340755 0.0
vt 0.003216 0.484054 0.0
vt 0.230280 0.746609 0.0
vt 0.232372 0.603713 0.0
vt 0.106583 0.547907 0.0
vt 0.115090 0.688954 0.0
vt 0.240150 0.882653 0.0
vt 0.230280 0.746609 0.0
vt 0.115090 0.688954 0.0
vt 0.128559 0.824342 0.0
vt 0.115090 0.688954 0.0
vt 0.106583 0.547907 0.0
vt 0.003216 0.484054 0.0
vt 0.016233 0.625210 0.0
vt 0.128559 0.824342 0.0
vt 0.115090 0.688954 0.0
vt 0.016233 0.625210 0.0
vt 0.017552 0.765690 0.0
vn 0.701041 -0.003845 -0.713065
vn 0.570452 -0.565386 -0.595691
vn 0.017335 -0.695242 -0.718528
vn -0.001556 -0.000916 -0.999969
vn 0.700705 0.003876 -0.713401
vn -0.002258 0.000031 -0.999969
vn 0.018464 -0.675771 -0.736869
vn 0.000977 0.001099 -0.999969
vn 0.000153 -0.000031 -1.000000
vn 0.701498 0.005036 -0.712607
vn -0.001617 0.001038 -0.999969
vn 0.572008 0.575762 -0.584155
vn 0.001770 0.703665 -0.710501
vn 0.000153 0.000031 -1.000000
vn 0.000549 0.702567 -0.711600
vn -0.018189 -0.691183 -0.722434
vn 0.005097 -0.002319 -0.999969
vn 0.009400 -0.002136 -0.999939
vn -0.578661 -0.546007 -0.605792
vn -0.693075 -0.017151 -0.720634
vn -0.688375 -0.027955 -0.724784
vn 0.009796 0.002258 -0.999939
vn 0.009125 0.702353 -0.711753
vn -0.687094 0.007080 -0.726524
vn -0.513443 0.593707 -0.619556
vn -0.009430 0.704642 0.709464
vn -0.580157 0.572344 0.579455
vn -0.706565 0.035707 0.706717
vn -0.008087 0.040223 0.999146
vn 0.020081 0.697806 0.715995
vn 0.015412 0.041292 0.999023
vn -0.717002 0.020020 0.696738
vn -0.026856 0.038759 0.998871
vn 0.026704 0.041108 0.998779
vn 0.006500 0.707724 0.706412
vn 0.017701 0.028565 0.999420
vn 0.555956 0.580279 0.595080
vn 0.691000 0.015442 0.722648
vn 0.038270 0.029115 0.998840
vn 0.690909 0.006714 0.722861
vn -0.711447 -0.027711 0.702170
vn -0.027558 -0.027192 0.999237
vn 0.025513 -0.025269 0.999329
vn -0.603076 -0.572619 0.555284
vn -0.042055 -0.713767 0.699088
vn 0.014740 -0.689779 0.723838
vn 0.045198 -0.025239 0.998657
vn 0.698843 -0.017701 0.715018
vn 0.046785 -0.691397 0.720908
vn 0.585620 -0.548051 0.597186
vn 0.700278 0.713553 0.020478
vn 0.999695 0.014191 0.019868
vn 0.697714 0.716208 -0.013459
vn 0.999756 0.011811 -0.018525
vn 0.999542 0.005951 0.028687
vn 0.999512 0.016663 -0.025391
vn 0.703574 0.710227 -0.022614
vn 0.999725 0.005615 -0.021882
vn 0.999481 0.013642 -0.028199
vn 0.999420 -0.010620 0.031465
vn 0.999847 -0.011597 -0.012757
vn 0.714713 -0.696890 0.059023
vn 0.720298 -0.693289 -0.022401
vn 0.999329 0.000214 -0.036561
vn 0.707327 -0.704184 -0.061556
vn 0.040040 -0.997131 0.063997
vn 0.057924 -0.998108 -0.019898
vn 0.005737 -0.997467 0.070833
vn 0.021027 -0.999695 -0.012055
vn 0.035005 -0.997406 -0.062502
vn 0.030305 -0.995422 -0.090457
vn -0.059603 -0.996277 0.061953
vn -0.066713 -0.997742 -0.001343
vn -0.722922 -0.689993 0.035157
vn -0.733360 -0.679678 0.013306
vn -0.050447 -0.996460 -0.067171
vn -0.724143 -0.688009 -0.046754
vn -0.999359 -0.031037 0.017273
vn -0.999237 -0.037965 0.006409
vn -0.997436 -0.030091 0.064638
vn -0.996216 -0.082736 0.026093
vn -0.999359 -0.027711 -0.021271
vn -0.996033 -0.071047 -0.053468
vn -0.994598 0.035859 0.097262
vn -0.999084 0.021912 0.036561
vn -0.726646 0.682363 0.079531
vn -0.681722 0.730674 0.036744
vn -0.997497 0.019196 -0.067904
vn -0.676778 0.731773 -0.080081
vn 0.005005 0.999908 -0.011811
vn 0.010315 0.999908 -0.005493
vn 0.021760 0.999084 -0.036653
vn 0.039399 0.998840 -0.027070
vn 0.015931 0.999817 0.010254
vn 0.033021 0.998871 0.034028
vn 0.009125 0.998840 -0.046937
vn -0.010987 0.999908 -0.007569
vn -0.009644 0.999146 0.039674
usemtl Material_cave_ground.jpg
s 1
f 28/1/1 2/2/2 33/3/3 75/4/4
s 1
f 9/5/5 28/6/1 75/7/4 52/8/6
s 1
f 75/9/4 33/10/3 12/11/7 51/12/8
s 1
f 52/13/6 75/14/4 51/15/8 21/16/9
s 1
f 27/17/10 9/18/5 52/19/6 76/20/11
s 1
f 1/21/12 27/22/10 76/23/11 29/24/13
s 1
f 76/25/11 52/26/6 21/27/9 53/28/14
s 1
f 29/29/13 76/30/11 53/31/14 10/32/15
s 1
f 51/33/8 12/34/7 34/35/16 77/36/17
s 1
f 21/37/9 51/38/8 77/39/17 54/40/18
s 1
f 77/41/17 34/42/16 3/43/19 37/44/20
s 1
f 54/45/18 77/46/17 37/47/20 14/48/21
s 1
f 53/49/14 21/50/9 54/51/18 78/52/22
s 1
f 10/53/15 53/54/14 78/55/22 30/56/23
s 1
f 78/57/22 54/58/18 14/59/21 38/60/24
s 1
f 30/61/23 78/62/22 38/63/24 4/64/25
s 1
f 46/65/26 8/66/27 50/67/28 79/68/29
s 1
f 18/69/30 46/70/26 79/71/29 56/72/31
s 1
f 79/73/29 50/74/28 20/75/32 55/76/33
s 1
f 56/77/31 79/78/29 55/79/33 22/80/34
s 1
f 45/81/35 18/82/30 56/83/31 80/84/36
s 1
f 5/85/37 45/86/35 80/87/36 43/88/38
s 1
f 80/89/36 56/90/31 22/91/34 57/92/39
s 1
f 43/93/38 80/94/36 57/95/39 17/96/40
s 1
f 55/97/33 20/98/32 49/99/41 81/100/42
s 1
f 22/101/34 55/102/33 81/103/42 58/104/43
s 1
f 81/105/42 49/106/41 7/107/44 48/108/45
s 1
f 58/109/43 81/110/42 48/111/45 19/112/46
s 1
f 57/113/39 22/114/34 58/115/43 82/116/47
s 1
f 17/117/40 57/118/39 82/119/47 44/120/48
s 1
f 82/121/47 58/122/43 19/123/46 47/124/49
s 1
f 44/125/48 82/126/47 47/127/49 6/128/50
s 1
f 32/129/51 5/130/37 43/131/38 83/132/52
s 1
f 11/133/53 32/134/51 83/135/52 60/136/54
s 1
f 83/137/52 43/138/38 17/139/40 59/140/55
s 1
f 60/141/54 83/142/52 59/143/55 23/144/56
s 1
f 31/145/57 11/146/53 60/147/54 84/148/58
s 1
f 1/149/12 31/150/57 84/151/58 27/152/10
s 1
f 84/153/58 60/154/54 23/155/56 61/156/59
s 1
f 27/157/10 84/158/58 61/159/59 9/160/5
s 1
f 59/161/55 17/162/40 44/163/48 85/164/60
s 1
f 23/165/56 59/166/55 85/167/60 62/168/61
s 1
f 85/169/60 44/170/48 6/171/50 36/172/62
s 1
f 62/173/61 85/174/60 36/175/62 13/176/63
s 1
f 61/177/59 23/178/56 62/179/61 86/180/64
s 1
f 9/181/5 61/182/59 86/183/64 28/184/1
s 1
f 86/185/64 62/186/61 13/187/63 35/188/65
s 1
f 28/189/1 86/190/64 35/191/65 2/192/2
s 1
f 36/193/62 6/194/50 47/195/49 87/196/66
s 1
f 13/197/63 36/198/62 87/199/66 64/200/67
s 1
f 87/201/66 47/202/49 19/203/46 63/204/68
s 1
f 64/205/67 87/206/66 63/207/68 24/208/69
s 1
f 35/209/65 13/210/63 64/211/67 88/212/70
s 1
f 2/213/2 35/214/65 88/215/70 33/216/3
s 1
f 88/217/70 64/218/67 24/219/69 65/220/71
s 1
f 33/221/3 88/222/70 65/223/71 12/224/7
s 1
f 63/225/68 19/226/46 48/227/45 89/228/72
s 1
f 24/229/69 63/230/68 89/231/72 66/232/73
s 1
f 89/233/72 48/234/45 7/235/44 40/236/74
s 1
f 66/237/73 89/238/72 40/239/74 15/240/75
s 1
f 65/241/71 24/242/69 66/243/73 90/244/76
s 1
f 12/245/7 65/246/71 90/247/76 34/248/16
s 1
f 90/249/76 66/250/73 15/251/75 39/252/77
s 1
f 34/253/16 90/254/76 39/255/77 3/256/19
s 1
f 40/257/74 7/258/44 49/259/41 91/260/78
s 1
f 15/261/75 40/262/74 91/263/78 68/264/79
s 1
f 91/265/78 49/266/41 20/267/32 67/268/80
s 1
f 68/269/79 91/270/78 67/271/80 25/272/81
s 1
f 39/273/77 15/274/75 68/275/79 92/276/82
s 1
f 3/277/19 39/278/77 92/279/82 37/280/20
s 1
f 92/281/82 68/282/79 25/283/81 69/284/83
s 1
f 37/285/20 92/286/82 69/287/83 14/288/21
s 1
f 67/289/80 20/290/32 50/291/28 93/292/84
s 1
f 25/293/81 67/294/80 93/295/84 70/296/85
s 1
f 93/297/84 50/298/28 8/299/27 42/300/86
s 1
f 70/301/85 93/302/84 42/303/86 16/304/87
s 1
f 69/305/83 25/306/81 70/307/85 94/308/88
s 1
f 14/309/21 69/310/83 94/311/88 38/312/24
s 1
f 94/313/88 70/314/85 16/315/87 41/316/89
s 1
f 38/317/24 94/318/88 41/319/89 4/320/25
s 1
f 31/321/57 1/322/12 29/323/13 95/324/90
s 1
f 11/325/53 31/326/57 95/327/90 72/328/91
s 1
f 95/329/90 29/330/13 10/331/15 71/332/92
s 1
f 72/333/91 95/334/90 71/335/92 26/336/93
s 1
f 32/337/51 11/338/53 72/339/91 96/340/94
s 1
f 5/341/37 32/342/51 96/343/94 45/344/35
s 1
f 96/345/94 72/346/91 26/347/93 73/348/95
s 1
f 45/349/35 96/350/94 73/351/95 18/352/30
s 1
f 71/353/92 10/354/15 30/355/23 97/356/96
s 1
f 26/357/93 71/358/92 97/359/96 74/360/97
s 1
f 97/361/96 30/362/23 4/363/25 41/364/89
s 1
f 74/365/97 97/366/96 41/367/89 16/368/87
s 1
f 73/369/95 26/370/93 74/371/97 98/372/98
s 1
f 18/373/30 73/374/95 98/375/98 46/376/26
s 1
f 98/377/98 74/378/97 16/379/87 42/380/86
s 1
f 46/381/26 98/382/98 42/383/86 8/384/27
