# Blender3D v244 OBJ File: mountain_rock.blend
# www.blender3d.org
mtllib mountain_rock.mtl
o Cube
v 1.016964 0.998810 -0.007979
v 1.013834 -1.034457 -0.005595
v -1.015201 -1.034457 -0.005595
v -1.015298 0.994742 -0.005637
v 1.013834 0.994577 1.970067
v 1.013833 -1.034458 1.970067
v -1.016506 -1.035067 1.970694
v -1.015201 0.994577 1.970067
v 1.012602 -0.023872 -0.001198
v -0.000265 0.998160 -0.006740
v 1.014447 1.002331 0.990350
v -0.001152 -1.096692 -0.041194
v 1.016293 -1.035016 0.990562
v -1.094408 -0.019940 -0.005595
v -1.015202 -1.034457 0.990567
v -1.016134 0.996146 0.990175
v 1.014105 -0.019904 1.970134
v -0.000684 0.994577 1.970067
v -0.000684 -1.034458 1.970067
v -1.040330 -0.019945 1.976132
v -0.000673 -0.020196 -0.005843
v -0.000716 -0.019951 1.970084
v 1.177065 -0.023375 0.990826
v -0.004138 -1.064256 1.076967
v -1.067523 -0.015528 0.986403
v -0.000784 1.268070 0.986267
v 1.032691 0.468566 -0.032911
v 1.013834 -0.527199 -0.005595
v 0.516765 1.020682 -0.015982
v -0.512976 1.011179 -0.009784
v 1.029612 1.023197 0.481949
v 1.014226 1.001105 1.488746
v 0.507017 -1.060441 -0.029576
v -0.510145 -1.050588 -0.011586
v 1.014040 -1.034508 0.492485
v 1.014633 -1.034568 1.488796
v -1.015201 -0.527198 -0.005595
v -1.015201 0.487319 -0.005595
v -1.015552 -1.036265 0.491821
v -1.029849 -1.040562 1.494772
v -1.026921 1.018285 0.486547
v -1.015917 0.994758 1.488714
v 1.016210 0.487638 1.970654
v 1.014645 -0.527310 1.970217
v 0.506575 0.994577 1.970067
v -0.507942 0.994577 1.970067
v 0.506574 -1.034458 1.970067
v -0.507943 -1.034457 1.970067
v -1.047833 -0.534738 1.982970
v -1.015310 0.487340 1.970080
v 0.795634 -0.019965 1.490970
v 0.806685 0.487553 0.991056
v 1.334272 -0.020996 0.492511
v 1.361012 -0.536482 0.991543
v -0.003719 -0.990392 1.580559
v 0.503539 -1.005259 1.082038
v -0.005899 -1.299296 0.405711
v -0.508447 -1.038880 0.989428
v -1.260133 -0.020071 1.527071
v -1.099544 -0.529963 0.993416
v -0.872981 -0.019679 0.491576
v -0.890062 0.492053 0.991677
v -0.000272 1.155595 0.469209
v 0.514066 1.225799 0.986084
v -0.000684 1.183282 1.488649
v -0.516163 1.036424 0.981908
v 0.796509 0.489154 1.492021
v 1.022934 0.488263 0.492062
v 1.031292 -0.529684 1.491366
v 1.302821 -0.530884 0.492476
v 0.503542 -0.981972 1.580567
v 0.507003 -1.113137 0.449241
v -0.508004 -1.034488 1.488675
v -0.516143 -1.122250 0.466960
v -1.215066 -0.554018 1.542619
v -1.015726 -0.527187 0.492444
v -1.061985 0.495509 1.493494
v -0.861673 0.487933 0.492332
v 0.552035 1.133418 0.453218
v 0.506575 1.189757 1.488649
v -0.544611 1.154870 0.455271
v -0.507942 0.994577 1.488649
vt 0.996652 0.250535 0.0
vt 0.996652 0.000535 0.0
vt 0.746870 -0.012270 0.0
vt 0.746661 0.250144 0.0
vt 0.996652 0.500535 0.0
vt 0.996652 0.250535 0.0
vt 0.746661 0.250144 0.0
vt 0.746661 0.250144 0.0
vt 0.746870 -0.012270 0.0
vt 0.496421 -0.030136 0.0
vt 0.996653 0.750536 0.0
vt 0.996652 0.500535 0.0
vt 0.746652 0.500535 0.0
vt 0.998195 0.002621 0.0
vt 0.996653 -0.249464 0.0
vt 0.746683 -0.249424 0.0
vt 0.751674 0.013401 0.0
vt 0.751674 0.013401 0.0
vt 0.496652 -0.249465 0.0
vt 0.496859 0.002301 0.0
vt 0.496662 0.249760 0.0
vt 0.496421 -0.030136 0.0
vt 0.245567 -0.007414 0.0
vt 0.246651 0.250528 0.0
vt 0.245567 -0.007414 0.0
vt -0.003348 0.000536 0.0
vt -0.003348 0.250536 0.0
vt 0.246652 0.500536 0.0
vt -0.003348 0.250536 0.0
vt -0.003348 0.500536 0.0
vt 0.496859 0.002301 0.0
vt 0.246652 -0.249464 0.0
vt 0.244172 0.008717 0.0
vt 0.246652 0.750536 0.0
vt -0.003348 0.500536 0.0
vt -0.003348 0.750536 0.0
vt 0.244172 0.008717 0.0
vt 0.246652 -0.249464 0.0
vt -0.003348 -0.249464 0.0
vt -0.003395 0.000617 0.0
vt 0.246652 0.000535 0.0
vt -0.003348 0.000535 0.0
vt -0.003402 -0.249454 0.0
vt 0.246652 -0.249465 0.0
vt 0.496652 0.000535 0.0
vt 0.246652 0.000535 0.0
vt 0.246652 -0.249465 0.0
vt 0.246652 0.750535 0.0
vt -0.003402 0.750546 0.0
vt -0.015733 0.500533 0.0
vt 0.746652 0.000535 0.0
vt 0.496652 0.000535 0.0
vt 0.496652 -0.249465 0.0
vt 0.996652 0.000535 0.0
vt 0.746652 0.000535 0.0
vt 0.746652 -0.249465 0.0
vt 0.997823 -0.249307 0.0
vt 0.997823 0.750693 0.0
vt 0.746652 0.500535 0.0
vt 0.996786 0.500553 0.0
vt 0.246651 0.500535 0.0
vt -0.015733 0.500533 0.0
vt -0.019430 0.246820 0.0
vt 0.246509 0.250486 0.0
vt -0.019430 0.246820 0.0
vt -0.003991 0.000235 0.0
vt 0.246652 0.000536 0.0
vt 0.496652 0.250535 0.0
vt 0.246652 0.000536 0.0
vt 0.496652 0.000535 0.0
vt 0.996786 0.500553 0.0
vt 0.746652 0.250535 0.0
vt 0.997052 0.250480 0.0
vt 0.746652 0.250535 0.0
vt 0.496652 0.000535 0.0
vt 0.746652 0.000535 0.0
vt 0.997052 0.250480 0.0
vt 0.746652 0.250535 0.0
vt 0.746652 0.000535 0.0
vt 0.996652 0.000535 0.0
vt 0.000561 0.244270 0.0
vt 0.000535 0.494221 0.0
vt -0.249307 0.494516 0.0
vt -0.248560 0.245914 0.0
vt 0.001166 0.994112 0.0
vt 0.000561 1.244270 0.0
vt -0.248560 1.245914 0.0
vt -0.249349 0.994467 0.0
vt 0.751440 0.245914 0.0
vt 0.750693 0.494516 0.0
vt 0.500553 0.494255 0.0
vt 0.500523 0.245387 0.0
vt 0.750651 0.994467 0.0
vt 0.751440 1.245914 0.0
vt 0.500523 1.245387 0.0
vt 0.498843 0.994351 0.0
vt 0.014641 0.738933 0.0
vt 0.001166 0.994112 0.0
vt -0.249349 0.994467 0.0
vt -0.248999 0.744009 0.0
vt 0.002621 0.493025 0.0
vt 0.014641 0.738933 0.0
vt -0.248999 0.744009 0.0
vt -0.249464 0.494221 0.0
vt 0.751001 0.744009 0.0
vt 0.750651 0.994467 0.0
vt 0.498843 0.994351 0.0
vt 0.500015 0.744234 0.0
vt 0.750536 0.494221 0.0
vt 0.751001 0.744009 0.0
vt 0.500015 0.744234 0.0
vt 0.500535 0.494221 0.0
vt 0.500523 0.245387 0.0
vt 0.500553 0.494255 0.0
vt 0.250480 0.494297 0.0
vt 0.249310 0.245586 0.0
vt 0.498843 0.994351 0.0
vt 0.500523 1.245387 0.0
vt 0.249310 1.245586 0.0
vt 0.245960 0.994711 0.0
vt 0.249310 0.245586 0.0
vt 0.250480 0.494297 0.0
vt 0.000535 0.494221 0.0
vt 0.000481 0.244296 0.0
vt 0.245960 0.994711 0.0
vt 0.249310 1.245586 0.0
vt 0.000481 1.244296 0.0
vt 0.000260 0.994219 0.0
vt 0.500015 0.744234 0.0
vt 0.498843 0.994351 0.0
vt 0.245960 0.994711 0.0
vt 0.248719 0.744216 0.0
vt 0.500535 0.494221 0.0
vt 0.500015 0.744234 0.0
vt 0.248719 0.744216 0.0
vt 0.250535 0.494221 0.0
vt 0.248719 0.744216 0.0
vt 0.245960 0.994711 0.0
vt 0.000260 0.994219 0.0
vt 0.000511 0.744221 0.0
vt 0.250535 0.494221 0.0
vt 0.248719 0.744216 0.0
vt 0.000511 0.744221 0.0
vt 0.000535 0.494221 0.0
vt 0.997046 0.244296 0.0
vt 0.996652 0.494221 0.0
vt 0.746652 0.494221 0.0
vt 0.746651 0.244220 0.0
vt 0.997864 0.994219 0.0
vt 0.997046 1.244296 0.0
vt 0.746651 1.244220 0.0
vt 0.746650 0.993995 0.0
vt 0.746651 0.244220 0.0
vt 0.746652 0.494221 0.0
vt 0.496652 0.494221 0.0
vt 0.496650 0.244215 0.0
vt 0.746650 0.993995 0.0
vt 0.746651 1.244220 0.0
vt 0.496650 1.244215 0.0
vt 0.496444 0.991450 0.0
vt 0.996754 0.744221 0.0
vt 0.997864 0.994219 0.0
vt 0.746650 0.993995 0.0
vt 0.746863 0.722516 0.0
vt 0.996652 0.494221 0.0
vt 0.996754 0.744221 0.0
vt 0.746863 0.722516 0.0
vt 0.746870 0.482185 0.0
vt 0.746863 0.722516 0.0
vt 0.746650 0.993995 0.0
vt 0.496444 0.991450 0.0
vt 0.494082 0.700667 0.0
vt 0.746870 0.482185 0.0
vt 0.746863 0.722516 0.0
vt 0.494082 0.700667 0.0
vt 0.496421 0.476353 0.0
vt 0.496650 0.244215 0.0
vt 0.496652 0.494221 0.0
vt 0.246652 0.494221 0.0
vt 0.246622 0.244235 0.0
vt 0.496444 0.991450 0.0
vt 0.496650 1.244215 0.0
vt 0.246622 1.244235 0.0
vt 0.246403 0.993650 0.0
vt 0.246622 0.244235 0.0
vt 0.246652 0.494221 0.0
vt -0.003991 0.494536 0.0
vt -0.010567 0.247295 0.0
vt 0.246403 0.993650 0.0
vt 0.246622 1.244235 0.0
vt -0.010567 1.247295 0.0
vt -0.003348 0.994221 0.0
vt 0.494082 0.700667 0.0
vt 0.496444 0.991450 0.0
vt 0.246403 0.993650 0.0
vt 0.242611 0.731409 0.0
vt 0.496421 0.476353 0.0
vt 0.494082 0.700667 0.0
vt 0.242611 0.731409 0.0
vt 0.245567 0.491215 0.0
vt 0.242611 0.731409 0.0
vt 0.246403 0.993650 0.0
vt -0.003348 0.994221 0.0
vt -0.003521 0.743888 0.0
vt 0.245567 0.491215 0.0
vt 0.242611 0.731409 0.0
vt -0.003521 0.743888 0.0
vt -0.003348 0.494221 0.0
vt 0.997527 0.247295 0.0
vt 1.000235 0.494536 0.0
vt 1.246820 0.500698 0.0
vt 1.237318 0.271311 0.0
vt 0.000536 0.994221 0.0
vt -0.002473 1.247295 0.0
vt 0.237318 1.271311 0.0
vt 0.249173 0.995651 0.0
vt 0.237318 0.271311 0.0
vt 0.246820 0.500698 0.0
vt 0.500533 0.497265 0.0
vt 0.500471 0.263507 0.0
vt 0.249173 0.995651 0.0
vt 0.237318 1.271311 0.0
vt 0.500471 1.263507 0.0
vt 0.502710 0.992131 0.0
vt 0.999644 0.743888 0.0
vt 1.000536 0.994221 0.0
vt 1.249173 0.995651 0.0
vt 1.250541 0.744201 0.0
vt 0.000536 0.494221 0.0
vt -0.000356 0.743888 0.0
vt 0.250541 0.744201 0.0
vt 0.250536 0.494221 0.0
vt 0.250541 0.744201 0.0
vt 0.249173 0.995651 0.0
vt 0.502710 0.992131 0.0
vt 0.500664 0.743765 0.0
vt 0.250536 0.494221 0.0
vt 0.250541 0.744201 0.0
vt 0.500664 0.743765 0.0
vt 0.500536 0.494221 0.0
vt 0.500471 0.263507 0.0
vt 0.500533 0.497265 0.0
vt 0.750546 0.494228 0.0
vt 0.754572 0.246654 0.0
vt 0.502710 0.992131 0.0
vt 0.500471 1.263507 0.0
vt 0.754572 1.246654 0.0
vt 0.752869 0.994779 0.0
vt 0.754572 0.246654 0.0
vt 0.750546 0.494228 0.0
vt 1.000535 0.494221 0.0
vt 1.000624 0.244254 0.0
vt 0.752869 0.994779 0.0
vt 0.754572 1.246654 0.0
vt 1.000624 1.244254 0.0
vt 1.001309 0.994025 0.0
vt 0.500664 0.743765 0.0
vt 0.502710 0.992131 0.0
vt 0.752869 0.994779 0.0
vt 0.750838 0.744144 0.0
vt 0.500536 0.494221 0.0
vt 0.500664 0.743765 0.0
vt 0.750838 0.744144 0.0
vt 0.750536 0.494221 0.0
vt 0.750838 0.744144 0.0
vt 0.752869 0.994779 0.0
vt 1.001309 0.994025 0.0
vt 1.012220 0.741241 0.0
vt 0.750536 0.494221 0.0
vt 0.750838 0.744144 0.0
vt 1.012220 0.741241 0.0
vt 1.000617 0.494201 0.0
vt 0.004428 0.738933 0.0
vt -0.001805 0.493025 0.0
vt -0.248326 0.489008 0.0
vt -0.230943 0.724512 0.0
vt 0.996954 0.994112 0.0
vt 1.004428 0.738933 0.0
vt 0.769057 0.724512 0.0
vt 0.750344 0.991971 0.0
vt 0.769057 0.724512 0.0
vt 0.751674 0.489008 0.0
vt 0.496859 0.493647 0.0
vt 0.496855 0.732538 0.0
vt 0.750344 0.991971 0.0
vt 0.769057 0.724512 0.0
vt 0.496855 0.732538 0.0
vt 0.496603 0.992063 0.0
vt 0.996846 0.244270 0.0
vt 0.996954 -0.005888 0.0
vt 0.750344 -0.008029 0.0
vt 0.746652 0.244221 0.0
vt 0.996652 0.494221 0.0
vt 0.996846 0.244270 0.0
vt 0.746652 0.244221 0.0
vt 0.746652 0.494221 0.0
vt 0.746652 0.244221 0.0
vt 0.750344 -0.008029 0.0
vt 0.496603 -0.007937 0.0
vt 0.496652 0.244221 0.0
vt 0.746652 0.494221 0.0
vt 0.746652 0.244221 0.0
vt 0.496652 0.244221 0.0
vt 0.496652 0.494221 0.0
vt 0.496855 0.732538 0.0
vt 0.496859 0.493647 0.0
vt 0.244172 0.492119 0.0
vt 0.228580 0.725542 0.0
vt 0.496603 0.992063 0.0
vt 0.496855 0.732538 0.0
vt 0.228580 0.725542 0.0
vt 0.242601 0.989875 0.0
vt 0.228580 0.725542 0.0
vt 0.244172 0.492119 0.0
vt -0.003395 0.494201 0.0
vt -0.009124 0.741241 0.0
vt 0.242601 0.989875 0.0
vt 0.228580 0.725542 0.0
vt -0.009124 0.741241 0.0
vt -0.003808 0.994025 0.0
vt 0.496652 0.244221 0.0
vt 0.496603 -0.007937 0.0
vt 0.242601 -0.010125 0.0
vt 0.246652 0.244221 0.0
vt 0.496652 0.494221 0.0
vt 0.496652 0.244221 0.0
vt 0.246652 0.244221 0.0
vt 0.246652 0.494221 0.0
vt 0.246652 0.244221 0.0
vt 0.242601 -0.010125 0.0
vt -0.003808 -0.005975 0.0
vt -0.003701 0.244254 0.0
vt 0.246652 0.494221 0.0
vt 0.246652 0.244221 0.0
vt -0.003701 0.244254 0.0
vt -0.003348 0.494221 0.0
vn 0.610981 -0.095706 -0.785821
vn 0.474136 -0.591540 -0.652120
vn 0.127506 -0.676687 -0.725089
vn -0.008057 0.000549 -0.999939
vn 0.596942 0.070162 -0.799188
vn -0.011811 -0.653401 -0.756890
vn 0.702322 0.077853 -0.707572
vn 0.601154 0.511155 -0.614246
vn 0.036042 0.666189 -0.744896
vn -0.000977 0.599048 -0.800684
vn -0.131413 -0.662587 -0.737327
vn -0.606067 -0.528581 -0.594348
vn -0.788507 0.027619 -0.614368
vn -0.827540 0.062899 -0.557817
vn -0.050417 0.655202 -0.753716
vn -0.846492 -0.027894 -0.531602
vn -0.684225 0.438734 -0.582476
vn -0.062258 0.722343 0.688681
vn -0.552660 0.588549 0.590014
vn -0.695090 0.093051 0.712851
vn 0.004975 0.000031 0.999969
vn -0.066836 0.646443 0.760002
vn -0.623341 0.074862 0.778344
vn 0.062410 0.645589 0.761101
vn 0.714591 0.412732 0.564776
vn 0.858333 -0.090152 0.505081
vn 0.859523 0.095676 0.501999
vn -0.635365 -0.089022 0.767022
vn -0.457625 -0.634205 0.623157
vn 0.024445 -0.728050 0.685080
vn 0.020966 -0.752678 0.658010
vn 0.794671 0.088534 0.600482
vn -0.018097 -0.757683 0.652333
vn 0.553514 -0.610706 0.566240
vn 0.885067 0.465346 0.008759
vn 0.999969 -0.002747 -0.005341
vn 0.913388 0.399701 0.076846
vn 0.970367 0.063570 0.233009
vn 0.971526 0.230018 0.056734
vn 0.894650 0.320566 0.311075
vn 0.825221 0.564684 0.010254
vn 0.973083 0.212378 0.089267
vn 0.962584 0.252846 -0.097385
vn 0.969573 0.082980 0.230262
vn 0.963988 -0.091617 0.249550
vn 0.675741 -0.730644 0.097446
vn 0.564379 -0.816218 0.123295
vn 0.974700 -0.148961 -0.166540
vn 0.607013 -0.788293 -0.100406
vn -0.000610 -0.999969 -0.005982
vn 0.078738 -0.988678 0.127598
vn 0.032563 -0.999451 -0.005615
vn 0.011597 -0.979217 0.202338
vn 0.173925 -0.984741 0.002472
vn -0.001038 -0.999878 -0.014801
vn 0.019654 -0.999725 0.011292
vn -0.089145 -0.987426 0.130497
vn -0.672872 -0.739250 0.026612
vn -0.670736 -0.740501 -0.041505
vn -0.178259 -0.983886 -0.013153
vn -0.717948 -0.695608 -0.025208
vn -0.992370 -0.109561 0.056215
vn -0.980834 -0.046754 -0.189062
vn -0.991913 0.126164 0.011750
vn -0.946806 0.158910 -0.279794
vn -0.997223 0.061739 -0.041444
vn -0.991394 0.123020 0.044435
vn -0.984924 0.163335 -0.056917
vn -0.983459 0.024842 -0.179235
vn -0.754967 0.654958 -0.031587
vn -0.812983 0.582263 -0.004303
vn -0.998901 -0.000427 0.046815
vn -0.812281 0.582415 0.030488
vn 0.151372 0.976775 -0.151616
vn 0.172735 0.984771 -0.018250
vn -0.072878 0.986938 -0.143437
vn -0.117038 0.992950 0.018128
vn 0.155095 0.972076 0.175939
vn -0.134739 0.971801 0.193396
vn -0.126926 0.986755 -0.100955
vn -0.209296 0.974639 0.079043
vn -0.180822 0.978393 0.100101
usemtl Material_cave_wall.jpg
s 1
f 28/1/1 2/2/2 33/3/3 21/4/4
s 1
f 9/5/5 28/6/1 21/7/4
s 1
f 21/8/4 33/9/3 12/10/6
s 1
f 27/11/7 9/12/5 21/13/4
s 1
f 1/14/8 27/15/7 21/16/4 29/17/9
s 1
f 29/18/9 21/19/4 10/20/10
s 1
f 21/21/4 12/22/6 34/23/11
s 1
f 21/24/4 34/25/11 3/26/12 37/27/13
s 1
f 21/28/4 37/29/13 14/30/14
s 1
f 10/31/10 21/32/4 30/33/15
s 1
f 21/34/4 14/35/14 38/36/16
s 1
f 30/37/15 21/38/4 38/39/16 4/40/17
s 1
f 46/41/18 8/42/19 50/43/20 22/44/21
s 1
f 18/45/22 46/46/18 22/47/21
s 1
f 22/48/21 50/49/20 20/50/23
s 1
f 45/51/24 18/52/22 22/53/21
s 1
f 5/54/25 45/55/24 22/56/21 43/57/26
s 1
f 43/58/26 22/59/21 17/60/27
s 1
f 22/61/21 20/62/23 49/63/28
s 1
f 22/64/21 49/65/28 7/66/29 48/67/30
s 1
f 22/68/21 48/69/30 19/70/31
s 1
f 17/71/27 22/72/21 44/73/32
s 1
f 22/74/21 19/75/31 47/76/33
s 1
f 44/77/32 22/78/21 47/79/33 6/80/34
s 1
f 32/81/35 5/82/25 43/83/26 67/84/36
s 1
f 11/85/37 32/86/35 67/87/36 52/88/38
s 1
f 67/89/36 43/90/26 17/91/27 51/92/39
s 1
f 52/93/38 67/94/36 51/95/39 23/96/40
s 1
f 31/97/41 11/98/37 52/99/38 68/100/42
s 1
f 1/101/8 31/102/41 68/103/42 27/104/7
s 1
f 68/105/42 52/106/38 23/107/40 53/108/43
s 1
f 27/109/7 68/110/42 53/111/43 9/112/5
s 1
f 51/113/39 17/114/27 44/115/32 69/116/44
s 1
f 23/117/40 51/118/39 69/119/44 54/120/45
s 1
f 69/121/44 44/122/32 6/123/34 36/124/46
s 1
f 54/125/45 69/126/44 36/127/46 13/128/47
s 1
f 53/129/43 23/130/40 54/131/45 70/132/48
s 1
f 9/133/5 53/134/43 70/135/48 28/136/1
s 1
f 70/137/48 54/138/45 13/139/47 35/140/49
s 1
f 28/141/1 70/142/48 35/143/49 2/144/2
s 1
f 36/145/46 6/146/34 47/147/33 71/148/50
s 1
f 13/149/47 36/150/46 71/151/50 56/152/51
s 1
f 71/153/50 47/154/33 19/155/31 55/156/52
s 1
f 56/157/51 71/158/50 55/159/52 24/160/53
s 1
f 35/161/49 13/162/47 56/163/51 72/164/54
s 1
f 2/165/2 35/166/49 72/167/54 33/168/3
s 1
f 72/169/54 56/170/51 24/171/53 57/172/55
s 1
f 33/173/3 72/174/54 57/175/55 12/176/6
s 1
f 55/177/52 19/178/31 48/179/30 73/180/56
s 1
f 24/181/53 55/182/52 73/183/56 58/184/57
s 1
f 73/185/56 48/186/30 7/187/29 40/188/58
s 1
f 58/189/57 73/190/56 40/191/58 15/192/59
s 1
f 57/193/55 24/194/53 58/195/57 74/196/60
s 1
f 12/197/6 57/198/55 74/199/60 34/200/11
s 1
f 74/201/60 58/202/57 15/203/59 39/204/61
s 1
f 34/205/11 74/206/60 39/207/61 3/208/12
s 1
f 40/209/58 7/210/29 49/211/28 75/212/62
s 1
f 15/213/59 40/214/58 75/215/62 60/216/63
s 1
f 75/217/62 49/218/28 20/219/23 59/220/64
s 1
f 60/221/63 75/222/62 59/223/64 25/224/65
s 1
f 39/225/61 15/226/59 60/227/63 76/228/66
s 1
f 3/229/12 39/230/61 76/231/66 37/232/13
s 1
f 76/233/66 60/234/63 25/235/65 61/236/67
s 1
f 37/237/13 76/238/66 61/239/67 14/240/14
s 1
f 59/241/64 20/242/23 50/243/20 77/244/68
s 1
f 25/245/65 59/246/64 77/247/68 62/248/69
s 1
f 77/249/68 50/250/20 8/251/19 42/252/70
s 1
f 62/253/69 77/254/68 42/255/70 16/256/71
s 1
f 61/257/67 25/258/65 62/259/69 78/260/72
s 1
f 14/261/14 61/262/67 78/263/72 38/264/16
s 1
f 78/265/72 62/266/69 16/267/71 41/268/73
s 1
f 38/269/16 78/270/72 41/271/73 4/272/17
s 1
f 31/273/41 1/274/8 29/275/9 79/276/74
s 1
f 11/277/37 31/278/41 79/279/74 64/280/75
s 1
f 79/281/74 29/282/9 10/283/10 63/284/76
s 1
f 64/285/75 79/286/74 63/287/76 26/288/77
s 1
f 32/289/35 11/290/37 64/291/75 80/292/78
s 1
f 5/293/25 32/294/35 80/295/78 45/296/24
s 1
f 80/297/78 64/298/75 26/299/77 65/300/79
s 1
f 45/301/24 80/302/78 65/303/79 18/304/22
s 1
f 63/305/76 10/306/10 30/307/15 81/308/80
s 1
f 26/309/77 63/310/76 81/311/80 66/312/81
s 1
f 81/313/80 30/314/15 4/315/17 41/316/73
s 1
f 66/317/81 81/318/80 41/319/73 16/320/71
s 1
f 65/321/79 26/322/77 66/323/81 82/324/82
s 1
f 18/325/22 65/326/79 82/327/82 46/328/18
s 1
f 82/329/82 66/330/81 16/331/71 42/332/70
s 1
f 46/333/18 82/334/82 42/335/70 8/336/19
