# Blender3D v244 OBJ File: rocksteep.blend
# www.blender3d.org
mtllib rocksteep.mtl
o Cube
v 1.000000 -1.000000 -2.000000
v 1.000000 -1.000000 -0.000000
v -1.000000 -1.000000 -0.000000
v -1.000000 -1.000000 -2.000000
v 1.000000 1.000000 -1.999999
v 0.999999 1.000000 -1.999999
v -1.000000 1.000000 -2.000000
v 1.285496 0.886771 -0.291311
vt 0.000000 0.000000 0.0
vt 0.000000 -1.000000 0.0
vt -1.000000 -1.000000 0.0
vt -1.000000 0.000000 0.0
vt 0.000000 0.500000 0.0
vt -0.000000 1.500000 0.0
vt -1.000000 1.500000 0.0
vt -1.000000 0.500000 0.0
vt 0.000000 0.500000 0.0
vt 0.000000 -0.500000 0.0
vt -1.000000 -0.500000 0.0
vt -1.000000 0.500000 0.0
vt 0.000000 0.500000 0.0
vt 1.000000 1.500000 0.0
vt 1.000000 0.500000 0.0
vn 0.000000 -1.000000 -0.000000
vn 1.000000 0.000000 0.000001
vn 0.000000 0.000000 -1.000000
vn -1.000000 -0.000000 -0.000000
usemtl Material_cave_wall.jpg
s 1
f 1/1/1 2/2/1 3/3/1 4/4/1
f 1/5/2 5/6/2 6/7/2 2/8/2
f 5/9/3 1/10/3 4/11/3 7/12/3
f 3/13/4 7/14/4 4/15/4
