# Blender3D v244 OBJ File: rockcorner.blend
# www.blender3d.org
mtllib rockcorner.mtl
o Cube
v 1.000000 -1.000000 -2.000000
v 1.000000 -1.000000 -0.000000
v -1.000000 -1.000000 -0.000000
v -1.000000 -1.000000 -2.000000
v 1.000000 1.000000 -1.999999
v 0.999999 1.000000 0.000001
v -1.000000 1.000000 -2.000000
vt 0.000000 0.000000 0.0
vt 0.000000 -1.000000 0.0
vt -1.000000 -1.000000 0.0
vt -1.000000 0.000000 0.0
vt 0.000000 0.500000 0.0
vt -0.000000 1.500000 0.0
vt -1.000000 1.500000 0.0
vt -1.000000 0.500000 0.0
vt 0.000000 0.500000 0.0
vt 0.000000 -0.500000 0.0
vt -1.000000 -0.500000 0.0
vt -1.000000 0.500000 0.0
vt 1.000000 0.500000 0.0
vt 2.000000 0.500000 0.0
vt 2.000000 1.500000 0.0
vt 0.000000 0.500000 0.0
vt 1.000000 1.500000 0.0
vt 1.000000 0.500000 0.0
vt 1.000000 0.500000 0.0
vt 0.000000 -0.500000 0.0
vt -0.000000 0.500000 0.0
vt 1.000000 0.500000 0.0
vt 2.000000 1.500000 0.0
vt 1.000000 1.500000 0.0
vn 0.000000 -1.000000 -0.000000
vn 1.000000 0.000000 0.000000
vn 0.000000 0.000000 -1.000000
vn -0.000000 -0.000000 1.000000
vn -1.000000 -0.000000 -0.000000
vn 0.288400 0.913022 -0.288400
vn -0.704886 0.079165 0.704886
vn 0.264534 0.638661 0.722556
vn -0.722556 0.638661 -0.264534
usemtl Material_cave_wall.jpg
s 1
f 1/1/1 2/2/1 3/3/1 4/4/1
f 1/5/2 5/6/2 6/7/2 2/8/2
f 5/9/3 1/10/3 4/11/3 7/12/3
f 3/13/4 2/14/4 6/15/4
f 3/16/5 7/17/5 4/18/5
s 1
f 5/19/6 3/20/7 6/21/8
s 1
f 3/22/7 5/23/6 7/24/9
