# Blender3D v244 OBJ File: wall_cave.blend
# www.blender3d.org
mtllib wall_cave.mtl
o Cube
v 1.064622 1.034413 -0.002196
v 1.064622 -1.034413 -0.002196
v -1.064622 -1.034413 -0.002196
v -1.064622 1.034414 -0.002196
v 1.064623 1.034413 0.247755
v 1.064621 -1.034414 0.247755
v -1.070594 -1.027844 0.243094
v -1.064622 1.034413 0.247755
v 1.107450 0.677201 0.161868
v 1.034663 0.129799 0.360124
v -0.097276 -0.072619 0.323388
v 1.117077 -0.589191 0.250317
v 0.733567 0.953441 0.211623
v 0.203984 1.001361 0.343827
v -0.291595 1.084473 0.260489
v -0.670042 0.967260 0.137169
v 0.584892 -0.981333 0.341686
v 0.236315 -1.107313 0.160332
v -0.376077 -1.053388 0.199298
v 0.603781 -0.625964 0.242166
v -0.247855 -0.648345 0.331486
v -0.979939 -0.174713 0.164550
v -1.072927 0.414783 0.173966
v -0.645152 -0.132438 0.304137
v 0.573616 0.679735 0.278755
v -0.172196 0.581643 0.096438
v 0.283141 -0.575997 0.255094
v -0.700527 0.638986 0.123469
v 0.538199 0.246373 0.334118
v 0.256059 0.022126 0.208846
v -0.257715 0.152290 0.232166
v -0.569915 0.263068 0.331049
vt 0.061591 0.000000 0.0
vt 0.061591 -1.000000 0.0
vt -1.061591 -1.000000 0.0
vt 0.061591 0.000000 0.0
vt -1.061591 -1.000000 0.0
vt -1.061591 0.000000 0.0
vt 0.146551 0.967541 0.0
vt -0.061591 1.000000 0.0
vt -0.065972 0.700492 0.0
vt 0.146551 0.967541 0.0
vt -0.065972 0.700492 0.0
vt 0.130470 0.808864 0.0
vt 0.346183 0.024197 0.0
vt 0.146551 -0.032459 0.0
vt 0.130470 -0.191136 0.0
vt 0.346183 0.024197 0.0
vt 0.130470 -0.191136 0.0
vt 0.409166 -0.218854 0.0
vt 0.607602 0.984024 0.0
vt 0.346183 1.024197 0.0
vt 0.409166 0.781146 0.0
vt 0.061591 0.623877 0.0
vt -0.191468 0.670843 0.0
vt 0.061591 0.498902 0.0
vt 0.886959 0.960861 0.0
vt 0.607602 0.984024 0.0
vt 0.409166 0.781146 0.0
vt 0.886959 0.960861 0.0
vt 0.409166 0.781146 0.0
vt 0.802584 0.828561 0.0
vt 0.061591 1.000000 0.0
vt -0.113041 0.960861 0.0
vt -0.197416 0.828561 0.0
vt 0.061591 1.000000 0.0
vt -0.197416 0.828561 0.0
vt 0.084183 0.827336 0.0
vt 0.061591 0.623877 0.0
vt 0.061591 0.498902 0.0
vt -0.113041 0.605812 0.0
vt 0.130470 0.808864 0.0
vt -0.065972 0.700492 0.0
vt 0.199369 0.627158 0.0
vt 0.409166 0.781146 0.0
vt 0.130470 0.808864 0.0
vt 0.199369 0.627158 0.0
vt 0.409166 0.781146 0.0
vt 0.199369 0.627158 0.0
vt 0.364054 0.573612 0.0
vt 0.301618 0.599649 0.0
vt -0.064741 0.621547 0.0
vt -0.061591 0.498902 0.0
vt 0.409166 0.781146 0.0
vt 0.364054 0.573612 0.0
vt 0.635072 0.510695 0.0
vt 0.802584 0.828561 0.0
vt 0.409166 0.781146 0.0
vt 0.635072 0.510695 0.0
vt 0.802584 0.828561 0.0
vt 0.635072 0.510695 0.0
vt 0.783901 0.619088 0.0
vt 0.084183 0.827336 0.0
vt -0.197416 0.828561 0.0
vt -0.216099 0.619088 0.0
vt 0.084183 0.827336 0.0
vt -0.216099 0.619088 0.0
vt 0.045788 0.562740 0.0
vt 0.199369 0.627158 0.0
vt -0.065972 0.700492 0.0
vt -0.016920 0.415550 0.0
vt 0.199369 0.627158 0.0
vt -0.016920 0.415550 0.0
vt 0.159681 0.435984 0.0
vt 0.364054 0.573612 0.0
vt 0.199369 0.627158 0.0
vt 0.159681 0.435984 0.0
vt 0.364054 0.573612 0.0
vt 0.159681 0.435984 0.0
vt 0.448687 0.464898 0.0
vt 0.635072 0.510695 0.0
vt 0.364054 0.573612 0.0
vt 0.448687 0.464898 0.0
vt 0.415550 0.582275 0.0
vt 0.700492 0.586983 0.0
vt 1.000000 0.498902 0.0
vt 0.415550 0.582275 0.0
vt 1.000000 0.498902 0.0
vt 0.000000 0.498902 0.0
vt 0.783901 0.619088 0.0
vt 0.635072 0.510695 0.0
vt 0.649358 0.221583 0.0
vt 0.045788 0.562740 0.0
vt -0.216099 0.619088 0.0
vt -0.350642 0.221583 0.0
vt 0.061591 0.498902 0.0
vt -1.061591 0.498902 0.0
vt -0.653817 0.630245 0.0
vt 0.159681 0.435984 0.0
vt -0.016920 0.415550 0.0
vt -0.064741 0.003175 0.0
vt 0.159681 0.435984 0.0
vt -0.064741 0.003175 0.0
vt 0.369256 0.186612 0.0
vt 0.448687 0.464898 0.0
vt 0.159681 0.435984 0.0
vt 0.369256 0.186612 0.0
vt 0.808532 0.670843 0.0
vt 0.624657 0.580166 0.0
vt 1.061591 0.498902 0.0
vt 0.635072 0.510695 0.0
vt 0.448687 0.464898 0.0
vt 0.369256 0.186612 0.0
vt 0.635072 0.510695 0.0
vt 0.369256 0.186612 0.0
vt 0.649358 0.221583 0.0
vt 0.146551 0.967541 0.0
vt 0.346183 1.024197 0.0
vt -0.061591 1.000000 0.0
vt 0.886959 0.605812 0.0
vt 1.061591 0.498902 0.0
vt 0.607602 0.671914 0.0
vt 0.045788 0.562740 0.0
vt -0.350642 0.221583 0.0
vt -0.181504 0.197430 0.0
vt 0.045788 0.562740 0.0
vt -0.181504 0.197430 0.0
vt 0.089261 0.215205 0.0
vt 0.938409 0.623877 0.0
vt 1.146551 0.568584 0.0
vt 0.938409 0.498902 0.0
vt 0.369256 0.186612 0.0
vt -0.064741 0.003175 0.0
vt 0.301618 -0.009171 0.0
vt 0.700492 0.586983 0.0
vt 1.000000 0.623877 0.0
vt 1.000000 0.498902 0.0
vt 0.003175 0.621547 0.0
vt 0.415550 0.582275 0.0
vt 0.000000 0.498902 0.0
vt 0.649358 0.221583 0.0
vt 0.369256 0.186612 0.0
vt 0.301618 -0.009171 0.0
vt 0.649358 0.221583 0.0
vt 0.301618 -0.009171 0.0
vt 0.624657 -0.035237 0.0
vt 0.818496 0.197430 0.0
vt 0.649358 0.221583 0.0
vt 0.624657 -0.035237 0.0
vt 0.818496 0.197430 0.0
vt 0.624657 -0.035237 0.0
vt 0.808532 0.025657 0.0
vt 0.089261 0.215205 0.0
vt -0.181504 0.197430 0.0
vt -0.191468 0.025657 0.0
vt 0.089261 0.215205 0.0
vt -0.191468 0.025657 0.0
vt 0.061591 -0.000000 0.0
vt 0.000000 0.498902 0.0
vt 1.000000 0.498902 0.0
vt 0.562740 0.680062 0.0
vt 0.061591 0.498902 0.0
vt -0.653817 0.630245 0.0
vt -0.392398 0.671914 0.0
vt 0.827336 0.580934 0.0
vt 1.000000 0.498902 0.0
vt 1.000000 0.623877 0.0
vt 0.215205 0.625159 0.0
vt -0.000000 0.623877 0.0
vt 0.000000 0.498902 0.0
vt 0.045788 0.562740 0.0
vt 0.061591 1.000000 0.0
vt 0.084183 0.827336 0.0
vt 0.562740 0.680062 0.0
vt 0.215205 0.625159 0.0
vt 0.000000 0.498902 0.0
vt 0.624657 0.580166 0.0
vt 0.301618 0.599649 0.0
vt -0.061591 0.498902 0.0
vt 0.624657 0.580166 0.0
vt -0.061591 0.498902 0.0
vt 1.061591 0.498902 0.0
vn 0.679952 0.576281 -0.453352
vn 0.661885 -0.609821 -0.435865
vn -0.693136 -0.595050 -0.406720
vn -0.733543 0.678884 -0.031404
vn 0.070620 0.569720 0.818751
vn -0.429121 0.599811 0.675314
vn -0.707480 -0.026765 0.706198
vn -0.019562 0.095706 0.995209
vn -0.149602 0.578631 0.801721
vn -0.006928 0.004700 0.999939
vn 0.083651 0.250435 0.964507
vn 0.566057 -0.638386 0.521561
vn -0.109073 -0.516587 0.849239
vn -0.022675 0.464949 0.885006
vn -0.111454 0.107974 0.987854
vn 0.440535 0.603809 0.664327
vn 0.942137 -0.080264 0.325388
vn -0.003357 0.160131 0.987060
vn 0.166723 0.206030 0.964202
vn 0.009766 -0.730003 0.683340
vn -0.607868 -0.502274 0.614948
vn -0.028993 0.141514 0.989502
vn -0.126011 0.118564 0.984893
vn 0.980224 -0.053255 0.190497
vn -0.937620 -0.019074 0.347056
vn -0.069857 0.054292 0.996063
vn 0.127140 0.181616 0.975097
vn -0.055574 -0.064394 0.996368
vn 0.115757 -0.109867 0.987152
vn -0.133915 -0.742515 0.656270
vn -0.206641 0.114170 0.971709
vn 0.775872 0.003143 0.630848
usemtl Material_cave_wall.jpg
s 1
f 1/1/1 2/2/2 3/3/3
s 1
f 1/4/1 3/5/3 4/6/4
s 1
f 16/7/5 8/8/6 23/9/7
s 1
f 16/10/5 23/11/7 28/12/8
s 1
f 15/13/9 16/14/5 28/15/8
s 1
f 15/16/9 28/17/8 26/18/10
s 1
f 14/19/11 15/20/9 26/21/10
s 1
f 6/22/12 17/23/13 2/24/2
s 1
f 13/25/14 14/26/11 26/27/10
s 1
f 13/28/14 26/29/10 25/30/15
s 1
f 5/31/16 13/32/14 25/33/15
s 1
f 5/34/16 25/35/15 9/36/17
s 1
f 5/37/16 1/38/1 13/39/14
s 1
f 28/40/8 23/41/7 32/42/18
s 1
f 26/43/10 28/44/8 32/45/18
s 1
f 26/46/10 32/47/18 31/48/19
s 1
f 19/49/20 7/50/21 3/51/3
s 1
f 26/52/10 31/53/19 30/54/22
s 1
f 25/55/15 26/56/10 30/57/22
s 1
f 25/58/15 30/59/22 29/60/23
s 1
f 9/61/17 25/62/15 29/63/23
s 1
f 9/64/17 29/65/23 10/66/24
s 1
f 32/67/18 23/68/7 22/69/25
s 1
f 32/70/18 22/71/25 24/72/26
s 1
f 31/73/19 32/74/18 24/75/26
s 1
f 31/76/19 24/77/26 11/78/27
s 1
f 30/79/22 31/80/19 11/81/27
s 1
f 22/82/25 23/83/7 4/84/4
s 1
f 22/85/25 4/86/4 3/87/3
s 1
f 29/88/23 30/89/22 27/90/28
s 1
f 10/91/24 29/92/23 27/93/28
s 1
f 1/94/1 4/95/4 15/96/9
s 1
f 24/97/26 22/98/25 7/99/21
s 1
f 24/100/26 7/101/21 21/102/29
s 1
f 11/103/27 24/104/26 21/105/29
s 1
f 17/106/13 18/107/30 2/108/2
s 1
f 30/109/22 11/110/27 21/111/29
s 1
f 30/112/22 21/113/29 27/114/28
s 1
f 16/115/5 15/116/9 4/117/4
s 1
f 13/118/14 1/119/1 14/120/11
s 1
f 10/121/24 27/122/28 20/123/31
s 1
f 10/124/24 20/125/31 12/126/32
s 1
f 8/127/6 16/128/5 4/129/4
s 1
f 21/130/29 7/131/21 19/132/20
s 1
f 23/133/7 8/134/6 4/135/4
s 1
f 7/136/21 22/137/25 3/138/3
s 1
f 27/139/28 21/140/29 19/141/20
s 1
f 27/142/28 19/143/20 18/144/30
s 1
f 20/145/31 27/146/28 18/147/30
s 1
f 20/148/31 18/149/30 17/150/13
s 1
f 12/151/32 20/152/31 17/153/13
s 1
f 12/154/32 17/155/13 6/156/12
s 1
f 2/157/2 1/158/1 10/159/24
s 1
f 1/160/1 15/161/9 14/162/11
s 1
f 9/163/17 1/164/1 5/165/16
s 1
f 12/166/32 6/167/12 2/168/2
s 1
f 10/169/24 1/170/1 9/171/17
s 1
f 10/172/24 12/173/32 2/174/2
s 1
f 18/175/30 19/176/20 3/177/3
s 1
f 18/178/30 3/179/3 2/180/2
